<svg width="183" height="52" viewBox="0 0 183 52" fill="none" xmlns="http://www.w3.org/2000/svg">
<path d="M0.171329 8.39232H0.0712884C0.0712884 8.39232 -0.991557 22.1978 5.09054 34.7989C10.9883 47.0106 19.6743 50.8112 21.5032 51.5374C21.5377 51.5516 21.7344 51.5977 21.7344 51.5977L21.9777 51.6375C22.1586 51.6105 22.3595 51.5912 22.5284 51.5215C24.4348 50.7588 33.0449 46.9282 38.901 34.799C44.4072 23.3927 43.9929 8.38443 43.9929 8.38443C37.8122 7.3627 33.0277 4.16614 31.0916 0H22.9786H21.2565H13.1452C11.2196 4.14379 6.30549 7.35166 0.171329 8.39232Z" fill="#D3BB6D"/>
<path d="M30.7275 1.32207C30.7275 0.970945 30.4188 0.686523 30.0373 0.686523C29.6558 0.686523 29.3471 0.970945 29.3471 1.32207C29.3471 1.67319 29.6558 1.95752 30.0373 1.95752C30.4188 1.95752 30.7275 1.6731 30.7275 1.32207ZM21.2827 50.3166C21.2827 49.9653 21.5915 49.6811 21.9728 49.6811C22.3543 49.6811 22.663 49.9653 22.663 50.3166C22.663 50.6678 22.3543 50.9522 21.9728 50.9522C21.5915 50.9522 21.2827 50.6678 21.2827 50.3166ZM11.2411 42.8689C11.2411 42.5175 11.55 42.2333 11.9313 42.2333C12.3125 42.2333 12.6215 42.5175 12.6215 42.8689C12.6215 43.2199 12.3125 43.5045 11.9313 43.5045C11.5499 43.5045 11.2411 43.2199 11.2411 42.8689ZM5.23332 33.3553C5.23332 33.0042 5.5422 32.7198 5.92352 32.7198C6.30474 32.7198 6.61361 33.0042 6.61361 33.3553C6.61361 33.7065 6.30474 33.9909 5.92352 33.9909C5.5423 33.9909 5.23332 33.7065 5.23332 33.3553ZM1.78959 21.4496C1.78959 21.0984 2.09847 20.814 2.47969 20.814C2.861 20.814 3.16988 21.0984 3.16988 21.4496C3.16988 21.8007 2.861 22.085 2.47969 22.085C2.09847 22.0851 1.78959 21.8008 1.78959 21.4496ZM1.03296 9.76522C1.03296 9.4141 1.34174 9.12977 1.72315 9.12977C2.10437 9.12977 2.41325 9.41419 2.41325 9.76522C2.41325 10.1163 2.10437 10.4008 1.72315 10.4008C1.34174 10.4008 1.03296 10.1163 1.03296 9.76522ZM13.2739 1.32207C13.2739 0.970945 13.5827 0.686523 13.964 0.686523C14.3453 0.686523 14.6542 0.970945 14.6542 1.32207C14.6542 1.67319 14.3453 1.95752 13.964 1.95752C13.5826 1.95752 13.2739 1.6731 13.2739 1.32207ZM32.7597 42.8689C32.7597 42.5175 32.451 42.2333 32.0696 42.2333C31.6883 42.2333 31.3794 42.5175 31.3794 42.8689C31.3794 43.2199 31.6884 43.5045 32.0696 43.5045C32.451 43.5045 32.7597 43.2199 32.7597 42.8689ZM38.7675 33.3553C38.7675 33.0042 38.4584 32.7198 38.0773 32.7198C37.6959 32.7198 37.3872 33.0042 37.3872 33.3553C37.3872 33.7065 37.6959 33.9909 38.0773 33.9909C38.4584 33.9909 38.7675 33.7065 38.7675 33.3553ZM42.2114 21.4496C42.2114 21.0984 41.9024 20.814 41.5211 20.814C41.1396 20.814 40.831 21.0984 40.831 21.4496C40.831 21.8007 41.1396 22.085 41.5211 22.085C41.9024 22.0851 42.2114 21.8008 42.2114 21.4496ZM42.9681 9.76522C42.9681 9.4141 42.6594 9.12977 42.2778 9.12977C41.8967 9.12977 41.5877 9.41419 41.5877 9.76522C41.5877 10.1163 41.8967 10.4008 42.2778 10.4008C42.6593 10.4008 42.9681 10.1163 42.9681 9.76522Z" fill="white"/>
<path d="M30.7275 1.32198C30.7275 0.97077 30.4188 0.686523 30.0373 0.686523C29.6562 0.686523 29.3471 0.97077 29.3471 1.32198C29.3471 1.6731 29.6562 1.95752 30.0373 1.95752C30.4188 1.95761 30.7275 1.67319 30.7275 1.32198ZM21.2827 50.3165C21.2827 49.9655 21.5916 49.681 21.9728 49.681C22.3543 49.681 22.663 49.9655 22.663 50.3165C22.663 50.6677 22.3543 50.9521 21.9728 50.9521C21.5916 50.9521 21.2827 50.6677 21.2827 50.3165ZM11.2411 42.8688C11.2411 42.5176 11.55 42.2332 11.9313 42.2332C12.3126 42.2332 12.6215 42.5176 12.6215 42.8688C12.6215 43.2199 12.3126 43.5044 11.9313 43.5044C11.55 43.5044 11.2411 43.2199 11.2411 42.8688ZM5.23342 33.3554C5.23342 33.0043 5.5423 32.7198 5.92361 32.7198C6.30483 32.7198 6.61371 33.0043 6.61371 33.3554C6.61371 33.7066 6.30474 33.9909 5.92361 33.9909C5.5423 33.9909 5.23342 33.7066 5.23342 33.3554ZM1.78969 21.4495C1.78969 21.0983 2.09847 20.8139 2.47988 20.8139C2.8611 20.8139 3.16998 21.0983 3.16998 21.4495C3.16998 21.8006 2.8611 22.0849 2.47988 22.0849C2.09847 22.085 1.78969 21.8007 1.78969 21.4495ZM1.03296 9.76531C1.03296 9.41401 1.34184 9.12977 1.72315 9.12977C2.10437 9.12977 2.41325 9.41401 2.41325 9.76531C2.41325 10.1164 2.10437 10.4009 1.72315 10.4009C1.34184 10.4009 1.03296 10.1164 1.03296 9.76531ZM13.2739 1.32198C13.2739 0.97077 13.5827 0.686523 13.964 0.686523C14.3453 0.686523 14.6542 0.97077 14.6542 1.32198C14.6542 1.6731 14.3453 1.95752 13.964 1.95752C13.5827 1.95761 13.2739 1.67319 13.2739 1.32198ZM32.7597 42.8688C32.7597 42.5176 32.451 42.2332 32.0696 42.2332C31.6883 42.2332 31.3794 42.5176 31.3794 42.8688C31.3794 43.2199 31.6884 43.5044 32.0696 43.5044C32.451 43.5044 32.7597 43.2199 32.7597 42.8688ZM38.7675 33.3554C38.7675 33.0043 38.4588 32.7198 38.0773 32.7198C37.6962 32.7198 37.3872 33.0043 37.3872 33.3554C37.3872 33.7066 37.6962 33.9909 38.0773 33.9909C38.4588 33.9909 38.7675 33.7066 38.7675 33.3554ZM42.2114 21.4495C42.2114 21.0983 41.9024 20.8139 41.5211 20.8139C41.1396 20.8139 40.831 21.0983 40.831 21.4495C40.831 21.8006 41.1396 22.0849 41.5211 22.0849C41.9024 22.085 42.2114 21.8007 42.2114 21.4495ZM42.9681 9.76531C42.9681 9.41401 42.6594 9.12977 42.2778 9.12977C41.8967 9.12977 41.5877 9.41401 41.5877 9.76531C41.5877 10.1164 41.8967 10.4009 42.2778 10.4009C42.6593 10.4009 42.9681 10.1164 42.9681 9.76531Z" fill="white"/>
<path d="M3.32388 10.2394H3.23755C3.23755 10.2394 2.32138 22.7177 7.55984 33.571C10.605 39.8784 14.5139 43.66 17.4954 45.8122L15.7231 32.4194C15.7558 32.0441 17.9315 30.1724 18.7342 28.4217C19.4536 26.8533 20.7875 23.6305 21.0577 20.8142C20.6974 20.7196 20.4338 20.4144 20.4338 20.0524C20.4338 19.615 20.8191 19.2601 21.2943 19.2601C21.4192 19.2601 21.5379 19.2847 21.6451 19.3288V20.7758L21.6414 20.7773V32.7365C21.6414 34.2536 20.0488 33.3926 20.0488 36.068C20.0488 37.8366 21.3808 40.3989 22.0696 40.3989C23.0732 40.3989 24.0303 36.8578 24.0303 36.068C24.0303 33.3927 22.4377 34.2536 22.4377 32.7365V20.7766L22.4357 20.7758V19.3288C22.5429 19.2846 22.6615 19.26 22.7865 19.26C23.2613 19.26 23.6469 19.6148 23.6469 20.0523C23.6469 20.4176 23.378 20.7251 23.013 20.8167C23.0419 21.2387 23.0851 21.6579 23.141 22.0723C23.7419 26.5246 25.8371 30.4499 28.2771 32.0703L26.5401 45.9576C29.5452 43.8312 33.5629 40.0214 36.6773 33.571C41.4187 23.7472 40.7975 10.233 40.7975 10.233C35.4762 9.35279 31.6181 6.06893 29.9514 2.48145H14.4962C12.8381 6.04999 8.60556 9.34332 3.32388 10.2394Z" fill="#212F70"/>
<path d="M29.9007 7.42869C29.4276 7.3243 28.9548 7.22561 28.4816 7.13393V14.7753C25.9194 15.186 24.8918 15.4544 22.061 17.0768C22.7405 16.8533 25.9622 15.3127 29.9007 16.624C29.9007 15.0922 29.9007 13.5596 29.9007 12.0279C29.9007 10.4962 29.9007 8.96247 29.9007 7.42869ZM27.6704 6.36621C25.9629 6.74152 23.9607 7.35568 22.3398 8.7827V16.0663C24.4099 14.9702 25.8486 14.4396 27.6704 14.1759V6.36621ZM26.9264 12.4222C26.2544 12.5982 25.5777 12.7995 24.9103 13.0492C24.234 13.3022 23.5657 13.6042 22.8934 13.9309C22.8934 14.0743 22.8934 14.2176 22.8934 14.361C23.5657 14.0345 24.234 13.7326 24.9103 13.4796C25.5776 13.2299 26.2544 13.0287 26.9264 12.8526C26.9264 12.7091 26.9264 12.5658 26.9264 12.4222ZM17.1461 12.4222C17.8169 12.5982 18.4938 12.7995 19.1599 13.0492C19.8372 13.3022 20.5059 13.6042 21.1768 13.9309C21.1768 14.0743 21.1768 14.2176 21.1768 14.361C20.5059 14.0345 19.8372 13.7326 19.1599 13.4796C18.4938 13.2299 17.817 13.0287 17.1461 12.8526C17.1461 12.7091 17.1461 12.5658 17.1461 12.4222ZM17.1461 7.96449C17.8169 8.1404 18.4938 8.34173 19.1599 8.59136C19.8372 8.8444 20.5059 9.14635 21.1768 9.47311C21.1768 9.6165 21.1768 9.75981 21.1768 9.90312C20.5059 9.57662 19.8372 9.27485 19.1599 9.02172C18.4938 8.77227 17.817 8.57085 17.1461 8.39494C17.1461 8.25146 17.1461 8.10806 17.1461 7.96449ZM17.1461 9.07886C17.8169 9.25495 18.4938 9.45619 19.1599 9.70573C19.8372 9.95886 20.5059 10.2609 21.1768 10.5876C21.1768 10.731 21.1768 10.8744 21.1768 11.0175C20.5059 10.691 19.8372 10.3892 19.1599 10.1364C18.4938 9.88673 17.817 9.6854 17.1461 9.50931C17.1461 9.36591 17.1461 9.22243 17.1461 9.07886ZM17.1461 10.1933C17.8169 10.3693 18.4938 10.5706 19.1599 10.8202C19.8372 11.0733 20.5059 11.3753 21.1768 11.702C21.1768 11.8453 21.1768 11.9887 21.1768 12.1319C20.5059 11.8055 19.8372 11.5036 19.1599 11.2506C18.4938 11.0009 17.817 10.7997 17.1461 10.6236C17.1461 10.4803 17.1461 10.3369 17.1461 10.1933ZM17.1461 11.3078C17.8169 11.4839 18.4938 11.6852 19.1599 11.9347C19.8372 12.1877 20.5059 12.4898 21.1768 12.8164C21.1768 12.9598 21.1768 13.1033 21.1768 13.2465C20.5059 12.9199 19.8372 12.6181 19.1599 12.3652C18.4938 12.1156 17.817 11.9143 17.1461 11.7382C17.1461 11.5947 17.1461 11.4513 17.1461 11.3078ZM26.9264 7.96449C26.2544 8.1404 25.5777 8.34173 24.9103 8.59136C24.234 8.84423 23.5657 9.14635 22.8934 9.47311C22.8934 9.6165 22.8934 9.75981 22.8934 9.90312C23.5657 9.57662 24.234 9.27485 24.9103 9.02172C25.5776 8.77227 26.2544 8.57085 26.9264 8.39494C26.9264 8.25146 26.9264 8.10806 26.9264 7.96449ZM26.9264 9.07886C26.2544 9.25495 25.5777 9.45619 24.9103 9.70573C24.234 9.95886 23.5657 10.2609 22.8934 10.5876C22.8934 10.731 22.8934 10.8744 22.8934 11.0175C23.5657 10.691 24.234 10.3892 24.9103 10.1364C25.5776 9.88673 26.2544 9.6854 26.9264 9.50931C26.9264 9.36591 26.9264 9.22243 26.9264 9.07886ZM26.9264 10.1933C26.2544 10.3693 25.5777 10.5706 24.9103 10.8202C24.234 11.0733 23.5657 11.3753 22.8934 11.702C22.8934 11.8453 22.8934 11.9887 22.8934 12.1319C23.5657 11.8055 24.234 11.5036 24.9103 11.2506C25.5776 11.0009 26.2544 10.7997 26.9264 10.6236C26.9264 10.4803 26.9264 10.3369 26.9264 10.1933ZM26.9264 11.3078C26.2544 11.4839 25.5777 11.6852 24.9103 11.9347C24.234 12.1877 23.5657 12.4898 22.8934 12.8164C22.8934 12.9598 22.8934 13.1033 22.8934 13.2465C23.5657 12.9199 24.234 12.6181 24.9103 12.3652C25.5776 12.1156 26.2544 11.9143 26.9264 11.7382C26.9264 11.5947 26.9264 11.4513 26.9264 11.3078ZM16.4015 6.36621C18.1101 6.74152 20.1106 7.35568 21.7325 8.7827V16.0663C19.6623 14.9702 18.2221 14.4396 16.4015 14.1759V6.36621ZM14.0996 7.42869C14.5721 7.3243 15.0459 7.22561 15.5184 7.13393V14.7753C18.0808 15.186 19.1082 15.4544 21.9394 17.0768C21.2595 16.8533 18.038 15.3127 14.0997 16.624C14.0997 15.0922 14.0997 13.5596 14.0997 12.0279C14.0996 10.4962 14.0996 8.96247 14.0996 7.42869Z" fill="white"/>
<path d="M34.1469 28.7247C32.8629 31.8875 33.0273 34.7298 34.6403 37.2516C35.3466 36.1327 36.0314 34.9087 36.6772 33.571C37.6733 31.5072 38.4326 29.2804 39.011 27.0505C39.8012 24.0018 40.2533 20.9469 40.5083 18.2932C40.9546 13.6483 40.7974 10.2328 40.7974 10.2328C38.6857 9.88351 36.8042 9.15567 35.199 8.18066C33.809 10.6504 33.4257 13.7107 34.0488 17.3613C34.1557 17.986 34.2918 18.6279 34.4574 19.287C35.4067 21.7916 35.645 24.0774 35.1721 26.144C34.9658 27.0459 34.6237 27.9062 34.1469 28.7247Z" fill="#E30016"/>
<path d="M37.7007 16.9798C38.4605 17.4511 39.1949 18.0864 40.5084 18.2932C40.9546 13.6483 40.7974 10.2328 40.7974 10.2328C38.6857 9.88351 36.8042 9.15567 35.1991 8.18066C33.809 10.6504 33.4258 13.7107 34.0489 17.3613C35.4289 16.7754 36.7762 16.4067 37.7007 16.9798Z" fill="white" stroke="white" stroke-width="0.216"/>
<path d="M35.172 26.1436C36.4772 25.6979 37.7568 25.9999 39.0109 27.05C38.4325 29.2799 37.6733 31.5067 36.6771 33.5705C36.0314 34.9082 35.3465 36.1323 34.6402 37.2512C33.0273 34.7293 32.8629 31.887 34.1468 28.7242C34.6237 27.9058 34.9658 27.0455 35.172 26.1436Z" fill="#FFEC00"/>
<path d="M58.6284 17.4678C58.6284 15.9232 59.0431 14.715 59.8726 13.8433C60.702 12.9673 61.7726 12.5293 63.0845 12.5293C63.9435 12.5293 64.7179 12.7345 65.4077 13.145C66.0975 13.5555 66.6222 14.1289 66.9819 14.8652C67.3459 15.5973 67.5278 16.4289 67.5278 17.3599C67.5278 18.3035 67.3374 19.1478 66.9565 19.8926C66.5757 20.6374 66.0361 21.2023 65.3379 21.5874C64.6396 21.9683 63.8864 22.1587 63.0781 22.1587C62.2021 22.1587 61.4193 21.9471 60.7295 21.5239C60.0397 21.1007 59.5171 20.5231 59.1616 19.791C58.8062 19.0589 58.6284 18.2845 58.6284 17.4678ZM59.8979 17.4868C59.8979 18.6082 60.1984 19.4927 60.7993 20.1401C61.4045 20.7834 62.1619 21.105 63.0718 21.105C63.9985 21.105 64.7603 20.7791 65.3569 20.1274C65.9578 19.4757 66.2583 18.5511 66.2583 17.3535C66.2583 16.596 66.1292 15.9359 65.8711 15.373C65.6172 14.806 65.2427 14.368 64.7476 14.0591C64.2567 13.7459 63.7044 13.5894 63.0908 13.5894C62.2191 13.5894 61.4679 13.8898 60.8374 14.4907C60.2111 15.0874 59.8979 16.0861 59.8979 17.4868ZM68.3594 15.2588H73.8374V16.2046H71.6665V22H70.5303V16.2046H68.3594V15.2588ZM74.9229 15.2588H76.0654V18.1724C76.4294 18.1724 76.6833 18.1025 76.8271 17.9629C76.9753 17.8232 77.1911 17.417 77.4746 16.7441C77.6989 16.2109 77.8809 15.8597 78.0205 15.6904C78.1602 15.5212 78.321 15.4069 78.5029 15.3477C78.6849 15.2884 78.9769 15.2588 79.3789 15.2588H79.6074V16.2046L79.29 16.1982C78.9896 16.1982 78.797 16.2427 78.7124 16.3315C78.6235 16.4246 78.4881 16.7018 78.3062 17.1631C78.1326 17.6032 77.974 17.9079 77.8301 18.0771C77.6862 18.2464 77.464 18.4009 77.1636 18.5405C77.6545 18.6717 78.1369 19.1287 78.6108 19.9116L79.8613 22H78.6045L77.3857 19.9116C77.1361 19.4927 76.9181 19.2176 76.7319 19.0864C76.5457 18.951 76.3236 18.8833 76.0654 18.8833V22H74.9229V15.2588ZM80.6167 24.5835V15.2588H81.6577V16.1348C81.9032 15.792 82.1803 15.536 82.4893 15.3667C82.7982 15.1932 83.1727 15.1064 83.6128 15.1064C84.1883 15.1064 84.6961 15.2546 85.1362 15.5508C85.5763 15.847 85.9085 16.266 86.1328 16.8076C86.3571 17.3451 86.4692 17.9354 86.4692 18.5786C86.4692 19.2684 86.3444 19.8905 86.0947 20.4448C85.8493 20.995 85.4896 21.4181 85.0156 21.7144C84.5459 22.0063 84.0508 22.1523 83.5303 22.1523C83.1494 22.1523 82.8066 22.0719 82.502 21.9111C82.2015 21.7503 81.9539 21.5472 81.7593 21.3018V24.5835H80.6167ZM81.6514 18.6675C81.6514 19.535 81.827 20.1761 82.1782 20.5908C82.5295 21.0055 82.9548 21.2129 83.4541 21.2129C83.9619 21.2129 84.3957 20.9992 84.7554 20.5718C85.1193 20.1401 85.3013 19.4736 85.3013 18.5723C85.3013 17.7132 85.1235 17.07 84.7681 16.6426C84.4168 16.2152 83.9958 16.0015 83.5049 16.0015C83.0182 16.0015 82.5866 16.23 82.21 16.687C81.8376 17.1398 81.6514 17.8 81.6514 18.6675ZM94.2705 15.2588H95.4131V22H94.2705V15.2588ZM87.8784 15.2588H89.021V17.8931H90.4683C91.4119 17.8931 92.1377 18.0771 92.6455 18.4453C93.1576 18.8092 93.4136 19.3128 93.4136 19.9561C93.4136 20.5189 93.1999 21.0013 92.7725 21.4033C92.3493 21.8011 91.6701 22 90.7349 22H87.8784V15.2588ZM89.021 21.0605H90.2207C90.9443 21.0605 91.4606 20.9717 91.7695 20.7939C92.0785 20.6162 92.2329 20.339 92.2329 19.9624C92.2329 19.6704 92.1187 19.4102 91.8901 19.1816C91.6616 18.9531 91.1559 18.8389 90.373 18.8389H89.021V21.0605ZM96.5811 15.2588H102.059V16.2046H99.8882V22H98.752V16.2046H96.5811V15.2588ZM109.568 15.2588H110.711V22H109.568V15.2588ZM103.176 15.2588H104.319V17.8931H105.766C106.71 17.8931 107.436 18.0771 107.943 18.4453C108.455 18.8092 108.711 19.3128 108.711 19.9561C108.711 20.5189 108.498 21.0013 108.07 21.4033C107.647 21.8011 106.968 22 106.033 22H103.176V15.2588ZM104.319 21.0605H105.519C106.242 21.0605 106.758 20.9717 107.067 20.7939C107.376 20.6162 107.531 20.339 107.531 19.9624C107.531 19.6704 107.417 19.4102 107.188 19.1816C106.959 18.9531 106.454 18.8389 105.671 18.8389H104.319V21.0605ZM112.495 15.2588H113.637V20.4004L116.805 15.2588H118.036V22H116.894V16.8901L113.726 22H112.495V15.2588ZM116.462 12.707H117.243C117.179 13.236 116.985 13.6423 116.659 13.9258C116.337 14.2093 115.908 14.3511 115.37 14.3511C114.828 14.3511 114.395 14.2114 114.069 13.9321C113.747 13.6486 113.555 13.2402 113.491 12.707H114.272C114.331 12.9948 114.448 13.2106 114.621 13.3545C114.799 13.4941 115.036 13.564 115.332 13.564C115.675 13.564 115.933 13.4963 116.106 13.3608C116.284 13.2212 116.403 13.0033 116.462 12.707ZM123.375 15.2588H124.517V20.4004L127.685 15.2588H128.916V22H127.773V16.8901L124.606 22H123.375V15.2588ZM130.643 15.2588H131.785V18.0645H134.953V15.2588H136.095V22H134.953V19.0103H131.785V22H130.643V15.2588ZM142.221 19.5308L143.344 19.6768C143.222 20.4512 142.906 21.0584 142.398 21.4985C141.895 21.9344 141.275 22.1523 140.539 22.1523C139.616 22.1523 138.873 21.8519 138.311 21.251C137.752 20.6458 137.473 19.7804 137.473 18.6548C137.473 17.9269 137.593 17.29 137.834 16.7441C138.076 16.1982 138.442 15.7899 138.933 15.519C139.428 15.244 139.965 15.1064 140.545 15.1064C141.277 15.1064 141.876 15.2926 142.341 15.665C142.807 16.0332 143.105 16.5579 143.236 17.2393L142.125 17.4106C142.02 16.9578 141.831 16.6172 141.561 16.3887C141.294 16.1602 140.97 16.0459 140.589 16.0459C140.014 16.0459 139.546 16.2533 139.187 16.668C138.827 17.0785 138.647 17.7301 138.647 18.623C138.647 19.5286 138.82 20.1867 139.167 20.5972C139.514 21.0076 139.967 21.2129 140.526 21.2129C140.974 21.2129 141.349 21.0754 141.649 20.8003C141.95 20.5252 142.14 20.1021 142.221 19.5308ZM143.706 15.2588H149.184V16.2046H147.013V22H145.877V16.2046H143.706V15.2588ZM150.276 15.2588H151.418V20.4004L154.586 15.2588H155.817V22H154.675V16.8901L151.507 22H150.276V15.2588ZM156.922 15.2588H162.4V16.2046H160.229V22H159.093V16.2046H156.922V15.2588ZM163.593 24.5962L163.466 23.5234C163.716 23.5911 163.934 23.625 164.12 23.625C164.374 23.625 164.577 23.5827 164.729 23.498C164.882 23.4134 165.007 23.2949 165.104 23.1426C165.176 23.0283 165.292 22.7448 165.453 22.292C165.474 22.2285 165.508 22.1354 165.555 22.0127L162.997 15.2588H164.228L165.631 19.1626C165.813 19.6577 165.976 20.1782 166.12 20.7241C166.251 20.1994 166.407 19.6873 166.589 19.188L168.03 15.2588H169.173L166.608 22.1143C166.333 22.8548 166.12 23.3647 165.967 23.644C165.764 24.0207 165.531 24.2957 165.269 24.4692C165.007 24.647 164.694 24.7358 164.33 24.7358C164.11 24.7358 163.864 24.6893 163.593 24.5962ZM169.528 15.2588H175.006V16.2046H172.835V22H171.699V16.2046H169.528V15.2588ZM59.041 29.6943H60.2725V33.8711H62.0625C62.1514 32.5508 62.5851 31.4992 63.3638 30.7163C64.1424 29.9292 65.1073 29.5356 66.2583 29.5356C67.4728 29.5356 68.4779 29.9631 69.2734 30.8179C70.0732 31.6727 70.4731 32.8322 70.4731 34.2964C70.4731 35.8198 70.0754 37.0111 69.2798 37.8701C68.4842 38.7292 67.4665 39.1587 66.2266 39.1587C65.1009 39.1587 64.1615 38.7884 63.4082 38.0479C62.6592 37.3031 62.2191 36.2747 62.0879 34.9629H60.2725V39H59.041V29.6943ZM63.3003 34.3916C63.3003 35.568 63.5711 36.4821 64.1128 37.1338C64.6545 37.7812 65.3654 38.105 66.2456 38.105C67.147 38.105 67.8664 37.7791 68.4038 37.1274C68.9412 36.4757 69.21 35.5384 69.21 34.3154C69.21 33.1559 68.9455 32.244 68.4165 31.5796C67.8875 30.911 67.1724 30.5767 66.271 30.5767C65.3527 30.5767 64.627 30.9152 64.0938 31.5923C63.5648 32.2651 63.3003 33.1982 63.3003 34.3916ZM76.0718 32.2588V35.1724C76.4357 35.1724 76.6917 35.1025 76.8398 34.9629C76.988 34.8232 77.2038 34.417 77.4873 33.7441C77.7539 33.1051 77.993 32.6968 78.2046 32.519C78.4119 32.3455 78.742 32.2588 79.1948 32.2588H79.6138V33.2046L79.3027 33.1982C78.998 33.1982 78.8034 33.2427 78.7188 33.3315C78.6299 33.4246 78.4945 33.7018 78.3125 34.1631C78.1432 34.6032 77.9867 34.9079 77.8428 35.0771C77.6989 35.2464 77.4746 35.4009 77.1699 35.5405C77.665 35.6717 78.1475 36.1287 78.6172 36.9116L79.874 39H78.6172L77.3921 36.9116C77.1424 36.4884 76.9245 36.2113 76.7383 36.0801C76.5521 35.9489 76.3299 35.8833 76.0718 35.8833V39H74.9038V35.8833C74.6499 35.8833 74.4299 35.9489 74.2437 36.0801C74.0575 36.207 73.8395 36.4842 73.5898 36.9116L72.3647 39H71.1079L72.3584 36.9116C72.8324 36.1287 73.3169 35.6717 73.812 35.5405C73.4735 35.384 73.2365 35.2147 73.1011 35.0327C72.9657 34.8465 72.7625 34.4064 72.4917 33.7124C72.3986 33.4797 72.2992 33.3358 72.1934 33.2808C72.0833 33.2257 71.9204 33.1982 71.7046 33.1982C71.6496 33.1982 71.5374 33.2004 71.3682 33.2046V32.2588H71.5269C71.967 32.2588 72.2759 32.2863 72.4536 32.3413C72.6356 32.3921 72.7964 32.5042 72.936 32.6777C73.0799 32.847 73.2661 33.2025 73.4946 33.7441C73.7739 34.4085 73.9855 34.8127 74.1294 34.9565C74.2775 35.1004 74.5356 35.1724 74.9038 35.1724V32.2588H76.0718ZM80.6992 32.2588H81.8418V35.0645H85.0093V32.2588H86.1519V39H85.0093V36.0103H81.8418V39H80.6992V32.2588ZM87.4531 35.6294C87.4531 34.381 87.8001 33.4564 88.4941 32.8555C89.0739 32.3561 89.7806 32.1064 90.6143 32.1064C91.541 32.1064 92.2985 32.4111 92.8867 33.0205C93.4749 33.6257 93.769 34.4635 93.769 35.5342C93.769 36.4017 93.6379 37.0851 93.3755 37.5845C93.1174 38.0796 92.7386 38.4647 92.2393 38.7397C91.7441 39.0148 91.2025 39.1523 90.6143 39.1523C89.6706 39.1523 88.9067 38.8498 88.3228 38.2446C87.743 37.6395 87.4531 36.7677 87.4531 35.6294ZM88.6274 35.6294C88.6274 36.4927 88.8158 37.1401 89.1924 37.5718C89.569 37.9992 90.043 38.2129 90.6143 38.2129C91.1813 38.2129 91.6532 37.9971 92.0298 37.5654C92.4064 37.1338 92.5947 36.4757 92.5947 35.5913C92.5947 34.7576 92.4043 34.1271 92.0234 33.6997C91.6468 33.2681 91.1771 33.0522 90.6143 33.0522C90.043 33.0522 89.569 33.266 89.1924 33.6934C88.8158 34.1208 88.6274 34.7661 88.6274 35.6294ZM95.1147 32.2588H96.2573V37.4004L99.4248 32.2588H100.656V39H99.5137V33.8901L96.3462 39H95.1147V32.2588ZM99.082 29.707H99.8628C99.7993 30.236 99.6047 30.6423 99.2788 30.9258C98.9572 31.2093 98.5277 31.3511 97.9902 31.3511C97.4486 31.3511 97.0148 31.2114 96.689 30.9321C96.3674 30.6486 96.1748 30.2402 96.1113 29.707H96.8921C96.9513 29.9948 97.0677 30.2106 97.2412 30.3545C97.4189 30.4941 97.6559 30.564 97.9521 30.564C98.2949 30.564 98.5531 30.4963 98.7266 30.3608C98.9043 30.2212 99.0228 30.0033 99.082 29.707ZM105.766 34.4678C105.766 32.9232 106.181 31.715 107.01 30.8433C107.84 29.9673 108.91 29.5293 110.222 29.5293C111.081 29.5293 111.856 29.7345 112.545 30.145C113.235 30.5555 113.76 31.1289 114.12 31.8652C114.484 32.5973 114.666 33.4289 114.666 34.3599C114.666 35.3035 114.475 36.1478 114.094 36.8926C113.713 37.6374 113.174 38.2023 112.476 38.5874C111.777 38.9683 111.024 39.1587 110.216 39.1587C109.34 39.1587 108.557 38.9471 107.867 38.5239C107.177 38.1007 106.655 37.5231 106.299 36.791C105.944 36.0589 105.766 35.2845 105.766 34.4678ZM107.036 34.4868C107.036 35.6082 107.336 36.4927 107.937 37.1401C108.542 37.7834 109.3 38.105 110.209 38.105C111.136 38.105 111.898 37.7791 112.495 37.1274C113.096 36.4757 113.396 35.5511 113.396 34.3535C113.396 33.596 113.267 32.9359 113.009 32.373C112.755 31.806 112.38 31.368 111.885 31.0591C111.394 30.7459 110.842 30.5894 110.229 30.5894C109.357 30.5894 108.606 30.8898 107.975 31.4907C107.349 32.0874 107.036 33.0861 107.036 34.4868ZM120.512 36.5308L121.635 36.6768C121.513 37.4512 121.197 38.0584 120.689 38.4985C120.186 38.9344 119.566 39.1523 118.83 39.1523C117.907 39.1523 117.164 38.8519 116.602 38.251C116.043 37.6458 115.764 36.7804 115.764 35.6548C115.764 34.9269 115.884 34.29 116.125 33.7441C116.367 33.1982 116.733 32.7899 117.224 32.519C117.719 32.244 118.256 32.1064 118.836 32.1064C119.568 32.1064 120.167 32.2926 120.632 32.665C121.098 33.0332 121.396 33.5579 121.527 34.2393L120.417 34.4106C120.311 33.9578 120.122 33.6172 119.852 33.3887C119.585 33.1602 119.261 33.0459 118.88 33.0459C118.305 33.0459 117.837 33.2533 117.478 33.668C117.118 34.0785 116.938 34.7301 116.938 35.623C116.938 36.5286 117.111 37.1867 117.458 37.5972C117.806 38.0076 118.258 38.2129 118.817 38.2129C119.265 38.2129 119.64 38.0754 119.94 37.8003C120.241 37.5252 120.431 37.1021 120.512 36.5308ZM127.228 36.8291L128.408 36.9751C128.222 37.6649 127.877 38.2002 127.374 38.5811C126.87 38.9619 126.227 39.1523 125.444 39.1523C124.458 39.1523 123.675 38.8498 123.095 38.2446C122.52 37.6353 122.232 36.7826 122.232 35.6865C122.232 34.5524 122.524 33.6722 123.108 33.0459C123.692 32.4196 124.449 32.1064 125.38 32.1064C126.282 32.1064 127.018 32.4132 127.589 33.0269C128.161 33.6405 128.446 34.5037 128.446 35.6167C128.446 35.6844 128.444 35.786 128.44 35.9214H123.413C123.455 36.6619 123.664 37.229 124.041 37.6226C124.418 38.0161 124.887 38.2129 125.45 38.2129C125.869 38.2129 126.227 38.1029 126.523 37.8828C126.819 37.6628 127.054 37.3115 127.228 36.8291ZM123.476 34.9819H127.24C127.189 34.4149 127.046 33.9896 126.809 33.7061C126.445 33.266 125.973 33.0459 125.393 33.0459C124.868 33.0459 124.426 33.2215 124.066 33.5728C123.711 33.924 123.514 34.3937 123.476 34.9819ZM128.802 32.2588H134.28V33.2046H132.109V39H130.973V33.2046H128.802V32.2588ZM135.372 32.2588H136.514V37.4004L139.682 32.2588H140.913V39H139.771V33.8901L136.603 39H135.372V32.2588ZM142.633 32.2588H143.776V37.4004L146.943 32.2588H148.175V39H147.032V33.8901L143.865 39H142.633V32.2588Z" fill="black"/>
</svg>
