<svg width="33" height="34" viewBox="0 0 33 34" fill="none" xmlns="http://www.w3.org/2000/svg">
<rect width="33" height="34" fill="#E5E5E5"/>
<g clip-path="url(#clip0)">
<rect x="-917" y="-3403" width="1440" height="8783" fill="#F6F6F6"/>
<rect x="-917" y="-346" width="1440" height="503" fill="white"/>
<path d="M5 -11.2058C9.43007 -13.7635 11.4571 -14.9204 13.5892 -15.3736C15.5083 -15.7815 17.4917 -15.7815 19.4108 -15.3736C21.5429 -14.9204 23.5699 -13.7635 28 -11.2058L36.476 -6.31218C40.906 -3.75448 42.9214 -2.57747 44.38 -0.957575C45.6928 0.500435 46.6845 2.21809 47.2907 4.08402C47.9643 6.15711 47.976 8.491 47.976 13.6064V23.3936C47.976 28.509 47.9643 30.8429 47.2907 32.916C46.6845 34.7819 45.6928 36.4996 44.38 37.9576C42.9214 39.5775 40.906 40.7545 36.476 43.3122L28 48.2058C23.5699 50.7635 21.5429 51.9204 19.4108 52.3736C17.4917 52.7815 15.5083 52.7815 13.5892 52.3736C11.4571 51.9204 9.43007 50.7635 5 48.2058L-3.47595 43.3122C-7.90602 40.7545 -9.92142 39.5775 -11.38 37.9576C-12.6928 36.4996 -13.6845 34.7819 -14.2907 32.916C-14.9643 30.8429 -14.976 28.509 -14.976 23.3936V13.6064C-14.976 8.491 -14.9643 6.15711 -14.2907 4.08402C-13.6845 2.21809 -12.6928 0.500435 -11.38 -0.957575C-9.92142 -2.57747 -7.90602 -3.75448 -3.47595 -6.31218L5 -11.2058Z" stroke="#EFA921" stroke-width="2"/>
<path d="M30.7123 26.0273C30.3785 24.2343 29.0431 22.79 27.3738 22.3915L21.6985 20.997L19.9815 18.5565C21.5554 17.2616 22.7477 15.3192 22.8431 13.1776C23.2723 12.7792 24.6077 11.534 24.56 10.2391C24.5123 8.99399 23.7492 8.89438 23.4631 8.89438C23.4154 8.89438 23.3677 8.89438 23.3677 8.89438L23.5585 6.90217C23.7015 4.46173 22.5569 3.61504 21.8415 3.36602C21.46 3.2166 21.0308 2.96758 20.5062 2.66875C17.4062 0.825964 15.7369 0.975379 15.4508 1.02518C12.3985 1.02518 11.4923 2.66875 11.2538 3.31621C8.63077 3.61504 8.77385 6.30452 8.82154 7.59945C8.82154 7.79867 8.82154 7.99789 8.82154 8.19711C8.82154 8.29672 8.82154 8.44613 8.82154 8.54574C8.82154 8.59555 8.82154 8.64535 8.82154 8.64535C8.82154 8.74496 8.82154 8.89438 8.86923 8.99399C8.53538 8.99399 7.82 9.1434 7.82 10.3387C7.77231 11.6337 9.10769 12.8788 9.53692 13.2772C9.63231 15.369 10.8723 17.3114 12.3985 18.5565L10.6815 21.0966L5.62615 22.3915C3.90923 22.79 2.57385 24.2343 2.24 26.0771L1 33H32L30.7123 26.0273ZM11.5877 4.06329H11.8738L11.9215 3.76446C11.9215 3.66485 12.3508 1.77226 15.5462 1.77226H15.5938C15.5938 1.77226 15.6892 1.77226 15.8323 1.77226C16.3569 1.77226 17.7877 1.92167 20.1723 3.36602C20.7446 3.71465 21.1738 3.91387 21.6031 4.11309C22.1277 4.31231 22.9385 4.95978 22.8431 6.90217L22.7 8.29672C21.0308 6.60334 18.5985 7.40023 18.3123 7.54964C14.6877 8.29672 13.4477 8.04769 12.2077 7.79867C11.8738 7.74886 11.4923 7.64925 11.0631 7.59945C10.4431 7.49984 9.96615 7.54964 9.58462 7.69906V7.64925C9.48923 5.80646 9.58462 4.1629 11.5877 4.06329ZM10.3 13.1278V12.9286L10.1569 12.829C9.72769 12.4803 8.53538 11.3348 8.58308 10.3885C8.58308 9.79087 8.82154 9.79087 8.96462 9.79087C9.15539 9.79087 9.34615 9.69126 9.48923 9.54184C9.58461 9.39243 9.68 9.19321 9.63231 9.04379C9.63231 8.89438 9.58462 8.74496 9.58462 8.59555C9.58462 8.59555 9.58462 8.49594 9.63231 8.44613C9.72769 8.34652 10.0138 8.19711 10.92 8.29672C11.3015 8.34652 11.6831 8.44613 12.0169 8.49593C13.3523 8.79477 14.64 9.04379 18.4554 8.24691H18.5031C18.5985 8.1971 21.2215 7.1014 22.6523 9.44223C22.6523 9.49204 22.7 9.49204 22.7 9.54184C22.7954 9.64145 22.9385 9.74106 23.1292 9.74106H23.2723C23.32 9.74106 23.4154 9.74106 23.4631 9.74106C23.5585 9.74106 23.8446 9.74106 23.8446 10.3885C23.8446 11.3348 22.7 12.4803 22.2708 12.829L22.1277 12.9286V13.1278C22.1277 16.5643 18.8846 19.453 16.2138 19.453C13.9246 19.3534 10.3477 16.7138 10.3 13.1278ZM1.85846 32.2529L2.95538 26.2265C3.24154 24.6826 4.33846 23.4872 5.76923 23.1386L10.7292 21.9433L13.4 32.3027H1.85846V32.2529ZM14.9738 32.2529L15.5938 25.4794H16.8338L17.4538 32.2529H14.9738ZM16.9292 24.7324H15.4508L14.7354 23.4374H17.5969L16.9292 24.7324ZM18.1215 32.2529L17.5015 25.1806L18.5508 23.288C18.5985 23.1884 18.5985 23.039 18.5508 22.9394C18.5031 22.8398 18.36 22.7402 18.2646 22.7402H14.1631C14.02 22.7402 13.9246 22.79 13.8769 22.9394C13.8292 23.039 13.8292 23.1884 13.8769 23.288L14.9262 25.1806L14.3062 32.2529H14.1154L11.3492 21.5448L13.0662 19.0048C14.0677 19.7021 15.2123 20.1005 16.2138 20.1005C17.2631 20.1005 18.36 19.7021 19.4092 19.0048L21.1262 21.3954L18.36 32.2529H18.1215ZM21.7462 21.7939L27.2308 23.0888C28.6615 23.4374 29.7585 24.6328 30.0446 26.1767L31.1415 32.2529H19.0277L21.7462 21.7939Z" fill="black" stroke="#EFA921"/>
</g>
<defs>
<clipPath id="clip0">
<rect x="-917" y="-3403" width="1440" height="8783" fill="white"/>
</clipPath>
</defs>
</svg>
