<svg width="177" height="46" viewBox="0 0 177 46" fill="none" xmlns="http://www.w3.org/2000/svg">
<path d="M1.51056 8.67319C1.50511 8.91498 1.50114 9.19198 1.50021 9.50127C1.49635 10.7782 1.54425 12.601 1.75231 14.765C2.16965 19.1053 3.22551 24.7541 5.75287 30.1123L1.51056 8.67319ZM1.51056 8.67319C6.25264 7.59768 10.2658 5.02065 12.2691 1.5H18.3579H19.8452H25.9335C27.9083 4.99649 31.7811 7.55806 36.4962 8.64025C36.4927 8.91658 36.4866 9.23662 36.4761 9.59573C36.4363 10.9646 36.3346 12.8963 36.0874 15.1365C35.5904 19.6403 34.5155 25.2886 32.2397 30.1126C27.505 40.1472 20.6419 43.4073 18.9964 44.0975C17.3447 43.4051 10.487 40.1423 5.75302 30.1126L1.51056 8.67319Z" stroke="white" stroke-width="3"/>
<path d="M26.5374 1.16809C26.5374 0.857795 26.2708 0.606445 25.9413 0.606445C25.6118 0.606445 25.3453 0.857795 25.3453 1.16809C25.3453 1.47838 25.6118 1.72965 25.9413 1.72965C26.2708 1.72965 26.5374 1.47831 26.5374 1.16809ZM18.3805 44.4656C18.3805 44.1552 18.6472 43.904 18.9765 43.904C19.306 43.904 19.5726 44.1552 19.5726 44.4656C19.5726 44.7759 19.306 45.0273 18.9765 45.0273C18.6472 45.0273 18.3805 44.7759 18.3805 44.4656ZM9.70819 37.8839C9.70819 37.5734 9.97495 37.3222 10.3043 37.3222C10.6335 37.3222 10.9003 37.5734 10.9003 37.8839C10.9003 38.1941 10.6335 38.4455 10.3043 38.4455C9.97487 38.4455 9.70819 38.1941 9.70819 37.8839ZM4.51968 29.4765C4.51968 29.1662 4.78644 28.915 5.11575 28.915C5.44499 28.915 5.71175 29.1662 5.71175 29.4765C5.71175 29.7869 5.44499 30.0382 5.11575 30.0382C4.78652 30.0382 4.51968 29.7869 4.51968 29.4765ZM1.54555 18.9552C1.54555 18.6449 1.8123 18.3935 2.14154 18.3935C2.47086 18.3935 2.73761 18.6449 2.73761 18.9552C2.73761 19.2655 2.47086 19.5167 2.14154 19.5167C1.8123 19.5168 1.54555 19.2655 1.54555 18.9552ZM0.89209 8.62948C0.89209 8.31919 1.15877 8.06792 1.48817 8.06792C1.8174 8.06792 2.08416 8.31926 2.08416 8.62948C2.08416 8.93978 1.8174 9.19112 1.48817 9.19112C1.15877 9.19112 0.89209 8.93978 0.89209 8.62948ZM11.4638 1.16809C11.4638 0.857795 11.7305 0.606445 12.0598 0.606445C12.3891 0.606445 12.6559 0.857795 12.6559 1.16809C12.6559 1.47838 12.3891 1.72965 12.0598 1.72965C11.7304 1.72965 11.4638 1.47831 11.4638 1.16809ZM28.2924 37.8839C28.2924 37.5734 28.0258 37.3222 27.6964 37.3222C27.3672 37.3222 27.1004 37.5734 27.1004 37.8839C27.1004 38.1941 27.3673 38.4455 27.6964 38.4455C28.0258 38.4455 28.2924 38.1941 28.2924 37.8839ZM33.481 29.4765C33.481 29.1662 33.2141 28.915 32.8849 28.915C32.5555 28.915 32.2889 29.1662 32.2889 29.4765C32.2889 29.7869 32.5555 30.0382 32.8849 30.0382C33.2141 30.0382 33.481 29.7869 33.481 29.4765ZM36.4553 18.9552C36.4553 18.6449 36.1884 18.3935 35.8592 18.3935C35.5297 18.3935 35.2632 18.6449 35.2632 18.9552C35.2632 19.2655 35.5297 19.5167 35.8592 19.5167C36.1884 19.5168 36.4553 19.2655 36.4553 18.9552ZM37.1088 8.62948C37.1088 8.31919 36.8422 8.06792 36.5126 8.06792C36.1835 8.06792 35.9166 8.31926 35.9166 8.62948C35.9166 8.93978 36.1835 9.19112 36.5126 9.19112C36.8421 9.19112 37.1088 8.93978 37.1088 8.62948Z" fill="white"/>
<path d="M26.5374 1.16826C26.5374 0.857884 26.2708 0.606689 25.9413 0.606689C25.6122 0.606689 25.3453 0.857884 25.3453 1.16826C25.3453 1.47855 25.6122 1.7299 25.9413 1.7299C26.2708 1.72998 26.5374 1.47863 26.5374 1.16826ZM18.3805 44.4658C18.3805 44.1556 18.6473 43.9041 18.9765 43.9041C19.306 43.9041 19.5726 44.1556 19.5726 44.4658C19.5726 44.7761 19.306 45.0274 18.9765 45.0274C18.6473 45.0274 18.3805 44.7761 18.3805 44.4658ZM9.70819 37.8841C9.70819 37.5737 9.97495 37.3223 10.3043 37.3223C10.6336 37.3223 10.9003 37.5737 10.9003 37.8841C10.9003 38.1943 10.6336 38.4457 10.3043 38.4457C9.97495 38.4457 9.70819 38.1943 9.70819 37.8841ZM4.51976 29.4768C4.51976 29.1665 4.78652 28.9152 5.11584 28.9152C5.44507 28.9152 5.71183 29.1665 5.71183 29.4768C5.71183 29.7872 5.44499 30.0385 5.11584 30.0385C4.78652 30.0385 4.51976 29.7872 4.51976 29.4768ZM1.54563 18.9553C1.54563 18.645 1.8123 18.3937 2.1417 18.3937C2.47094 18.3937 2.7377 18.645 2.7377 18.9553C2.7377 19.2656 2.47094 19.5169 2.1417 19.5169C1.8123 19.517 1.54563 19.2657 1.54563 18.9553ZM0.89209 8.6298C0.89209 8.31936 1.15885 8.06816 1.48817 8.06816C1.8174 8.06816 2.08416 8.31936 2.08416 8.6298C2.08416 8.9401 1.8174 9.19145 1.48817 9.19145C1.15885 9.19145 0.89209 8.9401 0.89209 8.6298ZM11.4638 1.16826C11.4638 0.857884 11.7305 0.606689 12.0598 0.606689C12.3891 0.606689 12.6559 0.857884 12.6559 1.16826C12.6559 1.47855 12.3891 1.7299 12.0598 1.7299C11.7305 1.72998 11.4638 1.47863 11.4638 1.16826ZM28.2924 37.8841C28.2924 37.5737 28.0258 37.3223 27.6964 37.3223C27.3672 37.3223 27.1004 37.5737 27.1004 37.8841C27.1004 38.1943 27.3673 38.4457 27.6964 38.4457C28.0258 38.4457 28.2924 38.1943 28.2924 37.8841ZM33.481 29.4768C33.481 29.1665 33.2144 28.9152 32.8849 28.9152C32.5558 28.9152 32.2889 29.1665 32.2889 29.4768C32.2889 29.7872 32.5558 30.0385 32.8849 30.0385C33.2144 30.0385 33.481 29.7872 33.481 29.4768ZM36.4553 18.9553C36.4553 18.645 36.1884 18.3937 35.8592 18.3937C35.5297 18.3937 35.2632 18.645 35.2632 18.9553C35.2632 19.2656 35.5297 19.5169 35.8592 19.5169C36.1884 19.517 36.4553 19.2657 36.4553 18.9553ZM37.1088 8.6298C37.1088 8.31936 36.8422 8.06816 36.5126 8.06816C36.1835 8.06816 35.9166 8.31936 35.9166 8.6298C35.9166 8.9401 36.1835 9.19145 36.5126 9.19145C36.8421 9.19145 37.1088 8.9401 37.1088 8.6298Z" fill="#414672"/>
<path d="M25.6279 29.0718C23.6047 29.0718 20.3068 19.5423 19.3014 16.4866V28.2198C19.8694 28.4424 20.2937 29.3025 20.2937 30.3347C20.2937 31.5361 19.7206 32.5105 19.0135 32.5105C18.3066 32.5105 17.7336 31.5361 17.7336 30.3347C17.7336 29.3191 18.1445 28.4739 18.6986 28.2336V16.4866C17.6932 19.5423 14.3953 29.0718 12.3721 29.0718C12.3721 29.0718 16.5893 34.9813 15.9875 42.8674C17.1919 42.8674 19 42.8674 19 42.8674C19 42.8674 20.8076 42.8674 22.0124 42.8674C21.4104 34.9813 25.6279 29.0718 25.6279 29.0718Z" fill="white"/>
<path d="M25.8232 6.56467C25.4145 6.47242 25.0062 6.3852 24.5976 6.30418V13.057C22.3848 13.42 21.4973 13.6571 19.0525 15.0909C19.6393 14.8934 22.4218 13.532 25.8232 14.6907C25.8232 13.3371 25.8232 11.9827 25.8232 10.6291C25.8232 9.27552 25.8232 7.9201 25.8232 6.56467ZM23.897 5.62573C22.4223 5.9574 20.6931 6.50015 19.2932 7.76123V14.1979C21.0811 13.2293 22.3236 12.7603 23.897 12.5273V5.62573ZM23.2544 10.9775C22.674 11.1331 22.0896 11.3109 21.5133 11.5316C20.9292 11.7552 20.3521 12.0221 19.7714 12.3108C19.7714 12.4376 19.7714 12.5642 19.7714 12.6909C20.3521 12.4023 20.9292 12.1356 21.5133 11.912C22.0896 11.6913 22.674 11.5135 23.2544 11.3579C23.2544 11.2311 23.2544 11.1044 23.2544 10.9775ZM14.8078 10.9775C15.3871 11.1331 15.9717 11.3109 16.547 11.5316C17.132 11.7552 17.7095 12.0221 18.2889 12.3108C18.2889 12.4376 18.2889 12.5642 18.2889 12.6909C17.7095 12.4023 17.132 12.1356 16.547 11.912C15.9717 11.6913 15.3872 11.5135 14.8078 11.3579C14.8078 11.2311 14.8078 11.1044 14.8078 10.9775ZM14.8078 7.03817C15.3871 7.19362 15.9717 7.37154 16.547 7.59214C17.132 7.81576 17.7095 8.0826 18.2889 8.37136C18.2889 8.49808 18.2889 8.62473 18.2889 8.75137C17.7095 8.46284 17.132 8.19616 16.547 7.97246C15.9717 7.75202 15.3872 7.57402 14.8078 7.41856C14.8078 7.29176 14.8078 7.16504 14.8078 7.03817ZM14.8078 8.02296C15.3871 8.17857 15.9717 8.35642 16.547 8.57694C17.132 8.80063 17.7095 9.06755 18.2889 9.35623C18.2889 9.48295 18.2889 9.60967 18.2889 9.73616C17.7095 9.44763 17.132 9.18095 16.547 8.95748C15.9717 8.73689 15.3872 8.55897 14.8078 8.40335C14.8078 8.27663 14.8078 8.14984 14.8078 8.02296ZM14.8078 9.00783C15.3871 9.16337 15.9717 9.34121 16.547 9.56181C17.132 9.7855 17.7095 10.0523 18.2889 10.3411C18.2889 10.4677 18.2889 10.5945 18.2889 10.721C17.7095 10.4326 17.132 10.1657 16.547 9.9422C15.9717 9.72152 15.3872 9.54368 14.8078 9.38807C14.8078 9.26143 14.8078 9.13471 14.8078 9.00783ZM14.8078 9.9927C15.3871 10.1483 15.9717 10.3262 16.547 10.5468C17.132 10.7703 17.7095 11.0373 18.2889 11.3259C18.2889 11.4526 18.2889 11.5794 18.2889 11.706C17.7095 11.4174 17.132 11.1507 16.547 10.9271C15.9717 10.7065 15.3872 10.5287 14.8078 10.3731C14.8078 10.2463 14.8078 10.1195 14.8078 9.9927ZM23.2544 7.03817C22.674 7.19362 22.0896 7.37154 21.5133 7.59214C20.9292 7.81561 20.3521 8.0826 19.7714 8.37136C19.7714 8.49808 19.7714 8.62473 19.7714 8.75137C20.3521 8.46284 20.9292 8.19616 21.5133 7.97246C22.0896 7.75202 22.674 7.57402 23.2544 7.41856C23.2544 7.29176 23.2544 7.16504 23.2544 7.03817ZM23.2544 8.02296C22.674 8.17857 22.0896 8.35642 21.5133 8.57694C20.9292 8.80063 20.3521 9.06755 19.7714 9.35623C19.7714 9.48295 19.7714 9.60967 19.7714 9.73616C20.3521 9.44763 20.9292 9.18095 21.5133 8.95748C22.0896 8.73689 22.674 8.55897 23.2544 8.40335C23.2544 8.27663 23.2544 8.14984 23.2544 8.02296ZM23.2544 9.00783C22.674 9.16337 22.0896 9.34121 21.5133 9.56181C20.9292 9.7855 20.3521 10.0523 19.7714 10.3411C19.7714 10.4677 19.7714 10.5945 19.7714 10.721C20.3521 10.4326 20.9292 10.1657 21.5133 9.9422C22.0896 9.72152 22.674 9.54368 23.2544 9.38807C23.2544 9.26143 23.2544 9.13471 23.2544 9.00783ZM23.2544 9.9927C22.674 10.1483 22.0896 10.3262 21.5133 10.5468C20.9292 10.7703 20.3521 11.0373 19.7714 11.3259C19.7714 11.4526 19.7714 11.5794 19.7714 11.706C20.3521 11.4174 20.9292 11.1507 21.5133 10.9271C22.0896 10.7065 22.674 10.5287 23.2544 10.3731C23.2544 10.2463 23.2544 10.1195 23.2544 9.9927ZM14.1647 5.62573C15.6403 5.9574 17.3681 6.50015 18.7688 7.76123V14.1979C16.9809 13.2293 15.7371 12.7603 14.1647 12.5273V5.62573ZM12.1768 6.56467C12.5848 6.47242 12.994 6.3852 13.4021 6.30418V13.057C15.615 13.42 16.5024 13.6571 18.9475 15.0909C18.3603 14.8934 15.5781 13.532 12.1768 14.6907C12.1768 13.3371 12.1768 11.9827 12.1768 10.6291C12.1768 9.27552 12.1768 7.9201 12.1768 6.56467Z" fill="white"/>
<path d="M29.4907 25.3847C28.3818 28.1797 28.5238 30.6915 29.9168 32.9201C30.5268 31.9313 31.1183 30.8496 31.6759 29.6674C32.5362 27.8436 33.192 25.8758 33.6915 23.9051C34.3739 21.2109 34.7644 18.5113 34.9847 16.1661C35.37 12.0614 35.2343 9.043 35.2343 9.043C33.4106 8.73433 31.7856 8.09113 30.3994 7.22949C29.1988 9.41201 28.8679 12.1165 29.406 15.3426C29.4983 15.8947 29.6159 16.4619 29.7588 17.0444C30.5787 19.2578 30.7845 21.2778 30.3761 23.1041C30.198 23.9011 29.9025 24.6614 29.4907 25.3847Z" fill="#E30016"/>
<path d="M32.5595 15.0055C33.2157 15.422 33.8499 15.9834 34.9843 16.1661C35.3697 12.0614 35.234 9.043 35.234 9.043C33.4102 8.73433 31.7853 8.09113 30.399 7.22949C29.1985 9.41201 28.8675 12.1165 29.4056 15.3426C30.5975 14.8248 31.7611 14.499 32.5595 15.0055Z" fill="white" stroke="white" stroke-width="0.216"/>
<path d="M30.376 23.1038C31.5033 22.7099 32.6084 22.9769 33.6914 23.9049C33.1919 25.8755 32.5363 27.8433 31.6759 29.6672C31.1182 30.8493 30.5267 31.9311 29.9168 32.9198C28.5238 30.6912 28.3818 28.1794 29.4906 25.3844C29.9025 24.6611 30.1979 23.9008 30.376 23.1038Z" fill="#FFEC00"/>
<path d="M51.6284 14.4678C51.6284 12.9232 52.0431 11.715 52.8726 10.8433C53.702 9.96729 54.7726 9.5293 56.0845 9.5293C56.9435 9.5293 57.7179 9.73454 58.4077 10.145C59.0975 10.5555 59.6222 11.1289 59.9819 11.8652C60.3459 12.5973 60.5278 13.4289 60.5278 14.3599C60.5278 15.3035 60.3374 16.1478 59.9565 16.8926C59.5757 17.6374 59.0361 18.2023 58.3379 18.5874C57.6396 18.9683 56.8864 19.1587 56.0781 19.1587C55.2021 19.1587 54.4193 18.9471 53.7295 18.5239C53.0397 18.1007 52.5171 17.5231 52.1616 16.791C51.8062 16.0589 51.6284 15.2845 51.6284 14.4678ZM52.8979 14.4868C52.8979 15.6082 53.1984 16.4927 53.7993 17.1401C54.4045 17.7834 55.1619 18.105 56.0718 18.105C56.9985 18.105 57.7603 17.7791 58.3569 17.1274C58.9578 16.4757 59.2583 15.5511 59.2583 14.3535C59.2583 13.596 59.1292 12.9359 58.8711 12.373C58.6172 11.806 58.2427 11.368 57.7476 11.0591C57.2567 10.7459 56.7044 10.5894 56.0908 10.5894C55.2191 10.5894 54.4679 10.8898 53.8374 11.4907C53.2111 12.0874 52.8979 13.0861 52.8979 14.4868ZM61.3594 12.2588H66.8374V13.2046H64.6665V19H63.5303V13.2046H61.3594V12.2588ZM67.9229 12.2588H69.0654V15.1724C69.4294 15.1724 69.6833 15.1025 69.8271 14.9629C69.9753 14.8232 70.1911 14.417 70.4746 13.7441C70.6989 13.2109 70.8809 12.8597 71.0205 12.6904C71.1602 12.5212 71.321 12.4069 71.5029 12.3477C71.6849 12.2884 71.9769 12.2588 72.3789 12.2588H72.6074V13.2046L72.29 13.1982C71.9896 13.1982 71.797 13.2427 71.7124 13.3315C71.6235 13.4246 71.4881 13.7018 71.3062 14.1631C71.1326 14.6032 70.974 14.9079 70.8301 15.0771C70.6862 15.2464 70.464 15.4009 70.1636 15.5405C70.6545 15.6717 71.1369 16.1287 71.6108 16.9116L72.8613 19H71.6045L70.3857 16.9116C70.1361 16.4927 69.9181 16.2176 69.7319 16.0864C69.5457 15.951 69.3236 15.8833 69.0654 15.8833V19H67.9229V12.2588ZM73.6167 21.5835V12.2588H74.6577V13.1348C74.9032 12.792 75.1803 12.536 75.4893 12.3667C75.7982 12.1932 76.1727 12.1064 76.6128 12.1064C77.1883 12.1064 77.6961 12.2546 78.1362 12.5508C78.5763 12.847 78.9085 13.266 79.1328 13.8076C79.3571 14.3451 79.4692 14.9354 79.4692 15.5786C79.4692 16.2684 79.3444 16.8905 79.0947 17.4448C78.8493 17.995 78.4896 18.4181 78.0156 18.7144C77.5459 19.0063 77.0508 19.1523 76.5303 19.1523C76.1494 19.1523 75.8066 19.0719 75.502 18.9111C75.2015 18.7503 74.9539 18.5472 74.7593 18.3018V21.5835H73.6167ZM74.6514 15.6675C74.6514 16.535 74.827 17.1761 75.1782 17.5908C75.5295 18.0055 75.9548 18.2129 76.4541 18.2129C76.9619 18.2129 77.3957 17.9992 77.7554 17.5718C78.1193 17.1401 78.3013 16.4736 78.3013 15.5723C78.3013 14.7132 78.1235 14.07 77.7681 13.6426C77.4168 13.2152 76.9958 13.0015 76.5049 13.0015C76.0182 13.0015 75.5866 13.23 75.21 13.687C74.8376 14.1398 74.6514 14.8 74.6514 15.6675ZM87.2705 12.2588H88.4131V19H87.2705V12.2588ZM80.8784 12.2588H82.021V14.8931H83.4683C84.4119 14.8931 85.1377 15.0771 85.6455 15.4453C86.1576 15.8092 86.4136 16.3128 86.4136 16.9561C86.4136 17.5189 86.1999 18.0013 85.7725 18.4033C85.3493 18.8011 84.6701 19 83.7349 19H80.8784V12.2588ZM82.021 18.0605H83.2207C83.9443 18.0605 84.4606 17.9717 84.7695 17.7939C85.0785 17.6162 85.2329 17.339 85.2329 16.9624C85.2329 16.6704 85.1187 16.4102 84.8901 16.1816C84.6616 15.9531 84.1559 15.8389 83.373 15.8389H82.021V18.0605ZM89.5811 12.2588H95.0591V13.2046H92.8882V19H91.752V13.2046H89.5811V12.2588ZM102.568 12.2588H103.711V19H102.568V12.2588ZM96.1763 12.2588H97.3188V14.8931H98.7661C99.7098 14.8931 100.436 15.0771 100.943 15.4453C101.455 15.8092 101.711 16.3128 101.711 16.9561C101.711 17.5189 101.498 18.0013 101.07 18.4033C100.647 18.8011 99.9679 19 99.0327 19H96.1763V12.2588ZM97.3188 18.0605H98.5186C99.2422 18.0605 99.7585 17.9717 100.067 17.7939C100.376 17.6162 100.531 17.339 100.531 16.9624C100.531 16.6704 100.417 16.4102 100.188 16.1816C99.9595 15.9531 99.4538 15.8389 98.6709 15.8389H97.3188V18.0605ZM105.495 12.2588H106.637V17.4004L109.805 12.2588H111.036V19H109.894V13.8901L106.726 19H105.495V12.2588ZM109.462 9.70703H110.243C110.179 10.236 109.985 10.6423 109.659 10.9258C109.337 11.2093 108.908 11.3511 108.37 11.3511C107.828 11.3511 107.395 11.2114 107.069 10.9321C106.747 10.6486 106.555 10.2402 106.491 9.70703H107.272C107.331 9.99479 107.448 10.2106 107.621 10.3545C107.799 10.4941 108.036 10.564 108.332 10.564C108.675 10.564 108.933 10.4963 109.106 10.3608C109.284 10.2212 109.403 10.0033 109.462 9.70703ZM116.375 12.2588H117.517V17.4004L120.685 12.2588H121.916V19H120.773V13.8901L117.606 19H116.375V12.2588ZM123.643 12.2588H124.785V15.0645H127.953V12.2588H129.095V19H127.953V16.0103H124.785V19H123.643V12.2588ZM135.221 16.5308L136.344 16.6768C136.222 17.4512 135.906 18.0584 135.398 18.4985C134.895 18.9344 134.275 19.1523 133.539 19.1523C132.616 19.1523 131.873 18.8519 131.311 18.251C130.752 17.6458 130.473 16.7804 130.473 15.6548C130.473 14.9269 130.593 14.29 130.834 13.7441C131.076 13.1982 131.442 12.7899 131.933 12.519C132.428 12.244 132.965 12.1064 133.545 12.1064C134.277 12.1064 134.876 12.2926 135.341 12.665C135.807 13.0332 136.105 13.5579 136.236 14.2393L135.125 14.4106C135.02 13.9578 134.831 13.6172 134.561 13.3887C134.294 13.1602 133.97 13.0459 133.589 13.0459C133.014 13.0459 132.546 13.2533 132.187 13.668C131.827 14.0785 131.647 14.7301 131.647 15.623C131.647 16.5286 131.82 17.1867 132.167 17.5972C132.514 18.0076 132.967 18.2129 133.526 18.2129C133.974 18.2129 134.349 18.0754 134.649 17.8003C134.95 17.5252 135.14 17.1021 135.221 16.5308ZM136.706 12.2588H142.184V13.2046H140.013V19H138.877V13.2046H136.706V12.2588ZM143.276 12.2588H144.418V17.4004L147.586 12.2588H148.817V19H147.675V13.8901L144.507 19H143.276V12.2588ZM149.922 12.2588H155.4V13.2046H153.229V19H152.093V13.2046H149.922V12.2588ZM156.593 21.5962L156.466 20.5234C156.716 20.5911 156.934 20.625 157.12 20.625C157.374 20.625 157.577 20.5827 157.729 20.498C157.882 20.4134 158.007 20.2949 158.104 20.1426C158.176 20.0283 158.292 19.7448 158.453 19.292C158.474 19.2285 158.508 19.1354 158.555 19.0127L155.997 12.2588H157.228L158.631 16.1626C158.813 16.6577 158.976 17.1782 159.12 17.7241C159.251 17.1994 159.407 16.6873 159.589 16.188L161.03 12.2588H162.173L159.608 19.1143C159.333 19.8548 159.12 20.3647 158.967 20.644C158.764 21.0207 158.531 21.2957 158.269 21.4692C158.007 21.647 157.694 21.7358 157.33 21.7358C157.11 21.7358 156.864 21.6893 156.593 21.5962ZM162.528 12.2588H168.006V13.2046H165.835V19H164.699V13.2046H162.528V12.2588ZM52.041 26.6943H53.2725V30.8711H55.0625C55.1514 29.5508 55.5851 28.4992 56.3638 27.7163C57.1424 26.9292 58.1073 26.5356 59.2583 26.5356C60.4728 26.5356 61.4779 26.9631 62.2734 27.8179C63.0732 28.6727 63.4731 29.8322 63.4731 31.2964C63.4731 32.8198 63.0754 34.0111 62.2798 34.8701C61.4842 35.7292 60.4665 36.1587 59.2266 36.1587C58.1009 36.1587 57.1615 35.7884 56.4082 35.0479C55.6592 34.3031 55.2191 33.2747 55.0879 31.9629H53.2725V36H52.041V26.6943ZM56.3003 31.3916C56.3003 32.568 56.5711 33.4821 57.1128 34.1338C57.6545 34.7812 58.3654 35.105 59.2456 35.105C60.147 35.105 60.8664 34.7791 61.4038 34.1274C61.9412 33.4757 62.21 32.5384 62.21 31.3154C62.21 30.1559 61.9455 29.244 61.4165 28.5796C60.8875 27.911 60.1724 27.5767 59.271 27.5767C58.3527 27.5767 57.627 27.9152 57.0938 28.5923C56.5648 29.2651 56.3003 30.1982 56.3003 31.3916ZM69.0718 29.2588V32.1724C69.4357 32.1724 69.6917 32.1025 69.8398 31.9629C69.988 31.8232 70.2038 31.417 70.4873 30.7441C70.7539 30.1051 70.993 29.6968 71.2046 29.519C71.4119 29.3455 71.742 29.2588 72.1948 29.2588H72.6138V30.2046L72.3027 30.1982C71.998 30.1982 71.8034 30.2427 71.7188 30.3315C71.6299 30.4246 71.4945 30.7018 71.3125 31.1631C71.1432 31.6032 70.9867 31.9079 70.8428 32.0771C70.6989 32.2464 70.4746 32.4009 70.1699 32.5405C70.665 32.6717 71.1475 33.1287 71.6172 33.9116L72.874 36H71.6172L70.3921 33.9116C70.1424 33.4884 69.9245 33.2113 69.7383 33.0801C69.5521 32.9489 69.3299 32.8833 69.0718 32.8833V36H67.9038V32.8833C67.6499 32.8833 67.4299 32.9489 67.2437 33.0801C67.0575 33.207 66.8395 33.4842 66.5898 33.9116L65.3647 36H64.1079L65.3584 33.9116C65.8324 33.1287 66.3169 32.6717 66.812 32.5405C66.4735 32.384 66.2365 32.2147 66.1011 32.0327C65.9657 31.8465 65.7625 31.4064 65.4917 30.7124C65.3986 30.4797 65.2992 30.3358 65.1934 30.2808C65.0833 30.2257 64.9204 30.1982 64.7046 30.1982C64.6496 30.1982 64.5374 30.2004 64.3682 30.2046V29.2588H64.5269C64.967 29.2588 65.2759 29.2863 65.4536 29.3413C65.6356 29.3921 65.7964 29.5042 65.936 29.6777C66.0799 29.847 66.2661 30.2025 66.4946 30.7441C66.7739 31.4085 66.9855 31.8127 67.1294 31.9565C67.2775 32.1004 67.5356 32.1724 67.9038 32.1724V29.2588H69.0718ZM73.6992 29.2588H74.8418V32.0645H78.0093V29.2588H79.1519V36H78.0093V33.0103H74.8418V36H73.6992V29.2588ZM80.4531 32.6294C80.4531 31.381 80.8001 30.4564 81.4941 29.8555C82.0739 29.3561 82.7806 29.1064 83.6143 29.1064C84.541 29.1064 85.2985 29.4111 85.8867 30.0205C86.4749 30.6257 86.769 31.4635 86.769 32.5342C86.769 33.4017 86.6379 34.0851 86.3755 34.5845C86.1174 35.0796 85.7386 35.4647 85.2393 35.7397C84.7441 36.0148 84.2025 36.1523 83.6143 36.1523C82.6706 36.1523 81.9067 35.8498 81.3228 35.2446C80.743 34.6395 80.4531 33.7677 80.4531 32.6294ZM81.6274 32.6294C81.6274 33.4927 81.8158 34.1401 82.1924 34.5718C82.569 34.9992 83.043 35.2129 83.6143 35.2129C84.1813 35.2129 84.6532 34.9971 85.0298 34.5654C85.4064 34.1338 85.5947 33.4757 85.5947 32.5913C85.5947 31.7576 85.4043 31.1271 85.0234 30.6997C84.6468 30.2681 84.1771 30.0522 83.6143 30.0522C83.043 30.0522 82.569 30.266 82.1924 30.6934C81.8158 31.1208 81.6274 31.7661 81.6274 32.6294ZM88.1147 29.2588H89.2573V34.4004L92.4248 29.2588H93.6562V36H92.5137V30.8901L89.3462 36H88.1147V29.2588ZM92.082 26.707H92.8628C92.7993 27.236 92.6047 27.6423 92.2788 27.9258C91.9572 28.2093 91.5277 28.3511 90.9902 28.3511C90.4486 28.3511 90.0148 28.2114 89.689 27.9321C89.3674 27.6486 89.1748 27.2402 89.1113 26.707H89.8921C89.9513 26.9948 90.0677 27.2106 90.2412 27.3545C90.4189 27.4941 90.6559 27.564 90.9521 27.564C91.2949 27.564 91.5531 27.4963 91.7266 27.3608C91.9043 27.2212 92.0228 27.0033 92.082 26.707ZM98.7661 31.4678C98.7661 29.9232 99.1808 28.715 100.01 27.8433C100.84 26.9673 101.91 26.5293 103.222 26.5293C104.081 26.5293 104.856 26.7345 105.545 27.145C106.235 27.5555 106.76 28.1289 107.12 28.8652C107.484 29.5973 107.666 30.4289 107.666 31.3599C107.666 32.3035 107.475 33.1478 107.094 33.8926C106.713 34.6374 106.174 35.2023 105.476 35.5874C104.777 35.9683 104.024 36.1587 103.216 36.1587C102.34 36.1587 101.557 35.9471 100.867 35.5239C100.177 35.1007 99.6548 34.5231 99.2993 33.791C98.9438 33.0589 98.7661 32.2845 98.7661 31.4678ZM100.036 31.4868C100.036 32.6082 100.336 33.4927 100.937 34.1401C101.542 34.7834 102.3 35.105 103.209 35.105C104.136 35.105 104.898 34.7791 105.495 34.1274C106.096 33.4757 106.396 32.5511 106.396 31.3535C106.396 30.596 106.267 29.9359 106.009 29.373C105.755 28.806 105.38 28.368 104.885 28.0591C104.394 27.7459 103.842 27.5894 103.229 27.5894C102.357 27.5894 101.606 27.8898 100.975 28.4907C100.349 29.0874 100.036 30.0861 100.036 31.4868ZM113.512 33.5308L114.635 33.6768C114.513 34.4512 114.197 35.0584 113.689 35.4985C113.186 35.9344 112.566 36.1523 111.83 36.1523C110.907 36.1523 110.164 35.8519 109.602 35.251C109.043 34.6458 108.764 33.7804 108.764 32.6548C108.764 31.9269 108.884 31.29 109.125 30.7441C109.367 30.1982 109.733 29.7899 110.224 29.519C110.719 29.244 111.256 29.1064 111.836 29.1064C112.568 29.1064 113.167 29.2926 113.632 29.665C114.098 30.0332 114.396 30.5579 114.527 31.2393L113.417 31.4106C113.311 30.9578 113.122 30.6172 112.852 30.3887C112.585 30.1602 112.261 30.0459 111.88 30.0459C111.305 30.0459 110.837 30.2533 110.478 30.668C110.118 31.0785 109.938 31.7301 109.938 32.623C109.938 33.5286 110.111 34.1867 110.458 34.5972C110.806 35.0076 111.258 35.2129 111.817 35.2129C112.265 35.2129 112.64 35.0754 112.94 34.8003C113.241 34.5252 113.431 34.1021 113.512 33.5308ZM120.228 33.8291L121.408 33.9751C121.222 34.6649 120.877 35.2002 120.374 35.5811C119.87 35.9619 119.227 36.1523 118.444 36.1523C117.458 36.1523 116.675 35.8498 116.095 35.2446C115.52 34.6353 115.232 33.7826 115.232 32.6865C115.232 31.5524 115.524 30.6722 116.108 30.0459C116.692 29.4196 117.449 29.1064 118.38 29.1064C119.282 29.1064 120.018 29.4132 120.589 30.0269C121.161 30.6405 121.446 31.5037 121.446 32.6167C121.446 32.6844 121.444 32.786 121.44 32.9214H116.413C116.455 33.6619 116.664 34.229 117.041 34.6226C117.418 35.0161 117.887 35.2129 118.45 35.2129C118.869 35.2129 119.227 35.1029 119.523 34.8828C119.819 34.6628 120.054 34.3115 120.228 33.8291ZM116.476 31.9819H120.24C120.189 31.4149 120.046 30.9896 119.809 30.7061C119.445 30.266 118.973 30.0459 118.393 30.0459C117.868 30.0459 117.426 30.2215 117.066 30.5728C116.711 30.924 116.514 31.3937 116.476 31.9819ZM121.802 29.2588H127.28V30.2046H125.109V36H123.973V30.2046H121.802V29.2588ZM128.372 29.2588H129.514V34.4004L132.682 29.2588H133.913V36H132.771V30.8901L129.603 36H128.372V29.2588ZM135.633 29.2588H136.776V34.4004L139.943 29.2588H141.175V36H140.032V30.8901L136.865 36H135.633V29.2588Z" fill="white"/>
</svg>
