<svg width="15" height="15" viewBox="0 0 15 15" fill="none" xmlns="http://www.w3.org/2000/svg">
<path d="M8.65292 7.50001L14.78 1.37291C15.0733 1.07961 15.0733 0.604086 14.78 0.310782L14.6892 0.219966C14.3959 -0.073322 13.9204 -0.073322 13.6271 0.219966L7.49999 6.34708L1.37289 0.219982C1.07961 -0.0733062 0.60407 -0.0733062 0.310782 0.219982L0.219966 0.310798C-0.073322 0.604101 -0.073322 1.07962 0.219966 1.37293L6.34706 7.50001L0.219966 13.6271C-0.073322 13.9204 -0.073322 14.3959 0.219966 14.6892L0.310766 14.78C0.604054 15.0733 1.07959 15.0733 1.37289 14.78L7.49999 8.65294L13.6271 14.78C13.9204 15.0733 14.3959 15.0733 14.6892 14.78L14.78 14.6892C15.0733 14.396 15.0733 13.9204 14.78 13.6271L8.65292 7.50001Z" fill="#B1ECFF"/>
</svg>
