<svg width="14" height="11" viewBox="0 0 14 11" fill="none" xmlns="http://www.w3.org/2000/svg">
<path d="M12.6583 0H1.34167C0.601844 0 0 0.61694 0 1.37532V9.62468C0 10.3831 0.601844 11 1.34167 11H12.6583C13.3982 11 14 10.3831 14 9.62468V1.37532C14 0.61694 13.3982 0 12.6583 0ZM13.5333 9.62468C13.5333 10.1193 13.1409 10.5216 12.6583 10.5216H1.34167C0.859133 10.5216 0.466667 10.1193 0.466667 9.62468V1.37532C0.466667 0.880682 0.859133 0.478372 1.34167 0.478372H12.6583C13.1409 0.478372 13.5333 0.880682 13.5333 1.37532V9.62468Z" fill="white"/>
<path d="M11.7823 1.86323L6.99994 6.29438L2.21754 1.86307C2.12172 1.77441 1.97426 1.78206 1.88792 1.88013C1.80143 1.97819 1.8089 2.12936 1.90457 2.21802L5.56137 5.60633L2.21506 8.93133C2.1225 9.02334 2.12017 9.17466 2.20992 9.26954C2.25566 9.31801 2.31663 9.34225 2.37746 9.34225C2.43594 9.34225 2.49443 9.31977 2.53986 9.2748L5.90825 5.92779L6.84346 6.79428C6.84532 6.79604 6.84781 6.79652 6.84983 6.79827C6.86959 6.81549 6.89106 6.8292 6.91423 6.83861C6.91766 6.84005 6.92108 6.84069 6.9245 6.84196C6.94877 6.85041 6.97397 6.85599 6.99963 6.85599H6.99979H6.99994C7.02545 6.85599 7.05066 6.85057 7.07508 6.84196C7.0785 6.84069 7.08192 6.84005 7.08534 6.83861C7.10852 6.8292 7.13014 6.81549 7.1499 6.79827C7.15177 6.79652 7.15426 6.79604 7.15612 6.79428L8.09132 5.92779L11.4597 9.2748C11.5051 9.31977 11.5636 9.34225 11.6221 9.34225C11.6831 9.34225 11.7439 9.31801 11.7897 9.26954C11.8794 9.17466 11.8771 9.02334 11.7845 8.93133L8.43852 5.60633L12.0953 2.21802C12.191 2.12936 12.1985 1.97819 12.112 1.88013C12.0253 1.78222 11.8779 1.77457 11.7823 1.86323Z" fill="white"/>
</svg>
