<svg width="44" height="48" viewBox="0 0 44 48" fill="none" xmlns="http://www.w3.org/2000/svg">
<path d="M14.55 4.3649C17.473 2.6773 18.7497 1.95318 20.0827 1.66253C21.3461 1.38708 22.6539 1.38708 23.9173 1.66253C25.2503 1.95318 26.527 2.6773 29.45 4.3649L35.2006 7.68503C38.1236 9.37263 39.3891 10.1162 40.3073 11.1253C41.1775 12.0817 41.8315 13.2143 42.2246 14.4461C42.6394 15.7459 42.6506 17.2136 42.6506 20.5888V27.2291C42.6506 30.6043 42.6394 32.072 42.2246 33.3717C41.8315 34.6035 41.1775 35.7362 40.3073 36.6925C39.3891 37.7017 38.1236 38.4452 35.2006 40.1328L29.45 43.453C26.527 45.1406 25.2503 45.8647 23.9173 46.1553C22.6539 46.4308 21.3461 46.4308 20.0827 46.1553C18.7497 45.8647 17.473 45.1406 14.55 43.453L8.79937 40.1328C5.87636 38.4452 4.61091 37.7017 3.69269 36.6925C2.82246 35.7362 2.16853 34.6035 1.77541 33.3717C1.3606 32.072 1.34937 30.6043 1.34937 27.2291V20.5888C1.34937 17.2136 1.3606 15.7459 1.77541 14.4461C2.16853 13.2143 2.82246 12.0817 3.69269 11.1253C4.61091 10.1162 5.87636 9.37262 8.79936 7.68503L14.55 4.3649Z" stroke="white" stroke-width="2"/>
</svg>
