<svg width="20" height="20" viewBox="0 0 20 20" fill="none" xmlns="http://www.w3.org/2000/svg">
<g clip-path="url(#clip0)">
<path d="M9.0156 14.0874C7.46514 13.9257 6.06716 13.5438 4.87028 12.6077C4.72176 12.4913 4.56844 12.379 4.43291 12.2489C3.90904 11.7458 3.85625 11.1695 4.27079 10.5757C4.62541 10.0675 5.22071 9.93159 5.83947 10.2234C5.95929 10.2799 6.07345 10.3505 6.18279 10.4263C8.41339 11.959 11.4777 12.0013 13.7166 10.4953C13.9385 10.3252 14.1756 10.1865 14.4504 10.1157C14.9848 9.97851 15.4831 10.1748 15.7698 10.6423C16.0974 11.1762 16.0932 11.6974 15.6896 12.1119C15.0704 12.7474 14.3258 13.2072 13.4984 13.5281C12.716 13.8314 11.8591 13.9841 11.011 14.0855C11.139 14.2248 11.1993 14.2933 11.2793 14.3737C12.4309 15.5308 13.5876 16.6831 14.7355 17.8437C15.1266 18.2392 15.2083 18.7296 14.9929 19.1895C14.7575 19.6923 14.2305 20.023 13.7137 19.9876C13.3863 19.965 13.131 19.802 12.9041 19.5735C12.0351 18.699 11.1496 17.8406 10.2982 16.9495C10.0504 16.6904 9.93118 16.7394 9.7125 16.9644C8.83819 17.8645 7.94963 18.7507 7.05584 19.6319C6.65451 20.0276 6.17692 20.0988 5.71149 19.8728C5.21673 19.633 4.90191 19.128 4.9262 18.6204C4.94296 18.2771 5.11179 18.0149 5.34744 17.7796C6.48714 16.6416 7.6237 15.5006 8.76069 14.3607C8.83588 14.2849 8.90605 14.2045 9.0156 14.0874Z" fill="white"/>
<path d="M9.96009 10.1233C7.1941 10.1138 4.926 7.82081 4.94213 5.05042C4.95805 2.24944 7.22761 -0.00776085 10.0208 -1.06191e-05C12.8197 0.00753015 15.0662 2.2972 15.0522 5.12729C15.038 7.89203 12.7542 10.1329 9.96009 10.1233ZM12.4739 5.05712C12.4691 3.68156 11.3736 2.58647 10.0007 2.58522C8.61637 2.58375 7.51102 3.69874 7.5217 5.08686C7.53197 6.45719 8.6369 7.54453 10.0135 7.5395C11.3859 7.53468 12.4785 6.43247 12.4739 5.05712Z" fill="white"/>
</g>
<defs>
<clipPath id="clip0">
<rect width="20" height="20" fill="white"/>
</clipPath>
</defs>
</svg>
