<svg width="13" height="13" viewBox="0 0 13 13" fill="none" xmlns="http://www.w3.org/2000/svg">
<path d="M11.2822 7.95357C10.9651 7.6365 10.5436 7.46186 10.0951 7.46186C9.64662 7.46186 9.22512 7.6365 8.90805 7.95357L8.3655 8.49626C8.08412 8.7775 7.63907 8.81318 7.30727 8.58105C6.75201 8.19278 6.22362 7.74903 5.73682 7.26224C5.25032 6.77573 4.80657 6.24734 4.41801 5.69193C4.18588 5.35999 4.2217 4.9148 4.50294 4.63356L5.04549 4.09101C5.36256 3.77394 5.5372 3.3523 5.5372 2.90393C5.5372 2.45556 5.36256 2.03391 5.04549 1.7167L3.81941 0.490765C3.16506 -0.163588 2.09989 -0.163588 1.44525 0.490765L0.886377 1.04964C0.214112 1.72176 -0.105697 2.6653 0.0310956 3.57345C0.223501 4.85081 0.698883 6.15619 1.40567 7.34789C1.91341 8.20866 2.538 9.01223 3.26242 9.73664C3.98712 10.4615 4.79083 11.0861 5.65073 11.5932C6.8433 12.3005 8.14869 12.776 9.4259 12.9683C9.56429 12.9892 9.70339 12.9993 9.84235 12.9993C10.615 12.9993 11.3797 12.6828 11.9496 12.1128L12.5084 11.554C12.8254 11.2367 13 10.8152 13 10.3667C13 9.91822 12.8254 9.49672 12.5083 9.17965L11.2822 7.95357ZM12.2019 11.2474L11.643 11.8063C11.0676 12.3816 10.2628 12.6561 9.49018 12.5395C8.26786 12.3555 7.0165 11.8993 5.87116 11.2201C5.04231 10.7313 4.26764 10.1291 3.56865 9.43012C2.87009 8.73157 2.26789 7.95704 1.77835 7.12732C1.09958 5.98271 0.643559 4.73149 0.459386 3.50873C0.342961 2.73608 0.617124 1.93135 1.19261 1.35601L1.75148 0.797141C1.98693 0.561834 2.29966 0.432407 2.63233 0.432407C2.965 0.432407 3.27773 0.561834 3.51303 0.797141L4.73912 2.02308C4.97428 2.25838 5.10385 2.57112 5.10385 2.90393C5.10385 3.23659 4.97428 3.54932 4.73912 3.78463L4.19657 4.32718C3.76625 4.75749 3.71021 5.43583 4.06295 5.94024C4.46596 6.51645 4.92618 7.06434 5.43045 7.56861C5.93501 8.07317 6.4829 8.53339 7.05882 8.93625C7.56309 9.28885 8.24142 9.23295 8.67188 8.80264L9.21443 8.25994C9.44974 8.02464 9.76247 7.89521 10.0951 7.89521C10.4278 7.89521 10.7405 8.02464 10.9758 8.25994L12.2019 9.48603C12.4371 9.72133 12.5667 10.0341 12.5667 10.3667C12.5667 10.6994 12.4371 11.0121 12.2019 11.2474Z" fill="white"/>
</svg>
