<svg width="50" height="38" viewBox="0 0 50 38" fill="none" xmlns="http://www.w3.org/2000/svg">
<path d="M0.95751 25.4033C4.5217 28.5435 8.08588 31.697 11.6501 34.8372C12.1668 35.2877 12.6703 35.7381 13.187 36.1886C14.5385 37.3811 16.526 37.5004 17.8775 36.1886C21.3886 32.757 24.8866 29.312 28.3978 25.8803C33.9892 20.3949 39.5806 14.9095 45.172 9.42413C46.4572 8.1654 47.7557 6.89342 49.0409 5.63469C50.2864 4.41572 50.3526 2.15001 49.0409 0.944281C47.7027 -0.274697 45.6754 -0.354196 44.3505 0.944281C40.8393 4.37597 37.3414 7.82091 33.8302 11.2526C28.2388 16.738 22.6341 22.2234 17.0427 27.7088C15.7575 28.9675 14.459 30.2395 13.1738 31.4982C14.7373 31.4982 16.3007 31.4982 17.8642 31.4982C14.3 28.358 10.7358 25.2046 7.17165 22.0644C6.65491 21.6139 6.15142 21.1634 5.63468 20.7129C4.3362 19.5734 2.21624 19.3349 0.944261 20.7129C-0.195219 21.9716 -0.433714 24.1711 0.95751 25.4033Z" fill="white"/>
</svg>
