<svg xmlns:dc="http://purl.org/dc/elements/1.1/" xmlns:cc="http://creativecommons.org/ns#" xmlns:rdf="http://www.w3.org/1999/02/22-rdf-syntax-ns#" xmlns:svg="http://www.w3.org/2000/svg" xmlns="http://www.w3.org/2000/svg" xmlns:sodipodi="http://sodipodi.sourceforge.net/DTD/sodipodi-0.dtd" xmlns:inkscape="http://www.inkscape.org/namespaces/inkscape" height="22" width="15" viewBox="0 0 60 87.996002" id="svg3729" sodipodi:docname="noun_Medal_805604 (1).svg" style="fill:#fff" inkscape:version="0.92.4 (5da689c313, 2019-01-14)"><defs id="defs3733"/><sodipodi:namedview pagecolor="#ffffff" bordercolor="#666666" borderopacity="1" objecttolerance="10" gridtolerance="10" guidetolerance="10" inkscape:pageopacity="0" inkscape:pageshadow="2" inkscape:window-width="1920" inkscape:window-height="1057" id="namedview3731" showgrid="false" inkscape:snap-page="true" inkscape:zoom="8.9" inkscape:cx="50" inkscape:cy="50" inkscape:window-x="1912" inkscape:window-y="-8" inkscape:window-maximized="1" inkscape:current-layer="svg3729"/><g transform="translate(-20,-958.36438)" id="g3727"><path style="color:#fff;text-indent:0;text-transform:none;direction:ltr;baseline-shift:baseline;display:inline;overflow:visible;visibility:visible;fill:#fff;fill-opacity:1;stroke:none;enable-background:accumulate" d="m50 958.36395c-16.5566.0-30 13.4433-30 30 0 10.25079 5.1453 19.30635 13 24.71875v32.2812a1.0001 1.0001.0 0 0 1.5312.8438L50 1036.5514l15.4688 9.6563A1.0001 1.0001.0 0 0 67 1045.3639v-32.2812c7.8547-5.4124 13-14.46796 13-24.71875.0-16.5567-13.4434-30-30-30zm0 2c15.4758.0 28 12.5242 28 28 0 15.47575-12.5242 27.99995-28 27.99995-15.4758.0-28-12.5242-28-27.99995.0-15.4758 12.5242-28 28-28zm-.1875 11a.99092487 1.0093601.0 0 0-.6875.5312l-4.7188 9.7188-10.5312 1.5625a.99092487 1.0093601.0 0 0-.5625 1.7187l7.625 7.59379-1.8125 10.68746a.99092487 1.0093601.0 0 0 .875 1.1875.99092487 1.0093601.0 0 0 .5938-.125L50 999.20774l9.4062 5.03116a.99092487 1.0093601.0 0 0 1.4688-1.0625l-1.8125-10.68746 7.625-7.59379a.99092487 1.0093601.0 0 0-.5625-1.7187l-10.5312-1.5625-4.7188-9.7188a.99092487 1.0093601.0 0 0-1.0625-.5312zm.1875 3.25 4.0625 8.375a.99092487 1.0093601.0 0 0 .75.5625l9.0625 1.3437-6.5625 6.49999a.99092487 1.0093601.0 0 0-.2813.9063l1.5313 9.18746-8.0937-4.31246a.99092487 1.0093601.0 0 0-.9376.0l-8.125 4.31246 1.5626-9.18746a.99092487 1.0093601.0 0 0-.2813-.9063l-6.5625-6.49999 9.0625-1.3437a.99092487 1.0093601.0 0 0 .7813-.5625zm-15 39.71875c2.4665 1.4288 5.1547 2.5057 8 3.1874v21l-8 5zm30 0v29.1874l-8-5v-21c2.8453-.6817 5.5335-1.7586 8-3.1874zm-20 3.5937c1.6294.2745 3.2931.4375 5 .4375 1.7069.0 3.3706-.163 5-.4375v19.3437l-4.4688-2.7812a1.0001 1.0001.0 0 0-1.0624.0L45 1037.2701z" marker="none" visibility="visible" display="inline" overflow="visible" id="path3725" inkscape:connector-curvature="0"/></g></svg>