<svg width="20" height="20" viewBox="0 0 20 20" fill="none" xmlns="http://www.w3.org/2000/svg">
<g clip-path="url(#clip0)">
<path d="M20 3.79749C19.2642 4.12416 18.4733 4.34415 17.6433 4.44332C18.4908 3.93582 19.1417 3.13165 19.4475 2.17332C18.655 2.64332 17.7767 2.98499 16.8417 3.16915C16.0942 2.37165 15.0267 1.87332 13.8467 1.87332C11.1975 1.87332 9.25083 4.34499 9.84917 6.91082C6.44 6.73999 3.41667 5.10665 1.3925 2.62415C0.3175 4.46832 0.835 6.88082 2.66167 8.10249C1.99 8.08082 1.35667 7.89666 0.804167 7.58915C0.759167 9.48999 2.12167 11.2683 4.095 11.6642C3.5175 11.8208 2.885 11.8575 2.24167 11.7342C2.76333 13.3642 4.27833 14.55 6.075 14.5833C4.35 15.9358 2.17667 16.54 0 16.2833C1.81583 17.4475 3.97333 18.1267 6.29 18.1267C13.9083 18.1267 18.2125 11.6925 17.9525 5.92165C18.7542 5.34249 19.45 4.61999 20 3.79749Z" fill="white"/>
</g>
<defs>
<clipPath id="clip0">
<rect width="20" height="20" fill="white"/>
</clipPath>
</defs>
</svg>
