<svg width="20" height="20" viewBox="0 0 20 20" fill="none" xmlns="http://www.w3.org/2000/svg">
<g clip-path="url(#clip0)">
<path d="M10.9683 15.8283C11.4758 15.8283 11.6833 15.49 11.6775 15.0658C11.6517 13.4683 12.2725 12.6083 13.3933 13.7292C14.6333 14.9692 14.89 15.8283 16.3958 15.8283H19.0625C19.7358 15.8283 20.0008 15.6117 20.0008 15.2717C20.0008 14.5525 18.8167 13.2833 17.8133 12.3517C16.4083 11.0475 16.3425 11.0167 17.5525 9.44666C19.0533 7.49749 21.0167 4.99999 19.28 4.99999H15.9625C15.3192 4.99999 15.2725 5.36249 15.0433 5.90249C14.2142 7.85832 12.6383 10.3917 12.04 10.0042C11.4142 9.59999 11.7008 7.99916 11.7483 5.61999C11.7608 4.99166 11.7575 4.56082 10.7975 4.33749C10.2733 4.21666 9.76333 4.16666 9.29 4.16666C7.39583 4.16666 6.08917 4.96082 6.83167 5.09916C8.14083 5.34332 8.015 8.17582 7.71 9.39916C7.17833 11.5292 5.18 7.71249 4.3475 5.81166C4.14667 5.35499 4.085 4.99999 3.36833 4.99999H0.655833C0.245833 4.99999 0 5.13332 0 5.42999C0 5.93166 2.46667 11.03 4.82167 13.5717C7.11833 16.0508 9.38833 15.8283 10.9683 15.8283Z" fill="white"/>
</g>
<defs>
<clipPath id="clip0">
<rect width="20" height="20" fill="white"/>
</clipPath>
</defs>
</svg>
