<svg width="32" height="32" viewBox="0 0 32 32" fill="none" xmlns="http://www.w3.org/2000/svg">
<path d="M15.0587 5.11929C11.9635 8.21524 11.9631 13.2514 15.0587 16.3473C18.1547 19.4425 23.1912 19.4425 26.2868 16.3473C29.3827 13.2514 29.3823 8.21524 26.2868 5.11929C23.1908 2.02371 18.1551 2.02371 15.0587 5.11929ZM25.9573 16.0179C23.0437 18.9327 18.3022 18.9319 15.3885 16.0179C12.4745 13.1039 12.4745 8.36311 15.3885 5.44908C18.3026 2.53504 23.0437 2.53504 25.9573 5.44832C28.8714 8.36198 28.8714 13.1035 25.9573 16.0179Z" fill="white"/>
<path d="M13.0838 3.14397C9.39818 6.82991 8.91862 12.7351 11.9336 16.9615L8.31766 20.5775C8.09415 20.2579 7.88878 19.9266 7.70536 19.5885L7.55597 19.3154L0.400024 26.4721L4.93428 31.0056L12.0906 23.8493L11.8172 23.7007C11.4783 23.5169 11.147 23.3111 10.8289 23.088L14.4445 19.4728C18.6713 22.4867 24.5761 22.0071 28.2617 18.3219C32.4461 14.1367 32.4461 7.32838 28.2617 3.14359C24.0773 -1.04044 17.2685 -1.04044 13.0838 3.14397ZM27.9323 17.9929C24.3613 21.5642 18.6112 21.9886 14.5591 18.9804L14.3976 18.8608L10.1153 23.1428L10.332 23.3039C10.6504 23.5403 10.9828 23.7593 11.3244 23.9575L4.93428 30.3479L1.05847 26.4721L7.44856 20.0821C7.64636 20.4224 7.86571 20.7556 8.10209 21.0741L8.26244 21.2912L12.5452 17.0088L12.4257 16.8469C9.41747 12.7945 9.84181 7.04511 13.4132 3.47376C17.416 -0.529113 23.9298 -0.529113 27.9327 3.47376C31.9356 7.47663 31.9352 13.99 27.9323 17.9929Z" fill="white"/>
</svg>
