<svg width="44" height="52" viewBox="0 0 44 52" fill="none" xmlns="http://www.w3.org/2000/svg">
<path d="M0.171329 8.39232H0.0712884C0.0712884 8.39232 -0.991557 22.1978 5.09054 34.7989C10.9883 47.0106 19.6743 50.8112 21.5032 51.5374C21.5377 51.5516 21.7344 51.5977 21.7344 51.5977L21.9777 51.6375C22.1586 51.6105 22.3595 51.5912 22.5284 51.5215C24.4348 50.7588 33.0449 46.9282 38.901 34.799C44.4072 23.3927 43.9929 8.38443 43.9929 8.38443C37.8122 7.3627 33.0277 4.16614 31.0916 0H22.9786H21.2565H13.1452C11.2196 4.14379 6.30549 7.35166 0.171329 8.39232Z" fill="#D3BB6D"/>
<path d="M30.7275 1.32207C30.7275 0.970945 30.4188 0.686523 30.0373 0.686523C29.6558 0.686523 29.3471 0.970945 29.3471 1.32207C29.3471 1.67319 29.6558 1.95752 30.0373 1.95752C30.4188 1.95752 30.7275 1.6731 30.7275 1.32207ZM21.2827 50.3166C21.2827 49.9653 21.5915 49.6811 21.9728 49.6811C22.3543 49.6811 22.663 49.9653 22.663 50.3166C22.663 50.6678 22.3543 50.9522 21.9728 50.9522C21.5915 50.9522 21.2827 50.6678 21.2827 50.3166ZM11.2411 42.8689C11.2411 42.5175 11.55 42.2333 11.9313 42.2333C12.3125 42.2333 12.6215 42.5175 12.6215 42.8689C12.6215 43.2199 12.3125 43.5045 11.9313 43.5045C11.5499 43.5045 11.2411 43.2199 11.2411 42.8689ZM5.23332 33.3553C5.23332 33.0042 5.5422 32.7198 5.92352 32.7198C6.30474 32.7198 6.61361 33.0042 6.61361 33.3553C6.61361 33.7065 6.30474 33.9909 5.92352 33.9909C5.5423 33.9909 5.23332 33.7065 5.23332 33.3553ZM1.78959 21.4496C1.78959 21.0984 2.09847 20.814 2.47969 20.814C2.861 20.814 3.16988 21.0984 3.16988 21.4496C3.16988 21.8007 2.861 22.085 2.47969 22.085C2.09847 22.0851 1.78959 21.8008 1.78959 21.4496ZM1.03296 9.76522C1.03296 9.4141 1.34174 9.12977 1.72315 9.12977C2.10437 9.12977 2.41325 9.41419 2.41325 9.76522C2.41325 10.1163 2.10437 10.4008 1.72315 10.4008C1.34174 10.4008 1.03296 10.1163 1.03296 9.76522ZM13.2739 1.32207C13.2739 0.970945 13.5827 0.686523 13.964 0.686523C14.3453 0.686523 14.6542 0.970945 14.6542 1.32207C14.6542 1.67319 14.3453 1.95752 13.964 1.95752C13.5826 1.95752 13.2739 1.6731 13.2739 1.32207ZM32.7597 42.8689C32.7597 42.5175 32.451 42.2333 32.0696 42.2333C31.6883 42.2333 31.3794 42.5175 31.3794 42.8689C31.3794 43.2199 31.6884 43.5045 32.0696 43.5045C32.451 43.5045 32.7597 43.2199 32.7597 42.8689ZM38.7675 33.3553C38.7675 33.0042 38.4584 32.7198 38.0773 32.7198C37.6959 32.7198 37.3872 33.0042 37.3872 33.3553C37.3872 33.7065 37.6959 33.9909 38.0773 33.9909C38.4584 33.9909 38.7675 33.7065 38.7675 33.3553ZM42.2114 21.4496C42.2114 21.0984 41.9024 20.814 41.5211 20.814C41.1396 20.814 40.831 21.0984 40.831 21.4496C40.831 21.8007 41.1396 22.085 41.5211 22.085C41.9024 22.0851 42.2114 21.8008 42.2114 21.4496ZM42.9681 9.76522C42.9681 9.4141 42.6594 9.12977 42.2778 9.12977C41.8967 9.12977 41.5877 9.41419 41.5877 9.76522C41.5877 10.1163 41.8967 10.4008 42.2778 10.4008C42.6593 10.4008 42.9681 10.1163 42.9681 9.76522Z" fill="white"/>
<path d="M30.7275 1.32198C30.7275 0.97077 30.4188 0.686523 30.0373 0.686523C29.6562 0.686523 29.3471 0.97077 29.3471 1.32198C29.3471 1.6731 29.6562 1.95752 30.0373 1.95752C30.4188 1.95761 30.7275 1.67319 30.7275 1.32198ZM21.2827 50.3165C21.2827 49.9655 21.5916 49.681 21.9728 49.681C22.3543 49.681 22.663 49.9655 22.663 50.3165C22.663 50.6677 22.3543 50.9521 21.9728 50.9521C21.5916 50.9521 21.2827 50.6677 21.2827 50.3165ZM11.2411 42.8688C11.2411 42.5176 11.55 42.2332 11.9313 42.2332C12.3126 42.2332 12.6215 42.5176 12.6215 42.8688C12.6215 43.2199 12.3126 43.5044 11.9313 43.5044C11.55 43.5044 11.2411 43.2199 11.2411 42.8688ZM5.23342 33.3554C5.23342 33.0043 5.5423 32.7198 5.92361 32.7198C6.30483 32.7198 6.61371 33.0043 6.61371 33.3554C6.61371 33.7066 6.30474 33.9909 5.92361 33.9909C5.5423 33.9909 5.23342 33.7066 5.23342 33.3554ZM1.78969 21.4495C1.78969 21.0983 2.09847 20.8139 2.47988 20.8139C2.8611 20.8139 3.16998 21.0983 3.16998 21.4495C3.16998 21.8006 2.8611 22.0849 2.47988 22.0849C2.09847 22.085 1.78969 21.8007 1.78969 21.4495ZM1.03296 9.76531C1.03296 9.41401 1.34184 9.12977 1.72315 9.12977C2.10437 9.12977 2.41325 9.41401 2.41325 9.76531C2.41325 10.1164 2.10437 10.4009 1.72315 10.4009C1.34184 10.4009 1.03296 10.1164 1.03296 9.76531ZM13.2739 1.32198C13.2739 0.97077 13.5827 0.686523 13.964 0.686523C14.3453 0.686523 14.6542 0.97077 14.6542 1.32198C14.6542 1.6731 14.3453 1.95752 13.964 1.95752C13.5827 1.95761 13.2739 1.67319 13.2739 1.32198ZM32.7597 42.8688C32.7597 42.5176 32.451 42.2332 32.0696 42.2332C31.6883 42.2332 31.3794 42.5176 31.3794 42.8688C31.3794 43.2199 31.6884 43.5044 32.0696 43.5044C32.451 43.5044 32.7597 43.2199 32.7597 42.8688ZM38.7675 33.3554C38.7675 33.0043 38.4588 32.7198 38.0773 32.7198C37.6962 32.7198 37.3872 33.0043 37.3872 33.3554C37.3872 33.7066 37.6962 33.9909 38.0773 33.9909C38.4588 33.9909 38.7675 33.7066 38.7675 33.3554ZM42.2114 21.4495C42.2114 21.0983 41.9024 20.8139 41.5211 20.8139C41.1396 20.8139 40.831 21.0983 40.831 21.4495C40.831 21.8006 41.1396 22.0849 41.5211 22.0849C41.9024 22.085 42.2114 21.8007 42.2114 21.4495ZM42.9681 9.76531C42.9681 9.41401 42.6594 9.12977 42.2778 9.12977C41.8967 9.12977 41.5877 9.41401 41.5877 9.76531C41.5877 10.1164 41.8967 10.4009 42.2778 10.4009C42.6593 10.4009 42.9681 10.1164 42.9681 9.76531Z" fill="white"/>
<path d="M3.32388 10.2394H3.23755C3.23755 10.2394 2.32138 22.7177 7.55984 33.571C10.605 39.8784 14.5139 43.66 17.4954 45.8122L15.7231 32.4194C15.7558 32.0441 17.9315 30.1724 18.7342 28.4217C19.4536 26.8533 20.7875 23.6305 21.0577 20.8142C20.6974 20.7196 20.4338 20.4144 20.4338 20.0524C20.4338 19.615 20.8191 19.2601 21.2943 19.2601C21.4192 19.2601 21.5379 19.2847 21.6451 19.3288V20.7758L21.6414 20.7773V32.7365C21.6414 34.2536 20.0488 33.3926 20.0488 36.068C20.0488 37.8366 21.3808 40.3989 22.0696 40.3989C23.0732 40.3989 24.0303 36.8578 24.0303 36.068C24.0303 33.3927 22.4377 34.2536 22.4377 32.7365V20.7766L22.4357 20.7758V19.3288C22.5429 19.2846 22.6615 19.26 22.7865 19.26C23.2613 19.26 23.6469 19.6148 23.6469 20.0523C23.6469 20.4176 23.378 20.7251 23.013 20.8167C23.0419 21.2387 23.0851 21.6579 23.141 22.0723C23.7419 26.5246 25.8371 30.4499 28.2771 32.0703L26.5401 45.9576C29.5452 43.8312 33.5629 40.0214 36.6773 33.571C41.4187 23.7472 40.7975 10.233 40.7975 10.233C35.4762 9.35279 31.6181 6.06893 29.9514 2.48145H14.4962C12.8381 6.04999 8.60556 9.34332 3.32388 10.2394Z" fill="#212F70"/>
<path d="M29.9007 7.42869C29.4276 7.3243 28.9548 7.22561 28.4816 7.13393V14.7753C25.9194 15.186 24.8918 15.4544 22.061 17.0768C22.7405 16.8533 25.9622 15.3127 29.9007 16.624C29.9007 15.0922 29.9007 13.5596 29.9007 12.0279C29.9007 10.4962 29.9007 8.96247 29.9007 7.42869ZM27.6704 6.36621C25.9629 6.74152 23.9607 7.35568 22.3398 8.7827V16.0663C24.4099 14.9702 25.8486 14.4396 27.6704 14.1759V6.36621ZM26.9264 12.4222C26.2544 12.5982 25.5777 12.7995 24.9103 13.0492C24.234 13.3022 23.5657 13.6042 22.8934 13.9309C22.8934 14.0743 22.8934 14.2176 22.8934 14.361C23.5657 14.0345 24.234 13.7326 24.9103 13.4796C25.5776 13.2299 26.2544 13.0287 26.9264 12.8526C26.9264 12.7091 26.9264 12.5658 26.9264 12.4222ZM17.1461 12.4222C17.8169 12.5982 18.4938 12.7995 19.1599 13.0492C19.8372 13.3022 20.5059 13.6042 21.1768 13.9309C21.1768 14.0743 21.1768 14.2176 21.1768 14.361C20.5059 14.0345 19.8372 13.7326 19.1599 13.4796C18.4938 13.2299 17.817 13.0287 17.1461 12.8526C17.1461 12.7091 17.1461 12.5658 17.1461 12.4222ZM17.1461 7.96449C17.8169 8.1404 18.4938 8.34173 19.1599 8.59136C19.8372 8.8444 20.5059 9.14635 21.1768 9.47311C21.1768 9.6165 21.1768 9.75981 21.1768 9.90312C20.5059 9.57662 19.8372 9.27485 19.1599 9.02172C18.4938 8.77227 17.817 8.57085 17.1461 8.39494C17.1461 8.25146 17.1461 8.10806 17.1461 7.96449ZM17.1461 9.07886C17.8169 9.25495 18.4938 9.45619 19.1599 9.70573C19.8372 9.95886 20.5059 10.2609 21.1768 10.5876C21.1768 10.731 21.1768 10.8744 21.1768 11.0175C20.5059 10.691 19.8372 10.3892 19.1599 10.1364C18.4938 9.88673 17.817 9.6854 17.1461 9.50931C17.1461 9.36591 17.1461 9.22243 17.1461 9.07886ZM17.1461 10.1933C17.8169 10.3693 18.4938 10.5706 19.1599 10.8202C19.8372 11.0733 20.5059 11.3753 21.1768 11.702C21.1768 11.8453 21.1768 11.9887 21.1768 12.1319C20.5059 11.8055 19.8372 11.5036 19.1599 11.2506C18.4938 11.0009 17.817 10.7997 17.1461 10.6236C17.1461 10.4803 17.1461 10.3369 17.1461 10.1933ZM17.1461 11.3078C17.8169 11.4839 18.4938 11.6852 19.1599 11.9347C19.8372 12.1877 20.5059 12.4898 21.1768 12.8164C21.1768 12.9598 21.1768 13.1033 21.1768 13.2465C20.5059 12.9199 19.8372 12.6181 19.1599 12.3652C18.4938 12.1156 17.817 11.9143 17.1461 11.7382C17.1461 11.5947 17.1461 11.4513 17.1461 11.3078ZM26.9264 7.96449C26.2544 8.1404 25.5777 8.34173 24.9103 8.59136C24.234 8.84423 23.5657 9.14635 22.8934 9.47311C22.8934 9.6165 22.8934 9.75981 22.8934 9.90312C23.5657 9.57662 24.234 9.27485 24.9103 9.02172C25.5776 8.77227 26.2544 8.57085 26.9264 8.39494C26.9264 8.25146 26.9264 8.10806 26.9264 7.96449ZM26.9264 9.07886C26.2544 9.25495 25.5777 9.45619 24.9103 9.70573C24.234 9.95886 23.5657 10.2609 22.8934 10.5876C22.8934 10.731 22.8934 10.8744 22.8934 11.0175C23.5657 10.691 24.234 10.3892 24.9103 10.1364C25.5776 9.88673 26.2544 9.6854 26.9264 9.50931C26.9264 9.36591 26.9264 9.22243 26.9264 9.07886ZM26.9264 10.1933C26.2544 10.3693 25.5777 10.5706 24.9103 10.8202C24.234 11.0733 23.5657 11.3753 22.8934 11.702C22.8934 11.8453 22.8934 11.9887 22.8934 12.1319C23.5657 11.8055 24.234 11.5036 24.9103 11.2506C25.5776 11.0009 26.2544 10.7997 26.9264 10.6236C26.9264 10.4803 26.9264 10.3369 26.9264 10.1933ZM26.9264 11.3078C26.2544 11.4839 25.5777 11.6852 24.9103 11.9347C24.234 12.1877 23.5657 12.4898 22.8934 12.8164C22.8934 12.9598 22.8934 13.1033 22.8934 13.2465C23.5657 12.9199 24.234 12.6181 24.9103 12.3652C25.5776 12.1156 26.2544 11.9143 26.9264 11.7382C26.9264 11.5947 26.9264 11.4513 26.9264 11.3078ZM16.4015 6.36621C18.1101 6.74152 20.1106 7.35568 21.7325 8.7827V16.0663C19.6623 14.9702 18.2221 14.4396 16.4015 14.1759V6.36621ZM14.0996 7.42869C14.5721 7.3243 15.0459 7.22561 15.5184 7.13393V14.7753C18.0808 15.186 19.1082 15.4544 21.9394 17.0768C21.2595 16.8533 18.038 15.3127 14.0997 16.624C14.0997 15.0922 14.0997 13.5596 14.0997 12.0279C14.0996 10.4962 14.0996 8.96247 14.0996 7.42869Z" fill="white"/>
<path d="M34.1469 28.7247C32.8629 31.8875 33.0273 34.7298 34.6403 37.2516C35.3466 36.1327 36.0314 34.9087 36.6772 33.571C37.6733 31.5072 38.4326 29.2804 39.011 27.0505C39.8012 24.0018 40.2533 20.9469 40.5083 18.2932C40.9546 13.6483 40.7974 10.2328 40.7974 10.2328C38.6857 9.88351 36.8042 9.15567 35.199 8.18066C33.809 10.6504 33.4257 13.7107 34.0488 17.3613C34.1557 17.986 34.2918 18.6279 34.4574 19.287C35.4067 21.7916 35.645 24.0774 35.1721 26.144C34.9658 27.0459 34.6237 27.9062 34.1469 28.7247Z" fill="#E30016"/>
<path d="M37.7007 16.9798C38.4605 17.4511 39.1949 18.0864 40.5084 18.2932C40.9546 13.6483 40.7974 10.2328 40.7974 10.2328C38.6857 9.88351 36.8042 9.15567 35.1991 8.18066C33.809 10.6504 33.4258 13.7107 34.0489 17.3613C35.4289 16.7754 36.7762 16.4067 37.7007 16.9798Z" fill="white" stroke="white" stroke-width="0.216"/>
<path d="M35.172 26.1436C36.4772 25.6979 37.7568 25.9999 39.0109 27.05C38.4325 29.2799 37.6733 31.5067 36.6771 33.5705C36.0314 34.9082 35.3465 36.1323 34.6402 37.2512C33.0273 34.7293 32.8629 31.887 34.1468 28.7242C34.6237 27.9058 34.9658 27.0455 35.172 26.1436Z" fill="#FFEC00"/>
</svg>
