<svg width="56" height="71" viewBox="0 0 56 71" fill="none" xmlns="http://www.w3.org/2000/svg">
<path fill-rule="evenodd" clip-rule="evenodd" d="M8.20089 50.2065C3.13444 44.8838 0 37.0715 0 28.9514C0 20.8298 3.13444 13.9365 8.20089 8.61388C13.2689 3.29361 20.2689 0 28 0C35.7311 0 42.7311 3.29361 47.7991 8.61388C52.8648 13.9365 56 20.8298 56 28.9514C56 37.0715 52.8648 44.8838 47.7991 50.2065L28 71L8.20089 50.2065Z" fill="#212F70"/>
<path d="M10.1402 18.8664H10.0583C10.0583 18.8664 9.18873 30.1618 14.165 40.4718C18.9904 50.4632 26.0971 53.5728 27.5935 54.1669C27.6218 54.1786 27.7827 54.2163 27.7827 54.2163L27.9817 54.2488C28.1298 54.2268 28.2942 54.211 28.4323 54.1539C29.9921 53.5299 37.0368 50.3958 41.8281 40.4719C46.3331 31.1395 45.9942 18.86 45.9942 18.86C40.9373 18.024 37.0227 15.4087 35.4386 12H28.8007H27.3917H20.7551C19.1796 15.3904 15.159 18.015 10.1402 18.8664Z" fill="#D3BB6D"/>
<path d="M35.141 13.0815C35.141 12.7942 34.8885 12.5615 34.5763 12.5615C34.2642 12.5615 34.0116 12.7942 34.0116 13.0815C34.0116 13.3688 34.2642 13.6014 34.5763 13.6014C34.8885 13.6014 35.141 13.3687 35.141 13.0815ZM27.4134 53.168C27.4134 52.8805 27.6661 52.648 27.9781 52.648C28.2902 52.648 28.5428 52.8805 28.5428 53.168C28.5428 53.4552 28.2902 53.688 27.9781 53.688C27.6661 53.688 27.4134 53.4552 27.4134 53.168ZM19.1976 47.0744C19.1976 46.7869 19.4503 46.5543 19.7623 46.5543C20.0742 46.5543 20.327 46.7869 20.327 47.0744C20.327 47.3616 20.0742 47.5944 19.7623 47.5944C19.4502 47.5944 19.1976 47.3616 19.1976 47.0744ZM14.2821 39.2905C14.2821 39.0032 14.5348 38.7706 14.8468 38.7706C15.1587 38.7706 15.4114 39.0032 15.4114 39.2905C15.4114 39.5779 15.1587 39.8106 14.8468 39.8106C14.5349 39.8106 14.2821 39.5779 14.2821 39.2905ZM11.4645 29.5495C11.4645 29.2622 11.7172 29.0295 12.0291 29.0295C12.3411 29.0295 12.5939 29.2622 12.5939 29.5495C12.5939 29.8367 12.3411 30.0694 12.0291 30.0694C11.7172 30.0694 11.4645 29.8368 11.4645 29.5495ZM10.8455 19.9895C10.8455 19.7023 11.0981 19.4696 11.4102 19.4696C11.7221 19.4696 11.9748 19.7023 11.9748 19.9895C11.9748 20.2768 11.7221 20.5095 11.4102 20.5095C11.0981 20.5095 10.8455 20.2768 10.8455 19.9895ZM20.8607 13.0815C20.8607 12.7942 21.1134 12.5615 21.4254 12.5615C21.7374 12.5615 21.9901 12.7942 21.9901 13.0815C21.9901 13.3688 21.7374 13.6014 21.4254 13.6014C21.1133 13.6014 20.8607 13.3687 20.8607 13.0815ZM36.8037 47.0744C36.8037 46.7869 36.5511 46.5543 36.239 46.5543C35.9271 46.5543 35.6743 46.7869 35.6743 47.0744C35.6743 47.3616 35.9272 47.5944 36.239 47.5944C36.5511 47.5944 36.8037 47.3616 36.8037 47.0744ZM41.7192 39.2905C41.7192 39.0032 41.4663 38.7706 41.1545 38.7706C40.8424 38.7706 40.5898 39.0032 40.5898 39.2905C40.5898 39.5779 40.8424 39.8106 41.1545 39.8106C41.4663 39.8106 41.7192 39.5779 41.7192 39.2905ZM44.5369 29.5495C44.5369 29.2622 44.284 29.0295 43.9721 29.0295C43.66 29.0295 43.4075 29.2622 43.4075 29.5495C43.4075 29.8367 43.66 30.0694 43.9721 30.0694C44.284 30.0694 44.5369 29.8368 44.5369 29.5495ZM45.156 19.9895C45.156 19.7023 44.9034 19.4696 44.5912 19.4696C44.2794 19.4696 44.0266 19.7023 44.0266 19.9895C44.0266 20.2768 44.2794 20.5095 44.5912 20.5095C44.9033 20.5095 45.156 20.2768 45.156 19.9895Z" fill="white"/>
<path d="M35.141 13.0814C35.141 12.7941 34.8885 12.5615 34.5763 12.5615C34.2645 12.5615 34.0116 12.7941 34.0116 13.0814C34.0116 13.3687 34.2645 13.6014 34.5763 13.6014C34.8885 13.6015 35.141 13.3688 35.141 13.0814ZM27.4134 53.1679C27.4134 52.8807 27.6662 52.6479 27.9781 52.6479C28.2902 52.6479 28.5428 52.8807 28.5428 53.1679C28.5428 53.4552 28.2902 53.6879 27.9781 53.6879C27.6662 53.6879 27.4134 53.4552 27.4134 53.1679ZM19.1976 47.0743C19.1976 46.787 19.4503 46.5543 19.7623 46.5543C20.0742 46.5543 20.327 46.787 20.327 47.0743C20.327 47.3615 20.0742 47.5943 19.7623 47.5943C19.4503 47.5943 19.1976 47.3615 19.1976 47.0743ZM14.2822 39.2906C14.2822 39.0033 14.5349 38.7706 14.8469 38.7706C15.1588 38.7706 15.4115 39.0033 15.4115 39.2906C15.4115 39.5779 15.1587 39.8106 14.8469 39.8106C14.5349 39.8106 14.2822 39.5779 14.2822 39.2906ZM11.4646 29.5494C11.4646 29.2621 11.7172 29.0294 12.0293 29.0294C12.3412 29.0294 12.5939 29.2621 12.5939 29.5494C12.5939 29.8367 12.3412 30.0693 12.0293 30.0693C11.7172 30.0694 11.4646 29.8367 11.4646 29.5494ZM10.8455 19.9896C10.8455 19.7022 11.0982 19.4696 11.4102 19.4696C11.7221 19.4696 11.9748 19.7022 11.9748 19.9896C11.9748 20.2769 11.7221 20.5096 11.4102 20.5096C11.0982 20.5096 10.8455 20.2769 10.8455 19.9896ZM20.8607 13.0814C20.8607 12.7941 21.1134 12.5615 21.4254 12.5615C21.7374 12.5615 21.9901 12.7941 21.9901 13.0814C21.9901 13.3687 21.7374 13.6014 21.4254 13.6014C21.1134 13.6015 20.8607 13.3688 20.8607 13.0814ZM36.8037 47.0743C36.8037 46.787 36.5511 46.5543 36.239 46.5543C35.9271 46.5543 35.6743 46.787 35.6743 47.0743C35.6743 47.3615 35.9272 47.5943 36.239 47.5943C36.5511 47.5943 36.8037 47.3615 36.8037 47.0743ZM41.7192 39.2906C41.7192 39.0033 41.4666 38.7706 41.1545 38.7706C40.8426 38.7706 40.5898 39.0033 40.5898 39.2906C40.5898 39.5779 40.8426 39.8106 41.1545 39.8106C41.4666 39.8106 41.7192 39.5779 41.7192 39.2906ZM44.5369 29.5494C44.5369 29.2621 44.284 29.0294 43.9721 29.0294C43.66 29.0294 43.4075 29.2621 43.4075 29.5494C43.4075 29.8367 43.66 30.0693 43.9721 30.0693C44.284 30.0694 44.5369 29.8367 44.5369 29.5494ZM45.156 19.9896C45.156 19.7022 44.9034 19.4696 44.5912 19.4696C44.2794 19.4696 44.0266 19.7022 44.0266 19.9896C44.0266 20.2769 44.2794 20.5096 44.5912 20.5096C44.9033 20.5096 45.156 20.2769 45.156 19.9896Z" fill="white"/>
<path d="M12.7199 20.3757H12.6492C12.6492 20.3757 11.8996 30.5853 16.1856 39.4652C18.6772 44.6259 21.8753 47.7199 24.3148 49.4808L22.8646 38.523C22.8914 38.216 24.6715 36.6845 25.3283 35.2521C25.9169 33.9689 27.0083 31.3321 27.2293 29.0279C26.9345 28.9504 26.7189 28.7007 26.7189 28.4045C26.7189 28.0467 27.0342 27.7563 27.4229 27.7563C27.5251 27.7563 27.6222 27.7764 27.7099 27.8126V28.9964L27.7069 28.9977V38.7825C27.7069 40.0237 26.4039 39.3193 26.4039 41.5082C26.4039 42.9552 27.4937 45.0517 28.0573 45.0517C28.8784 45.0517 29.6615 42.1544 29.6615 41.5082C29.6615 39.3193 28.3584 40.0237 28.3584 38.7825V28.9971L28.3568 28.9965V27.8125C28.4445 27.7763 28.5415 27.7563 28.6438 27.7563C29.0323 27.7563 29.3478 28.0466 29.3478 28.4045C29.3478 28.7034 29.1278 28.9549 28.8291 29.0299C28.8528 29.3752 28.8881 29.7181 28.9339 30.0572C29.4255 33.7 31.1397 36.9116 33.1361 38.2374L31.7149 49.5997C34.1737 47.86 37.4609 44.7428 40.009 39.4652C43.8883 31.4276 43.3801 20.3705 43.3801 20.3705C39.0262 19.6503 35.8696 16.9635 34.506 14.0283H21.8609C20.5042 16.948 17.0412 19.6426 12.7199 20.3757Z" fill="#212F70"/>
<path d="M34.4643 18.0793C34.0772 17.9939 33.6904 17.9131 33.3032 17.8381V24.0901C31.2069 24.4261 30.3661 24.6457 28.05 25.9731C28.6059 25.7903 31.2419 24.5298 34.4643 25.6027C34.4643 24.3494 34.4643 23.0954 34.4643 21.8423C34.4643 20.5891 34.4643 19.3342 34.4643 18.0793ZM32.6395 17.21C31.2425 17.517 29.6043 18.0195 28.2781 19.1871V25.1464C29.9719 24.2496 31.1489 23.8154 32.6395 23.5997V17.21ZM32.0308 22.1648C31.4809 22.3089 30.9273 22.4735 30.3813 22.6779C29.8279 22.8848 29.2812 23.1319 28.7311 23.3993C28.7311 23.5166 28.7311 23.6339 28.7311 23.7511C29.2812 23.484 29.8279 23.237 30.3813 23.03C30.9272 22.8257 31.4809 22.6611 32.0308 22.517C32.0308 22.3996 32.0308 22.2824 32.0308 22.1648ZM24.0287 22.1648C24.5776 22.3089 25.1314 22.4735 25.6764 22.6779C26.2305 22.8848 26.7776 23.1319 27.3265 23.3993C27.3265 23.5166 27.3265 23.6339 27.3265 23.7511C26.7776 23.484 26.2305 23.237 25.6764 23.03C25.1314 22.8257 24.5776 22.6611 24.0287 22.517C24.0287 22.3996 24.0287 22.2824 24.0287 22.1648ZM24.0287 18.5176C24.5776 18.6616 25.1314 18.8263 25.6764 19.0305C26.2305 19.2376 26.7776 19.4846 27.3265 19.752C27.3265 19.8693 27.3265 19.9865 27.3265 20.1038C26.7776 19.8367 26.2305 19.5898 25.6764 19.3826C25.1314 19.1786 24.5776 19.0138 24.0287 18.8698C24.0287 18.7524 24.0287 18.6351 24.0287 18.5176ZM24.0287 19.4294C24.5776 19.5735 25.1314 19.7381 25.6764 19.9423C26.2305 20.1494 26.7776 20.3965 27.3265 20.6638C27.3265 20.7811 27.3265 20.8984 27.3265 21.0156C26.7776 20.7484 26.2305 20.5015 25.6764 20.2946C25.1314 20.0904 24.5776 19.9257 24.0287 19.7816C24.0287 19.6643 24.0287 19.5469 24.0287 19.4294ZM24.0287 20.3412C24.5776 20.4852 25.1314 20.6499 25.6764 20.8541C26.2305 21.0612 26.7776 21.3083 27.3265 21.5756C27.3265 21.6929 27.3265 21.8102 27.3265 21.9274C26.7776 21.6603 26.2305 21.4133 25.6764 21.2063C25.1314 21.002 24.5776 20.8373 24.0287 20.6933C24.0287 20.576 24.0287 20.4587 24.0287 20.3412ZM24.0287 21.2531C24.5776 21.3971 25.1314 21.5619 25.6764 21.766C26.2305 21.973 26.7776 22.2202 27.3265 22.4874C27.3265 22.6047 27.3265 22.7221 27.3265 22.8393C26.7776 22.5721 26.2305 22.3252 25.6764 22.1182C25.1314 21.914 24.5776 21.7493 24.0287 21.6052C24.0287 21.4879 24.0287 21.3705 24.0287 21.2531ZM32.0308 18.5176C31.4809 18.6616 30.9273 18.8263 30.3813 19.0305C29.8279 19.2374 29.2812 19.4846 28.7311 19.752C28.7311 19.8693 28.7311 19.9865 28.7311 20.1038C29.2812 19.8367 29.8279 19.5898 30.3813 19.3826C30.9272 19.1786 31.4809 19.0138 32.0308 18.8698C32.0308 18.7524 32.0308 18.6351 32.0308 18.5176ZM32.0308 19.4294C31.4809 19.5735 30.9273 19.7381 30.3813 19.9423C29.8279 20.1494 29.2812 20.3965 28.7311 20.6638C28.7311 20.7811 28.7311 20.8984 28.7311 21.0156C29.2812 20.7484 29.8279 20.5015 30.3813 20.2946C30.9272 20.0904 31.4809 19.9257 32.0308 19.7816C32.0308 19.6643 32.0308 19.5469 32.0308 19.4294ZM32.0308 20.3412C31.4809 20.4852 30.9273 20.6499 30.3813 20.8541C29.8279 21.0612 29.2812 21.3083 28.7311 21.5756C28.7311 21.6929 28.7311 21.8102 28.7311 21.9274C29.2812 21.6603 29.8279 21.4133 30.3813 21.2063C30.9272 21.002 31.4809 20.8373 32.0308 20.6933C32.0308 20.576 32.0308 20.4587 32.0308 20.3412ZM32.0308 21.2531C31.4809 21.3971 30.9273 21.5619 30.3813 21.766C29.8279 21.973 29.2812 22.2202 28.7311 22.4874C28.7311 22.6047 28.7311 22.7221 28.7311 22.8393C29.2812 22.5721 29.8279 22.3252 30.3813 22.1182C30.9272 21.914 31.4809 21.7493 32.0308 21.6052C32.0308 21.4879 32.0308 21.3705 32.0308 21.2531ZM23.4195 17.21C24.8174 17.517 26.4542 18.0195 27.7812 19.1871V25.1464C26.0874 24.2496 24.9091 23.8154 23.4195 23.5997V17.21ZM21.5361 18.0793C21.9227 17.9939 22.3103 17.9131 22.697 17.8381V24.0901C24.7934 24.4261 25.6341 24.6457 27.9505 25.9731C27.3942 25.7903 24.7585 24.5298 21.5362 25.6027C21.5362 24.3494 21.5362 23.0954 21.5362 21.8423C21.5361 20.5891 21.5361 19.3342 21.5361 18.0793Z" fill="white"/>
<path d="M37.9379 35.505C36.8874 38.0928 37.0219 40.4183 38.3417 42.4816C38.9195 41.5661 39.4799 40.5646 40.0082 39.4702C40.8232 37.7816 41.4445 35.9597 41.9177 34.1352C42.5642 31.6408 42.9341 29.1414 43.1428 26.9702C43.5079 23.1698 43.3793 20.3753 43.3793 20.3753C41.6515 20.0895 40.1121 19.494 38.7988 18.6963C37.6615 20.7169 37.3479 23.2209 37.8577 26.2077C37.9452 26.7188 38.0566 27.244 38.192 27.7833C38.9687 29.8325 39.1637 31.7027 38.7768 33.3936C38.608 34.1315 38.3281 34.8354 37.9379 35.505Z" fill="#E30016"/>
<path d="M40.8464 25.8956C41.4681 26.2812 42.0689 26.801 43.1436 26.9702C43.5087 23.1698 43.3801 20.3753 43.3801 20.3753C41.6524 20.0895 40.1129 19.494 38.7997 18.6963C37.6623 20.7169 37.3488 23.2209 37.8586 26.2077C38.9877 25.7283 40.09 25.4267 40.8464 25.8956Z" fill="white" stroke="white" stroke-width="0.216"/>
<path d="M38.7767 33.3886C39.8446 33.0239 40.8915 33.2711 41.9176 34.1303C41.4444 35.9547 40.8232 37.7766 40.0082 39.4652C39.4798 40.5597 38.9195 41.5612 38.3416 42.4766C37.0219 40.4133 36.8874 38.0878 37.9379 35.5C38.3281 34.8304 38.608 34.1265 38.7767 33.3886Z" fill="#FFEC00"/>
</svg>
