<svg width="22" height="23" viewBox="0 0 22 23" fill="none" xmlns="http://www.w3.org/2000/svg">
<path d="M11.3657 9.52753V5.22213C11.3657 5.01974 11.2017 4.85547 10.9991 4.85547C10.7964 4.85547 10.6324 5.01974 10.6324 5.22213V9.52802C10.0465 9.66686 9.58519 10.1286 9.44683 10.7145H6.22824C6.02559 10.7145 5.86157 10.8788 5.86157 11.0812C5.86157 11.2836 6.02559 11.4479 6.22824 11.4479H9.44708C9.61354 12.1519 10.2459 12.6779 11 12.6779C11.8808 12.6779 12.5972 11.9612 12.5972 11.0807C12.5972 10.3264 12.0705 9.69351 11.3657 9.52753ZM11 11.9448C10.5248 11.9448 10.1381 11.5591 10.1364 11.0841C10.1364 11.0832 10.1367 11.0824 10.1367 11.0815C10.1367 11.0805 10.1364 11.0793 10.1364 11.0783C10.1379 10.6031 10.5246 10.2171 11 10.2171C11.4765 10.2171 11.8639 10.6045 11.8639 11.081C11.8639 11.5574 11.4765 11.9448 11 11.9448Z" fill="#0041BD"/>
<path d="M11 0.0810547C4.9346 0.0810547 0 5.01565 0 11.0811C0 17.1465 4.9346 22.0811 11 22.0811C17.0654 22.0811 22 17.1465 22 11.0811C22 5.01565 17.0654 0.0810547 11 0.0810547ZM11 21.3477C5.33891 21.3477 0.733333 16.7421 0.733333 11.0811C0.733333 5.41997 5.33891 0.814388 11 0.814388C16.6611 0.814388 21.2667 5.41997 21.2667 11.0811C21.2667 16.7421 16.6611 21.3477 11 21.3477Z" fill="#0041BD"/>
<path d="M11 3.21198C11.2363 3.21198 11.4278 3.02047 11.4278 2.78421C11.4278 2.54796 11.2363 2.35645 11 2.35645C10.7638 2.35645 10.5723 2.54796 10.5723 2.78421C10.5723 3.02047 10.7638 3.21198 11 3.21198Z" fill="#0041BD"/>
<path d="M11 19.8048C11.2363 19.8048 11.4278 19.6133 11.4278 19.377C11.4278 19.1407 11.2363 18.9492 11 18.9492C10.7638 18.9492 10.5723 19.1407 10.5723 19.377C10.5723 19.6133 10.7638 19.8048 11 19.8048Z" fill="#0041BD"/>
<path d="M19.2959 11.5089C19.5322 11.5089 19.7237 11.3174 19.7237 11.0811C19.7237 10.8448 19.5322 10.6533 19.2959 10.6533C19.0597 10.6533 18.8682 10.8448 18.8682 11.0811C18.8682 11.3174 19.0597 11.5089 19.2959 11.5089Z" fill="#0041BD"/>
<path d="M2.70414 11.5089C2.94039 11.5089 3.13191 11.3174 3.13191 11.0811C3.13191 10.8448 2.94039 10.6533 2.70414 10.6533C2.46789 10.6533 2.27637 10.8448 2.27637 11.0811C2.27637 11.3174 2.46789 11.5089 2.70414 11.5089Z" fill="#0041BD"/>
<path d="M16.8662 5.64268C17.1025 5.64268 17.294 5.45115 17.294 5.21489C17.294 4.97864 17.1025 4.78711 16.8662 4.78711C16.63 4.78711 16.4385 4.97864 16.4385 5.21489C16.4385 5.45115 16.63 5.64268 16.8662 5.64268Z" fill="#0041BD"/>
<path d="M5.13383 17.3751C5.37009 17.3751 5.56161 17.1836 5.56161 16.9473C5.56161 16.7111 5.37009 16.5195 5.13383 16.5195C4.89758 16.5195 4.70605 16.7111 4.70605 16.9473C4.70605 17.1836 4.89758 17.3751 5.13383 17.3751Z" fill="#0041BD"/>
<path d="M16.8662 17.3751C17.1025 17.3751 17.294 17.1836 17.294 16.9473C17.294 16.7111 17.1025 16.5195 16.8662 16.5195C16.63 16.5195 16.4385 16.7111 16.4385 16.9473C16.4385 17.1836 16.63 17.3751 16.8662 17.3751Z" fill="#0041BD"/>
<path d="M5.13383 5.64268C5.37009 5.64268 5.56161 5.45115 5.56161 5.21489C5.56161 4.97864 5.37009 4.78711 5.13383 4.78711C4.89758 4.78711 4.70605 4.97864 4.70605 5.21489C4.70605 5.45115 4.89758 5.64268 5.13383 5.64268Z" fill="#0041BD"/>
</svg>
