<svg width="18" height="25" viewBox="0 0 18 25" fill="none" xmlns="http://www.w3.org/2000/svg">
<path d="M8.99961 0.748047C4.03714 0.748047 0 4.868 0 9.93168C0 17.0313 8.38969 24.3454 8.74691 24.6534C8.749 24.6552 8.75161 24.6555 8.7537 24.6574C8.78559 24.684 8.82086 24.704 8.85797 24.719C8.86607 24.7222 8.87391 24.7246 8.88201 24.727C8.92017 24.7392 8.9591 24.7475 8.99882 24.7478C8.99909 24.7478 8.99935 24.748 8.99961 24.748H8.99987H9.00013C9.00039 24.748 9.00065 24.7478 9.00091 24.7478C9.04064 24.7475 9.07957 24.7392 9.11772 24.727C9.12582 24.7243 9.13366 24.7222 9.14177 24.719C9.17913 24.7043 9.21415 24.684 9.24629 24.6574C9.24838 24.6558 9.251 24.6552 9.25309 24.6534C9.61031 24.3454 18 17.0313 18 9.93168C17.9992 4.868 13.9621 0.748047 8.99961 0.748047ZM8.99961 23.8153C7.59553 22.5337 0.783961 16.0009 0.783961 9.93168C0.783961 5.30906 4.46936 1.54804 8.99961 1.54804C13.5299 1.54804 17.2153 5.30906 17.2153 9.93168C17.2153 15.9967 10.4037 22.5329 8.99961 23.8153Z" fill="#0041BD"/>
<path d="M8.99977 6.05566C7.01949 6.05566 5.40845 7.69965 5.40845 9.72044C5.40845 11.7412 7.01949 13.3855 8.99977 13.3855C10.9801 13.3855 12.5911 11.7415 12.5911 9.7207C12.5911 7.69992 10.9801 6.05566 8.99977 6.05566ZM8.99977 12.5855C7.45171 12.5855 6.19241 11.3004 6.19241 9.7207C6.19241 8.14098 7.45171 6.85566 8.99977 6.85566C10.5478 6.85566 11.8071 8.14072 11.8071 9.72044C11.8071 11.3002 10.5478 12.5855 8.99977 12.5855Z" fill="#0041BD"/>
</svg>
