<svg width="19" height="20" viewBox="0 0 19 20" fill="none" xmlns="http://www.w3.org/2000/svg">
<path d="M10.1217 4.65277C11.215 4.87803 12.2326 5.43684 13.0646 6.26863C13.8964 7.10064 14.4553 8.11821 14.6805 9.21157C14.7213 9.40896 14.8952 9.54491 15.0892 9.54491C15.1171 9.54491 15.1456 9.54196 15.1739 9.53626C15.3998 9.4896 15.545 9.26878 15.4986 9.04288C15.2402 7.78929 14.6028 6.62563 13.6551 5.67815C12.7076 4.73046 11.544 4.0931 10.2904 3.8347C10.0645 3.78868 9.84342 3.9335 9.79697 4.15939C9.75052 4.3855 9.89598 4.60632 10.1217 4.65277Z" fill="#0041BD"/>
<path d="M15.478 12.2935C14.544 11.3591 13.0237 11.3593 12.0895 12.2935L11.3555 13.0276C11.0173 13.3653 10.4821 13.4078 10.0829 13.1285C9.33762 12.6075 8.62848 12.0117 7.97465 11.3581C7.32125 10.7047 6.72548 9.99534 6.20402 9.2499C5.92471 8.85047 5.96714 8.3153 6.30493 7.97731L7.0392 7.24306C7.97339 6.30909 7.97339 4.78886 7.0392 3.85468L5.38024 2.19575C4.44605 1.26157 2.92601 1.26157 1.99203 2.19575L1.23581 2.95196C0.298235 3.8893 -0.147432 5.2056 0.0434176 6.47312C0.306047 8.21713 0.954809 9.99893 1.91919 11.6251C2.61123 12.7983 3.46288 13.8942 4.45069 14.8818C5.43851 15.8696 6.5342 16.7212 7.70675 17.4128C9.33382 18.3776 11.1156 19.0264 12.8595 19.289C13.0529 19.3183 13.2471 19.3327 13.4413 19.3327C14.5195 19.3327 15.5863 18.8913 16.3807 18.0968L17.1369 17.3406C18.0711 16.4064 18.0711 14.8864 17.1369 13.9525L15.478 12.2935ZM16.5462 16.7501L15.79 17.5063C15.039 18.2571 13.9896 18.6151 12.9836 18.4635C11.3451 18.2167 9.6676 17.6051 8.13151 16.6944C7.01872 16.038 5.97897 15.2295 5.04076 14.2915C4.10277 13.3535 3.29441 12.3136 2.63762 11.2002C1.72707 9.66495 1.11547 7.98744 0.868884 6.34899C0.717302 5.34261 1.07515 4.29338 1.82609 3.54266L2.58231 2.78645C3.19096 2.17802 4.18088 2.17802 4.78953 2.78645L6.44849 4.44538C7.05693 5.05402 7.05693 6.04414 6.44849 6.65278L5.71444 7.38682C5.08953 8.01172 5.00762 8.99656 5.51979 9.72871C6.06911 10.5138 6.69634 11.2608 7.38395 11.9488L7.6793 11.6534L7.38395 11.9488C8.07219 12.6368 8.81912 13.264 9.60405 13.8129C10.3362 14.3253 11.3211 14.2427 11.946 13.6183L12.68 12.8842C13.2887 12.2756 14.2786 12.2756 14.8875 12.8842L16.5464 14.5432C17.1546 15.1514 17.1546 16.1417 16.5462 16.7501Z" fill="#0041BD"/>
<path d="M16.1335 3.19961C14.5073 1.57341 12.4628 0.529451 10.5244 0.335227C10.2955 0.311582 10.0903 0.479628 10.0673 0.709109C10.0443 0.938589 10.2117 1.14316 10.4412 1.16617C12.1911 1.3416 14.0509 2.29774 15.543 3.78989C17.0352 5.28225 17.9916 7.14174 18.1668 8.89166C18.1883 9.10699 18.3699 9.26765 18.5819 9.26765C18.5958 9.26765 18.6099 9.26702 18.6239 9.26554C18.8534 9.24253 19.0208 9.03796 18.9978 8.80848C18.8037 6.87024 17.7596 4.82582 16.1335 3.19961Z" fill="#0041BD"/>
</svg>
