<svg width="20" height="16" viewBox="0 0 20 16" fill="none" xmlns="http://www.w3.org/2000/svg">
<path d="M18.0833 0.996094H1.91667C0.859778 0.996094 0 1.83738 0 2.87153V14.1207C0 15.1548 0.859778 15.9961 1.91667 15.9961H18.0833C19.1402 15.9961 20 15.1548 20 14.1207V2.87153C20 1.83738 19.1402 0.996094 18.0833 0.996094ZM19.3333 14.1207C19.3333 14.7952 18.7727 15.3438 18.0833 15.3438H1.91667C1.22733 15.3438 0.666667 14.7952 0.666667 14.1207V2.87153C0.666667 2.19702 1.22733 1.64842 1.91667 1.64842H18.0833C18.7727 1.64842 19.3333 2.19702 19.3333 2.87153V14.1207Z" fill="#0041BD"/>
<path d="M16.8321 3.53664L10.0001 9.57916L3.16809 3.53642C3.03121 3.41552 2.82054 3.42596 2.69721 3.55968C2.57365 3.69341 2.58432 3.89955 2.72098 4.02045L7.94498 8.64089L3.16454 13.175C3.03232 13.3005 3.02898 13.5068 3.15721 13.6362C3.22254 13.7023 3.30965 13.7354 3.39654 13.7354C3.48009 13.7354 3.56365 13.7047 3.62854 13.6434L8.44054 9.07926L9.77654 10.2608C9.7792 10.2632 9.78276 10.2639 9.78565 10.2663C9.81387 10.2898 9.84454 10.3085 9.87765 10.3213C9.88254 10.3232 9.88743 10.3241 9.89231 10.3259C9.92698 10.3374 9.96298 10.345 9.99965 10.345H9.99987H10.0001C10.0365 10.345 10.0725 10.3376 10.1074 10.3259C10.1123 10.3241 10.1172 10.3232 10.1221 10.3213C10.1552 10.3085 10.1861 10.2898 10.2143 10.2663C10.217 10.2639 10.2205 10.2632 10.2232 10.2608L11.5592 9.07926L16.3712 13.6434C16.4361 13.7047 16.5196 13.7354 16.6032 13.7354C16.6903 13.7354 16.7772 13.7023 16.8425 13.6362C16.9708 13.5068 16.9674 13.3005 16.8352 13.175L12.0552 8.64089L17.2792 4.02045C17.4159 3.89955 17.4265 3.69341 17.303 3.55968C17.1792 3.42617 16.9685 3.41574 16.8321 3.53664Z" fill="#0041BD"/>
</svg>