<svg width="42" height="40" viewBox="0 0 42 40" fill="none" xmlns="http://www.w3.org/2000/svg">
<path d="M41.7407 36.2972H39.4074V33.9639C39.4074 33.8951 39.3801 33.8292 39.3315 33.7806C39.2829 33.732 39.2169 33.7046 39.1481 33.7046H36.8148V13.4824H39.1481C39.2169 13.4824 39.2829 13.4551 39.3315 13.4065C39.3801 13.3579 39.4074 13.2919 39.4074 13.2232V10.6306C39.4074 10.5618 39.3801 10.4959 39.3315 10.4472C39.2829 10.3986 39.2169 10.3713 39.1481 10.3713H36.6333L21.1452 0.0424259C21.1018 0.0147211 21.0515 0 21 0C20.9485 0 20.8982 0.0147211 20.8548 0.0424259L5.36667 10.3713H2.85185C2.78309 10.3713 2.71715 10.3986 2.66853 10.4472C2.61991 10.4959 2.59259 10.5618 2.59259 10.6306V13.2232C2.59259 13.2919 2.61991 13.3579 2.66853 13.4065C2.71715 13.4551 2.78309 13.4824 2.85185 13.4824H5.18518V33.7046H2.85185C2.78309 33.7046 2.71715 33.732 2.66853 33.7806C2.61991 33.8292 2.59259 33.8951 2.59259 33.9639V36.2972H0.259259C0.190499 36.2972 0.124556 36.3246 0.0759351 36.3732C0.0273145 36.4218 0 36.4877 0 36.5565V39.1491C0 39.2179 0.0273145 39.2838 0.0759351 39.3324C0.124556 39.381 0.190499 39.4084 0.259259 39.4084H41.7407C41.8095 39.4084 41.8754 39.381 41.9241 39.3324C41.9727 39.2838 42 39.2179 42 39.1491V36.5565C42 36.4877 41.9727 36.4218 41.9241 36.3732C41.8754 36.3246 41.8095 36.2972 41.7407 36.2972ZM41.4815 38.8898H0.518519V36.8158H41.4815V38.8898ZM3.11111 34.2232H38.8889V36.2972H3.11111V34.2232ZM21 0.571315L35.7 10.3713H6.3L21 0.571315ZM3.11111 10.8898H38.8889V12.9639H3.11111V10.8898ZM33.7037 33.7046H31.6296V13.4824H33.7037V33.7046ZM16.0741 23.5935C16.075 22.3331 16.5596 21.1211 17.4279 20.2075C18.2962 19.2939 19.482 18.7482 20.7407 18.6832V33.7046H16.0741V23.5935ZM21.2593 18.6676C22.518 18.7327 23.7038 19.2783 24.5721 20.1919C25.4404 21.1056 25.9249 22.3176 25.9259 23.578V33.7046H21.2593V18.6676ZM21 18.1491C19.5565 18.1505 18.1724 18.7245 17.1517 19.7452C16.131 20.766 15.5569 22.15 15.5556 23.5935V33.7046H13.4815V13.4824H28.5185V33.7046H26.4444V23.5935C26.4431 22.15 25.869 20.766 24.8483 19.7452C23.8276 18.7245 22.4435 18.1505 21 18.1491ZM10.8889 13.4824H12.963V33.7046H10.8889V13.4824ZM29.037 13.4824H31.1111V33.7046H29.037V13.4824ZM8.2963 13.4824H10.3704V33.7046H8.2963V13.4824ZM36.2963 33.7046H34.2222V13.4824H36.2963V33.7046ZM5.7037 13.4824H7.77778V33.7046H5.7037V13.4824Z" fill="#0041BD"/>
<path d="M21.0001 3.16992C20.364 3.16992 19.7423 3.3586 19.2135 3.71208C18.6847 4.06556 18.2727 4.56795 18.0295 5.15568C17.7863 5.74341 17.723 6.39007 17.8474 7.01383C17.9719 7.63758 18.2786 8.2104 18.7287 8.65979C19.1788 9.10918 19.7521 9.41495 20.3761 9.53841C21.0001 9.66187 21.6466 9.59746 22.2339 9.35335C22.8213 9.10923 23.323 8.69637 23.6756 8.16702C24.0283 7.63766 24.2159 7.0156 24.2149 6.37955C24.2135 5.52783 23.8742 4.71146 23.2715 4.10969C22.6687 3.50791 21.8518 3.16992 21.0001 3.16992ZM21.0001 9.07585C20.4668 9.07585 19.9455 8.91771 19.5021 8.62144C19.0587 8.32517 18.7131 7.90406 18.509 7.41138C18.305 6.9187 18.2516 6.37656 18.3556 5.85353C18.4596 5.3305 18.7164 4.85007 19.0935 4.47298C19.4706 4.0959 19.951 3.8391 20.4741 3.73506C20.9971 3.63103 21.5392 3.68442 22.0319 3.8885C22.5246 4.09257 22.9457 4.43817 23.242 4.88157C23.5383 5.32497 23.6964 5.84627 23.6964 6.37955C23.6964 7.09465 23.4123 7.78047 22.9067 8.28612C22.401 8.79177 21.7152 9.07585 21.0001 9.07585Z" fill="#0041BD"/>
</svg>
