<svg width="33" height="47" viewBox="0 0 33 47" fill="none" xmlns="http://www.w3.org/2000/svg">
<path d="M0.801325 19.5021H3.47929C3.61165 19.5021 3.74169 19.467 3.85632 19.4003C3.97095 19.3335 4.06614 19.2376 4.13233 19.122C4.19851 19.0065 4.23335 18.8754 4.23336 18.742C4.23336 18.6085 4.19852 18.4775 4.13233 18.3619L2.44706 15.4195V10.0472L6.40412 12.1822C5.68706 13.6904 5.31605 15.342 5.31859 17.0144C5.31859 18.4946 5.60781 19.9603 6.16972 21.3277C6.73164 22.6952 7.55526 23.9378 8.59355 24.9844C9.63184 26.031 10.8645 26.8612 12.2211 27.4277C13.5776 27.9941 15.0316 28.2856 16.5 28.2856C17.9684 28.2856 19.4223 27.9941 20.7789 27.4277C22.1355 26.8612 23.3682 26.031 24.4064 24.9844C25.4447 23.9378 26.2683 22.6952 26.8303 21.3277C27.3922 19.9603 27.6814 18.4946 27.6814 17.0144C27.6839 15.342 27.3129 13.6904 26.5959 12.1822L31.0044 9.80362C31.2093 9.69307 31.3807 9.52851 31.5001 9.32749C31.6196 9.12648 31.6827 8.89654 31.6827 8.66221C31.6827 8.42788 31.6196 8.19795 31.5001 7.99693C31.3807 7.79591 31.2093 7.63135 31.0044 7.5208L17.5674 0.270406C17.2392 0.092896 16.8725 0 16.5001 0C16.1276 0 15.761 0.092896 15.4328 0.270406L1.99563 7.52078C1.80504 7.62357 1.64327 7.77319 1.52532 7.95578C1.40737 8.13838 1.33706 8.34803 1.3209 8.56531C1.30474 8.78259 1.34325 9.00047 1.43287 9.19874C1.52249 9.39703 1.66031 9.56929 1.83357 9.69958V15.4194L0.148279 18.3619C0.0820953 18.4775 0.0472539 18.6085 0.0472545 18.742C0.047255 18.8754 0.0820979 19.0065 0.148282 19.122C0.214466 19.2376 0.309659 19.3335 0.424292 19.4003C0.538926 19.467 0.668959 19.5021 0.801325 19.5021ZM16.5001 27.6673C13.6982 27.6641 11.0121 26.5407 9.03086 24.5436C7.04966 22.5465 5.93524 19.8388 5.93208 17.0144C5.93471 14.1909 7.04927 11.4839 9.03086 9.48823C11.0124 7.49261 13.6989 6.37164 16.5 6.37164C19.3011 6.37164 21.9875 7.49261 23.9691 9.48823C25.9507 11.4839 27.0653 14.1909 27.0679 17.0144C27.0648 19.8387 25.9504 22.5465 23.9692 24.5436C21.988 26.5407 19.3019 27.6641 16.5001 27.6673ZM2.285 8.06614L15.7223 0.815747C15.9615 0.686405 16.2287 0.618718 16.5001 0.618718C16.7715 0.618718 17.0387 0.686405 17.2779 0.815747L30.7148 8.06614H30.715C30.822 8.12388 30.9115 8.20982 30.9739 8.31479C31.0363 8.41977 31.0692 8.53984 31.0692 8.66221C31.0692 8.78458 31.0363 8.90465 30.9739 9.00963C30.9115 9.1146 30.822 9.20054 30.715 9.25828L26.3213 11.629C26.2826 11.5574 26.239 11.4899 26.199 11.4195C26.1358 11.3081 26.0722 11.1971 26.0057 11.0884C25.9368 10.9759 25.865 10.8661 25.7926 10.7566C25.7226 10.6507 25.6525 10.545 25.5793 10.4419C25.5038 10.3355 25.4252 10.2322 25.3464 10.1289C25.27 10.0287 25.1938 9.92855 25.1143 9.83135C25.0323 9.73106 24.9473 9.63414 24.8622 9.53701C24.7798 9.44307 24.6979 9.34893 24.6128 9.25804C24.5246 9.16394 24.4333 9.07362 24.3422 8.98288C24.2543 8.89539 24.1671 8.80736 24.0766 8.72308C23.9826 8.63548 23.8855 8.552 23.7887 8.46787C23.6957 8.38706 23.6035 8.30542 23.508 8.22785C23.4083 8.14678 23.3054 8.07023 23.2031 7.99278C23.1056 7.91903 23.009 7.84414 22.9093 7.77371C22.8039 7.69927 22.6955 7.62982 22.5877 7.5592C22.4862 7.49274 22.3857 7.42478 22.2821 7.36168C22.1714 7.29427 22.0577 7.23214 21.9447 7.16865C21.8397 7.10966 21.7358 7.04885 21.6289 6.99329C21.5126 6.93283 21.3934 6.87824 21.275 6.82193C21.1674 6.77082 21.061 6.71749 20.9518 6.66982C20.8295 6.61648 20.7045 6.56949 20.5802 6.52054C20.4711 6.47755 20.3632 6.43199 20.2526 6.39243C20.1238 6.34642 19.9923 6.30724 19.8617 6.26591C19.7523 6.23137 19.6443 6.1937 19.5337 6.16251C19.397 6.12393 19.2578 6.09283 19.1192 6.05943C19.0117 6.0335 18.9054 6.00402 18.7968 5.98126C18.6493 5.95039 18.4995 5.92762 18.3503 5.90267C18.2481 5.88554 18.1472 5.8644 18.0442 5.8501C17.8758 5.82673 17.7053 5.81239 17.535 5.79661C17.4491 5.78869 17.3643 5.77623 17.278 5.77026C17.0204 5.75248 16.7611 5.74345 16.5001 5.74316C16.239 5.74316 15.9797 5.75221 15.7221 5.7703C15.6362 5.77623 15.5518 5.7886 15.4663 5.79649C15.2957 5.81223 15.1247 5.82669 14.9559 5.85013C14.8534 5.86432 14.7528 5.88542 14.6511 5.90244C14.5014 5.92743 14.3511 5.9503 14.2031 5.98129C14.0955 6.00382 13.9901 6.03311 13.8834 6.05878C13.7439 6.09237 13.6037 6.12374 13.4661 6.16258C13.3565 6.19349 13.2495 6.23079 13.1413 6.26498C13.0095 6.30662 12.8769 6.34617 12.7471 6.39256C12.6376 6.4317 12.5307 6.47684 12.4227 6.51938C12.2973 6.56873 12.1711 6.6162 12.0478 6.67002C11.9396 6.71721 11.8343 6.77001 11.7278 6.82059C11.6082 6.87739 11.488 6.93258 11.3706 6.99357C11.2647 7.0486 11.1617 7.10892 11.0577 7.16735C10.9437 7.23136 10.8291 7.29395 10.7174 7.36196C10.6146 7.42458 10.5149 7.49203 10.4141 7.55801C10.3055 7.62912 10.1964 7.6991 10.0903 7.77403C9.99109 7.84406 9.89512 7.91848 9.79819 7.99178C9.69531 8.06961 9.59198 8.14661 9.49172 8.22806C9.39664 8.30532 9.3048 8.38663 9.21217 8.46713C9.11496 8.55161 9.01742 8.63548 8.92301 8.72343C8.83292 8.80741 8.74606 8.89498 8.65859 8.98205C8.56712 9.07317 8.47549 9.16383 8.38699 9.25827C8.30205 9.34893 8.22035 9.44285 8.13823 9.53651C8.0529 9.6338 7.96763 9.73101 7.88544 9.8316C7.80621 9.92853 7.73018 10.0284 7.65392 10.1283C7.5749 10.2319 7.49615 10.3355 7.42042 10.4422C7.34739 10.5451 7.27748 10.6505 7.20761 10.7563C7.13515 10.8659 7.06324 10.9758 6.99427 11.0884C6.92773 11.1971 6.86418 11.308 6.801 11.4195C6.76101 11.4899 6.71733 11.5574 6.67871 11.629L2.28499 9.25827C2.17796 9.20053 2.08848 9.1146 2.0261 9.00962C1.96371 8.90464 1.93076 8.78457 1.93076 8.6622C1.93076 8.53983 1.96371 8.41976 2.0261 8.31478C2.08848 8.20981 2.17796 8.12387 2.28499 8.06613L2.285 8.06614ZM0.679576 18.6711L2.00391 16.3589H2.27667L3.60102 18.6711C3.61336 18.6927 3.61985 18.7171 3.61985 18.742C3.61985 18.7668 3.61336 18.7913 3.60102 18.8128C3.58868 18.8344 3.57093 18.8523 3.54956 18.8647C3.52819 18.8771 3.50395 18.8837 3.47927 18.8837H0.801325C0.776647 18.8837 0.752403 18.8771 0.731028 18.8647C0.709654 18.8523 0.691904 18.8344 0.679564 18.8128C0.667224 18.7913 0.66073 18.7669 0.660732 18.742C0.660734 18.7171 0.667233 18.6927 0.679576 18.6711ZM24.0909 29.9259H8.90906C6.54705 29.9287 4.28257 30.8757 2.61238 32.5593C0.942192 34.2429 0.00269637 36.5256 0 38.9066V47H33V38.9066C32.9973 36.5256 32.0578 34.2429 30.3876 32.5593C28.7174 30.8757 26.4529 29.9287 24.0909 29.9259ZM23.3392 30.5444L16.5001 37.4384L9.66081 30.5444H23.3392ZM32.3865 46.3816H0.613485V38.9066C0.616157 36.7095 1.47566 34.6016 3.00651 33.0377C4.53736 31.4738 6.61682 30.5793 8.79614 30.5472L16.5001 38.3129L24.2039 30.5472C26.3832 30.5793 28.4626 31.4738 29.9935 33.0377C31.5243 34.6016 32.3838 36.7095 32.3865 38.9066L32.3865 46.3816ZM21.4761 12.3962C20.4874 12.3977 19.5355 12.7745 18.8099 13.4515C18.0843 14.1285 17.6383 15.0561 17.5605 16.0497H15.4395C15.3603 15.0286 14.8919 14.0782 14.1326 13.3976C13.3734 12.7171 12.3822 12.3593 11.367 12.3992C10.3517 12.4392 9.3913 12.8739 8.68704 13.6121C7.98278 14.3503 7.5894 15.3347 7.5894 16.3589C7.5894 17.383 7.98278 18.3674 8.68704 19.1056C9.3913 19.8438 10.3517 20.2785 11.367 20.3185C12.3822 20.3585 13.3734 20.0007 14.1326 19.3201C14.8919 18.6396 15.3603 17.6891 15.4395 16.6681H17.5605C17.6204 17.4359 17.9012 18.1695 18.3684 18.779C18.8355 19.3885 19.4689 19.8475 20.1908 20.0997C20.9128 20.352 21.692 20.3866 22.4332 20.1993C23.1743 20.0121 23.8453 19.611 24.3638 19.0453C24.8824 18.4796 25.226 17.7737 25.3528 17.0142C25.4795 16.2546 25.3838 15.4743 25.0774 14.7687C24.7709 14.0631 24.2671 13.4629 23.6274 13.0415C22.9878 12.6202 22.2402 12.3959 21.4761 12.3962V12.3962ZM11.5239 19.7031C10.8677 19.703 10.2263 19.5069 9.68076 19.1394C9.13521 18.7719 8.71002 18.2496 8.45894 17.6385C8.20786 17.0275 8.14219 16.355 8.27021 15.7063C8.39824 15.0576 8.71422 14.4618 9.17819 13.9941C9.64217 13.5264 10.2333 13.2079 10.8768 13.0789C11.5204 12.9499 12.1874 13.0161 12.7936 13.2692C13.3998 13.5223 13.918 13.951 14.2825 14.5009C14.647 15.0509 14.8416 15.6974 14.8416 16.3589C14.8406 17.2455 14.4908 18.0956 13.8688 18.7225C13.2468 19.3495 12.4035 19.7021 11.5239 19.7031ZM21.4761 19.7031C20.82 19.7031 20.1786 19.5069 19.633 19.1395C19.0874 18.772 18.6622 18.2497 18.4111 17.6386C18.16 17.0276 18.0943 16.3551 18.2223 15.7064C18.3503 15.0577 18.6663 14.4618 19.1302 13.9941C19.5942 13.5264 20.1854 13.2079 20.8289 13.0789C21.4724 12.9499 22.1395 13.0161 22.7457 13.2692C23.3519 13.5223 23.87 13.951 24.2346 14.5009C24.5991 15.0509 24.7937 15.6974 24.7937 16.3589C24.7927 17.2455 24.4428 18.0955 23.8209 18.7225C23.1989 19.3494 22.3557 19.7021 21.4761 19.7031H21.4761Z" fill="#0041BD"/>
</svg>
