<svg width="45" height="48" viewBox="0 0 45 48" fill="none" xmlns="http://www.w3.org/2000/svg">
<path d="M35.4699 30.806C36.0949 30.806 36.6015 30.3011 36.6015 29.6782C36.6015 29.0553 36.0949 28.5503 35.4699 28.5503C34.845 28.5503 34.3384 29.0553 34.3384 29.6782C34.3384 30.3011 34.845 30.806 35.4699 30.806Z" fill="white"/>
<path d="M42.9129 28.5207H41.198C41.1628 28.5207 41.1477 28.4806 41.1427 28.4706C40.0966 25.8138 37.9543 23.4578 34.9117 21.6733C34.8654 21.4304 34.8419 21.1837 34.8413 20.9364C34.8447 20.3378 34.9862 19.748 35.2548 19.2126C35.5234 18.6772 35.9118 18.2105 36.3902 17.8486C36.5441 17.7348 36.6638 17.5812 36.7365 17.4045C36.8092 17.2278 36.8321 17.0347 36.8026 16.846C36.7762 16.6565 36.7 16.4774 36.5816 16.3268C36.4633 16.1763 36.307 16.0596 36.1287 15.9888C35.5591 15.7628 34.9514 15.6471 34.3383 15.648C33.2264 15.6517 32.1483 16.0294 31.2785 16.7199C30.4087 17.4104 29.7981 18.3733 29.5456 19.4526C29.537 19.4567 29.5275 19.4588 29.518 19.4588C29.5084 19.4588 29.499 19.4567 29.4903 19.4526C27.3144 18.8792 25.0724 18.5927 22.8217 18.6005C12.5624 18.6005 4.17894 24.4103 3.80679 31.6337C3.18318 31.6086 2.04661 31.4582 1.44312 30.6913C0.905009 30.0346 0.879864 28.9819 1.33248 27.5783C1.37373 27.452 1.363 27.3146 1.30266 27.1962C1.24231 27.0777 1.13727 26.988 1.01062 26.9467C0.883908 26.9056 0.746004 26.9163 0.627194 26.9765C0.508385 27.0366 0.418383 27.1413 0.376956 27.2675C-0.196359 29.012 -0.125952 30.3805 0.658584 31.3329C1.52862 32.4307 3.01722 32.6262 3.80679 32.6512C3.98784 36.2203 6.07491 39.5187 9.73105 41.985C9.74495 41.9925 9.75567 42.0047 9.76121 42.0195C9.76676 42.0342 9.76676 42.0505 9.76122 42.0652L8.69003 44.3711C8.5739 44.6193 8.50832 44.888 8.4971 45.1616C8.48588 45.4352 8.52923 45.7083 8.62465 45.9651C8.71732 46.222 8.86076 46.4578 9.04649 46.6584C9.23222 46.859 9.45645 47.0204 9.7059 47.1331L11.1492 47.7998C11.6509 48.0326 12.2247 48.0579 12.745 47.87C13.2653 47.6821 13.6897 47.2964 13.9253 46.7973L14.9613 44.5465C14.9646 44.5393 14.9692 44.5327 14.975 44.5272C14.9809 44.5218 14.9877 44.5175 14.9952 44.5147C15.0027 44.5119 15.0107 44.5106 15.0187 44.5109C15.0267 44.5112 15.0345 44.5131 15.0418 44.5165C17.5575 45.3035 20.18 45.6991 22.8167 45.6894C25.6175 45.7044 28.4012 45.2555 31.0544 44.3611L32.5631 46.9627C32.6996 47.198 32.8814 47.4042 33.098 47.5693C33.3146 47.7345 33.5618 47.8554 33.8254 47.9251C34.0021 47.9748 34.1849 48.0001 34.3685 48.0003C34.7343 47.9998 35.0934 47.9029 35.4095 47.7196L36.7875 46.9226C37.0258 46.7873 37.2344 46.6059 37.4011 46.3889C37.5678 46.172 37.6892 45.9239 37.7581 45.6594C37.83 45.3956 37.8488 45.1203 37.8134 44.8493C37.778 44.5783 37.6892 44.317 37.5519 44.0804L36.2393 41.8196C36.2287 41.807 36.2229 41.791 36.2229 41.7745C36.2229 41.758 36.2287 41.742 36.2393 41.7294C38.4779 40.2245 40.2081 38.0806 41.203 35.5787C41.2078 35.5663 41.216 35.5554 41.2266 35.5474C41.2373 35.5394 41.2501 35.5346 41.2634 35.5336H42.8878C43.1652 35.5336 43.4398 35.4791 43.6961 35.3733C43.9524 35.2675 44.1852 35.1124 44.3813 34.9169C44.5775 34.7214 44.7331 34.4893 44.8392 34.2339C44.9454 33.9785 45 33.7047 45 33.4282V30.6211C44.9987 30.0679 44.779 29.5374 44.3885 29.1444C43.9979 28.7513 43.4679 28.5273 42.9129 28.5207ZM44.0193 33.4332C44.0193 33.5781 43.9907 33.7215 43.9351 33.8553C43.8795 33.9891 43.798 34.1106 43.6953 34.213C43.5925 34.3155 43.4706 34.3967 43.3363 34.4521C43.2021 34.5075 43.0582 34.536 42.9129 34.536H41.2885C41.0687 34.538 40.8546 34.6066 40.6749 34.7329C40.4952 34.8592 40.3584 35.0371 40.2827 35.2428C39.3551 37.5492 37.7515 39.5233 35.6811 40.9073C35.4628 41.0614 35.3099 41.2911 35.2522 41.5515C35.1946 41.812 35.2363 42.0844 35.3693 42.3159L36.6819 44.5766C36.755 44.7029 36.8019 44.8424 36.8201 44.9871C36.8382 45.1317 36.8271 45.2785 36.7875 45.4188C36.7516 45.5553 36.6885 45.6834 36.6022 45.7953C36.5158 45.9072 36.4078 46.0008 36.2846 46.0704L34.9066 46.8624C34.7834 46.9345 34.647 46.9813 34.5054 47.0002C34.3638 47.0192 34.2198 47.0098 34.0819 46.9727C33.9448 46.9369 33.8164 46.8741 33.7041 46.788C33.5918 46.7019 33.498 46.5943 33.4281 46.4714L31.7886 43.6392L31.5673 43.138L31.1248 43.2984C28.4611 44.2489 25.651 44.7274 22.8217 44.712C20.2887 44.7244 17.7692 44.3439 15.3536 43.5841C15.1052 43.5038 14.8359 43.5171 14.5968 43.6215C14.3576 43.7259 14.1652 43.9141 14.0561 44.1505L13.01 46.3912C12.8852 46.6471 12.6639 46.8434 12.3945 46.9373C12.125 47.0312 11.8293 47.0151 11.5717 46.8925L10.1283 46.2258C9.99919 46.1673 9.8832 46.0834 9.78729 45.9792C9.69138 45.875 9.61752 45.7526 9.57012 45.6193C9.52022 45.4862 9.4972 45.3447 9.50237 45.2027C9.50755 45.0608 9.54083 44.9212 9.60029 44.7922L10.6765 42.4863C10.7835 42.2552 10.8038 41.9936 10.7337 41.7489C10.6635 41.5042 10.5076 41.2927 10.2943 41.1529C6.77395 38.7668 4.79752 35.5637 4.79752 32.1299C4.79752 25.2123 12.8843 19.598 22.8217 19.598C24.9812 19.5937 27.1319 19.8718 29.2187 20.4251C29.3575 20.4649 29.5029 20.4763 29.6461 20.4584C29.7894 20.4406 29.9275 20.3939 30.0521 20.3212C30.1767 20.2486 30.2852 20.1515 30.3711 20.0358C30.4569 19.9201 30.5183 19.7882 30.5514 19.6481C30.6803 19.1055 30.9243 18.5967 31.2671 18.1561C31.61 17.7154 32.0436 17.3532 32.5389 17.0938C33.0341 16.8344 33.5793 16.6839 34.1379 16.6524C34.6964 16.6209 35.2552 16.7091 35.7767 16.9112C35.7899 16.9162 35.8013 16.9251 35.8094 16.9368C35.8175 16.9484 35.8218 16.9622 35.8219 16.9763C35.8259 16.9841 35.828 16.9927 35.828 17.0014C35.828 17.0101 35.8259 17.0187 35.8219 17.0265C35.2162 17.4841 34.7249 18.0752 34.3864 18.7534C34.0479 19.4317 33.8714 20.1789 33.8706 20.9364C33.8593 21.2449 33.8778 21.5538 33.926 21.8588C33.955 22.0046 34.0149 22.1426 34.1016 22.2636C34.1883 22.3846 34.2999 22.4859 34.4289 22.5606C37.2452 24.2248 39.2417 26.3703 40.2073 28.8415C40.2846 29.0443 40.4226 29.2184 40.6025 29.3403C40.7824 29.4623 40.9955 29.5261 41.2131 29.5233H42.928C43.0731 29.5226 43.2168 29.5505 43.351 29.6054C43.4852 29.6603 43.6072 29.741 43.7101 29.843C43.8129 29.9451 43.8944 30.0663 43.9501 30.1998C44.0058 30.3333 44.0344 30.4765 44.0344 30.6211L44.0193 33.4332Z" fill="white"/>
<path d="M14.2672 17.2566C15.6826 17.2566 17.0662 16.8382 18.2431 16.0544C19.42 15.2706 20.3372 14.1566 20.8789 12.8531C21.4205 11.5497 21.5622 10.1155 21.2861 8.73179C21.01 7.34809 20.3284 6.07708 19.3276 5.07949C18.3267 4.0819 17.0516 3.40253 15.6634 3.1273C14.2752 2.85206 12.8363 2.99333 11.5286 3.53322C10.2209 4.07311 9.10326 4.98739 8.31691 6.16043C7.53055 7.33347 7.11084 8.7126 7.11084 10.1234C7.11217 12.0148 7.86657 13.8284 9.20837 15.1658C10.5502 16.5033 12.3696 17.2552 14.2672 17.2566ZM14.2672 3.99279C15.4837 3.99279 16.6728 4.35234 17.6843 5.02599C18.6958 5.69963 19.4841 6.6571 19.9496 7.77732C20.4151 8.89754 20.5369 10.1302 20.2996 11.3194C20.0623 12.5086 19.4765 13.601 18.6163 14.4584C17.7562 15.3158 16.6602 15.8997 15.4671 16.1362C14.274 16.3728 13.0374 16.2514 11.9135 15.7873C10.7896 15.3233 9.82905 14.5376 9.15321 13.5294C8.47738 12.5212 8.11666 11.3359 8.11666 10.1234C8.11799 8.49787 8.76642 6.9393 9.91959 5.78987C11.0728 4.64045 12.6364 3.99412 14.2672 3.99279Z" fill="white"/>
<path d="M26.0755 22.1689C22.7485 21.0987 19.1314 21.3871 16.0174 22.9709C15.9163 23.0225 15.8358 23.1066 15.7888 23.2095C15.7418 23.3125 15.7311 23.4283 15.7585 23.5381C15.7859 23.6479 15.8497 23.7452 15.9396 23.8142C16.0296 23.8832 16.1402 23.9199 16.2537 23.9183C16.3288 23.9146 16.4023 23.8959 16.47 23.8632C17.894 23.1362 19.4479 22.6965 21.0427 22.5692C22.6375 22.4419 24.2418 22.6295 25.7637 23.1213C25.8888 23.1569 26.0229 23.1428 26.1378 23.0819C26.2527 23.021 26.3395 22.9181 26.3798 22.7948C26.4202 22.6715 26.411 22.5374 26.3543 22.4207C26.2975 22.3039 26.1976 22.2137 26.0755 22.1689Z" fill="white"/>
<path d="M12.359 9.931H12.998V6.7H14.582C14.954 6.7 15.269 6.733 15.527 6.799C15.791 6.859 16.025 6.958 16.229 7.096C16.463 7.252 16.646 7.456 16.778 7.708C16.91 7.954 16.976 8.251 16.976 8.599C16.976 8.869 16.925 9.127 16.823 9.373C16.727 9.619 16.595 9.829 16.427 10.003C16.211 10.213 15.956 10.375 15.662 10.489C15.368 10.597 14.996 10.651 14.546 10.651H13.835V11.2H16.67V11.92H13.835V13H12.998V11.92H12.359V11.2H12.998V10.642H12.359V9.931ZM16.103 8.617C16.103 8.401 16.064 8.215 15.986 8.059C15.914 7.897 15.803 7.765 15.653 7.663C15.515 7.573 15.359 7.51 15.185 7.474C15.011 7.438 14.792 7.42 14.528 7.42H13.835V9.94H14.411C14.747 9.94 15.017 9.913 15.221 9.859C15.431 9.799 15.608 9.7 15.752 9.562C15.872 9.436 15.959 9.298 16.013 9.148C16.073 8.998 16.103 8.821 16.103 8.617Z" fill="white"/>
</svg>
