<svg width="40" height="33" viewBox="0 0 40 33" fill="none" xmlns="http://www.w3.org/2000/svg">
<path d="M36.8448 6.24967H27.1056V2.61541C27.1056 1.17355 25.9408 0 24.5088 0H15.4772C14.0452 0 12.8804 1.17355 12.8804 2.61541V6.24967H3.1552C1.4156 6.24967 0 7.67541 0 9.42748V19.7989H1.1072V29.8226C1.1072 31.5751 2.5228 33 4.2624 33H35.8176C37.5572 33 38.9724 31.5751 38.9724 29.8226V19.7989H40V9.42748C40 7.67541 38.5848 6.24967 36.8448 6.24967ZM13.5132 2.61541C13.5132 1.52485 14.3944 0.637335 15.4772 0.637335H24.5088C25.5916 0.637335 26.4728 1.52485 26.4728 2.61541V6.24967H24.9808V3.48923C24.9808 2.7403 24.3752 2.13036 23.632 2.13036H16.612C15.8684 2.13036 15.2632 2.7403 15.2632 3.48923V6.24967H13.5136V2.61541H13.5132ZM24.3476 3.48963V6.25007H15.8952V3.48963C15.8952 3.0916 16.2164 2.7681 16.6116 2.7681H23.6316C24.0264 2.7681 24.3476 3.09119 24.3476 3.48963ZM38.3396 29.8222C38.3396 31.223 37.208 32.3631 35.8172 32.3631H4.262C2.8712 32.3631 1.7396 31.223 1.7396 29.8222V19.7989H16.8064V21.8487C16.8064 22.5593 17.3804 23.1374 18.086 23.1374H21.9C22.6056 23.1374 23.1788 22.5589 23.1788 21.8487V19.7989H38.3392V29.8222H38.3396ZM16.6412 19.1611V17.3466C16.6412 16.8382 17.0516 16.4249 17.556 16.4249H22.4304C22.9348 16.4249 23.3448 16.8378 23.3448 17.3466V19.1611H16.6412ZM22.5468 19.7989V21.8487C22.5468 22.2084 22.256 22.5001 21.9 22.5001H18.086C17.7292 22.5001 17.4392 22.208 17.4392 21.8487V19.7989H22.5468ZM39.3672 19.1611H23.9772V17.3466C23.9772 16.4873 23.2832 15.7875 22.43 15.7875H17.5556C16.7024 15.7875 16.0084 16.4869 16.0084 17.3466V19.1611H0.6328V9.42748C0.6328 8.02631 1.7644 6.887 3.1552 6.887H36.8452C38.2364 6.887 39.3676 8.02631 39.3676 9.42748V19.1611H39.3672Z" fill="#0041BD"/>
</svg>
