<svg width="35" height="43" viewBox="0 0 35 43" fill="none" xmlns="http://www.w3.org/2000/svg">
<path d="M31.8718 28.0016C31.8718 25.4047 29.7553 23.292 27.1541 23.292C24.5525 23.292 22.436 25.4047 22.436 28.0016C22.436 30.5982 24.5525 32.7109 27.1541 32.7109C29.7553 32.7109 31.8718 30.5982 31.8718 28.0016ZM23.1264 28.0016C23.1264 25.7846 24.9331 23.9811 27.1541 23.9811C29.3748 23.9811 31.1815 25.7846 31.1815 28.0016C31.1815 30.2183 29.3748 32.0218 27.1541 32.0218C24.9331 32.0218 23.1264 30.2183 23.1264 28.0016Z" fill="#0041BD"/>
<path d="M32.1153 34.4854H29.3543C29.2387 34.4854 29.1305 34.5432 29.0665 34.6398L27.015 37.7317L24.9636 34.6398C24.8995 34.5432 24.7913 34.4854 24.6757 34.4854H21.9161C20.3247 34.4854 19.03 35.9251 19.03 37.695V42.6553C19.03 42.8457 19.1844 42.9998 19.3752 42.9998H22.5838C22.5844 42.9998 22.5849 43.0002 22.5855 43.0002C22.5861 43.0002 22.5866 42.9998 22.5872 42.9998H31.4432C31.4438 42.9998 31.4443 43.0002 31.4449 43.0002C31.4455 43.0002 31.446 42.9998 31.4466 42.9998H34.6549C34.8457 42.9998 35 42.8457 35 42.6553V37.695C35 35.9251 33.706 34.4854 32.1153 34.4854ZM34.3097 42.3107H31.7901V39.7377C31.7901 39.5473 31.6357 39.3932 31.4449 39.3932C31.2541 39.3932 31.0997 39.5473 31.0997 39.7377V42.3107H22.9307V39.7377C22.9307 39.5473 22.7763 39.3932 22.5855 39.3932C22.3947 39.3932 22.2403 39.5473 22.2403 39.7377V42.3107H19.7204V37.695C19.7204 36.305 20.7053 35.1745 21.9161 35.1745H24.4903L26.7272 38.5456C26.8553 38.7387 27.1748 38.7387 27.3029 38.5456L29.5397 35.1745H32.1153C33.3254 35.1745 34.3097 36.305 34.3097 37.695V42.3107Z" fill="#0041BD"/>
<path d="M12.8416 28.0016C12.8416 25.4047 10.725 23.292 8.12383 23.292C5.52227 23.292 3.40576 25.4047 3.40576 28.0016C3.40576 30.5982 5.52227 32.7109 8.12383 32.7109C10.725 32.7109 12.8416 30.5982 12.8416 28.0016ZM4.0961 28.0016C4.0961 25.7846 5.90283 23.9811 8.12383 23.9811C10.3445 23.9811 12.1512 25.7846 12.1512 28.0016C12.1512 30.2183 10.3445 32.0218 8.12383 32.0218C5.90283 32.0218 4.0961 30.2183 4.0961 28.0016Z" fill="#0041BD"/>
<path d="M13.0853 34.4854H10.3243C10.2087 34.4854 10.1005 34.5432 10.0365 34.6398L7.98501 37.7317L5.93356 34.6398C5.86952 34.5432 5.76132 34.4854 5.6457 34.4854H2.88605C1.29471 34.4854 0 35.9251 0 37.695V42.6553C0 42.8457 0.154381 42.9998 0.345167 42.9998H3.5538C3.55439 42.9998 3.5549 43.0002 3.55549 43.0002C3.55608 43.0002 3.55658 42.9998 3.55717 42.9998H12.4132C12.4138 42.9998 12.4143 43.0002 12.4149 43.0002C12.4155 43.0002 12.416 42.9998 12.4166 42.9998H15.6249C15.8156 42.9998 15.97 42.8457 15.97 42.6553V37.695C15.97 35.9251 14.676 34.4854 13.0853 34.4854ZM15.2797 42.3107H12.76V39.7377C12.76 39.5473 12.6057 39.3932 12.4149 39.3932C12.2241 39.3932 12.0697 39.5473 12.0697 39.7377V42.3107H3.90065V39.7377C3.90065 39.5473 3.74627 39.3932 3.55549 39.3932C3.3647 39.3932 3.21032 39.5473 3.21032 39.7377V42.3107H0.690333V37.695C0.690333 36.305 1.67527 35.1745 2.88605 35.1745H5.46031L7.69715 38.5456C7.82524 38.7387 8.14479 38.7387 8.27288 38.5456L10.5097 35.1745H13.0853C14.2954 35.1745 15.2797 36.305 15.2797 37.695V42.3107Z" fill="#0041BD"/>
<path d="M31.8718 4.70962C31.8718 2.11272 29.7553 0 27.1541 0C24.5525 0 22.436 2.11272 22.436 4.70962C22.436 7.30619 24.5525 9.41891 27.1541 9.41891C29.7553 9.41891 31.8718 7.30619 31.8718 4.70962ZM23.1264 4.70962C23.1264 2.4926 24.9331 0.689098 27.1541 0.689098C29.3748 0.689098 31.1815 2.4926 31.1815 4.70962C31.1815 6.92631 29.3748 8.72981 27.1541 8.72981C24.9331 8.72981 23.1264 6.92631 23.1264 4.70962Z" fill="#0041BD"/>
<path d="M32.1153 11.1934H29.3543C29.2387 11.1934 29.1305 11.2512 29.0665 11.3478L27.015 14.4397L24.9636 11.3478C24.8995 11.2512 24.7913 11.1934 24.6757 11.1934H21.9161C20.3247 11.1934 19.03 12.6331 19.03 14.403V19.3633C19.03 19.5537 19.1844 19.7078 19.3752 19.7078H22.5838C22.5844 19.7078 22.5849 19.7081 22.5855 19.7081C22.5861 19.7081 22.5866 19.7078 22.5872 19.7078H31.4432C31.4438 19.7078 31.4443 19.7081 31.4449 19.7081C31.4455 19.7081 31.446 19.7078 31.4466 19.7078H34.6549C34.8457 19.7078 35 19.5537 35 19.3633V14.403C35 12.6331 33.706 11.1934 32.1153 11.1934ZM34.3097 19.0187H31.7901V16.4457C31.7901 16.2553 31.6357 16.1012 31.4449 16.1012C31.2541 16.1012 31.0997 16.2553 31.0997 16.4457V19.0187H22.9307V16.4457C22.9307 16.2553 22.7763 16.1012 22.5855 16.1012C22.3947 16.1012 22.2403 16.2553 22.2403 16.4457V19.0187H19.7204V14.403C19.7204 13.013 20.7053 11.8825 21.9161 11.8825H24.4903L26.7272 15.2536C26.8553 15.4467 27.1748 15.4467 27.3029 15.2536L29.5397 11.8825H32.1153C33.3254 11.8825 34.3097 13.013 34.3097 14.403V19.0187Z" fill="#0041BD"/>
<path d="M12.8416 4.70962C12.8416 2.11272 10.725 0 8.12383 0C5.52227 0 3.40576 2.11272 3.40576 4.70962C3.40576 7.30619 5.52227 9.41891 8.12383 9.41891C10.725 9.41891 12.8416 7.30619 12.8416 4.70962ZM4.0961 4.70962C4.0961 2.4926 5.90283 0.689098 8.12383 0.689098C10.3445 0.689098 12.1512 2.4926 12.1512 4.70962C12.1512 6.92631 10.3445 8.72981 8.12383 8.72981C5.90283 8.72981 4.0961 6.92631 4.0961 4.70962Z" fill="#0041BD"/>
<path d="M13.0853 11.1934H10.3243C10.2087 11.1934 10.1005 11.2512 10.0365 11.3478L7.98501 14.4397L5.93356 11.3478C5.86952 11.2512 5.76132 11.1934 5.6457 11.1934H2.88605C1.29471 11.1934 0 12.6331 0 14.403V19.3633C0 19.5537 0.154381 19.7078 0.345167 19.7078H3.5538C3.55439 19.7078 3.5549 19.7081 3.55549 19.7081C3.55608 19.7081 3.55658 19.7078 3.55717 19.7078H12.4132C12.4138 19.7078 12.4143 19.7081 12.4149 19.7081C12.4155 19.7081 12.416 19.7078 12.4166 19.7078H15.6249C15.8156 19.7078 15.97 19.5537 15.97 19.3633V14.403C15.97 12.6331 14.676 11.1934 13.0853 11.1934ZM15.2797 19.0187H12.76V16.4457C12.76 16.2553 12.6057 16.1012 12.4149 16.1012C12.2241 16.1012 12.0697 16.2553 12.0697 16.4457V19.0187H3.90065V16.4457C3.90065 16.2553 3.74627 16.1012 3.55549 16.1012C3.3647 16.1012 3.21032 16.2553 3.21032 16.4457V19.0187H0.690333V14.403C0.690333 13.013 1.67527 11.8825 2.88605 11.8825H5.46031L7.69715 15.2536C7.82524 15.4467 8.14479 15.4467 8.27288 15.2536L10.5097 11.8825H13.0853C14.2954 11.8825 15.2797 13.013 15.2797 14.403V19.0187Z" fill="#0041BD"/>
</svg>
