<svg width="47" height="48" viewBox="0 0 47 48" fill="none" xmlns="http://www.w3.org/2000/svg">
<path d="M0.546421 0.78418C0.260324 0.784207 2.86858e-05 1.04455 4.85788e-08 1.33069C-6.07235e-08 4.98997 4.85788e-08 8.65655 4.85788e-08 12.3122C0.0253156 12.5808 0.276622 12.8086 0.546421 12.8074H11.4748C11.7609 12.8074 12.0212 12.5471 12.0213 12.2609V1.33069C12.0212 1.04455 11.7609 0.784207 11.4748 0.78418H0.546421ZM1.09284 1.8772H10.9284V11.7144H1.09284V1.8772ZM19.0223 3.51674C18.7362 3.54357 18.5003 3.82833 18.5271 4.11448C18.5539 4.40064 18.8386 4.63659 19.1247 4.60976H46.4458C46.7345 4.61413 47 4.35201 47 4.06325C47 3.77449 46.7345 3.51266 46.4458 3.51674C37.307 3.51674 28.1536 3.51674 19.0223 3.51674ZM19.0223 8.98185C18.7362 9.00869 18.5003 9.29345 18.5271 9.5796C18.5539 9.86575 18.8386 10.1017 19.1247 10.0749H38.2495C38.5382 10.0792 38.8037 9.81713 38.8037 9.52837C38.8037 9.23961 38.5382 8.97777 38.2495 8.98185C31.843 8.98185 25.4212 8.98185 19.0223 8.98185ZM0.546421 18.2726C0.260324 18.2726 2.86858e-05 18.5329 4.85788e-08 18.8191C-6.07235e-08 22.4783 4.85788e-08 26.1449 4.85788e-08 29.8005C0.0253156 30.0692 0.276622 30.297 0.546421 30.2958H11.4748C11.7609 30.2958 12.0212 30.0354 12.0213 29.7493V18.8191C12.0212 18.5329 11.7609 18.2726 11.4748 18.2726H0.546421ZM1.09284 19.3656H10.9284V29.2028H1.09284V19.3656ZM19.0223 21.0051C18.7362 21.0319 18.5003 21.3167 18.5271 21.6029C18.5539 21.889 18.8386 22.125 19.1247 22.0981H46.4458C46.7345 22.1025 47 21.8404 47 21.5516C47 21.2629 46.7345 21.001 46.4458 21.0051C37.307 21.0051 28.1536 21.0051 19.0223 21.0051ZM19.0223 26.4702C18.7362 26.497 18.5003 26.7818 18.5271 27.0679C18.5539 27.3541 18.8386 27.5901 19.1247 27.5632H38.2495C38.5382 27.5687 38.8037 27.3055 38.8037 27.0167C38.8037 26.728 38.5382 26.4661 38.2495 26.4702C31.843 26.4702 25.4212 26.4702 19.0223 26.4702ZM0.546421 35.7609C0.260324 35.7609 2.86858e-05 36.0213 4.85788e-08 36.3074C-6.07235e-08 39.9667 4.85788e-08 43.6333 4.85788e-08 47.2889C0.0253156 47.5576 0.276622 47.7853 0.546421 47.7842H11.4748C11.7609 47.7841 12.0212 47.5238 12.0213 47.2377V36.3074C12.0212 36.0213 11.7609 35.7609 11.4748 35.7609H0.546421ZM1.09284 36.8539H10.9284V46.6912H1.09284V36.8539ZM19.0223 38.4935C18.7362 38.5203 18.5003 38.8051 18.5271 39.0912C18.5539 39.3774 18.8386 39.6133 19.1247 39.5865H46.4458C46.7345 39.592 47 39.3287 47 39.04C47 38.7512 46.7345 38.4894 46.4458 38.4935C37.307 38.4935 28.1536 38.4935 19.0223 38.4935ZM19.0223 43.9586C18.7362 43.9854 18.5003 44.2702 18.5271 44.5563C18.5539 44.8425 18.8386 45.0785 19.1247 45.0516H38.2495C38.5382 45.0571 38.8037 44.7938 38.8037 44.5051C38.8037 44.2163 38.5382 43.9545 38.2495 43.9586C31.843 43.9586 25.4212 43.9586 19.0223 43.9586Z" fill="#0041BD"/>
<path d="M3.42272 7.1211L4.81938 8.59287L8.60025 4.60938L9.29055 5.0639L4.81938 9.77467L2.73242 7.57562L3.42272 7.1211Z" fill="#0041BD"/>
<path d="M3.42272 24.6094L4.81938 26.0812L8.60025 22.0977L9.29055 22.5522L4.81938 27.263L2.73242 25.0639L3.42272 24.6094Z" fill="#0041BD"/>
<path d="M3.42272 42.0982L4.81938 43.5699L8.60025 39.5864L9.29055 40.041L4.81938 44.7517L2.73242 42.5527L3.42272 42.0982Z" fill="#0041BD"/>
</svg>
