<svg width="40" height="37" viewBox="0 0 40 37" fill="none" xmlns="http://www.w3.org/2000/svg">
<path fill-rule="evenodd" clip-rule="evenodd" d="M1.90889 0H38.0905C39.1435 0 40 0.842143 40 1.87734V27.9765C40 29.0087 39.1434 29.8486 38.0905 29.8486H24.5436L25.1544 33.6136H27.8031C28.0727 33.6136 28.2914 33.8282 28.2914 34.0927V36.521C28.2914 36.7855 28.0727 37 27.8031 37H12.1964C11.9268 37 11.7082 36.7855 11.7082 36.521V34.0927C11.7082 33.8282 11.9268 33.6136 12.1964 33.6136H14.8451L15.4564 29.8486H1.90889C0.856263 29.8486 0 29.0088 0 27.9765V1.87726C0.000162757 0.842143 0.856426 0 1.90889 0ZM38.0905 0.958069H1.90889C1.39483 0.958069 0.976622 1.37044 0.976541 1.87726V22.9486H39.0235V1.87734C39.0235 1.37044 38.6049 0.958069 38.0905 0.958069ZM12.6847 36.0419H27.3148V34.5717H24.7394H24.7377H15.2618H12.6847V36.0419ZM15.834 33.6136H24.1656L23.5548 29.8486H16.4452L15.834 33.6136ZM23.9715 28.8905H38.0905C38.6049 28.8905 39.0235 28.4805 39.0235 27.9765V23.9066H0.976541V27.9765C0.976541 28.4805 1.39483 28.8905 1.90889 28.8905H16.0285H23.9715ZM18.0981 26.3988C18.0983 25.369 18.9514 24.5314 20 24.5314C21.0486 24.5314 21.9018 25.369 21.9018 26.3988C21.9018 27.4286 21.0487 28.2663 20 28.2663C18.9512 28.2663 18.0981 27.4285 18.0981 26.3988ZM19.0747 26.3988C19.0747 26.9003 19.4898 27.3082 20 27.3082C20.5101 27.3082 20.9252 26.9003 20.9252 26.3987C20.9252 25.8972 20.5101 25.4894 20 25.4894C19.4898 25.4894 19.0747 25.8973 19.0747 26.3988ZM17.1706 11.0107H36.0753C36.3449 11.0107 36.5636 10.7963 36.5636 10.5317V3.45522C36.5636 3.19064 36.3449 2.97619 36.0753 2.97619H17.1706C16.901 2.97619 16.6824 3.19064 16.6824 3.45522V10.5317C16.6824 10.7963 16.901 11.0107 17.1706 11.0107ZM17.6589 3.93426H35.5871V10.0526H17.6589V3.93426ZM17.2942 15.7219C17.2942 15.4574 17.5129 15.2428 17.7825 15.2428H36.3804C36.65 15.2428 36.8686 15.4574 36.8686 15.7219C36.8686 15.9864 36.65 16.2009 36.3804 16.2009H17.7825C17.5129 16.2009 17.2942 15.9864 17.2942 15.7219ZM36.3803 18.7182H17.7825C17.5129 18.7182 17.2942 18.9328 17.2942 19.1973C17.2942 19.4618 17.5129 19.6763 17.7825 19.6763H36.3804C36.65 19.6763 36.8686 19.4618 36.8686 19.1973C36.8686 18.9328 36.65 18.7182 36.3803 18.7182ZM13.7805 20.926H3.61962C3.34993 20.926 3.13135 20.7116 3.13135 20.447V3.40526C3.13135 3.14075 3.35001 2.92622 3.61962 2.92622H13.7805C14.0501 2.92622 14.2688 3.14075 14.2688 3.40526V20.447C14.2688 20.7115 14.0501 20.926 13.7805 20.926ZM13.2923 3.88429H4.10789V19.968H13.2923V3.88429Z" fill="white"/>
</svg>
