<svg width="35" height="41" viewBox="0 0 35 41" fill="none" xmlns="http://www.w3.org/2000/svg">
<path d="M17.4289 27.2885C14.9615 27.2885 12.5676 26.1089 10.6803 23.9626C8.62961 21.628 7.22434 18.2449 6.63609 14.1736L4.73244 1.05878C4.7161 0.952287 4.74878 0.845795 4.81414 0.763879C4.88767 0.681962 4.98571 0.632812 5.09192 0.632812H29.7577C29.8639 0.632812 29.962 0.681962 30.0355 0.763879C30.109 0.845795 30.1335 0.952287 30.1172 1.05878L28.2136 14.1736C27.6253 18.2449 26.22 21.628 24.1693 23.9626C22.2902 26.1089 19.8963 27.2885 17.4289 27.2885ZM5.52494 1.37006L7.37141 14.0671C7.94332 17.9991 9.28323 21.2512 11.2359 23.4793C12.9843 25.4617 15.1821 26.5512 17.4289 26.5512C19.6757 26.5512 21.8817 25.4617 23.6219 23.4793C25.5827 21.2512 26.9145 17.9991 27.4864 14.0671L29.3329 1.37006C29.341 1.37006 5.52494 1.37006 5.52494 1.37006Z" fill="#0041BD"/>
<path d="M7.649 17.5896C7.5673 17.5896 7.4856 17.565 7.42024 17.5076L3.60476 14.4276C0.761542 12.1339 -0.513006 9.12758 0.18963 6.37518C0.786053 4.05694 2.66519 2.39404 5.22246 1.94349C5.41854 1.91073 5.61463 2.04179 5.64731 2.23839C5.67999 2.43499 5.54927 2.63159 5.35318 2.66436C3.09004 3.06575 1.4315 4.52387 0.908606 6.56359C0.279502 9.02108 1.46418 11.7489 4.07046 13.8542L7.88594 16.9342C8.04117 17.0653 8.06568 17.2947 7.94313 17.4503C7.86143 17.5486 7.75522 17.5896 7.649 17.5896Z" fill="#0041BD"/>
<path d="M19.3894 31.2288H15.4678C15.2635 31.2288 15.1001 31.065 15.1001 30.8602V26.6579C15.1001 26.5432 15.1573 26.4367 15.2472 26.363C15.337 26.2893 15.4596 26.2729 15.5658 26.2974C16.7913 26.6333 18.074 26.6333 19.2996 26.2974C19.414 26.2647 19.5283 26.2893 19.6182 26.363C19.7081 26.4367 19.7653 26.5432 19.7653 26.6579V30.8684C19.7571 31.065 19.5937 31.2288 19.3894 31.2288ZM15.8354 30.4916H19.0218V27.1166C17.9678 27.3378 16.8894 27.3378 15.8354 27.1166V30.4916Z" fill="#0041BD"/>
<path d="M23.2622 35.9387H11.5952C11.3909 35.9387 11.2275 35.7748 11.2275 35.57V33.2108C11.2275 31.7118 12.4449 30.4912 13.94 30.4912H20.9174C22.4125 30.4912 23.6299 31.7118 23.6299 33.2108V35.5619C23.6299 35.7666 23.4665 35.9387 23.2622 35.9387ZM11.9629 35.2014H22.8946V33.2108C22.8946 32.1214 22.004 31.2285 20.9174 31.2285H13.94C12.8452 31.2285 11.9629 32.1214 11.9629 33.2108V35.2014Z" fill="#0041BD"/>
<path d="M26.2442 40.6326H8.62108C8.41682 40.6326 8.25342 40.4688 8.25342 40.264V37.913C8.25342 36.4139 9.47078 35.1934 10.9659 35.1934H23.9075C25.4026 35.1934 26.62 36.4139 26.62 37.913V40.264C26.6118 40.4688 26.4484 40.6326 26.2442 40.6326ZM8.98873 39.8954H25.8765V37.913C25.8765 36.8235 24.9941 35.9306 23.8993 35.9306H10.9659C9.87929 35.9306 8.98873 36.8153 8.98873 37.913V39.8954Z" fill="#0041BD"/>
<path d="M27.1757 17.7211C27.0695 17.7211 26.9633 17.672 26.8897 17.5819C26.759 17.4262 26.7835 17.1887 26.9469 17.0658L30.9258 13.8547C33.5484 11.733 34.7331 8.99703 34.0795 6.52315C33.5321 4.46705 31.8327 3.01713 29.5287 2.64032C29.3244 2.60755 29.1937 2.41914 29.2264 2.21435C29.2591 2.00956 29.447 1.87849 29.6512 1.91126C32.2167 2.32084 34.1857 4.01651 34.7985 6.32655C35.5256 9.08714 34.2592 12.118 31.3997 14.4199L27.4208 17.631C27.3391 17.6966 27.2574 17.7211 27.1757 17.7211Z" fill="#0041BD"/>
<path d="M22.1102 20.0557C22.0367 20.0557 21.955 20.0311 21.8896 19.982L17.4287 16.7135L12.9678 19.982C12.8371 20.0803 12.6655 20.0803 12.5348 19.982C12.4041 19.8919 12.355 19.7198 12.4041 19.5724L14.1198 14.3052L9.64253 11.0613C9.51181 10.9712 9.46279 10.7991 9.51181 10.6517C9.56083 10.496 9.69973 10.3977 9.86313 10.3977L15.3862 10.4059L17.0856 5.13871C17.1346 4.98307 17.2735 4.88477 17.4369 4.88477C17.6003 4.88477 17.7392 4.99126 17.7882 5.13871L19.4876 10.4059L25.0107 10.3977C25.1659 10.3977 25.313 10.5042 25.362 10.6517C25.411 10.8073 25.3538 10.9712 25.2313 11.0613L20.754 14.3052L22.4697 19.5724C22.5188 19.728 22.4616 19.8919 22.339 19.982C22.2655 20.0311 22.1838 20.0557 22.1102 20.0557ZM17.4287 15.8943C17.5023 15.8943 17.584 15.9189 17.6493 15.9681L21.4076 18.7205L19.9615 14.2888C19.9125 14.1331 19.9697 13.9693 20.0922 13.8792L23.8587 11.1514L19.2098 11.1596C19.0464 11.1596 18.9075 11.0531 18.8585 10.9056L17.4287 6.46575L15.9989 10.9056C15.9499 11.0613 15.811 11.1596 15.6476 11.1596L10.9988 11.1514L14.7652 13.8792C14.896 13.9693 14.9532 14.1413 14.896 14.2888L13.458 18.7123L17.2163 15.9599C17.2817 15.9189 17.3552 15.8943 17.4287 15.8943Z" fill="#0041BD"/>
</svg>
