<svg width="48" height="56" viewBox="0 0 48 56" fill="none" xmlns="http://www.w3.org/2000/svg">
<path d="M40.2816 50.5613H40.2366C40.0249 50.5613 39.838 50.4229 39.7756 50.2202C39.7133 50.0174 39.7899 49.7974 39.9647 49.6778L39.9949 49.6564C40.1419 49.5508 40.3383 49.5341 40.4993 49.6172C40.6602 49.7 40.764 49.8642 40.764 50.0456V50.0776C40.764 50.3446 40.548 50.5613 40.2816 50.5613Z" fill="#0041BD"/>
<path d="M34.2514 50.5613H0.482414C0.216001 50.5613 0 50.3446 0 50.0774V0.48384C0 0.216639 0.216001 0 0.482414 0H40.2816C40.548 0 40.764 0.216639 40.764 0.48384V33.6017C40.764 33.8689 40.548 34.0856 40.2816 34.0856C40.0152 34.0856 39.7992 33.8689 39.7992 33.6017V0.967559H0.964829V49.5935H34.2514C34.5178 49.5935 34.7338 49.8101 34.7338 50.0773C34.7338 50.3445 34.5178 50.5613 34.2514 50.5613Z" fill="#0041BD"/>
<path d="M31.0601 45.7225H9.48797C9.22155 45.7225 9.00555 45.5059 9.00555 45.2387C9.00555 43.193 7.34628 41.5287 5.30663 41.5287C5.04022 41.5287 4.82422 41.3121 4.82422 41.0449V9.51542C4.82422 9.24822 5.04022 9.03158 5.30663 9.03158C7.34628 9.03158 9.00555 7.36741 9.00555 5.32173C9.00555 5.05453 9.22155 4.83789 9.48797 4.83789H31.2762C31.5427 4.83789 31.7587 5.05453 31.7587 5.32173C31.7587 7.36741 33.418 9.03158 35.4576 9.03158C35.724 9.03158 35.94 9.24822 35.94 9.51542V33.9969C35.94 34.2641 35.724 34.4807 35.4576 34.4807C35.1912 34.4807 34.9752 34.2641 34.9752 33.9969V9.97434C32.7881 9.74778 31.0444 7.99906 30.8185 5.80557H9.94554C9.71965 7.99906 7.97608 9.7479 5.78905 9.97434V40.5857C7.97608 40.8123 9.71977 42.5611 9.94554 44.7547H31.0601C31.3265 44.7547 31.5425 44.9714 31.5425 45.2386C31.5425 45.5058 31.3265 45.7225 31.0601 45.7225Z" fill="#0041BD"/>
<path d="M31.0601 45.7225H9.48797C9.22155 45.7225 9.00555 45.5059 9.00555 45.2387C9.00555 43.193 7.34628 41.5287 5.30663 41.5287C5.04022 41.5287 4.82422 41.3121 4.82422 41.0449V9.51542C4.82422 9.24822 5.04022 9.03158 5.30663 9.03158C7.34628 9.03158 9.00555 7.36741 9.00555 5.32173C9.00555 5.05453 9.22155 4.83789 9.48797 4.83789H31.2762C31.5427 4.83789 31.7587 5.05453 31.7587 5.32173C31.7587 7.36741 33.418 9.03158 35.4576 9.03158C35.724 9.03158 35.94 9.24822 35.94 9.51542V33.9969C35.94 34.2641 35.724 34.4807 35.4576 34.4807C35.1912 34.4807 34.9752 34.2641 34.9752 33.9969V9.97434C32.7881 9.74778 31.0444 7.99906 30.8185 5.80557H9.94554C9.71965 7.99906 7.97608 9.7479 5.78905 9.97434V40.5857C7.97608 40.8123 9.71977 42.5611 9.94554 44.7547H31.0601C31.3265 44.7547 31.5425 44.9714 31.5425 45.2386C31.5425 45.5058 31.3265 45.7225 31.0601 45.7225Z" fill="#0041BD"/>
<path d="M38.8629 46.7699C36.1443 46.7699 33.9324 44.5509 33.9324 41.8235C33.9324 39.0968 36.1443 36.8784 38.8629 36.8784C41.5825 36.8784 43.795 39.0968 43.795 41.8235C43.795 44.5509 41.5825 46.7699 38.8629 46.7699ZM38.8629 37.8461C36.6763 37.8461 34.8972 39.6304 34.8972 41.8235C34.8972 44.0174 36.6763 45.8022 38.8629 45.8022C41.0505 45.8022 42.8301 44.0174 42.8301 41.8235C42.8301 39.6304 41.0505 37.8461 38.8629 37.8461Z" fill="#0041BD"/>
<path d="M45.0792 55.9999C45.0279 55.9999 44.976 55.9917 44.9256 55.9746L38.7091 53.8776C38.5128 53.8115 38.3805 53.6269 38.3805 53.4191V50.5038C38.3805 50.2366 38.5965 50.02 38.8629 50.02C39.5186 50.02 40.1268 49.6944 40.4901 49.1488C40.6243 48.9471 40.8868 48.8764 41.1036 48.983C41.5893 49.222 42.1694 49.2497 42.6708 49.0565C42.7908 49.0103 42.9245 49.014 43.042 49.0671C43.1593 49.12 43.2506 49.218 43.2957 49.339L45.5313 55.3468C45.5964 55.5216 45.5554 55.7183 45.426 55.8526C45.3337 55.9484 45.2079 55.9999 45.0792 55.9999ZM39.3453 53.0714L44.2732 54.7338L42.5477 50.0967C42.0559 50.1957 41.5314 50.1636 41.0486 50.0034C40.605 50.5055 40.0042 50.8382 39.3452 50.9481V53.0714H39.3453Z" fill="#0041BD"/>
<path d="M32.5464 55.9997C32.4161 55.9997 32.289 55.9467 32.1964 55.849C32.0678 55.713 32.0288 55.5147 32.0969 55.3401L34.4327 49.3323C34.5292 49.0843 34.807 48.9608 35.0548 49.0563C35.5577 49.2498 36.1364 49.2219 36.6224 48.983C36.8394 48.8765 37.1012 48.9469 37.2356 49.1481C37.6001 49.6941 38.2086 50.02 38.863 50.02C39.1294 50.02 39.3454 50.2366 39.3454 50.5038V53.419C39.3454 53.6277 39.2121 53.8129 39.0146 53.8784L32.6978 55.9754C32.6481 55.9917 32.597 55.9997 32.5464 55.9997ZM35.1718 50.0951L33.3684 54.7334L38.3807 53.0695V50.9477C37.7228 50.8378 37.1219 50.505 36.6779 50.003C36.1926 50.1641 35.6659 50.196 35.1718 50.0951Z" fill="#0041BD"/>
<path d="M38.8628 50.9872C38.1179 50.9872 37.4086 50.7064 36.8658 50.1963C36.7467 50.0846 36.5775 50.039 36.4192 50.0763C35.7028 50.2442 34.9324 50.1301 34.2946 49.7597C33.6495 49.3862 33.1753 48.7871 32.9594 48.0732C32.9117 47.9156 32.7895 47.7929 32.6324 47.7452C31.9194 47.5284 31.3218 47.0528 30.9493 46.4061C30.5773 45.7598 30.4656 45.0034 30.6351 44.2759C30.6726 44.115 30.6276 43.9471 30.5151 43.8269C30.006 43.2828 29.7257 42.5712 29.7257 41.8232C29.7257 41.0757 30.0061 40.3642 30.5153 39.82C30.6279 39.6998 30.6728 39.532 30.6353 39.3712C30.4656 38.6431 30.5773 37.8868 30.9496 37.2415C31.3222 36.5945 31.9197 36.1188 32.6319 35.9024C32.7894 35.8545 32.9117 35.7318 32.9594 35.5739C33.1751 34.8597 33.6495 34.2603 34.295 33.8863C34.9314 33.5168 35.7014 33.4033 36.4181 33.5712C36.5775 33.6088 36.7469 33.563 36.8658 33.4511C37.4082 32.9404 38.1176 32.6592 38.863 32.6592C39.609 32.6592 40.3183 32.9403 40.8605 33.4509C40.9794 33.5629 41.1494 33.6088 41.3082 33.5711C42.0254 33.4032 42.7946 33.517 43.4324 33.8863C44.0772 34.26 44.5513 34.8594 44.7675 35.5744C44.8151 35.7319 44.9374 35.8545 45.0946 35.9024C45.8063 36.119 46.4037 36.5947 46.7763 37.2419C47.149 37.8877 47.2612 38.6444 47.0917 39.3723C47.0543 39.5326 47.0992 39.7001 47.2113 39.8202C47.7199 40.3648 48 41.076 48 41.8232C48 42.5709 47.7201 43.2823 47.2117 43.8265C47.0992 43.9469 47.0544 44.1144 47.0918 44.2747C47.2609 45.0025 47.149 45.7594 46.7763 46.4064C46.404 47.0529 45.8067 47.5283 45.0943 47.7452C44.9373 47.7931 44.8151 47.9156 44.7675 48.073C44.5511 48.7876 44.0769 49.3868 43.4323 49.7601C42.7939 50.13 42.0238 50.2442 41.3072 50.0765C41.1484 50.0393 40.9792 50.0851 40.8604 50.1968C40.3177 50.7065 39.6083 50.9872 38.8628 50.9872ZM36.5311 49.0956C36.9014 49.0956 37.2546 49.2356 37.5254 49.49C37.8889 49.8315 38.3638 50.0196 38.8628 50.0196C39.3624 50.0196 39.8374 49.8316 40.2007 49.4905C40.4714 49.236 40.8247 49.0957 41.1953 49.0957C41.3064 49.0957 41.4178 49.1085 41.5262 49.1339C42.0067 49.2464 42.5216 49.1701 42.9497 48.9219C43.3817 48.6718 43.6994 48.2704 43.8442 47.7916C43.9855 47.3246 44.348 46.961 44.8139 46.819C45.2913 46.6737 45.6915 46.3551 45.9409 45.9221C46.1906 45.4885 46.2656 44.9816 46.1523 44.4941C46.0416 44.0181 46.1746 43.5211 46.5079 43.1645C46.8479 42.8003 47.0353 42.3239 47.0353 41.8228C47.0353 41.3223 46.8477 40.8461 46.5074 40.4815C46.1743 40.1251 46.0415 39.628 46.1522 39.1521C46.2656 38.6647 46.1906 38.1583 45.9412 37.7259C45.6911 37.2917 45.2911 36.973 44.8146 36.8281C44.3484 36.6862 43.9856 36.3223 43.8441 35.8548C43.6994 35.3757 43.3817 34.9741 42.9497 34.7238C42.5224 34.4762 42.0079 34.4005 41.5274 34.513C41.419 34.5384 41.3073 34.5514 41.1958 34.5514C40.8247 34.5514 40.4711 34.4109 40.2002 34.1558C39.8374 33.8143 39.3626 33.6263 38.8628 33.6263C38.3637 33.6263 37.8889 33.8145 37.5258 34.1562C37.255 34.411 36.9015 34.5515 36.5305 34.5515C36.4189 34.5515 36.3073 34.5385 36.1985 34.5131C35.7185 34.4004 35.2042 34.476 34.778 34.7236C34.3449 34.9745 34.0271 35.3758 33.8828 35.854C33.7414 36.3221 33.3783 36.6863 32.9116 36.8281C32.4348 36.973 32.0347 37.2917 31.7848 37.7256C31.5356 38.1573 31.4609 38.6634 31.5747 39.1507C31.6857 39.6273 31.5526 40.1251 31.2188 40.4819C30.8781 40.846 30.6904 41.3222 30.6904 41.8228C30.6904 42.324 30.8779 42.8004 31.2184 43.1643C31.5524 43.5209 31.6855 44.0186 31.5746 44.4955C31.4611 44.9828 31.5358 45.4895 31.7848 45.9221C32.0342 46.3551 32.4346 46.6737 32.9122 46.8189C33.3783 46.9606 33.7411 47.3245 33.8827 47.7921C34.0271 48.2701 34.3449 48.6713 34.7775 48.9219C35.2056 49.1704 35.7199 49.2464 36.1999 49.1338C36.3086 49.1085 36.4198 49.0956 36.5311 49.0956Z" fill="#0041BD"/>
<path d="M22.191 11.8544H12.5427C12.2763 11.8544 12.0603 11.6378 12.0603 11.3706C12.0603 11.1034 12.2763 10.8867 12.5427 10.8867H22.191C22.4574 10.8867 22.6734 11.1034 22.6734 11.3706C22.6734 11.6378 22.4574 11.8544 22.191 11.8544Z" fill="#0041BD"/>
<path d="M23.397 15.4828H16.1609C15.8945 15.4828 15.6785 15.2662 15.6785 14.999C15.6785 14.7318 15.8945 14.5151 16.1609 14.5151H23.397C23.6635 14.5151 23.8795 14.7318 23.8795 14.999C23.8795 15.2662 23.6635 15.4828 23.397 15.4828Z" fill="#0041BD"/>
<path d="M29.4273 15.4828H27.0153C26.7488 15.4828 26.5328 15.2662 26.5328 14.999C26.5328 14.7318 26.7488 14.5151 27.0153 14.5151H29.4273C29.6938 14.5151 29.9098 14.7318 29.9098 14.999C29.9098 15.2662 29.6938 15.4828 29.4273 15.4828Z" fill="#0041BD"/>
<path d="M23.3971 21.5312H8.92467C8.65826 21.5312 8.44226 21.3145 8.44226 21.0473C8.44226 20.7801 8.65826 20.5635 8.92467 20.5635H23.3971C23.6635 20.5635 23.8795 20.7801 23.8795 21.0473C23.8795 21.3145 23.6635 21.5312 23.3971 21.5312Z" fill="#0041BD"/>
<path d="M24.6031 25.1591H13.7488C13.4824 25.1591 13.2664 24.9424 13.2664 24.6752C13.2664 24.408 13.4824 24.1914 13.7488 24.1914H24.6031C24.8695 24.1914 25.0855 24.408 25.0855 24.6752C25.0855 24.9424 24.8695 25.1591 24.6031 25.1591Z" fill="#0041BD"/>
<path d="M29.4273 28.7885H13.7488C13.4824 28.7885 13.2664 28.5718 13.2664 28.3046C13.2664 28.0374 13.4824 27.8208 13.7488 27.8208H29.4273C29.6937 27.8208 29.9097 28.0374 29.9097 28.3046C29.9097 28.5718 29.6937 28.7885 29.4273 28.7885Z" fill="#0041BD"/>
<path d="M13.7489 33.6268H10.1307C9.86432 33.6268 9.64832 33.4102 9.64832 33.143C9.64832 32.8758 9.86432 32.6592 10.1307 32.6592H13.7489C14.0153 32.6592 14.2313 32.8758 14.2313 33.143C14.2313 33.4102 14.0153 33.6268 13.7489 33.6268Z" fill="#0041BD"/>
<path d="M24.6032 33.6268H17.3669C17.1005 33.6268 16.8845 33.4102 16.8845 33.143C16.8845 32.8758 17.1005 32.6592 17.3669 32.6592H24.6032C24.8696 32.6592 25.0856 32.8758 25.0856 33.143C25.0856 33.4102 24.8696 33.6268 24.6032 33.6268Z" fill="#0041BD"/>
<path d="M46.3118 29.9976C46.0454 29.9976 45.8294 29.7809 45.8294 29.5137V5.80557H40.2816C40.0152 5.80557 39.7992 5.58893 39.7992 5.32173C39.7992 5.05453 40.0152 4.83789 40.2816 4.83789H46.3118C46.5782 4.83789 46.7942 5.05453 46.7942 5.32173V29.5137C46.7942 29.7809 46.5782 29.9976 46.3118 29.9976Z" fill="#0041BD"/>
</svg>
