<svg width="49" height="67" viewBox="0 0 49 67" fill="none" xmlns="http://www.w3.org/2000/svg">
<g clip-path="url(#clip0)">
<path d="M24.2487 39.6151C23.1532 39.647 22.1134 40.1065 21.3499 40.8962C20.5865 41.6859 20.1598 42.7435 20.1603 43.8442C20.1584 44.4008 20.2659 44.9523 20.4767 45.4671C20.6875 45.9819 20.9973 46.4498 21.3885 46.8441C21.7797 47.2383 22.2446 47.5511 22.7564 47.7646C23.2682 47.978 23.817 48.0878 24.3711 48.0878C24.9253 48.0878 25.4741 47.978 25.9859 47.7646C26.4977 47.5511 26.9626 47.2383 27.3538 46.8441C27.745 46.4498 28.0548 45.9819 28.2656 45.4671C28.4764 44.9523 28.5839 44.4008 28.582 43.8442C28.5823 43.2783 28.4694 42.718 28.2502 42.1967C28.031 41.6754 27.7099 41.2036 27.3058 40.8092C26.9017 40.4148 26.4229 40.106 25.8978 39.9008C25.3727 39.6957 24.8119 39.5986 24.2487 39.6151ZM24.3108 40.3851C24.7664 40.3769 25.219 40.4606 25.6419 40.6312C26.0648 40.8019 26.4493 41.0559 26.7726 41.3784C27.0959 41.701 27.3515 42.0854 27.5243 42.5089C27.6971 42.9324 27.7835 43.3865 27.7784 43.8442C27.7861 44.2983 27.7036 44.7494 27.5359 45.1712C27.3682 45.5929 27.1185 45.9771 26.8014 46.3009C26.4844 46.6248 26.1063 46.8821 25.6892 47.0577C25.2722 47.2332 24.8245 47.3237 24.3723 47.3237C23.9201 47.3237 23.4724 47.2332 23.0553 47.0577C22.6382 46.8821 22.2602 46.6248 21.9431 46.3009C21.6261 45.9771 21.3764 45.5929 21.2087 45.1712C21.0409 44.7494 20.9585 44.2983 20.9661 43.8442C20.9561 42.941 21.3021 42.0704 21.9287 41.4224C22.5553 40.7744 23.4115 40.4015 24.3108 40.3851Z" fill="#0041BD"/>
<path d="M24.3622 5.83648C24.2885 5.83767 24.2175 5.86427 24.161 5.91172C24.1045 5.95918 24.066 6.02473 24.0518 6.09731L20.6225 23.5091H19.3393C19.2541 23.5091 19.1723 23.5431 19.112 23.6036C19.0517 23.664 19.0178 23.7461 19.0176 23.8317V37.6498H17.7288C17.6436 37.6498 17.562 37.6836 17.5017 37.7439C17.4414 37.8043 17.4074 37.8862 17.4071 37.9717V49.2304H14.7069C14.6218 49.2304 14.5401 49.2641 14.4798 49.3245C14.4195 49.3848 14.3855 49.4668 14.3853 49.5523V56.0425H12.0203V51.7693C12.0205 51.7081 12.0035 51.648 11.9711 51.5962C11.9387 51.5443 11.8923 51.5029 11.8373 51.4765C11.7823 51.4501 11.7209 51.44 11.6604 51.4472C11.5999 51.4545 11.5427 51.4789 11.4955 51.5176L9.76022 52.9294L8.0278 51.5176C7.98058 51.4789 7.92337 51.4545 7.86286 51.4472C7.80234 51.44 7.74101 51.4501 7.686 51.4765C7.631 51.5029 7.58459 51.5443 7.55219 51.5962C7.51979 51.648 7.50273 51.7081 7.503 51.7693V56.0425H4.5167V51.7693C4.51697 51.7081 4.49991 51.648 4.4675 51.5962C4.4351 51.5443 4.3887 51.5029 4.33369 51.4765C4.27869 51.4501 4.21736 51.44 4.15684 51.4472C4.09632 51.4545 4.03912 51.4789 3.99189 51.5176L2.26004 52.9294L0.524806 51.5176C0.477581 51.4789 0.420376 51.4545 0.359861 51.4472C0.299345 51.44 0.23801 51.4501 0.183007 51.4765C0.128003 51.5029 0.0815962 51.5443 0.0491953 51.5962C0.0167943 51.648 -0.000265593 51.7081 3.12625e-06 51.7693V65.4676C-0.000116917 65.5738 0.020614 65.6789 0.0610106 65.777C0.101407 65.8751 0.160676 65.9642 0.235423 66.0392C0.310169 66.1143 0.398925 66.1739 0.49661 66.2145C0.594295 66.255 0.69899 66.276 0.804701 66.2759H47.9208C48.0265 66.276 48.1312 66.255 48.2288 66.2145C48.3265 66.1739 48.4153 66.1143 48.49 66.0392C48.5648 65.9642 48.6241 65.8751 48.6644 65.777C48.7048 65.6789 48.7256 65.5738 48.7255 65.4676V51.7693C48.7257 51.7081 48.7087 51.648 48.6763 51.5962C48.6439 51.5443 48.5975 51.5029 48.5425 51.4765C48.4874 51.4501 48.4261 51.44 48.3656 51.4472C48.3051 51.4545 48.2479 51.4789 48.2007 51.5176L46.4654 52.9294L44.7302 51.5176C44.6829 51.4806 44.6262 51.4578 44.5666 51.4514C44.507 51.445 44.4468 51.4555 44.3928 51.4817C44.3388 51.5078 44.2932 51.5486 44.261 51.5995C44.2289 51.6503 44.2116 51.7091 44.211 51.7693V56.0425H41.2253V51.7693C41.2256 51.7081 41.2085 51.648 41.1761 51.5962C41.1437 51.5443 41.0973 51.5029 41.0423 51.4765C40.9873 51.4501 40.9259 51.44 40.8654 51.4472C40.8049 51.4545 40.7477 51.4789 40.7005 51.5176L38.9686 52.9294L37.2334 51.5176C37.1862 51.4789 37.129 51.4545 37.0684 51.4472C37.0079 51.44 36.9466 51.4501 36.8916 51.4765C36.8366 51.5029 36.7902 51.5443 36.7578 51.5962C36.7254 51.648 36.7083 51.7081 36.7086 51.7693V56.0425H34.3436V49.5523C34.3433 49.4668 34.3093 49.3848 34.249 49.3245C34.1887 49.2641 34.1071 49.2304 34.0219 49.2304H31.3246V37.9717C31.3243 37.8862 31.2903 37.8043 31.23 37.7439C31.1697 37.6836 31.088 37.6498 31.0029 37.6498H29.7169V23.8317C29.7167 23.7461 29.6828 23.664 29.6225 23.6036C29.5622 23.5431 29.4804 23.5091 29.3952 23.5091H28.112L24.6833 6.09731C24.6687 6.02281 24.6285 5.95577 24.5697 5.90809C24.5108 5.86041 24.4372 5.83504 24.3616 5.83648H24.3622ZM24.3622 8.65699L27.2898 23.5089H21.4368L24.3622 8.65699ZM19.8156 24.3175H21.8775V32.9868H19.8156V24.3175ZM22.6794 24.3175H26.0449V32.9868H22.6794V24.3175ZM26.8496 24.3175H28.9082V32.9868H26.8496V24.3175ZM19.8156 33.795H28.9082V37.6495H19.8156V33.795ZM18.2062 38.4579H30.5182V49.2302H18.2062V38.4579ZM15.1877 50.0355H33.5389V65.4676H28.2463V60.2689C28.2372 59.2402 27.824 58.2568 27.0966 57.5326C26.3692 56.8084 25.3864 56.4021 24.3622 56.4021C23.3379 56.4021 22.3551 56.8084 21.6277 57.5326C20.9003 58.2568 20.4871 59.2402 20.4781 60.2689V65.4676H15.1877V50.0355ZM0.805829 52.7858L2.25779 53.9689L3.71313 52.7858V56.8509H8.306V52.7858L9.75796 53.9689L11.2133 52.7858V56.8509H14.383V65.4676H0.805829V52.7858ZM37.511 52.7858L38.9658 53.9689L40.4211 52.7858V56.8509H45.0112V52.7858L46.466 53.9689L47.9213 52.7858V65.4676H34.3408V56.8509H37.511V52.7858ZM24.2719 57.1759C24.6838 57.1638 25.094 57.2349 25.478 57.3849C25.8621 57.5349 26.2123 57.7608 26.5079 58.0492C26.8035 58.3376 27.0384 58.6827 27.1988 59.064C27.3592 59.4453 27.4417 59.855 27.4416 60.2689V65.4676H21.298V60.2689C21.2977 59.4641 21.6097 58.6909 22.1678 58.1134C22.7259 57.5359 23.4862 57.1996 24.2871 57.1759H24.2719Z" fill="#0041BD"/>
<path d="M25.844 5.24827C25.8668 5.26388 25.894 5.27177 25.9217 5.27093C25.9493 5.27009 25.976 5.26057 25.9979 5.2436C26.0198 5.22664 26.0358 5.20314 26.0436 5.1765C26.0514 5.14985 26.0507 5.12139 26.0415 5.0952L25.4241 3.39273L26.902 2.35357C26.9247 2.33758 26.9418 2.31471 26.9508 2.28837C26.9598 2.26202 26.9603 2.23352 26.9521 2.2069C26.944 2.18028 26.9276 2.15703 26.9055 2.14031C26.8833 2.12359 26.8564 2.11428 26.8287 2.11385H25.0246L24.4829 0.385951C24.474 0.359974 24.4572 0.337394 24.435 0.321436C24.4127 0.305477 24.3861 0.296875 24.3587 0.296875C24.3314 0.296875 24.3047 0.305477 24.2824 0.321436C24.2602 0.337394 24.2434 0.359974 24.2346 0.385951L23.6928 2.11385H21.8893C21.8611 2.11306 21.8334 2.12144 21.8103 2.13772C21.7872 2.15399 21.7699 2.17722 21.761 2.20413C21.7522 2.23104 21.7522 2.26025 21.7611 2.28716C21.7699 2.31406 21.7872 2.3373 21.8103 2.35357L23.2877 3.39273L22.6709 5.0952C22.6617 5.12139 22.6609 5.14985 22.6687 5.1765C22.6766 5.20314 22.6926 5.22664 22.7145 5.2436C22.7363 5.26057 22.763 5.27009 22.7907 5.27093C22.8183 5.27177 22.8455 5.26388 22.8684 5.24827L24.3559 4.2022L25.844 5.24827Z" fill="#0041BD"/>
<path d="M25.9163 44.2721L24.7736 43.6093V42.2838C24.7736 42.1767 24.7313 42.0739 24.6559 41.9982C24.5805 41.9225 24.4782 41.8799 24.3715 41.8799C24.2649 41.8799 24.1626 41.9225 24.0872 41.9982C24.0118 42.0739 23.9695 42.1767 23.9695 42.2838V44.0755L25.5145 44.9713C25.6065 45.0196 25.7135 45.0303 25.8132 45.0012C25.9129 44.972 25.9974 44.9052 26.0492 44.8149C26.101 44.7245 26.1159 44.6175 26.091 44.5164C26.066 44.4152 26.003 44.3277 25.9152 44.2721H25.9163Z" fill="#0041BD"/>
</g>
<defs>
<clipPath id="clip0">
<rect width="49" height="67" fill="white"/>
</clipPath>
</defs>
</svg>
