<svg width="50" height="50" viewBox="0 0 50 50" fill="none" xmlns="http://www.w3.org/2000/svg">
<path d="M39.7481 24.2983V22.6482C39.7481 21.9149 39.4631 21.2268 38.9469 20.7101C38.7671 20.5302 38.5605 20.3897 38.3441 20.2683V4.55447C38.3441 2.04331 36.3012 0 33.7901 0H12.0755C12.0529 0 12.0335 0.00996494 12.0117 0.0128298C11.9881 0.0158194 11.968 0.0199921 11.945 0.0262825C11.8575 0.0499493 11.7762 0.0877536 11.7142 0.150097L0.150097 11.7136C0.0875668 11.7759 0.0496378 11.8576 0.0260956 11.9454C0.0202412 11.9673 0.0162552 11.9865 0.0133281 12.0087C0.0102764 12.0315 0 12.0516 0 12.075V45.4455C0 47.9567 2.0438 50 4.55497 50H33.7901C33.9959 50 34.1709 49.8768 34.2516 49.7012C35.1386 49.8932 36.057 50 37.0007 50C44.1685 50 50 44.1685 50 37.0002C50 30.7751 45.5998 25.5634 39.7481 24.2983ZM38.7277 22.6482V24.1284C38.1611 24.0527 37.5876 24 37.0007 24C36.4135 24 35.8397 24.0528 35.2728 24.1285V22.6482C35.2728 21.7001 36.0481 20.9289 37.0007 20.9289C37.4661 20.9289 37.9016 21.1072 38.2254 21.4316C38.5493 21.7554 38.7277 22.1874 38.7277 22.6482ZM11.5653 1.74186V8.03073C11.5653 9.97937 9.97987 11.5648 8.03073 11.5648H1.74186L11.5653 1.74186ZM4.55497 48.9796C2.60582 48.9796 1.02041 47.3942 1.02041 45.4455V12.5852H8.03073C10.5419 12.5852 12.5857 10.5419 12.5857 8.03073V1.02041H33.7901C35.7382 1.02041 37.3236 2.60582 37.3236 4.55447V19.9396C37.2164 19.9272 37.1105 19.9084 37.0007 19.9084C35.4851 19.9084 34.2524 21.1376 34.2524 22.6482V24.2984C30.6502 25.0774 27.6082 27.3554 25.7946 30.4423H6.34367C6.06167 30.4423 5.83347 30.6705 5.83347 30.9525C5.83347 31.2346 6.06167 31.4627 6.34367 31.4627H25.2562C24.4595 33.1455 24.0005 35.0181 24.0005 37.0002C24.0005 38.9072 24.4235 40.7139 25.1643 42.347H6.34367C6.06167 42.347 5.83347 42.5751 5.83347 42.8572C5.83347 43.1392 6.06167 43.3674 6.34367 43.3674H25.6786C27.0881 45.8636 29.2922 47.8545 31.9526 48.9796H4.55497ZM37.0007 48.9796C30.395 48.9796 25.0209 43.6055 25.0209 37.0002C25.0209 30.3945 30.395 25.0204 37.0007 25.0204C43.6055 25.0204 48.9796 30.3945 48.9796 37.0002C48.9796 43.6055 43.6055 48.9796 37.0007 48.9796Z" fill="#0041BD"/>
<path d="M37.0008 27.3047C31.6536 27.3047 27.304 31.6549 27.304 37.0016C27.304 42.3482 31.6536 46.6984 37.0008 46.6984C42.348 46.6984 46.6977 42.3482 46.6977 37.0016C46.6977 31.6549 42.348 27.3047 37.0008 27.3047ZM37.0008 45.678C32.2167 45.678 28.3244 41.7857 28.3244 37.0016C28.3244 32.2174 32.2167 28.3251 37.0008 28.3251C41.785 28.3251 45.6773 32.2174 45.6773 37.0016C45.6773 41.7857 41.785 45.678 37.0008 45.678Z" fill="#0041BD"/>
<path d="M37.5111 35.0684V31.479C37.5111 31.1969 37.2829 30.9688 37.0009 30.9688C36.7189 30.9688 36.4907 31.1969 36.4907 31.479V35.0684C35.6317 35.2957 34.9939 36.0722 34.9939 37.0015C34.9939 38.1081 35.8938 39.0084 37.0009 39.0084C38.108 39.0084 39.0079 38.1081 39.0079 37.0015C39.0079 36.0722 38.37 35.2957 37.5111 35.0684ZM37.0009 37.988C36.4568 37.988 36.0143 37.5456 36.0143 37.0015C36.0143 36.4574 36.4568 36.015 37.0009 36.015C37.5449 36.015 37.9874 36.4574 37.9874 37.0015C37.9874 37.5456 37.5449 37.988 37.0009 37.988Z" fill="#0041BD"/>
<path d="M16.3603 7.65175H32.0002C32.2822 7.65175 32.5104 7.42356 32.5104 7.14156C32.5104 6.85955 32.2822 6.63135 32.0002 6.63135H16.3603C16.0782 6.63135 15.8501 6.85955 15.8501 7.14156C15.8501 7.42356 16.0782 7.65175 16.3603 7.65175Z" fill="#0041BD"/>
<path d="M6.34346 19.5585H32.0002C32.2822 19.5585 32.5104 19.3303 32.5104 19.0483C32.5104 18.7663 32.2822 18.5381 32.0002 18.5381H6.34346C6.06145 18.5381 5.83325 18.7663 5.83325 19.0483C5.83325 19.3303 6.06145 19.5585 6.34346 19.5585Z" fill="#0041BD"/>
</svg>
