<svg width="50" height="50" viewBox="0 0 50 50" fill="none" xmlns="http://www.w3.org/2000/svg">
<g clip-path="url(#clip0)">
<path d="M48.7802 27.4371H48.6439V18.1886C48.6439 16.7041 47.4361 15.4963 45.9516 15.4963H40.0308V8.47709C40.0308 7.41677 39.168 6.55402 38.1077 6.55402H34.4329L30.3311 0.17669C30.2163 -0.00172085 29.9784 -0.0539294 29.7996 0.0611923L19.7003 6.55402H4.85765C2.17905 6.55402 0 8.73307 0 11.4117V45.5654C0 47.8983 1.89791 49.7962 4.23077 49.7962H45.9516C47.4361 49.7962 48.6439 48.5885 48.6439 47.1039V37.8555H48.7802C49.4528 37.8555 50 37.3084 50 36.6359V28.6568C50 27.9843 49.4528 27.4371 48.7802 27.4371ZM39.2616 15.4963H38.4252L39.2616 14.9588V15.4963ZM38.1077 7.32325C38.744 7.32325 39.2616 7.84083 39.2616 8.47709V14.0615L34.9277 7.32325H38.1077ZM29.8922 0.916248L38.6067 14.4653L37.0025 15.4963H34.0438C34.036 15.4416 34.0193 15.3884 33.9887 15.341C33.6289 14.7836 33.5085 14.119 33.6495 13.4694C33.7906 12.8198 34.1759 12.2635 34.7346 11.903C34.9129 11.7878 34.9643 11.5503 34.8496 11.3719L31.0812 5.51003C30.966 5.33144 30.7283 5.27979 30.5497 5.39435C29.396 6.13541 27.8538 5.79962 27.1111 4.64559C27.0553 4.5592 26.9674 4.49854 26.8667 4.47751C26.7655 4.45535 26.6609 4.47638 26.5753 4.53328L10.0272 15.4963H7.21335L29.8922 0.916248ZM11.4198 15.4963L26.6945 5.37688C27.6491 6.53111 29.2849 6.88642 30.6299 6.23044L34.0069 11.4836C33.4439 11.9475 33.055 12.5826 32.8978 13.306C32.7406 14.0302 32.8315 14.7686 33.1526 15.4229L33.0387 15.4963H11.4198ZM4.85765 7.32325H18.5038L5.79092 15.4963H4.85765C2.60329 15.4963 0.769231 13.664 0.769231 11.4117C0.769231 9.15731 2.60329 7.32325 4.85765 7.32325ZM47.8747 47.1039C47.8747 48.1642 47.0119 49.027 45.9516 49.027H4.23077C2.32215 49.027 0.769231 47.474 0.769231 45.5654V14.0227C1.63354 15.3691 3.14127 16.2656 4.85765 16.2656H39.6462H45.9516C47.0119 16.2656 47.8747 17.1283 47.8747 18.1886V27.4371H38.7498C35.8774 27.4371 33.5406 29.7739 33.5406 32.6463C33.5406 35.5187 35.8774 37.8555 38.7498 37.8555H47.8747V47.1039ZM49.2308 36.6359C49.2308 36.8842 49.0287 37.0862 48.7802 37.0862H38.7498C36.3016 37.0862 34.3098 35.0944 34.3098 32.6463C34.3098 30.1981 36.3016 28.2063 38.7498 28.2063H48.7802C49.0287 28.2063 49.2308 28.4084 49.2308 28.6568V36.6359Z" fill="#0041BD"/>
<path d="M38.4887 30.0752C37.071 30.0752 35.9177 31.2287 35.9177 32.6464C35.9177 34.0641 37.071 35.2176 38.4887 35.2176C39.9064 35.2176 41.0599 34.0641 41.0599 32.6464C41.0599 31.2287 39.9064 30.0752 38.4887 30.0752ZM38.4887 34.4483C37.4952 34.4483 36.687 33.64 36.687 32.6464C36.687 31.6527 37.4952 30.8444 38.4887 30.8444C39.4824 30.8444 40.2907 31.6527 40.2907 32.6464C40.2907 33.64 39.4824 34.4483 38.4887 34.4483Z" fill="#0041BD"/>
<path d="M41.3172 20.9152H43.4463C43.6587 20.9152 43.8309 20.743 43.8309 20.5306C43.8309 20.3182 43.6587 20.146 43.4463 20.146H41.3172C41.1048 20.146 40.9326 20.3182 40.9326 20.5306C40.9326 20.743 41.1048 20.9152 41.3172 20.9152Z" fill="#0041BD"/>
<path d="M35.2972 20.9152H37.4263C37.6387 20.9152 37.8109 20.743 37.8109 20.5306C37.8109 20.3182 37.6387 20.146 37.4263 20.146H35.2972C35.0848 20.146 34.9126 20.3182 34.9126 20.5306C34.9126 20.743 35.0848 20.9152 35.2972 20.9152Z" fill="#0041BD"/>
<path d="M31.4065 20.146H29.2774C29.065 20.146 28.8928 20.3182 28.8928 20.5306C28.8928 20.743 29.065 20.9152 29.2774 20.9152H31.4065C31.6189 20.9152 31.7911 20.743 31.7911 20.5306C31.7911 20.3182 31.6189 20.146 31.4065 20.146Z" fill="#0041BD"/>
<path d="M25.3865 20.146H23.2574C23.045 20.146 22.8728 20.3182 22.8728 20.5306C22.8728 20.743 23.045 20.9152 23.2574 20.9152H25.3865C25.5989 20.9152 25.7711 20.743 25.7711 20.5306C25.7711 20.3182 25.5989 20.146 25.3865 20.146Z" fill="#0041BD"/>
<path d="M19.3665 20.146H17.2374C17.025 20.146 16.8528 20.3182 16.8528 20.5306C16.8528 20.743 17.025 20.9152 17.2374 20.9152H19.3665C19.5789 20.9152 19.7511 20.743 19.7511 20.5306C19.7511 20.3182 19.5789 20.146 19.3665 20.146Z" fill="#0041BD"/>
<path d="M13.3467 20.146H11.2176C11.0052 20.146 10.833 20.3182 10.833 20.5306C10.833 20.743 11.0052 20.9152 11.2176 20.9152H13.3467C13.5591 20.9152 13.7313 20.743 13.7313 20.5306C13.7313 20.3182 13.5591 20.146 13.3467 20.146Z" fill="#0041BD"/>
<path d="M7.3267 20.146H5.1976C4.9852 20.146 4.81299 20.3182 4.81299 20.5306C4.81299 20.743 4.9852 20.9152 5.1976 20.9152H7.3267C7.5391 20.9152 7.71131 20.743 7.71131 20.5306C7.71131 20.3182 7.5391 20.146 7.3267 20.146Z" fill="#0041BD"/>
<path d="M41.3172 45.1462H43.4463C43.6587 45.1462 43.8309 44.974 43.8309 44.7616C43.8309 44.5492 43.6587 44.377 43.4463 44.377H41.3172C41.1048 44.377 40.9326 44.5492 40.9326 44.7616C40.9326 44.974 41.1048 45.1462 41.3172 45.1462Z" fill="#0041BD"/>
<path d="M37.4263 44.377H35.2972C35.0848 44.377 34.9126 44.5492 34.9126 44.7616C34.9126 44.974 35.0848 45.1462 35.2972 45.1462H37.4263C37.6387 45.1462 37.8109 44.974 37.8109 44.7616C37.8109 44.5492 37.6387 44.377 37.4263 44.377Z" fill="#0041BD"/>
<path d="M31.4065 44.377H29.2774C29.065 44.377 28.8928 44.5492 28.8928 44.7616C28.8928 44.974 29.065 45.1462 29.2774 45.1462H31.4065C31.6189 45.1462 31.7911 44.974 31.7911 44.7616C31.7911 44.5492 31.6189 44.377 31.4065 44.377Z" fill="#0041BD"/>
<path d="M25.3865 44.377H23.2574C23.045 44.377 22.8728 44.5492 22.8728 44.7616C22.8728 44.974 23.045 45.1462 23.2574 45.1462H25.3865C25.5989 45.1462 25.7711 44.974 25.7711 44.7616C25.7711 44.5492 25.5989 44.377 25.3865 44.377Z" fill="#0041BD"/>
<path d="M19.3665 44.377H17.2374C17.025 44.377 16.8528 44.5492 16.8528 44.7616C16.8528 44.974 17.025 45.1462 17.2374 45.1462H19.3665C19.5789 45.1462 19.7511 44.974 19.7511 44.7616C19.7511 44.5492 19.5789 44.377 19.3665 44.377Z" fill="#0041BD"/>
<path d="M13.3467 44.377H11.2176C11.0052 44.377 10.833 44.5492 10.833 44.7616C10.833 44.974 11.0052 45.1462 11.2176 45.1462H13.3467C13.5591 45.1462 13.7313 44.974 13.7313 44.7616C13.7313 44.5492 13.5591 44.377 13.3467 44.377Z" fill="#0041BD"/>
<path d="M7.3267 44.377H5.1976C4.9852 44.377 4.81299 44.5492 4.81299 44.7616C4.81299 44.974 4.9852 45.1462 5.1976 45.1462H7.3267C7.5391 45.1462 7.71131 44.974 7.71131 44.7616C7.71131 44.5492 7.5391 44.377 7.3267 44.377Z" fill="#0041BD"/>
</g>
<defs>
<clipPath id="clip0">
<rect width="50" height="50" fill="white"/>
</clipPath>
</defs>
</svg>
