<svg width="48" height="48" viewBox="0 0 48 48" fill="none" xmlns="http://www.w3.org/2000/svg">
<path d="M1.19366 1.19366C0.423849 1.96347 0 2.98687 0 4.07547V36.6792C0 37.7678 0.423849 38.7912 1.19275 39.5611C1.96166 40.3309 2.98596 40.7547 4.07547 40.7547H16.3019V43.4717H15.8491C14.7595 43.4717 13.7362 43.8965 12.9672 44.6654C12.2083 45.4243 11.7736 46.474 11.7736 47.5472C11.7736 47.7971 11.9765 48 12.2264 48H36.6792C36.9292 48 37.1321 47.7971 37.1321 47.5472C37.1321 46.4586 36.7082 45.4352 35.9393 44.6654C35.1695 43.8955 34.1461 43.4717 33.0566 43.4717H31.6981V40.7547H43.9245C45.014 40.7547 46.0374 40.33 46.8072 39.5611C47.5771 38.7912 48 37.7688 48 36.6792V4.07547C48 2.98687 47.5761 1.96347 46.8072 1.19366C46.0374 0.423849 45.014 0 43.9245 0H4.07547C2.98596 0 1.96257 0.423849 1.19366 1.19366ZM35.2981 45.3057C35.789 45.7956 36.0978 46.4187 36.1938 47.0943H12.7118C12.8106 46.4232 13.1248 45.7893 13.6075 45.3057C14.2053 44.707 15.0014 44.3774 15.8482 44.3774H33.0557C33.9043 44.3774 34.7004 44.707 35.2981 45.3057ZM30.7925 43.4717H17.2075V40.7547H30.7925V43.4717ZM46.166 38.9208C45.5683 39.5194 44.7722 39.8491 43.9245 39.8491H4.07547C3.22777 39.8491 2.4326 39.5194 1.83396 38.9208C1.23532 38.3212 0.90566 37.526 0.90566 36.6792V33.5094H47.0943V36.6792C47.0943 37.5269 46.7647 38.3212 46.166 38.9208ZM46.166 1.83396C46.7647 2.4326 47.0943 3.22868 47.0943 4.07547V32.6038H0.90566V4.07547C0.90566 3.22868 1.23532 2.43351 1.83396 1.83396C2.4326 1.23532 3.22868 0.90566 4.07547 0.90566H43.9245C44.7722 0.90566 45.5683 1.23532 46.166 1.83396Z" fill="#0041BD"/>
<path d="M10.4024 15.4767C11.7029 15.4767 12.7598 14.4198 12.7598 13.1201C12.7598 11.8196 11.7029 10.7627 10.4024 10.7627C9.10183 10.7627 8.04492 11.8196 8.04492 13.1201C8.04492 14.4188 9.10273 15.4767 10.4024 15.4767ZM10.4024 11.6684C11.203 11.6684 11.8541 12.3195 11.8541 13.1201C11.8541 13.9198 11.203 14.571 10.4024 14.571C9.60175 14.571 8.95058 13.9198 8.95058 13.1201C8.95058 12.3195 9.60175 11.6684 10.4024 11.6684Z" fill="#0041BD"/>
<path d="M17.6741 18.0352C16.3736 18.0352 15.3167 19.0921 15.3167 20.3917C15.3167 21.6922 16.3736 22.7491 17.6741 22.7491C18.9737 22.7491 20.0306 21.6922 20.0306 20.3917C20.0306 19.093 18.9728 18.0352 17.6741 18.0352ZM17.6741 21.8435C16.8735 21.8435 16.2222 21.1923 16.2222 20.3917C16.2222 19.592 16.8735 18.9408 17.6741 18.9408C18.4738 18.9408 19.125 19.592 19.125 20.3917C19.125 21.1923 18.4738 21.8435 17.6741 21.8435Z" fill="#0041BD"/>
<path d="M19.2563 10.8947L8.17737 21.9754C8.00077 22.152 8.00077 22.4391 8.17737 22.6157C8.26613 22.7045 8.38205 22.7479 8.49798 22.7479C8.6139 22.7479 8.72983 22.7036 8.81858 22.6157L19.8966 11.535C20.0732 11.3584 20.0732 11.0713 19.8966 10.8947C19.72 10.7181 19.4338 10.7181 19.2563 10.8947Z" fill="#0041BD"/>
<path d="M4.98188 28.0751H23.0951C23.3451 28.0751 23.5479 27.8722 23.5479 27.6223V5.88642C23.5479 5.63646 23.3451 5.43359 23.0951 5.43359H4.98188C4.73192 5.43359 4.52905 5.63646 4.52905 5.88642V27.6223C4.52905 27.8722 4.73192 28.0751 4.98188 28.0751ZM5.43471 6.33925H22.6423V27.1694H5.43471V6.33925Z" fill="#0041BD"/>
<path d="M26.7172 6.33925H43.0191C43.2691 6.33925 43.472 6.13639 43.472 5.88642C43.472 5.63646 43.2691 5.43359 43.0191 5.43359H26.7172C26.4673 5.43359 26.2644 5.63646 26.2644 5.88642C26.2644 6.13639 26.4664 6.33925 26.7172 6.33925Z" fill="#0041BD"/>
<path d="M26.7172 9.96377H43.0191C43.2691 9.96377 43.472 9.76089 43.472 9.51093C43.472 9.26096 43.2691 9.05811 43.0191 9.05811H26.7172C26.4673 9.05811 26.2644 9.26096 26.2644 9.51093C26.2644 9.76089 26.4664 9.96377 26.7172 9.96377Z" fill="#0041BD"/>
<path d="M26.7172 13.5849H43.0191C43.2691 13.5849 43.472 13.382 43.472 13.132C43.472 12.8821 43.2691 12.6792 43.0191 12.6792H26.7172C26.4673 12.6792 26.2644 12.8821 26.2644 13.132C26.2644 13.382 26.4664 13.5849 26.7172 13.5849Z" fill="#0041BD"/>
<path d="M26.7172 17.2064H43.0191C43.2691 17.2064 43.472 17.0036 43.472 16.7536C43.472 16.5036 43.2691 16.3008 43.0191 16.3008H26.7172C26.4673 16.3008 26.2644 16.5036 26.2644 16.7536C26.2644 17.0036 26.4664 17.2064 26.7172 17.2064Z" fill="#0041BD"/>
<path d="M26.7172 28.0761H43.0191C43.2691 28.0761 43.472 27.8732 43.472 27.6232C43.472 27.3733 43.2691 27.1704 43.0191 27.1704H26.7172C26.4673 27.1704 26.2644 27.3733 26.2644 27.6232C26.2644 27.8732 26.4664 28.0761 26.7172 28.0761Z" fill="#0041BD"/>
<path d="M26.7172 24.4531H43.0191C43.2691 24.4531 43.472 24.2502 43.472 24.0003V20.3776C43.472 20.1277 43.2691 19.9248 43.0191 19.9248H26.7172C26.4673 19.9248 26.2644 20.1277 26.2644 20.3776V24.0003C26.2644 24.2502 26.4664 24.4531 26.7172 24.4531ZM27.1701 20.8305H42.5663V23.5474H27.1701V20.8305Z" fill="#0041BD"/>
</svg>
