<svg width="50" height="48" viewBox="0 0 50 48" fill="none" xmlns="http://www.w3.org/2000/svg">
<path d="M49.4898 4.08163H39.7959V0.510204C39.7959 0.228571 39.5673 0 39.2857 0C39.0041 0 38.7755 0.228571 38.7755 0.510204V4.08163H25.5102V0.510204C25.5102 0.228571 25.2816 0 25 0C24.7184 0 24.4898 0.228571 24.4898 0.510204V4.08163H11.2245V0.510204C11.2245 0.228571 10.9959 0 10.7143 0C10.4327 0 10.2041 0.228571 10.2041 0.510204V4.08163H0.510204C0.228571 4.08163 0 4.3102 0 4.59184V47.449C0 47.7306 0.228571 47.9592 0.510204 47.9592H49.4898C49.7714 47.9592 50 47.7306 50 47.449V4.59184C50 4.3102 49.7714 4.08163 49.4898 4.08163ZM10.2041 5.10204V8.67347C10.2041 8.9551 10.4327 9.18367 10.7143 9.18367C10.9959 9.18367 11.2245 8.9551 11.2245 8.67347V5.10204H24.4898V8.67347C24.4898 8.9551 24.7184 9.18367 25 9.18367C25.2816 9.18367 25.5102 8.9551 25.5102 8.67347V5.10204H38.7755V8.67347C38.7755 8.9551 39.0041 9.18367 39.2857 9.18367C39.5673 9.18367 39.7959 8.9551 39.7959 8.67347V5.10204H48.9796V14.2857H1.02041V5.10204H10.2041ZM1.02041 46.9388V15.3061H48.9796V46.9388H1.02041Z" fill="#0041BD"/>
<path d="M35.2045 24.4902C30.4218 24.4902 26.531 28.3811 26.531 33.1637C26.531 37.9464 30.4218 41.8372 35.2045 41.8372C39.9871 41.8372 43.8779 37.9464 43.8779 33.1637C43.8779 28.3811 39.9871 24.4902 35.2045 24.4902ZM35.2045 40.8168C30.9841 40.8168 27.5514 37.3841 27.5514 33.1637C27.5514 28.9433 30.9841 25.5106 35.2045 25.5106C39.4249 25.5106 42.8575 28.9433 42.8575 33.1637C42.8575 37.3841 39.4249 40.8168 35.2045 40.8168Z" fill="#0041BD"/>
<path d="M35.2041 28.5723C34.9225 28.5723 34.6939 28.8008 34.6939 29.0825V32.6539H33.1633C32.8816 32.6539 32.6531 32.8825 32.6531 33.1641C32.6531 33.4457 32.8816 33.6743 33.1633 33.6743H35.2041C35.4857 33.6743 35.7143 33.4457 35.7143 33.1641V29.0825C35.7143 28.8008 35.4857 28.5723 35.2041 28.5723Z" fill="#0041BD"/>
<path d="M14.7953 20.4082H6.63203C6.3504 20.4082 6.12183 20.6368 6.12183 20.9184C6.12183 21.2 6.3504 21.4286 6.63203 21.4286H14.7953C15.0769 21.4286 15.3055 21.2 15.3055 20.9184C15.3055 20.6368 15.0769 20.4082 14.7953 20.4082Z" fill="#0041BD"/>
<path d="M20.9182 21.4286H29.0814C29.3631 21.4286 29.5916 21.2 29.5916 20.9184C29.5916 20.6368 29.3631 20.4082 29.0814 20.4082H20.9182C20.6365 20.4082 20.408 20.6368 20.408 20.9184C20.408 21.2 20.6365 21.4286 20.9182 21.4286Z" fill="#0041BD"/>
<path d="M43.3676 20.4082H35.2043C34.9227 20.4082 34.6941 20.6368 34.6941 20.9184C34.6941 21.2 34.9227 21.4286 35.2043 21.4286H43.3676C43.6492 21.4286 43.8778 21.2 43.8778 20.9184C43.8778 20.6368 43.6492 20.4082 43.3676 20.4082Z" fill="#0041BD"/>
<path d="M14.7953 26.5298H6.63203C6.3504 26.5298 6.12183 26.7584 6.12183 27.04C6.12183 27.3216 6.3504 27.5502 6.63203 27.5502H14.7953C15.0769 27.5502 15.3055 27.3216 15.3055 27.04C15.3055 26.7584 15.0769 26.5298 14.7953 26.5298Z" fill="#0041BD"/>
<path d="M24.9998 26.5298H20.9182C20.6365 26.5298 20.408 26.7584 20.408 27.04C20.408 27.3216 20.6365 27.5502 20.9182 27.5502H24.9998C25.2814 27.5502 25.51 27.3216 25.51 27.04C25.51 26.7584 25.2814 26.5298 24.9998 26.5298Z" fill="#0041BD"/>
<path d="M14.7953 32.6538H6.63203C6.3504 32.6538 6.12183 32.8824 6.12183 33.164C6.12183 33.4456 6.3504 33.6742 6.63203 33.6742H14.7953C15.0769 33.6742 15.3055 33.4456 15.3055 33.164C15.3055 32.8824 15.0769 32.6538 14.7953 32.6538Z" fill="#0041BD"/>
<path d="M20.9182 33.6742H22.959C23.2406 33.6742 23.4692 33.4456 23.4692 33.164C23.4692 32.8824 23.2406 32.6538 22.959 32.6538H20.9182C20.6365 32.6538 20.408 32.8824 20.408 33.164C20.408 33.4456 20.6365 33.6742 20.9182 33.6742Z" fill="#0041BD"/>
<path d="M14.7953 38.7759H6.63203C6.3504 38.7759 6.12183 39.0045 6.12183 39.2861C6.12183 39.5677 6.3504 39.7963 6.63203 39.7963H14.7953C15.0769 39.7963 15.3055 39.5677 15.3055 39.2861C15.3055 39.0045 15.0769 38.7759 14.7953 38.7759Z" fill="#0041BD"/>
<path d="M24.9998 38.7759H20.9182C20.6365 38.7759 20.408 39.0045 20.408 39.2861C20.408 39.5677 20.6365 39.7963 20.9182 39.7963H24.9998C25.2814 39.7963 25.51 39.5677 25.51 39.2861C25.51 39.0045 25.2814 38.7759 24.9998 38.7759Z" fill="#0041BD"/>
</svg>
