<svg width="52" height="59" viewBox="0 0 52 59" fill="none" xmlns="http://www.w3.org/2000/svg">
<path d="M26.1292 35.7591C25.8438 35.7591 25.6124 35.5283 25.6124 35.2437V18.7566C25.6124 16.4141 27.5233 14.5083 29.8722 14.5083C30.1577 14.5083 30.3891 14.7391 30.3891 15.0237C30.3891 15.3084 30.1577 15.5392 29.8722 15.5392C28.0932 15.5392 26.646 16.9825 26.646 18.7566V35.2437C26.646 35.5283 26.4146 35.7591 26.1292 35.7591Z" fill="#0041BD"/>
<path d="M25.8174 19.272C25.532 19.272 25.3006 19.0412 25.3006 18.7566C25.3006 16.9825 23.8534 15.5392 22.0744 15.5392C21.789 15.5392 21.5576 15.3084 21.5576 15.0237C21.5576 14.7391 21.789 14.5083 22.0744 14.5083C24.4233 14.5083 26.3342 16.4141 26.3342 18.7566C26.3342 19.0412 26.1028 19.272 25.8174 19.272Z" fill="#0041BD"/>
<path d="M32.1457 36.3013C32.1375 36.3013 32.1293 36.3012 32.121 36.3007L32.056 36.2968H20.0159C19.9979 36.2985 19.9836 36.2994 19.969 36.2999C19.6932 36.3098 19.4564 36.1024 19.4337 35.8273C19.1282 32.1371 17.7969 28.5475 15.6848 25.72C15.4989 25.4711 15.3308 25.2562 15.1707 25.0632C12.9444 22.3769 11.7184 18.949 11.7184 15.4104C11.7184 11.4672 13.2231 7.74268 15.9556 4.92303C18.6911 2.10043 22.305 0.545898 26.1313 0.545898L26.2467 0.546285C30.0748 0.577855 33.6678 2.14024 36.364 4.94571C39.057 7.74783 40.54 11.4642 40.54 15.4102C40.54 18.9743 39.2984 22.4213 37.0435 25.1159C36.8876 25.3024 36.7309 25.499 36.5646 25.7169C34.3982 28.5572 33.0113 32.1503 32.6598 35.8345C32.6346 36.1003 32.4105 36.3013 32.1457 36.3013ZM20.419 35.266H31.6813C32.1203 31.5586 33.5532 27.9628 35.7422 25.093C35.9179 24.8627 36.0841 24.6544 36.25 24.4558C38.35 21.9459 39.5065 18.7336 39.5065 15.4104C39.5065 7.84306 33.5545 1.63757 26.2383 1.57727L26.1316 1.57688C22.5881 1.57688 19.2382 3.01969 16.6992 5.63961C14.154 8.26596 12.7523 11.7361 12.7524 15.4106C12.7524 18.7098 13.8943 21.9047 15.9678 24.4064C16.139 24.613 16.3177 24.8412 16.5142 25.1042C18.6486 27.9621 20.0263 31.5542 20.419 35.266Z" fill="#0041BD"/>
<path d="M31.6312 40.6163H26.531C26.2456 40.6163 26.0142 40.3855 26.0142 40.1009C26.0142 39.8162 26.2456 39.5854 26.531 39.5854H31.6312C31.9166 39.5854 32.148 39.8162 32.148 40.1009C32.148 40.3855 31.9166 40.6163 31.6312 40.6163Z" fill="#0041BD"/>
<path d="M28.3126 20.2047H23.6339C23.3485 20.2047 23.1171 19.9739 23.1171 19.6892C23.1171 19.4046 23.3485 19.1738 23.6339 19.1738H28.3126C28.598 19.1738 28.8294 19.4046 28.8294 19.6892C28.8294 19.9739 28.598 20.2047 28.3126 20.2047Z" fill="#0041BD"/>
<path d="M47.3187 58.546H4.68125C4.39583 58.546 4.16443 58.3152 4.16443 58.0305V50.2105C4.16443 43.2474 9.84451 37.5825 16.8264 37.5825H17.3767C17.6435 37.5825 17.8667 37.7851 17.8914 38.0501C17.9703 38.8965 18.6491 39.585 19.4045 39.585H20.4234C20.7088 39.585 20.9402 39.8157 20.9402 40.1004V42.3626C20.9402 44.2173 22.3607 45.616 24.2442 45.616H27.8104C29.6939 45.616 31.1144 44.2173 31.1144 42.3626V40.1004C31.1144 39.8157 31.3458 39.585 31.6312 39.585H32.6501C33.4056 39.585 34.0844 38.8965 34.1633 38.0503C34.188 37.7851 34.411 37.5825 34.6778 37.5825H35.1735C42.1553 37.5825 47.8355 43.2474 47.8355 50.2105V58.0305C47.8355 58.3152 47.6041 58.546 47.3187 58.546ZM5.19806 57.5151H46.8018V50.2105C46.8018 43.8158 41.5854 38.6134 35.1735 38.6134H35.1091C34.8024 39.7674 33.7965 40.6158 32.6501 40.6158H32.148V42.3626C32.148 44.765 30.2426 46.6468 27.8104 46.6468H24.2442C21.8118 46.6468 19.9066 44.765 19.9066 42.3626V40.6158H19.4045C18.2582 40.6158 17.2523 39.7674 16.9454 38.6134H16.8264C10.4146 38.6134 5.19806 43.8158 5.19806 50.2105V57.5151Z" fill="#0041BD"/>
<path d="M27.8102 46.6467H24.2441C21.8117 46.6467 19.9064 44.7649 19.9064 42.3625V40.6159H19.4043C18.0197 40.6159 16.8499 39.3676 16.8499 37.8904C16.8499 36.4458 17.9959 35.2705 19.4045 35.2705H32.6499C34.0585 35.2705 35.2046 36.4458 35.2046 37.8904C35.2046 39.3678 34.0346 40.6159 32.6499 40.6159H32.1479V42.3625C32.1479 44.7648 30.2425 46.6467 27.8102 46.6467ZM19.4043 36.3014C18.5657 36.3014 17.8834 37.0142 17.8834 37.8904C17.8834 38.7932 18.594 39.585 19.4042 39.585H20.4231C20.7085 39.585 20.9399 39.8158 20.9399 40.1004V42.3625C20.9399 44.2173 22.3604 45.6159 24.2439 45.6159H27.8101C29.6936 45.6159 31.1141 44.2173 31.1141 42.3625V40.1004C31.1141 39.8158 31.3455 39.585 31.6309 39.585H32.6498C33.4601 39.585 34.1708 38.7931 34.1708 37.8904C34.1708 37.0142 33.4885 36.3014 32.6498 36.3014H19.4043Z" fill="#0041BD"/>
<path d="M12.4337 58.2442C12.1483 58.2442 11.9169 58.0134 11.9169 57.7288V49.9974C11.9169 49.7127 12.1483 49.4819 12.4337 49.4819C12.7191 49.4819 12.9505 49.7127 12.9505 49.9974V57.7288C12.9505 58.0134 12.7191 58.2442 12.4337 58.2442Z" fill="#0041BD"/>
<path d="M39.5664 58.2442C39.281 58.2442 39.0496 58.0134 39.0496 57.7288V49.9974C39.0496 49.7127 39.281 49.4819 39.5664 49.4819C39.8518 49.4819 40.0832 49.7127 40.0832 49.9974V57.7288C40.0832 58.0134 39.8518 58.2442 39.5664 58.2442Z" fill="#0041BD"/>
<path d="M49.6321 24.6968C49.5378 24.6968 49.4423 24.671 49.3567 24.617C49.1153 24.465 49.0432 24.1467 49.1957 23.906C50.354 22.0767 50.9663 19.9956 50.9663 17.8875C50.9663 15.8103 50.354 13.7455 49.1957 11.9163C49.0432 11.6755 49.1153 11.3573 49.3567 11.2052C49.598 11.0532 49.9173 11.1251 50.0696 11.3658C51.3325 13.36 52 15.6151 52 17.8873C52 20.1905 51.3325 22.462 50.0696 24.4562C49.9713 24.6117 49.8036 24.6968 49.6321 24.6968Z" fill="#0041BD"/>
<path d="M46.0262 22.0944C45.9401 22.0944 45.8527 22.0729 45.7724 22.0276C45.5239 21.8876 45.4363 21.5732 45.5767 21.3252C46.1934 20.237 46.5062 19.0804 46.5062 17.8878C46.5062 16.7266 46.1934 15.5859 45.5767 14.4977C45.4363 14.2499 45.5239 13.9355 45.7724 13.7953C46.0208 13.6552 46.3361 13.7426 46.4766 13.9904C47.1822 15.2353 47.5398 16.5466 47.5398 17.8878C47.5398 19.2604 47.1821 20.5877 46.4766 21.8326C46.3817 22.0002 46.2066 22.0944 46.0262 22.0944Z" fill="#0041BD"/>
<path d="M2.36783 24.6967C2.19637 24.6967 2.02866 24.6117 1.93034 24.4564C0.667478 22.4623 0 20.2072 0 17.9348C0 15.6315 0.667607 13.36 1.93034 11.3658C2.08267 11.1251 2.40181 11.0531 2.64329 11.2053C2.88465 11.3573 2.95675 11.6756 2.80429 11.9163C1.64595 13.7456 1.03365 15.8267 1.03365 17.9348C1.03365 20.012 1.64595 22.0768 2.80429 23.9059C2.95675 24.1466 2.88465 24.4649 2.64329 24.617C2.55763 24.6709 2.46215 24.6967 2.36783 24.6967Z" fill="#0041BD"/>
<path d="M5.97392 22.0944C5.79355 22.0944 5.61861 22.0002 5.52352 21.8326C4.81808 20.5875 4.46033 19.2763 4.46033 17.9352C4.46033 16.5627 4.81808 15.2355 5.52352 13.9905C5.66396 13.7427 5.97908 13.6552 6.2278 13.7954C6.47625 13.9354 6.56385 14.2499 6.42341 14.4978C5.8066 15.5861 5.49394 16.7426 5.49394 17.9352C5.49394 19.0963 5.8066 20.2369 6.42341 21.3252C6.56385 21.573 6.47625 21.8876 6.2278 22.0276C6.1473 22.0729 6.05996 22.0944 5.97392 22.0944Z" fill="#0041BD"/>
</svg>
