<svg width="40" height="33" viewBox="0 0 40 33" fill="none" xmlns="http://www.w3.org/2000/svg">
<path d="M38.6364 0C39.384 0 40 0.621179 40 1.375V31.625C40 32.3788 39.384 33 38.6364 33H6.81818C6.75696 32.9995 6.69647 32.9866 6.64032 32.962C6.58418 32.9374 6.53354 32.9016 6.49146 32.8568L0.127818 26.4401C0.0466747 26.3555 0.00090898 26.2427 0 26.125V1.375C0 0.621179 0.616045 0 1.36364 0H38.6364ZM38.6364 0.916667H1.36364C1.10395 0.916667 0.909091 1.11315 0.909091 1.375V9.16667H39.0909V1.375C39.0909 1.11315 38.896 0.916667 38.6364 0.916667ZM30.4545 2.75C31.7044 2.75 32.7273 3.78143 32.7273 5.04167C32.7273 6.3019 31.7044 7.33333 30.4545 7.33333C29.2047 7.33333 28.1818 6.3019 28.1818 5.04167C28.1818 3.78143 29.2047 2.75 30.4545 2.75ZM9.54545 2.75C10.7953 2.75 11.8182 3.78143 11.8182 5.04167C11.8182 6.3019 10.7953 7.33333 9.54545 7.33333C8.29564 7.33333 7.27273 6.3019 7.27273 5.04167C7.27273 3.78143 8.29564 2.75 9.54545 2.75ZM30.4545 3.66667C29.696 3.66667 29.0909 4.27685 29.0909 5.04167C29.0909 5.80649 29.696 6.41667 30.4545 6.41667C31.213 6.41667 31.8182 5.80649 31.8182 5.04167C31.8182 4.27685 31.213 3.66667 30.4545 3.66667ZM9.54545 3.66667C8.78695 3.66667 8.18182 4.27685 8.18182 5.04167C8.18182 5.80649 8.78695 6.41667 9.54545 6.41667C10.304 6.41667 10.9091 5.80649 10.9091 5.04167C10.9091 4.27685 10.304 3.66667 9.54545 3.66667ZM39.0909 10.0833H0.909091V25.6667H5.90909C6.65668 25.6667 7.27273 26.2878 7.27273 27.0417V32.0833H38.6364C38.896 32.0833 39.0909 31.8868 39.0909 31.625V10.0833ZM35 13.2917V28.875H12.2727V21.5417H5V13.2917H35ZM34.0909 14.2083H27.7273V20.625H34.0909V14.2083ZM26.8182 14.2083H20.4545V20.625H26.8182V14.2083ZM19.5455 14.2083H13.1818V20.625H19.5455V14.2083ZM12.2727 14.2083H5.90909V20.625H12.2727V14.2083ZM34.0909 21.5417H27.7273V27.9583H34.0909V21.5417ZM26.8182 21.5417H20.4545V27.9583H26.8182V21.5417ZM19.5455 21.5417H13.1818V27.9583H19.5455V21.5417ZM5.90909 26.5833H1.5625L6.36364 31.4245V27.0417C6.36364 26.7798 6.16877 26.5833 5.90909 26.5833Z" fill="white"/>
</svg>
