<svg width="54" height="52" viewBox="0 0 54 52" fill="none" xmlns="http://www.w3.org/2000/svg">
<path d="M32.3611 14.937C30.2416 17.0386 30.0764 20.3571 32.0033 22.3205C32.9392 23.2607 34.1779 23.7308 35.4441 23.7308C36.8205 23.7308 38.2519 23.1777 39.3529 22.0716C41.4725 19.9699 41.6377 16.6515 39.7108 14.6881C37.7839 12.7247 34.4807 12.8353 32.3611 14.937ZM40.1787 18.366C40.1237 19.5275 39.6007 20.6336 38.7474 21.4909C37.894 22.3481 36.7654 22.8182 35.6093 22.8735C34.4532 22.9288 33.4071 22.4864 32.6089 21.7121C31.8381 20.9101 31.4527 19.8593 31.5078 18.6978C31.5628 17.5364 32.0859 16.4303 32.9392 15.573C33.7925 14.7157 34.9211 14.2456 36.0772 14.1903C36.1323 14.1903 36.1598 14.1903 36.2149 14.1903C36.7654 14.1903 37.2884 14.3009 37.7839 14.4945C38.2794 14.6881 38.6923 14.9923 39.0777 15.3794C39.8484 16.1261 40.2338 17.2046 40.1787 18.366Z" fill="#002ABD"/>
<path d="M53.9695 0.556656V0.418389L53.6116 0.0588935H53.4464C51.1617 -0.134681 33.5445 -0.881326 20.3317 18.1443C19.8912 17.8401 18.9553 17.3147 17.4413 17.4529C14.6336 17.7018 9.78888 20.3013 2.76953 31.1138L3.40265 31.6392C6.18286 29.0398 13.9179 22.4306 16.3678 23.0943C16.5605 23.1496 16.8082 23.2602 16.9459 23.7026C15.8998 25.6384 14.8813 27.74 13.9454 30.0076L13.8353 30.2012L17.7992 34.2386L15.8448 36.0914L17.3312 37.6123L19.2856 35.7596L23.0018 39.5757L23.222 39.797L23.4697 39.7417C25.7269 38.8291 27.819 37.7229 29.7734 36.8933C29.8009 36.8657 29.8009 36.838 29.8284 36.8104C30.2413 36.9487 30.3514 37.1975 30.4065 37.3911C31.0396 39.8799 24.3231 47.5123 21.6805 50.25L22.2035 50.886C33.0766 44.0003 35.7467 39.2162 36.0495 36.3956C36.2146 34.8746 35.7192 33.8791 35.4164 33.4643C54.5475 20.5501 54.1071 2.8519 53.9695 0.556656ZM39.0774 3.46027C45.9041 0.611963 51.5471 0.722577 53.1712 0.833191C53.2538 2.43709 53.2538 8.10606 50.3084 14.9365L39.0774 3.46027ZM16.5605 22.2646C14.1381 21.601 8.63275 25.9149 5.32953 28.7356C11.1102 20.5778 15.074 18.5038 17.4689 18.2549C18.7902 18.1166 19.5609 18.5591 19.8637 18.7803C19.0104 20.0247 18.1846 21.3797 17.3863 22.7901C17.1936 22.5412 16.9183 22.3476 16.5605 22.2646ZM14.7988 30.0076C15.2942 28.8462 15.7897 27.7124 16.3127 26.6339L20.7996 31.2244L18.3497 33.6302L14.7988 30.0076ZM18.9828 34.9023L18.68 35.1788L17.3037 36.4509L16.9734 36.119L18.3497 34.847L18.6525 34.5428L18.9278 34.2663L21.3777 31.8328L21.9557 31.252L27.2134 26.0532L27.5437 26.4127L22.2861 31.6115L21.708 32.1922L19.2581 34.5981L18.9828 34.9023ZM23.4147 38.8291L19.8362 35.1788L22.2861 32.773L26.7729 37.3911C25.6994 37.8889 24.5983 38.359 23.4147 38.8291ZM35.1962 36.3956C34.9209 38.7738 32.7738 42.7282 24.5433 48.3972C27.4336 45.1341 31.8104 39.6587 31.2048 37.2252C31.1222 36.8657 30.9295 36.5892 30.6818 36.3956C32.1131 35.6213 33.462 34.8193 34.7282 33.9897C34.9209 34.2386 35.3613 35.0406 35.1962 36.3956ZM37.2882 31.0861C36.9854 31.3073 36.7101 31.5286 36.4073 31.7498C36.1045 31.971 35.8017 32.1922 35.4989 32.4135C35.1962 32.6347 34.8658 32.8283 34.563 33.0495C34.2327 33.2707 33.9024 33.4643 33.5996 33.6855C31.7828 34.847 29.7734 35.9531 27.5987 37.004L22.8917 32.1922L28.7273 26.4127L27.2409 24.8917L21.4052 30.6713L16.6981 25.8596C19.671 19.9141 23.5798 14.4387 28.5622 10.0418C29.8835 8.88036 31.2598 7.82952 32.7187 6.834C33.5721 6.25328 34.4254 5.6449 35.3338 5.14714C36.2422 4.62172 37.2607 4.15161 38.2241 3.79211V3.76446L49.868 15.6831C47.6383 20.6607 43.7845 26.1638 37.2882 31.0861Z" fill="#0041BD"/>
<path d="M4.97164 41.1524C7.1738 38.9954 9.45855 36.9767 11.6607 34.8198C12.0461 34.4603 11.468 33.8519 11.0826 34.2391C8.88048 36.396 6.59573 38.4147 4.39357 40.5717C4.00819 40.9312 4.58626 41.5119 4.97164 41.1524Z" fill="#002ABD"/>
<path d="M14.386 37.2801C9.62384 41.9259 4.88923 46.5716 0.12709 51.2174C-0.258285 51.5769 0.319778 52.1853 0.705153 51.7981C5.46729 47.1524 10.2019 42.5066 14.964 37.8608C15.3494 37.5013 14.7714 36.8929 14.386 37.2801Z" fill="#002ABD"/>
<path d="M17.6892 40.8753C14.5786 43.9172 11.413 46.9037 8.27492 49.9456C7.88954 50.3051 8.46761 50.9135 8.85299 50.5264C11.9636 47.4845 15.1292 44.4979 18.2673 41.456C18.6526 41.0965 18.0746 40.4881 17.6892 40.8753Z" fill="#002ABD"/>
</svg>
