<svg width="38" height="53" viewBox="0 0 38 53" fill="none" xmlns="http://www.w3.org/2000/svg">
<path d="M1.51056 8.67319C1.50511 8.91498 1.50114 9.19198 1.50021 9.50127C1.49635 10.7782 1.54425 12.601 1.75231 14.765C2.16965 19.1053 3.22551 24.7541 5.75287 30.1123L1.51056 8.67319ZM1.51056 8.67319C6.25264 7.59768 10.2658 5.02065 12.2691 1.5H18.3579H19.8452H25.9335C27.9083 4.99649 31.7811 7.55806 36.4962 8.64025C36.4927 8.91658 36.4866 9.23662 36.4761 9.59573C36.4363 10.9646 36.3346 12.8963 36.0874 15.1365C35.5904 19.6403 34.5155 25.2886 32.2397 30.1126C27.505 40.1472 20.6419 43.4073 18.9964 44.0975C17.3447 43.4051 10.487 40.1423 5.75302 30.1126L1.51056 8.67319Z" stroke="white" stroke-width="3"/>
<path d="M26.5374 1.16809C26.5374 0.857795 26.2708 0.606445 25.9413 0.606445C25.6118 0.606445 25.3453 0.857795 25.3453 1.16809C25.3453 1.47838 25.6118 1.72965 25.9413 1.72965C26.2708 1.72965 26.5374 1.47831 26.5374 1.16809ZM18.3805 44.4656C18.3805 44.1552 18.6472 43.904 18.9765 43.904C19.306 43.904 19.5726 44.1552 19.5726 44.4656C19.5726 44.7759 19.306 45.0273 18.9765 45.0273C18.6472 45.0273 18.3805 44.7759 18.3805 44.4656ZM9.70819 37.8839C9.70819 37.5734 9.97495 37.3222 10.3043 37.3222C10.6335 37.3222 10.9003 37.5734 10.9003 37.8839C10.9003 38.1941 10.6335 38.4455 10.3043 38.4455C9.97487 38.4455 9.70819 38.1941 9.70819 37.8839ZM4.51968 29.4765C4.51968 29.1662 4.78644 28.915 5.11575 28.915C5.44499 28.915 5.71175 29.1662 5.71175 29.4765C5.71175 29.7869 5.44499 30.0382 5.11575 30.0382C4.78652 30.0382 4.51968 29.7869 4.51968 29.4765ZM1.54555 18.9552C1.54555 18.6449 1.8123 18.3935 2.14154 18.3935C2.47086 18.3935 2.73761 18.6449 2.73761 18.9552C2.73761 19.2655 2.47086 19.5167 2.14154 19.5167C1.8123 19.5168 1.54555 19.2655 1.54555 18.9552ZM0.89209 8.62948C0.89209 8.31919 1.15877 8.06792 1.48817 8.06792C1.8174 8.06792 2.08416 8.31926 2.08416 8.62948C2.08416 8.93978 1.8174 9.19112 1.48817 9.19112C1.15877 9.19112 0.89209 8.93978 0.89209 8.62948ZM11.4638 1.16809C11.4638 0.857795 11.7305 0.606445 12.0598 0.606445C12.3891 0.606445 12.6559 0.857795 12.6559 1.16809C12.6559 1.47838 12.3891 1.72965 12.0598 1.72965C11.7304 1.72965 11.4638 1.47831 11.4638 1.16809ZM28.2924 37.8839C28.2924 37.5734 28.0258 37.3222 27.6964 37.3222C27.3672 37.3222 27.1004 37.5734 27.1004 37.8839C27.1004 38.1941 27.3673 38.4455 27.6964 38.4455C28.0258 38.4455 28.2924 38.1941 28.2924 37.8839ZM33.481 29.4765C33.481 29.1662 33.2141 28.915 32.8849 28.915C32.5555 28.915 32.2889 29.1662 32.2889 29.4765C32.2889 29.7869 32.5555 30.0382 32.8849 30.0382C33.2141 30.0382 33.481 29.7869 33.481 29.4765ZM36.4553 18.9552C36.4553 18.6449 36.1884 18.3935 35.8592 18.3935C35.5297 18.3935 35.2632 18.6449 35.2632 18.9552C35.2632 19.2655 35.5297 19.5167 35.8592 19.5167C36.1884 19.5168 36.4553 19.2655 36.4553 18.9552ZM37.1088 8.62948C37.1088 8.31919 36.8422 8.06792 36.5126 8.06792C36.1835 8.06792 35.9166 8.31926 35.9166 8.62948C35.9166 8.93978 36.1835 9.19112 36.5126 9.19112C36.8421 9.19112 37.1088 8.93978 37.1088 8.62948Z" fill="white"/>
<path d="M26.5374 1.16826C26.5374 0.857884 26.2708 0.606689 25.9413 0.606689C25.6122 0.606689 25.3453 0.857884 25.3453 1.16826C25.3453 1.47855 25.6122 1.7299 25.9413 1.7299C26.2708 1.72998 26.5374 1.47863 26.5374 1.16826ZM18.3805 44.4658C18.3805 44.1556 18.6473 43.9041 18.9765 43.9041C19.306 43.9041 19.5726 44.1556 19.5726 44.4658C19.5726 44.7761 19.306 45.0274 18.9765 45.0274C18.6473 45.0274 18.3805 44.7761 18.3805 44.4658ZM9.70819 37.8841C9.70819 37.5737 9.97495 37.3223 10.3043 37.3223C10.6336 37.3223 10.9003 37.5737 10.9003 37.8841C10.9003 38.1943 10.6336 38.4457 10.3043 38.4457C9.97495 38.4457 9.70819 38.1943 9.70819 37.8841ZM4.51976 29.4768C4.51976 29.1665 4.78652 28.9152 5.11584 28.9152C5.44507 28.9152 5.71183 29.1665 5.71183 29.4768C5.71183 29.7872 5.44499 30.0385 5.11584 30.0385C4.78652 30.0385 4.51976 29.7872 4.51976 29.4768ZM1.54563 18.9553C1.54563 18.645 1.8123 18.3937 2.1417 18.3937C2.47094 18.3937 2.7377 18.645 2.7377 18.9553C2.7377 19.2656 2.47094 19.5169 2.1417 19.5169C1.8123 19.517 1.54563 19.2657 1.54563 18.9553ZM0.89209 8.6298C0.89209 8.31936 1.15885 8.06816 1.48817 8.06816C1.8174 8.06816 2.08416 8.31936 2.08416 8.6298C2.08416 8.9401 1.8174 9.19145 1.48817 9.19145C1.15885 9.19145 0.89209 8.9401 0.89209 8.6298ZM11.4638 1.16826C11.4638 0.857884 11.7305 0.606689 12.0598 0.606689C12.3891 0.606689 12.6559 0.857884 12.6559 1.16826C12.6559 1.47855 12.3891 1.7299 12.0598 1.7299C11.7305 1.72998 11.4638 1.47863 11.4638 1.16826ZM28.2924 37.8841C28.2924 37.5737 28.0258 37.3223 27.6964 37.3223C27.3672 37.3223 27.1004 37.5737 27.1004 37.8841C27.1004 38.1943 27.3673 38.4457 27.6964 38.4457C28.0258 38.4457 28.2924 38.1943 28.2924 37.8841ZM33.481 29.4768C33.481 29.1665 33.2144 28.9152 32.8849 28.9152C32.5558 28.9152 32.2889 29.1665 32.2889 29.4768C32.2889 29.7872 32.5558 30.0385 32.8849 30.0385C33.2144 30.0385 33.481 29.7872 33.481 29.4768ZM36.4553 18.9553C36.4553 18.645 36.1884 18.3937 35.8592 18.3937C35.5297 18.3937 35.2632 18.645 35.2632 18.9553C35.2632 19.2656 35.5297 19.5169 35.8592 19.5169C36.1884 19.517 36.4553 19.2657 36.4553 18.9553ZM37.1088 8.6298C37.1088 8.31936 36.8422 8.06816 36.5126 8.06816C36.1835 8.06816 35.9166 8.31936 35.9166 8.6298C35.9166 8.9401 36.1835 9.19145 36.5126 9.19145C36.8421 9.19145 37.1088 8.9401 37.1088 8.6298Z" fill="#414672"/>
<path d="M25.6279 29.0674C23.6047 29.0674 20.3068 20.2997 19.3014 17.4883V28.2835C19.8694 28.4883 20.2937 29.2797 20.2937 30.2293C20.2937 31.3347 19.7206 32.2312 19.0135 32.2312C18.3066 32.2312 17.7336 31.3347 17.7336 30.2293C17.7336 29.2949 18.1445 28.5173 18.6986 28.2962V17.4883C17.6932 20.2997 14.3953 29.0674 12.3721 29.0674C12.3721 29.0674 16.5893 34.5044 15.9875 41.7601C17.1919 41.7601 19 41.7601 19 41.7601C19 41.7601 20.8076 41.7601 22.0124 41.7601C21.4104 34.5044 25.6279 29.0674 25.6279 29.0674Z" fill="white"/>
<path d="M25.8232 6.56467C25.4145 6.47242 25.0062 6.3852 24.5976 6.30418V13.057C22.3848 13.42 21.4973 13.6571 19.0525 15.0909C19.6393 14.8934 22.4218 13.532 25.8232 14.6907C25.8232 13.3371 25.8232 11.9827 25.8232 10.6291C25.8232 9.27552 25.8232 7.9201 25.8232 6.56467ZM23.897 5.62573C22.4223 5.9574 20.6931 6.50015 19.2932 7.76123V14.1979C21.0811 13.2293 22.3236 12.7603 23.897 12.5273V5.62573ZM23.2544 10.9775C22.674 11.1331 22.0896 11.3109 21.5133 11.5316C20.9292 11.7552 20.3521 12.0221 19.7714 12.3108C19.7714 12.4376 19.7714 12.5642 19.7714 12.6909C20.3521 12.4023 20.9292 12.1356 21.5133 11.912C22.0896 11.6913 22.674 11.5135 23.2544 11.3579C23.2544 11.2311 23.2544 11.1044 23.2544 10.9775ZM14.8078 10.9775C15.3871 11.1331 15.9717 11.3109 16.547 11.5316C17.132 11.7552 17.7095 12.0221 18.2889 12.3108C18.2889 12.4376 18.2889 12.5642 18.2889 12.6909C17.7095 12.4023 17.132 12.1356 16.547 11.912C15.9717 11.6913 15.3872 11.5135 14.8078 11.3579C14.8078 11.2311 14.8078 11.1044 14.8078 10.9775ZM14.8078 7.03817C15.3871 7.19362 15.9717 7.37154 16.547 7.59214C17.132 7.81576 17.7095 8.0826 18.2889 8.37136C18.2889 8.49808 18.2889 8.62473 18.2889 8.75137C17.7095 8.46284 17.132 8.19616 16.547 7.97246C15.9717 7.75202 15.3872 7.57402 14.8078 7.41856C14.8078 7.29176 14.8078 7.16504 14.8078 7.03817ZM14.8078 8.02296C15.3871 8.17857 15.9717 8.35642 16.547 8.57694C17.132 8.80063 17.7095 9.06755 18.2889 9.35623C18.2889 9.48295 18.2889 9.60967 18.2889 9.73616C17.7095 9.44763 17.132 9.18095 16.547 8.95748C15.9717 8.73689 15.3872 8.55897 14.8078 8.40335C14.8078 8.27663 14.8078 8.14984 14.8078 8.02296ZM14.8078 9.00783C15.3871 9.16337 15.9717 9.34121 16.547 9.56181C17.132 9.7855 17.7095 10.0523 18.2889 10.3411C18.2889 10.4677 18.2889 10.5945 18.2889 10.721C17.7095 10.4326 17.132 10.1657 16.547 9.9422C15.9717 9.72152 15.3872 9.54368 14.8078 9.38807C14.8078 9.26143 14.8078 9.13471 14.8078 9.00783ZM14.8078 9.9927C15.3871 10.1483 15.9717 10.3262 16.547 10.5468C17.132 10.7703 17.7095 11.0373 18.2889 11.3259C18.2889 11.4526 18.2889 11.5794 18.2889 11.706C17.7095 11.4174 17.132 11.1507 16.547 10.9271C15.9717 10.7065 15.3872 10.5287 14.8078 10.3731C14.8078 10.2463 14.8078 10.1195 14.8078 9.9927ZM23.2544 7.03817C22.674 7.19362 22.0896 7.37154 21.5133 7.59214C20.9292 7.81561 20.3521 8.0826 19.7714 8.37136C19.7714 8.49808 19.7714 8.62473 19.7714 8.75137C20.3521 8.46284 20.9292 8.19616 21.5133 7.97246C22.0896 7.75202 22.674 7.57402 23.2544 7.41856C23.2544 7.29176 23.2544 7.16504 23.2544 7.03817ZM23.2544 8.02296C22.674 8.17857 22.0896 8.35642 21.5133 8.57694C20.9292 8.80063 20.3521 9.06755 19.7714 9.35623C19.7714 9.48295 19.7714 9.60967 19.7714 9.73616C20.3521 9.44763 20.9292 9.18095 21.5133 8.95748C22.0896 8.73689 22.674 8.55897 23.2544 8.40335C23.2544 8.27663 23.2544 8.14984 23.2544 8.02296ZM23.2544 9.00783C22.674 9.16337 22.0896 9.34121 21.5133 9.56181C20.9292 9.7855 20.3521 10.0523 19.7714 10.3411C19.7714 10.4677 19.7714 10.5945 19.7714 10.721C20.3521 10.4326 20.9292 10.1657 21.5133 9.9422C22.0896 9.72152 22.674 9.54368 23.2544 9.38807C23.2544 9.26143 23.2544 9.13471 23.2544 9.00783ZM23.2544 9.9927C22.674 10.1483 22.0896 10.3262 21.5133 10.5468C20.9292 10.7703 20.3521 11.0373 19.7714 11.3259C19.7714 11.4526 19.7714 11.5794 19.7714 11.706C20.3521 11.4174 20.9292 11.1507 21.5133 10.9271C22.0896 10.7065 22.674 10.5287 23.2544 10.3731C23.2544 10.2463 23.2544 10.1195 23.2544 9.9927ZM14.1647 5.62573C15.6403 5.9574 17.3681 6.50015 18.7688 7.76123V14.1979C16.9809 13.2293 15.7371 12.7603 14.1647 12.5273V5.62573ZM12.1768 6.56467C12.5848 6.47242 12.994 6.3852 13.4021 6.30418V13.057C15.615 13.42 16.5024 13.6571 18.9475 15.0909C18.3603 14.8934 15.5781 13.532 12.1768 14.6907C12.1768 13.3371 12.1768 11.9827 12.1768 10.6291C12.1768 9.27552 12.1768 7.9201 12.1768 6.56467Z" fill="white"/>
<path d="M29.4907 25.3847C28.3818 28.1797 28.5238 30.6915 29.9168 32.9201C30.5268 31.9313 31.1183 30.8496 31.6759 29.6674C32.5362 27.8436 33.192 25.8758 33.6915 23.9051C34.3739 21.2109 34.7644 18.5113 34.9847 16.1661C35.37 12.0614 35.2343 9.043 35.2343 9.043C33.4106 8.73433 31.7856 8.09113 30.3994 7.22949C29.1988 9.41201 28.8679 12.1165 29.406 15.3426C29.4983 15.8947 29.6159 16.4619 29.7588 17.0444C30.5787 19.2578 30.7845 21.2778 30.3761 23.1041C30.198 23.9011 29.9025 24.6614 29.4907 25.3847Z" fill="#E30016"/>
<path d="M32.5595 15.0055C33.2157 15.422 33.8499 15.9834 34.9843 16.1661C35.3697 12.0614 35.234 9.043 35.234 9.043C33.4102 8.73433 31.7853 8.09113 30.399 7.22949C29.1985 9.41201 28.8675 12.1165 29.4056 15.3426C30.5975 14.8248 31.7611 14.499 32.5595 15.0055Z" fill="white" stroke="white" stroke-width="0.216"/>
<path d="M30.376 23.1038C31.5033 22.7099 32.6084 22.9769 33.6914 23.9049C33.1919 25.8755 32.5363 27.8433 31.6759 29.6672C31.1182 30.8493 30.5267 31.9311 29.9168 32.9198C28.5238 30.6912 28.3818 28.1794 29.4906 25.3844C29.9025 24.6611 30.1979 23.9008 30.376 23.1038Z" fill="#FFEC00"/>
</svg>
