<svg width="50" height="57" viewBox="0 0 50 57" fill="none" xmlns="http://www.w3.org/2000/svg">
<line y1="55.9958" x2="50" y2="55.9958" stroke="white"/>
<path d="M33.862 41.4958C33.61 41.4958 33.4 41.2858 33.4 41.0338V12.1378C33.4 11.8858 33.61 11.6758 33.862 11.6758C34.114 11.6758 34.324 11.8858 34.324 12.1378V41.0338C34.324 41.2858 34.114 41.4958 33.862 41.4958Z" fill="white"/>
<path d="M24.58 41.4958C24.328 41.4958 24.118 41.2858 24.118 41.0338V12.1378C24.118 11.8858 24.328 11.6758 24.58 11.6758C24.832 11.6758 25.042 11.8858 25.042 12.1378V41.0338C25.084 41.2858 24.874 41.4958 24.58 41.4958Z" fill="white"/>
<path d="M27.52 19.8238C27.394 19.8238 27.268 19.7818 27.184 19.6978C27.016 19.5298 27.016 19.1938 27.184 19.0258L29.326 16.8838L31.468 19.0258C31.636 19.1938 31.636 19.5298 31.468 19.6978C31.3 19.8658 30.964 19.8658 30.796 19.6978L29.326 18.2278L27.856 19.6978C27.772 19.7818 27.646 19.8238 27.52 19.8238Z" fill="white"/>
<path d="M27.52 24.6959C27.394 24.6959 27.268 24.6539 27.184 24.5699C27.016 24.4019 27.016 24.0659 27.184 23.8979L29.326 21.7559L31.468 23.8979C31.636 24.0659 31.636 24.4019 31.468 24.5699C31.3 24.7379 30.964 24.7379 30.796 24.5699L29.326 23.0999L27.856 24.5699C27.772 24.6539 27.646 24.6959 27.52 24.6959Z" fill="white"/>
<path d="M27.52 29.5679C27.394 29.5679 27.268 29.5259 27.184 29.4419C27.016 29.2739 27.016 28.9379 27.184 28.7699L29.326 26.6279L31.468 28.7699C31.636 28.9379 31.636 29.2739 31.468 29.4419C31.3 29.6099 30.964 29.6099 30.796 29.4419L29.326 27.9719L27.856 29.4419C27.772 29.5259 27.646 29.5679 27.52 29.5679Z" fill="white"/>
<path d="M27.52 34.44C27.394 34.44 27.268 34.398 27.184 34.314C27.016 34.146 27.016 33.81 27.184 33.642L29.326 31.5L31.468 33.642C31.636 33.81 31.636 34.146 31.468 34.314C31.3 34.482 30.964 34.482 30.796 34.314L29.326 32.844L27.856 34.314C27.772 34.398 27.646 34.44 27.52 34.44Z" fill="white"/>
<path d="M39.7 26.7538C39.448 26.7538 39.238 26.5438 39.238 26.2918V12.1378C39.238 11.8858 39.448 11.6758 39.7 11.6758C39.952 11.6758 40.162 11.8858 40.162 12.1378V26.2918C40.162 26.5438 39.952 26.7538 39.7 26.7538Z" fill="white"/>
<path d="M33.862 9.198C33.61 9.198 33.4 8.988 33.4 8.736V5.544L29.242 1.386L25.084 5.544V8.736C25.084 8.988 24.874 9.198 24.622 9.198C24.37 9.198 24.16 8.988 24.16 8.736V5.124L29.242 0L34.324 5.124V8.736C34.324 8.988 34.114 9.198 33.862 9.198Z" fill="white"/>
<path d="M21.472 14.7419H15.046V8.31592H39.91L44.194 12.5999H21.472V14.7419ZM16.012 13.7759H20.548V11.6339H41.884L39.49 9.23992H16.012V13.7759Z" fill="white"/>
<path d="M45.538 41.4958C45.286 41.4958 45.076 41.2858 45.076 41.0338V29.7358H40.162V32.2138C40.162 32.4658 39.952 32.6758 39.7 32.6758C39.448 32.6758 39.238 32.4658 39.238 32.2138V28.7698H46V41.0338C46 41.2858 45.79 41.4958 45.538 41.4958Z" fill="white"/>
<path d="M39.7 29.736H33.862C33.61 29.736 33.4 29.526 33.4 29.274C33.4 29.022 33.61 28.812 33.862 28.812H39.7C39.952 28.812 40.162 29.022 40.162 29.274C40.162 29.484 39.952 29.736 39.7 29.736Z" fill="white"/>
<path d="M42.598 29.7358C42.346 29.7358 42.136 29.5258 42.136 29.2738V26.7958H37.264V29.2738C37.264 29.5258 37.054 29.7358 36.802 29.7358C36.55 29.7358 36.34 29.5258 36.34 29.2738V25.7878H43.144V29.2318C43.102 29.4838 42.892 29.7358 42.598 29.7358Z" fill="white"/>
<path d="M15.886 41.034H14.92V25.41C14.92 24.192 13.954 23.226 12.736 23.226H7.15C5.932 23.226 4.966 24.192 4.966 25.41V40.992H4V25.41C4 23.688 5.428 22.26 7.15 22.26H12.694C14.416 22.26 15.844 23.688 15.844 25.41V41.034H15.886Z" fill="white"/>
<path d="M12.904 23.2261C12.652 23.2261 12.442 23.0161 12.442 22.7641V19.7821C12.442 18.3961 11.308 17.2621 9.92203 17.2621C8.53603 17.2621 7.40203 18.3961 7.40203 19.7821V22.7641C7.40203 23.0161 7.19203 23.2261 6.94003 23.2261C6.68803 23.2261 6.47803 23.0161 6.47803 22.7641V19.7821C6.47803 17.8921 8.03203 16.3381 9.92203 16.3381C11.812 16.3381 13.366 17.8921 13.366 19.7821V22.7641C13.408 23.0161 13.156 23.2261 12.904 23.2261Z" fill="white"/>
<path d="M9.92199 17.1359C9.66999 17.1359 9.45999 16.9259 9.45999 16.6739V12.7259C9.45999 12.4739 9.66999 12.2639 9.92199 12.2639C10.174 12.2639 10.384 12.4739 10.384 12.7259V16.6739C10.426 16.9259 10.216 17.1359 9.92199 17.1359Z" fill="white"/>
<path d="M24.496 32.4241C24.37 32.4241 24.244 32.3821 24.16 32.2981L19.96 28.3081L15.718 32.2561C15.508 32.4241 15.214 32.4241 15.046 32.2141C14.878 32.0041 14.878 31.7101 15.088 31.5421L19.624 27.3001C19.792 27.1321 20.086 27.1321 20.296 27.3001L24.832 31.5421C25.042 31.7101 25.042 32.0461 24.874 32.2141C24.748 32.3401 24.622 32.4241 24.496 32.4241Z" fill="white"/>
<path d="M10.426 27.6782H9.45999V28.8122H10.426V27.6782Z" fill="white"/>
<path d="M10.426 32.5083H9.45999V33.6423H10.426V32.5083Z" fill="white"/>
<path d="M10.426 37.2961H9.45999V38.4301H10.426V37.2961Z" fill="white"/>
<path d="M20.422 33.3062H19.456V34.4402H20.422V33.3062Z" fill="white"/>
<path d="M20.422 37.4216H19.456V38.5556H20.422V37.4216Z" fill="white"/>
<path d="M45.538 32.8019H33.862C33.61 32.8019 33.4 32.5919 33.4 32.3399C33.4 32.0879 33.61 31.8779 33.862 31.8779H45.538C45.79 31.8779 46 32.0879 46 32.3399C46 32.5919 45.79 32.8019 45.538 32.8019Z" fill="white"/>
</svg>
