<svg width="50" height="51" viewBox="0 0 50 51" fill="none" xmlns="http://www.w3.org/2000/svg">
<line y1="50.499" x2="50" y2="50.499" stroke="white"/>
<path d="M41.0811 24.295C40.332 24.295 39.5998 24.517 38.9769 24.9331C38.354 25.3492 37.8686 25.9407 37.5818 26.6327C37.2951 27.3247 37.2201 28.0862 37.3661 28.8209C37.5122 29.5556 37.8728 30.2305 38.4025 30.7602C38.9321 31.2899 39.6069 31.6507 40.3415 31.7969C41.0762 31.9431 41.8377 31.8682 42.5298 31.5816C43.2219 31.295 43.8134 30.8096 44.2296 30.1869C44.6459 29.5641 44.8681 28.8319 44.8681 28.0828C44.8671 27.0787 44.4677 26.116 43.7578 25.4059C43.0478 24.6958 42.0852 24.2963 41.0811 24.295ZM41.0811 31.0991C40.4844 31.0992 39.9011 30.9223 39.4049 30.5908C38.9087 30.2593 38.522 29.7882 38.2937 29.2369C38.0653 28.6856 38.0055 28.079 38.1219 27.4938C38.2383 26.9086 38.5257 26.371 38.9476 25.9491C39.3696 25.5271 39.9072 25.2398 40.4924 25.1234C41.0776 25.0071 41.6842 25.0669 42.2355 25.2953C42.7868 25.5237 43.2579 25.9104 43.5894 26.4066C43.9208 26.9028 44.0977 27.4861 44.0976 28.0828C44.0967 28.8825 43.7786 29.6492 43.2131 30.2147C42.6476 30.7802 41.8808 31.0983 41.0811 31.0991ZM5.39742 2.68217C5.41583 2.72898 5.42626 2.77855 5.42828 2.82881C5.42545 2.87881 5.41505 2.9281 5.39742 2.97498C5.37659 3.0207 5.348 3.06247 5.3129 3.09843C5.2413 3.17036 5.14467 3.21184 5.0432 3.2142C4.9398 3.21049 4.84126 3.16935 4.76591 3.09843C4.69609 3.0261 4.65732 2.92934 4.65789 2.82881C4.65864 2.72614 4.69708 2.62732 4.76591 2.55112C4.84128 2.48416 4.93859 2.44718 5.03941 2.44718C5.14022 2.44718 5.23753 2.48416 5.3129 2.55112C5.34795 2.58997 5.37649 2.63422 5.39742 2.68217ZM7.50879 2.55112C7.57756 2.62734 7.61597 2.72615 7.61673 2.82881C7.61729 2.92932 7.57856 3.02608 7.50879 3.09843C7.43342 3.16932 7.33489 3.21046 7.23149 3.2142C7.18133 3.21125 7.13188 3.20085 7.08477 3.18334C7.03939 3.16199 6.99784 3.1333 6.96179 3.09843C6.88977 3.02694 6.84834 2.93027 6.84625 2.82881C6.84607 2.75198 6.86864 2.67681 6.91112 2.61279C6.95359 2.54877 7.01407 2.49876 7.08493 2.46906C7.15579 2.43936 7.23386 2.4313 7.30929 2.44591C7.38472 2.46051 7.45413 2.49712 7.50879 2.55112ZM9.69684 2.55112C9.73348 2.58749 9.76255 2.63075 9.78238 2.67841C9.80221 2.72607 9.81241 2.77719 9.81238 2.82881C9.81013 2.90445 9.78649 2.97791 9.74419 3.04066C9.70189 3.10341 9.64266 3.15288 9.57339 3.18334C9.52646 3.20089 9.47716 3.2113 9.42714 3.2142C9.37698 3.21204 9.32751 3.20161 9.28074 3.18334C9.23281 3.16228 9.18861 3.13361 9.14985 3.09843C9.08005 3.02608 9.04129 2.92933 9.04183 2.82881C9.04262 2.72614 9.08105 2.62734 9.14985 2.55112C9.19032 2.51836 9.2342 2.49005 9.28074 2.46668C9.37451 2.4283 9.47961 2.4283 9.57339 2.46668C9.61866 2.48828 9.6603 2.51676 9.69684 2.55112ZM48.6938 26.7306L46.5197 26.2694C46.4348 26.0114 46.331 25.7601 46.209 25.5174L47.4192 23.6499C47.4673 23.5758 47.4884 23.4874 47.4791 23.3996C47.4697 23.3118 47.4303 23.2298 47.3676 23.1676L45.9886 21.7957C45.926 21.7338 45.8441 21.6951 45.7565 21.6861C45.6689 21.6771 45.5808 21.6983 45.5069 21.7462L43.6469 22.9563C43.404 22.8339 43.1524 22.7297 42.8941 22.6445L42.4257 20.4701C42.4072 20.384 42.3597 20.3069 42.2911 20.2516C42.2226 20.1963 42.1372 20.1661 42.0491 20.1661H41.4637V5.28202L41.4663 5.26901V0.385395C41.4664 0.334786 41.4564 0.284665 41.4371 0.237898C41.4177 0.191132 41.3894 0.148637 41.3536 0.112843C41.3178 0.07705 41.2753 0.0486605 41.2286 0.029298C41.1818 0.00993554 41.1317 -2.04788e-05 41.0811 1.2746e-07H2.38555C2.33492 -4.10558e-05 2.28478 0.00989813 2.23799 0.0292495C2.19121 0.0486008 2.1487 0.076985 2.11289 0.112778C2.07708 0.148572 2.04868 0.191072 2.02931 0.23785C2.00994 0.284627 1.99998 0.334765 2 0.385395V5.26901V5.26956V5.27222V28.0858C1.99996 28.1364 2.00989 28.1865 2.02923 28.2332C2.04857 28.28 2.07693 28.3225 2.1127 28.3583C2.14847 28.3941 2.19095 28.4225 2.2377 28.4418C2.28445 28.4612 2.33456 28.4712 2.38516 28.4712H33.1659V29.0571C33.1659 29.1454 33.1962 29.2311 33.2518 29.2998C33.3075 29.3684 33.385 29.4158 33.4714 29.4341L35.6455 29.8953C35.7301 30.1535 35.8339 30.405 35.956 30.6477L34.7461 32.5151C34.6981 32.5891 34.6769 32.6773 34.6862 32.765C34.6954 32.8527 34.7345 32.9345 34.7968 32.9969L36.1685 34.3685C36.2308 34.431 36.3127 34.4702 36.4005 34.4795C36.4882 34.4889 36.5765 34.4677 36.6505 34.4197L38.5176 33.2091C38.76 33.3321 39.0116 33.4362 39.27 33.5204L39.7313 35.6936C39.7496 35.78 39.7971 35.8575 39.8657 35.9131C39.9343 35.9687 40.0199 35.9991 40.1082 35.9991H42.0498C42.1379 35.9991 42.2233 35.969 42.2918 35.9137C42.3603 35.8584 42.4079 35.7813 42.4264 35.6952L42.8948 33.52C43.1532 33.4354 43.4048 33.3315 43.6476 33.2092L45.5076 34.4191C45.5815 34.4672 45.6696 34.4885 45.7573 34.4794C45.845 34.4703 45.9268 34.4314 45.9893 34.3693L47.3683 32.9976C47.431 32.9353 47.4704 32.8534 47.4798 32.7656C47.4892 32.6778 47.468 32.5894 47.4199 32.5153L46.2097 30.6479C46.3317 30.4051 46.4356 30.1536 46.5204 29.8955L48.6945 29.4343C48.7809 29.416 48.8585 29.3686 48.9141 29.2999C48.9697 29.2313 49.0001 29.1456 49 29.0572V27.1076C49 27.0192 48.9696 26.9334 48.9138 26.8648C48.858 26.7961 48.7804 26.7488 48.6938 26.7306ZM2.77079 0.770553H40.6961V4.88362H2.77079V0.770553ZM33.1659 27.1076V27.7006H2.7704V5.65793H40.6933V20.1658H40.1078C40.0195 20.1658 39.9339 20.1961 39.8653 20.2517C39.7967 20.3074 39.7492 20.3849 39.731 20.4712L39.2697 22.6435C39.0112 22.7282 38.7597 22.8327 38.5172 22.9558L36.6502 21.7449C36.576 21.6973 36.4877 21.6764 36.4001 21.6857C36.3124 21.6951 36.2305 21.7341 36.1681 21.7963L34.7965 23.168C34.7342 23.2303 34.6951 23.3121 34.6859 23.3997C34.6766 23.4874 34.6978 23.5755 34.7457 23.6494L35.9557 25.5169C35.8336 25.7595 35.7298 26.0109 35.6452 26.2689L33.4711 26.7301C33.3847 26.7485 33.3072 26.796 33.2516 26.8648C33.196 26.9335 33.1658 27.0192 33.1659 27.1076ZM48.2287 28.7448L46.1377 29.1887C46.069 29.2034 46.0055 29.2366 45.9543 29.2847C45.903 29.3328 45.8659 29.3941 45.8469 29.4617C45.7469 29.8163 45.6058 30.1579 45.4263 30.4797C45.3924 30.5408 45.3757 30.61 45.3781 30.6799C45.3805 30.7498 45.4019 30.8177 45.4399 30.8764L46.6031 32.6713L45.6664 33.6032L43.8775 32.44C43.8189 32.4018 43.751 32.3803 43.681 32.3778C43.6111 32.3753 43.5418 32.3919 43.4806 32.4259C43.1587 32.6053 42.817 32.7465 42.4623 32.8465C42.3947 32.8652 42.3335 32.9022 42.2853 32.9533C42.2372 33.0044 42.204 33.0677 42.1893 33.1363L41.7385 35.229H40.4197L39.9761 33.138C39.9615 33.0687 39.9281 33.0049 39.8796 32.9534C39.8311 32.9018 39.7694 32.8647 39.7012 32.8459C39.3466 32.7479 39.0054 32.6069 38.685 32.4261C38.6237 32.3925 38.5545 32.3761 38.4847 32.3784C38.4149 32.3808 38.347 32.402 38.2882 32.4397L36.4925 33.6032L35.5617 32.6727L36.725 30.8767C36.7631 30.818 36.7844 30.7501 36.7868 30.6802C36.7892 30.6103 36.7725 30.541 36.7385 30.4799C36.5592 30.1581 36.4182 29.8165 36.3183 29.462C36.2993 29.3943 36.2622 29.3331 36.2109 29.2849C36.1597 29.2368 36.0962 29.2036 36.0275 29.1889L33.9365 28.745V27.4199L36.0275 26.9763C36.0963 26.9616 36.1597 26.9283 36.211 26.8801C36.2622 26.832 36.2993 26.7707 36.3183 26.703C36.4182 26.3483 36.5592 26.0065 36.7385 25.6846C36.7725 25.6236 36.7892 25.5544 36.7868 25.4845C36.7844 25.4146 36.763 25.3467 36.725 25.2881L35.5617 23.4921L36.4925 22.5614L38.2882 23.7256C38.349 23.7577 38.4163 23.7756 38.485 23.778C38.5538 23.7803 38.6221 23.767 38.685 23.7391C39.0054 23.5581 39.3467 23.4167 39.7013 23.3182C39.7693 23.2992 39.8308 23.262 39.8791 23.2105C39.9274 23.159 39.9607 23.0953 39.9754 23.0262L40.419 20.936H41.7377L42.1884 23.0275C42.2031 23.096 42.2363 23.1592 42.2843 23.2103C42.3323 23.2614 42.3933 23.2984 42.4608 23.3173C42.8158 23.4176 43.1578 23.559 43.4799 23.7387C43.5412 23.7726 43.6105 23.7891 43.6804 23.7866C43.7503 23.784 43.8182 23.7625 43.8768 23.7244L45.6657 22.5612L46.6024 23.4924L45.4399 25.2883C45.4019 25.3469 45.3805 25.4148 45.3781 25.4847C45.3757 25.5545 45.3924 25.6237 45.4263 25.6848C45.6058 26.0066 45.747 26.3484 45.8469 26.7031C45.8659 26.7708 45.903 26.8321 45.9543 26.8803C46.0055 26.9284 46.069 26.9617 46.1377 26.9765L48.2287 27.4203V28.7448ZM31.0641 16.3975C31.1026 16.4335 31.1333 16.477 31.1542 16.5254C31.1752 16.5737 31.186 16.6259 31.186 16.6786C31.186 16.7313 31.1752 16.7834 31.1542 16.8317C31.1333 16.8801 31.1026 16.9236 31.0641 16.9596L26.6064 21.1371C26.5315 21.2055 26.4327 21.2416 26.3313 21.2376C26.23 21.2336 26.1343 21.1899 26.065 21.1158C25.9957 21.0417 25.9584 20.9434 25.9611 20.842C25.9639 20.7406 26.0065 20.6444 26.0797 20.5742L30.2373 16.6787L26.0793 12.7826C26.042 12.7481 26.0119 12.7066 25.9908 12.6604C25.9696 12.6142 25.9578 12.5643 25.956 12.5136C25.9542 12.4628 25.9624 12.4122 25.9803 12.3647C25.9981 12.3171 26.0252 12.2736 26.0599 12.2365C26.0946 12.1995 26.1363 12.1697 26.1826 12.1488C26.2289 12.128 26.2789 12.1165 26.3296 12.115C26.3804 12.1135 26.431 12.1221 26.4784 12.1402C26.5258 12.1584 26.5692 12.1857 26.606 12.2207L31.0641 16.3975ZM17.3862 12.7826L13.2287 16.6791L17.3862 20.5746C17.4595 20.6448 17.5021 20.741 17.5048 20.8424C17.5076 20.9438 17.4702 21.0421 17.4009 21.1162C17.3316 21.1903 17.236 21.234 17.1346 21.238C17.0333 21.242 16.9344 21.2059 16.8595 21.1375L12.4018 16.96C12.3633 16.924 12.3327 16.8805 12.3117 16.8321C12.2907 16.7838 12.2799 16.7316 12.2799 16.679C12.2799 16.6263 12.2907 16.5741 12.3117 16.5258C12.3327 16.4774 12.3633 16.4339 12.4018 16.3979L16.8596 12.2203C16.8964 12.1853 16.9398 12.158 16.9872 12.1398C17.0347 12.1217 17.0852 12.1131 17.136 12.1146C17.1867 12.1161 17.2367 12.1276 17.283 12.1484C17.3293 12.1693 17.371 12.1991 17.4057 12.2361C17.4405 12.2732 17.4675 12.3167 17.4854 12.3643C17.5032 12.4118 17.5114 12.4624 17.5096 12.5132C17.5078 12.5639 17.496 12.6138 17.4748 12.66C17.4537 12.7062 17.4236 12.7477 17.3863 12.7822L17.3862 12.7826ZM23.6543 10.9966L20.5558 22.5607C20.5338 22.6425 20.4855 22.7148 20.4183 22.7663C20.3511 22.8179 20.2687 22.8459 20.184 22.846C20.1503 22.8457 20.1167 22.8414 20.0841 22.833C19.9854 22.8063 19.9012 22.7416 19.8502 22.653C19.7991 22.5645 19.7852 22.4592 19.8116 22.3605L22.9101 10.7967C22.9366 10.698 23.0011 10.6139 23.0895 10.5628C23.178 10.5117 23.2831 10.4978 23.3818 10.5242C23.4805 10.5506 23.5646 10.6152 23.6157 10.7036C23.6668 10.7921 23.6807 10.8972 23.6543 10.9959V10.9966Z" fill="white"/>
</svg>
