<svg width="50" height="51" viewBox="0 0 50 51" fill="none" xmlns="http://www.w3.org/2000/svg">
<line y1="50.1421" x2="50" y2="50.1421" stroke="white"/>
<path fill-rule="evenodd" clip-rule="evenodd" d="M36.4732 1.76991L45.7849 16.6708L40.4088 20.03L31.099 5.12949L36.4732 1.76991ZM7.5916 20.03L2.21547 16.6708L11.5268 1.76991L16.9014 5.12949L7.5916 20.03ZM11.9849 22.8119L14.9021 19.8944C15.4949 19.3015 16.4569 19.3015 17.0498 19.8944C17.5492 20.3942 17.6358 21.1692 17.2712 21.7625L16.8588 22.4336L17.6463 22.4348C18.0458 22.4356 18.4293 22.5917 18.7173 22.8801C19.1807 23.3422 19.2914 24.0438 19.0086 24.6215L18.6844 25.2834L19.4209 25.2565C19.8401 25.2413 20.2477 25.3977 20.5506 25.7006C20.9786 26.1286 21.1077 26.7636 20.8947 27.3196L20.6424 27.9767L21.3436 27.9169C21.7881 27.8792 22.2265 28.0356 22.5471 28.3565C23.1407 28.9494 23.1407 29.9114 22.5471 30.5043L21.1126 31.9392C20.5193 32.5324 19.5577 32.5324 18.9644 31.9392C18.6215 31.5962 18.4674 31.1192 18.5352 30.6479L18.6327 29.9691L17.9748 30.1613C17.4453 30.3161 16.8701 30.1741 16.4737 29.7774C16.1051 29.4091 15.9559 28.886 16.0618 28.3858L16.2034 27.7211L15.5383 27.8623C15.0376 27.9686 14.5153 27.819 14.1467 27.4508C13.75 27.054 13.6084 26.4784 13.7628 25.9493L13.9549 25.2914L13.2766 25.3889C12.8053 25.4567 12.3279 25.303 11.9849 24.9596C11.392 24.3668 11.392 23.4048 11.9849 22.8119ZM39.0265 19.4824L40.128 21.2455L47 16.9512L36.7544 0.554443L29.8824 4.84829L31.1147 6.81951C28.3721 6.4661 25.5075 7.28203 23.3353 9.27933C21.5185 7.60535 19.2011 6.79143 16.8893 6.8143L18.1176 4.84829L11.2456 0.554443L1 16.9512L7.872 21.2455L8.47733 20.2767C8.9238 21.2114 9.52431 22.0907 10.2989 22.8645L10.7378 23.3033C10.5404 24.0948 10.7418 24.9649 11.3603 25.5838C11.7611 25.9842 12.2786 26.222 12.8213 26.2754C12.7936 26.9345 13.0371 27.5896 13.5229 28.0749C13.9642 28.5162 14.5466 28.7589 15.1472 28.7773C15.1652 29.3774 15.4079 29.9599 15.8492 30.4016C16.3349 30.8866 16.99 31.1309 17.6487 31.1032C17.7024 31.6459 17.9403 32.163 18.3407 32.5633C18.9592 33.1819 19.8293 33.3837 20.6204 33.1863C20.6717 33.2369 20.7311 33.2954 20.8029 33.3668C20.8647 33.4282 20.8647 33.4282 20.9236 33.4872C21.0111 33.573 21.0869 33.6472 21.133 33.6934L22.2077 34.768C23.377 35.9366 25.272 35.9329 26.4442 34.7608C26.9179 34.2871 27.2104 33.6813 27.2974 33.0403C28.273 33.2501 29.3156 32.9621 30.0529 32.2252C30.5266 31.7518 30.8191 31.1461 30.9061 30.5043C31.8817 30.7149 32.9243 30.4264 33.6616 29.6895C34.159 29.1917 34.4578 28.5483 34.5264 27.8708C35.3648 27.9173 36.2004 27.6104 36.8174 26.9935C37.9795 25.8317 37.9903 23.9532 36.8482 22.7838C36.7022 22.6326 36.496 22.432 36.4102 22.3434L27.6444 13.5724L27.4081 13.8054L27.015 14.1949L36.2008 23.3815C37.0227 24.2035 37.0195 25.5433 36.1936 26.3697C35.6637 26.8992 34.9079 27.1054 34.1959 26.9337L33.6054 26.7913L33.6531 27.3974C33.7013 28.0124 33.4822 28.6205 33.0378 29.0654C32.4072 29.6964 31.4609 29.8616 30.6662 29.501L29.9871 29.1933L30.0444 29.9366C30.0914 30.5508 29.8727 31.1569 29.4283 31.6014C28.7985 32.2316 27.8522 32.3969 27.0575 32.037L26.3784 31.7286L26.4357 32.4727C26.4827 33.0864 26.2641 33.693 25.8196 34.1366C24.9924 34.9646 23.6554 34.9674 22.8319 34.1442L21.7552 33.0668C21.7063 33.019 21.6312 32.9448 21.5442 32.859C21.5045 32.8197 21.4904 32.8064 21.4676 32.7836C21.5594 32.7146 21.6529 32.6472 21.7367 32.5633L23.1716 31.1284C24.1095 30.1906 24.1095 28.6702 23.1716 27.7324C22.809 27.3697 22.3497 27.1399 21.8607 27.06C21.9469 26.3432 21.7067 25.6087 21.1743 25.0764C20.8454 24.7474 20.4362 24.5272 19.9978 24.4301C20.1534 23.6583 19.9236 22.8376 19.3419 22.2559C19.0427 21.9567 18.6772 21.7469 18.2825 21.6386C18.5208 20.817 18.3078 19.9044 17.674 19.2702C16.7361 18.3327 15.2153 18.3327 14.2775 19.2702L11.3603 22.1877C11.2765 22.2716 11.2091 22.365 11.1401 22.4577L10.9231 22.2407C10.0799 21.3971 9.45411 20.4195 9.03933 19.3769L16.3293 7.71045C18.5942 7.53716 20.9128 8.26564 22.7031 9.89709L18.9512 13.6494C17.7225 14.8781 17.676 16.8389 18.8609 18.0243C20.0479 19.2109 22.0059 19.1643 23.2366 17.9332L27.015 14.1949L27.0142 14.1941L27.4081 13.8054L27.6412 13.5748L27.0162 12.9518L22.612 17.3102C21.7203 18.2016 20.3203 18.2353 19.4851 17.4001C18.6511 16.5661 18.6844 15.1641 19.5754 14.2732L23.6602 10.1887L23.6614 10.1895C25.8549 7.99527 28.9196 7.21143 31.7421 7.82438L31.5367 7.49584L38.4737 18.5979L38.4015 18.482C38.0653 19.8655 37.3942 21.1849 36.3753 22.3053C36.3813 22.3129 36.3946 22.3269 36.4102 22.3434L36.8246 22.7578C36.8326 22.7662 36.8398 22.7754 36.8482 22.7838C36.9128 22.8508 36.9662 22.9082 36.9899 22.9407C37.9349 21.9138 38.6069 20.7312 39.0265 19.4824Z" fill="white"/>
</svg>
