<svg width="50" height="50" viewBox="0 0 50 50" fill="none" xmlns="http://www.w3.org/2000/svg">
<path d="M33.0837 29.719H37.2839C37.5257 29.719 37.7214 29.5231 37.7214 29.2815V25.6946C37.7214 24.2954 36.5832 23.157 35.184 23.157C33.7848 23.157 32.6462 24.2954 32.6462 25.6946V29.2815C32.6462 29.5231 32.8419 29.719 33.0837 29.719ZM33.5212 28.844V26.8755H36.8464V28.844H33.5212ZM35.184 24.032C36.1009 24.032 36.8464 24.7777 36.8464 25.6946V26.0005H33.5212V25.6946C33.5212 24.7777 34.2672 24.032 35.184 24.032Z" fill="white"/>
<path d="M13.8159 23.157C12.4167 23.157 11.2785 24.2954 11.2785 25.6946V29.2815C11.2785 29.5231 11.4742 29.719 11.716 29.719H15.9163C16.1581 29.719 16.3538 29.5231 16.3538 29.2815V25.6946C16.3538 24.2954 15.2152 23.157 13.8159 23.157ZM13.8159 24.032C14.7328 24.032 15.4788 24.7777 15.4788 25.6946V26.0005H12.1535V25.6946C12.1535 24.7777 12.8991 24.032 13.8159 24.032ZM12.1535 28.844V26.8755H15.4788V28.844H12.1535Z" fill="white"/>
<path d="M13.8159 12.4854C12.4167 12.4854 11.2785 13.6237 11.2785 15.023V18.6099C11.2785 18.8515 11.4742 19.0474 11.716 19.0474H15.9163C16.1581 19.0474 16.3538 18.8515 16.3538 18.6099V15.023C16.3538 13.6237 15.2152 12.4854 13.8159 12.4854ZM13.8159 13.3603C14.7328 13.3603 15.4788 14.1061 15.4788 15.023V15.3289H12.1535V15.023C12.1535 14.1061 12.8991 13.3603 13.8159 13.3603ZM12.1535 18.1724V16.2039H15.4788V18.1724H12.1535Z" fill="white"/>
<path d="M21.9626 15.023V18.6099C21.9626 18.8515 22.1583 19.0474 22.4001 19.0474H26.6003C26.8421 19.0474 27.0378 18.8515 27.0378 18.6099V15.023C27.0378 13.6237 25.8996 12.4854 24.5004 12.4854C23.1012 12.4854 21.9626 13.6237 21.9626 15.023ZM22.8376 18.1724V16.2039H26.1628V18.1724H22.8376ZM24.5004 13.3603C25.4173 13.3603 26.1628 14.1061 26.1628 15.023V15.3289H22.8376V15.023C22.8376 14.1061 23.5835 13.3603 24.5004 13.3603Z" fill="white"/>
<path d="M33.0837 19.0474H37.2839C37.5257 19.0474 37.7214 18.8515 37.7214 18.6099V15.023C37.7214 13.6237 36.5832 12.4854 35.184 12.4854C33.7848 12.4854 32.6462 13.6237 32.6462 15.023V18.6099C32.6462 18.8515 32.8419 19.0474 33.0837 19.0474ZM33.5212 18.1724V16.2039H36.8464V18.1724H33.5212ZM35.184 13.3603C36.1009 13.3603 36.8464 14.1061 36.8464 15.023V15.3289H33.5212V15.023C33.5212 14.1061 34.2672 13.3603 35.184 13.3603Z" fill="white"/>
<path d="M7.43761 9.84368H8.13018V34.5623C8.13018 34.8039 8.32585 34.9998 8.56767 34.9998H40.4323C40.6741 34.9998 40.8698 34.8039 40.8698 34.5623V9.84368H41.5624C41.6897 9.84368 41.8106 9.78814 41.8939 9.69159C41.9772 9.59503 42.014 9.46707 41.9952 9.34125L40.6481 0.372556C40.6156 0.158294 40.4319 0 40.2153 0H8.78471C8.5681 0 8.38438 0.158294 8.35191 0.372556L7.00482 9.34125C6.98602 9.46707 7.02276 9.59503 7.10607 9.69159C7.18939 9.78814 7.3103 9.84368 7.43761 9.84368ZM9.00517 9.84368H18.6758V34.1248H9.00517V9.84368ZM29.4492 34.1248H27.7727V25.117C27.7727 23.3125 26.3047 21.8445 24.5 21.8445C22.6953 21.8445 21.2273 23.3125 21.2273 25.117V34.1248H19.5508V7.77989L24.5 3.73688L29.4492 7.77989V34.1248ZM26.8977 34.1248H22.1023V25.117C22.1023 23.7951 23.1781 22.7195 24.5 22.7195C25.8219 22.7195 26.8977 23.7951 26.8977 25.117V34.1248ZM39.9948 34.1248H30.3242V9.84368H39.9948V34.1248ZM9.16154 0.874994H39.8385L41.0544 8.96869H30.3242V7.57246C30.3242 7.44108 30.2652 7.31675 30.1635 7.23366L24.7769 2.83305C24.6154 2.70146 24.3846 2.70146 24.2231 2.83305L18.8365 7.23366C18.7348 7.31675 18.6758 7.44108 18.6758 7.57246V8.96869H7.94561L9.16154 0.874994Z" fill="white"/>
<line y1="49.4998" x2="50" y2="49.4998" stroke="white"/>
</svg>
