<svg width="50" height="57" viewBox="0 0 50 57" fill="none" xmlns="http://www.w3.org/2000/svg">
<line y1="56.4995" x2="50" y2="56.4995" stroke="white"/>
<path d="M45.635 22.5237L36.9622 19.748C36.9104 19.7311 36.8566 19.7229 36.8022 19.7229H33.9476V14.3683H34.2695C34.5597 14.3683 34.7945 14.1335 34.7945 13.8433V13.488C34.7945 8.66045 30.8673 4.73269 26.0397 4.73269H25.525V0.525C25.525 0.234814 25.2902 0 25 0C24.7098 0 24.475 0.234814 24.475 0.525V4.73269H23.9603C19.1327 4.73269 15.2055 8.66045 15.2055 13.488V13.8433C15.2055 14.1335 15.4403 14.3683 15.7305 14.3683H16.0524V19.7229H13.1978C13.1434 19.7229 13.0896 19.7311 13.0378 19.748L4.36504 22.5237C4.14766 22.5929 4 22.7955 4 23.0236V26.0747C4 26.3648 4.23481 26.5997 4.525 26.5997H5.32737V38.142H4.525C4.23481 38.142 4 38.3768 4 38.667V41.4745C4 41.7647 4.23481 41.9995 4.525 41.9995H45.475C45.7652 41.9995 46 41.7647 46 41.4745V38.667C46 38.3768 45.7652 38.142 45.475 38.142H44.8336V26.5997H45.475C45.7652 26.5997 46 26.3648 46 26.0747V23.0236C46 22.7955 45.8523 22.5929 45.635 22.5237ZM23.9603 5.78269H26.0397C30.2315 5.78269 33.6522 9.14751 33.7425 13.3183H16.2575C16.3478 9.14751 19.7685 5.78269 23.9603 5.78269ZM17.1024 14.3683H32.8976V19.7229H17.1024V14.3683ZM6.37737 26.5997H14.3626V27.2995C14.3626 27.5897 14.5974 27.8245 14.8876 27.8245H15.8474V38.142H6.37737V26.5997ZM28.5084 38.142V27.8245H33.2636V38.142H28.5084ZM21.6526 27.8245V38.142H16.8974V27.8245H21.6526ZM22.7026 27.8245H27.4584V38.142H22.7026V27.8245ZM15.4126 26.7745V25.7122L25 23.7988L34.5874 25.7122V26.7745H15.4126ZM44.95 40.9495H5.05V39.192H44.95V40.9495ZM43.7836 38.142H34.3136V27.8245H35.1124C35.4026 27.8245 35.6374 27.5897 35.6374 27.2995V26.5997H43.7836V38.142ZM44.95 25.5497H35.6374V25.2815C35.6374 25.0313 35.4605 24.8155 35.2149 24.7668L25.1025 22.7488C25.0349 22.7355 24.9651 22.7355 24.8975 22.7488L14.7851 24.7668C14.5395 24.8155 14.3626 25.0313 14.3626 25.2815V25.5497H5.05V23.4066L13.2798 20.7729H36.7202L44.95 23.4066V25.5497Z" fill="white"/>
<path d="M19.4998 15.7888C19.2096 15.7888 18.9748 16.0236 18.9748 16.3138V17.9129C18.9748 18.2031 19.2096 18.4379 19.4998 18.4379C19.79 18.4379 20.0248 18.2031 20.0248 17.9129V16.3138C20.0248 16.0236 19.79 15.7888 19.4998 15.7888Z" fill="white"/>
<path d="M22.2499 15.7888C21.9597 15.7888 21.7249 16.0236 21.7249 16.3138V17.9129C21.7249 18.2031 21.9597 18.4379 22.2499 18.4379C22.5401 18.4379 22.7749 18.2031 22.7749 17.9129V16.3138C22.7749 16.0236 22.5401 15.7888 22.2499 15.7888Z" fill="white"/>
<path d="M25 15.7888C24.7098 15.7888 24.475 16.0236 24.475 16.3138V17.9129C24.475 18.2031 24.7098 18.4379 25 18.4379C25.2902 18.4379 25.525 18.2031 25.525 17.9129V16.3138C25.525 16.0236 25.2902 15.7888 25 15.7888Z" fill="white"/>
<path d="M27.7501 15.7888C27.4599 15.7888 27.2251 16.0236 27.2251 16.3138V17.9129C27.2251 18.2031 27.4599 18.4379 27.7501 18.4379C28.0403 18.4379 28.2751 18.2031 28.2751 17.9129V16.3138C28.2751 16.0236 28.0403 15.7888 27.7501 15.7888Z" fill="white"/>
<path d="M30.5002 15.7888C30.21 15.7888 29.9752 16.0236 29.9752 16.3138V17.9129C29.9752 18.2031 30.21 18.4379 30.5002 18.4379C30.7904 18.4379 31.0252 18.2031 31.0252 17.9129V16.3138C31.0252 16.0236 30.7904 15.7888 30.5002 15.7888Z" fill="white"/>
<path d="M12.2252 27.781H9.55608C9.26589 27.781 9.03108 28.0158 9.03108 28.306V30.9746C9.03108 31.2648 9.26589 31.4996 9.55608 31.4996H12.2252C12.5154 31.4996 12.7502 31.2648 12.7502 30.9746V28.306C12.7502 28.0158 12.5154 27.781 12.2252 27.781ZM11.7002 30.4496H10.0811V28.831H11.7002V30.4496Z" fill="white"/>
<path d="M12.2252 32.9612H9.55608C9.26589 32.9612 9.03108 33.196 9.03108 33.4862V36.1553C9.03108 36.4455 9.26589 36.6803 9.55608 36.6803H12.2252C12.5154 36.6803 12.7502 36.4455 12.7502 36.1553V33.4862C12.7502 33.196 12.5154 32.9612 12.2252 32.9612ZM11.7002 35.6303H10.0811V34.0112H11.7002V35.6303Z" fill="white"/>
<path d="M37.7143 31.4996H40.3829C40.6731 31.4996 40.9079 31.2648 40.9079 30.9746V28.306C40.9079 28.0158 40.6731 27.781 40.3829 27.781H37.7143C37.4241 27.781 37.1893 28.0158 37.1893 28.306V30.9746C37.1893 31.2648 37.4241 31.4996 37.7143 31.4996ZM38.2393 28.831H39.8579V30.4496H38.2393V28.831Z" fill="white"/>
<path d="M37.7143 36.6803H40.3829C40.6731 36.6803 40.9079 36.4455 40.9079 36.1553V33.4862C40.9079 33.196 40.6731 32.9612 40.3829 32.9612H37.7143C37.4241 32.9612 37.1893 33.196 37.1893 33.4862V36.1553C37.1893 36.4455 37.4241 36.6803 37.7143 36.6803ZM38.2393 34.0112H39.8579V35.6303H38.2393V34.0112Z" fill="white"/>
</svg>
