<svg width="50" height="48" viewBox="0 0 50 48" fill="none" xmlns="http://www.w3.org/2000/svg">
<path d="M45 3.86754C45 1.44671 40.3469 0 35.8485 0C31.3501 0 26.6973 1.44671 26.6973 3.86754V8.83596C26.6973 8.86262 26.7009 8.88847 26.702 8.91488C26.7015 8.92361 26.6976 8.93102 26.6976 8.93988V13.8998C25.6706 13.714 24.5636 13.6187 23.4757 13.6187C22.5462 13.6187 21.6029 13.6884 20.7073 13.8245V9.9692C20.7073 9.96903 20.7072 9.96894 20.7072 9.96877C20.7072 9.96843 20.7073 9.96805 20.7073 9.96767C20.7073 7.93986 16.6608 6.8458 12.8536 6.8458C9.04649 6.8458 5 7.93986 5 9.96767C5 9.96805 5.00008 9.96843 5.00008 9.96877C5.00008 9.96894 5 9.96903 5 9.9692V13.8838C5 13.9047 5.003 13.925 5.0039 13.9458C5.00345 13.9534 5 13.9598 5 13.9676V17.8821C5 17.9031 5.003 17.9234 5.0039 17.9442C5.00345 17.9518 5 17.9582 5 17.966V21.8805C5 21.9015 5.003 21.9217 5.0039 21.9425C5.00345 21.9502 5 21.9566 5 21.9643V25.8791C5 25.9 5.003 25.9202 5.00387 25.941C5.00345 25.9486 5 25.955 5 25.9627V29.8774C5 31.9056 9.04649 33 12.8536 33C14.8813 33 16.7823 32.7109 18.2286 32.1881C19.7026 32.7223 21.617 33 23.4757 33C25.6356 33 27.8717 32.6255 29.403 31.9085C31.0987 32.6016 33.4342 33 35.8488 33C40.3472 33 45 31.5528 45 29.1308V24.1623C45 24.153 44.9959 24.1451 44.9953 24.1359C44.9964 24.1098 45 24.0841 45 24.0577V19.0893C45 19.08 44.9959 19.0721 44.9953 19.0629C44.9964 19.0367 45 19.0111 45 18.9847V14.0165C45 14.0071 44.9959 13.9992 44.9953 13.99C44.9964 13.9638 45 13.9381 45 13.9117V8.93988C45 8.93055 44.9959 8.92271 44.9953 8.91356C44.9964 8.88758 45 8.86219 45 8.83596V3.86754ZM23.4757 14.3165C27.7381 14.3165 30.7094 15.6943 30.7139 16.9321C30.7139 16.9331 30.7134 16.9338 30.7134 16.9348V16.9411C30.7037 18.178 27.7344 19.5536 23.4757 19.5536C19.21 19.5536 16.2371 18.1735 16.2371 16.9349C16.2371 15.6964 19.21 14.3165 23.4757 14.3165ZM28.8579 22.8299C28.8492 22.8327 28.8405 22.8359 28.8321 22.8395C28.3051 23.0621 27.6714 23.2526 26.9492 23.4058C25.8946 23.6267 24.6931 23.7434 23.4748 23.7434C19.2091 23.7434 16.2362 22.363 16.2362 21.1241V18.2833C17.5083 19.5693 20.561 20.2514 23.4757 20.2514C26.389 20.2514 29.4402 19.57 30.7134 18.2851V21.1241C30.7134 21.7107 30.0203 22.3475 28.8579 22.8299ZM30.7134 22.463V25.4029C30.7134 26.1712 29.5489 26.9908 27.7474 27.4907C27.481 27.5639 27.2123 27.629 26.9492 27.6846C25.8943 27.9055 24.6928 28.0224 23.4748 28.0224C19.2091 28.0224 16.2362 26.6419 16.2362 25.4029V22.4737C17.5088 23.7594 20.5608 24.4412 23.4748 24.4412C24.73 24.4412 25.9703 24.3204 27.0615 24.0918C27.8093 23.9334 28.4696 23.7351 29.0252 23.5024C29.0324 23.5001 29.0399 23.4974 29.0471 23.4944C29.7725 23.1958 30.3302 22.8484 30.7134 22.463ZM12.8536 7.5436C17.1193 7.5436 20.0923 8.82114 20.0923 9.96767C20.0923 11.1142 17.1193 12.3917 12.8536 12.3917C8.58793 12.3917 5.61501 11.1142 5.61501 9.96767C5.61501 8.82114 8.58793 7.5436 12.8536 7.5436ZM5.61501 11.2379C6.88766 12.4479 9.93964 13.0895 12.8536 13.0895C15.7676 13.0895 18.8196 12.4479 20.0923 11.2379V13.9304C18.109 14.3109 16.4528 15.0357 15.8589 16.0752C14.9049 16.2299 13.8942 16.3087 12.8536 16.3087C8.58793 16.3087 5.61501 15.0306 5.61501 13.8838V11.2379ZM5.61501 15.1543C6.88766 16.3646 9.93964 17.0065 12.8536 17.0065C13.81 17.0065 14.7402 16.9383 15.6294 16.8107C15.6265 16.8494 15.6227 16.8878 15.6225 16.9271C15.6225 16.9298 15.6212 16.932 15.6212 16.9348V20.1072C14.7369 20.2377 13.8089 20.3071 12.8536 20.3071C8.58793 20.3071 5.61501 19.029 5.61501 17.8821V15.1543ZM5.61501 19.1527C6.88766 20.363 9.93964 21.0049 12.8536 21.0049C13.8071 21.0049 14.7345 20.937 15.6212 20.8103V21.1241C15.6212 21.1469 15.6242 21.1689 15.6251 21.1914C15.6247 21.1992 15.6212 21.2058 15.6212 21.2137V24.1056C14.7369 24.2361 13.8089 24.3054 12.8536 24.3054C8.58793 24.3054 5.61501 23.0274 5.61501 21.8805V19.1527ZM5.61501 23.1511C6.88766 24.3614 9.93964 25.0032 12.8536 25.0032C13.8071 25.0032 14.7345 24.9354 15.6212 24.8086V25.4029C15.6212 25.4272 15.6244 25.4507 15.6254 25.4748C15.6251 25.4814 15.6221 25.4869 15.6221 25.4935V28.1012C14.7438 28.2334 13.8158 28.3038 12.8536 28.3038C8.58793 28.3038 5.61501 27.0259 5.61501 25.8791V23.1511ZM12.8536 32.3022C8.58793 32.3022 5.61501 31.0243 5.61501 29.8774V27.1495C6.88766 28.3598 9.93964 29.0016 12.8536 29.0016C13.8133 29.0016 14.7409 28.9329 15.6221 28.8045V29.6837C15.6221 30.5377 16.2595 31.2351 17.2644 31.7667C15.9994 32.1126 14.4722 32.3022 12.8536 32.3022ZM23.4757 32.3022C19.21 32.3022 16.2371 30.9223 16.2371 29.6837V26.7535C17.5103 28.0387 20.5615 28.7202 23.4748 28.7202C24.7294 28.7202 25.9697 28.5994 27.0612 28.3708C27.3354 28.3128 27.615 28.245 27.8927 28.1687C29.1799 27.8115 30.1402 27.3139 30.7143 26.7301V29.6837C30.7143 30.9223 27.7414 32.3022 23.4757 32.3022ZM44.385 29.1308C44.385 30.6308 40.8793 32.3022 35.8488 32.3022C33.7671 32.3022 31.7519 32.0013 30.1846 31.4683C30.8969 30.9827 31.3293 30.3863 31.3293 29.6837V27.4371C32.6952 27.757 34.2469 27.927 35.8488 27.927C39.3655 27.927 42.9764 27.0425 44.385 25.4992V29.1308ZM44.385 24.0577C44.385 25.5578 40.8793 27.2292 35.8488 27.2292C34.2389 27.2292 32.6842 27.0535 31.3293 26.7237V25.4935C31.3293 25.4833 31.325 25.4747 31.3242 25.4648C31.325 25.4441 31.3284 25.4237 31.3284 25.4029V22.3603C32.6943 22.6803 34.2463 22.8506 35.8488 22.8506C39.3655 22.8506 42.9764 21.9667 44.385 20.4249V24.0577ZM44.385 18.9847C44.385 20.4832 40.8793 22.1528 35.8488 22.1528C34.2383 22.1528 32.6832 21.977 31.3284 21.6469V21.2137C31.3284 21.2064 31.3252 21.2004 31.3248 21.1932C31.3257 21.1701 31.3284 21.1473 31.3284 21.1241V17.2873C32.6943 17.6073 34.2463 17.7775 35.8488 17.7775C39.3655 17.7775 42.9764 16.8937 44.385 15.3518V18.9847ZM44.385 13.9117C44.385 15.4102 40.8793 17.0797 35.8488 17.0797C34.2218 17.0797 32.6512 16.9005 31.2868 16.5638C31.0101 15.3478 29.3819 14.4889 27.3126 14.0238V10.2771C28.7214 11.8194 32.332 12.7035 35.8485 12.7035C39.3652 12.7035 42.9763 11.8192 44.385 10.2767V13.9117ZM44.385 8.83596C44.385 10.3351 40.879 12.0057 35.8485 12.0057C30.8179 12.0057 27.3123 10.3351 27.3123 8.83596V5.30833C28.7209 6.85091 32.3318 7.73508 35.8485 7.73508C39.3652 7.73508 42.9763 6.85082 44.385 5.30829V8.83596ZM35.8485 7.03728C30.8179 7.03728 27.3123 5.36672 27.3123 3.86754C27.3123 2.36836 30.8179 0.6978 35.8485 0.6978C40.879 0.6978 44.385 2.36836 44.385 3.86754C44.385 5.36672 40.879 7.03728 35.8485 7.03728Z" fill="white"/>
<line y1="47.5" x2="50" y2="47.5" stroke="white"/>
</svg>
