<svg width="50" height="61" viewBox="0 0 50 61" fill="none" xmlns="http://www.w3.org/2000/svg">
<line y1="60.2141" x2="50" y2="60.2141" stroke="white"/>
<path d="M24.0205 33.2496C23.833 33.2496 23.6779 33.0979 23.6779 32.9103C23.6779 32.7228 23.8264 32.571 24.0132 32.571H24.0205C24.2074 32.571 24.3598 32.7228 24.3598 32.9103C24.3598 33.0979 24.2074 33.2496 24.0205 33.2496Z" fill="white"/>
<path d="M24.0205 35.2863C23.833 35.2863 23.6779 35.1345 23.6779 34.947C23.6779 34.7594 23.8264 34.6077 24.0132 34.6077H24.0205C24.2074 34.6077 24.3598 34.7594 24.3598 34.947C24.3598 35.1345 24.2074 35.2863 24.0205 35.2863Z" fill="white"/>
<path d="M24.0205 37.3209C23.833 37.3209 23.6779 37.1692 23.6779 36.9816C23.6779 36.7941 23.8264 36.6423 24.0132 36.6423H24.0205C24.2074 36.6423 24.3598 36.7941 24.3598 36.9816C24.3598 37.1692 24.2074 37.3209 24.0205 37.3209Z" fill="white"/>
<path d="M24.0205 39.3575C23.833 39.3575 23.6779 39.2058 23.6779 39.0183C23.6779 38.8307 23.8264 38.679 24.0132 38.679H24.0205C24.2074 38.679 24.3598 38.8307 24.3598 39.0183C24.3598 39.2058 24.2074 39.3575 24.0205 39.3575Z" fill="white"/>
<path d="M24.0205 41.3922C23.833 41.3922 23.6779 41.2405 23.6779 41.0529C23.6779 40.8654 23.8264 40.7136 24.0132 40.7136H24.0205C24.2074 40.7136 24.3598 40.8654 24.3598 41.0529C24.3598 41.2405 24.2074 41.3922 24.0205 41.3922Z" fill="white"/>
<path d="M23.9993 30.5369C19.3521 30.5369 12.6313 23.8088 11.8619 16.6626C11.8421 16.4761 11.9766 16.3088 12.1627 16.2889C12.3476 16.2694 12.5166 16.4033 12.5364 16.5898C12.8817 19.7988 14.5251 23.1887 17.0439 25.8909C19.3254 28.3383 21.9907 29.8583 23.9992 29.8583C28.3391 29.8583 35.5356 22.7923 35.5356 15.269C35.5356 15.0815 35.6874 14.9297 35.8749 14.9297C36.0625 14.9297 36.2142 15.0814 36.2142 15.269C36.2143 23.4006 28.6009 30.5369 23.9993 30.5369Z" fill="white"/>
<path d="M42.6607 43.4283H5.3393C5.15175 43.4283 5 43.2766 5 43.089V39.0176C5 36.1059 6.50826 34.9899 9.29218 33.9496C9.72954 33.7865 10.2556 33.6195 10.8276 33.438C11.2079 33.3174 11.6089 33.1901 12.0171 33.0523C12.1946 32.9927 12.3875 33.0894 12.4465 33.2663C12.5061 33.4439 12.4107 33.6367 12.233 33.6964C11.8209 33.8342 11.4166 33.9628 11.0329 34.0847C10.4723 34.2623 9.95746 34.4252 9.52935 34.5856C6.92042 35.561 5.67859 36.4728 5.67859 39.0175V42.7496H42.3214V39.0175C42.3214 36.4728 41.0796 35.561 38.4707 34.5856C38.0414 34.4252 37.5251 34.2609 36.9625 34.0826C36.5801 33.9613 36.1779 33.8334 35.767 33.6963C35.5894 33.6366 35.494 33.4444 35.5536 33.2662C35.6126 33.0893 35.8067 32.9932 35.983 33.0522C36.3899 33.1887 36.7888 33.3159 37.1678 33.4359C37.7423 33.6181 38.2699 33.7864 38.7079 33.9495C41.4917 34.9898 43 36.1058 43 39.0175V43.0889C43 43.2766 42.8483 43.4283 42.6607 43.4283Z" fill="white"/>
<path d="M17.5537 29.178C17.3661 29.178 17.2144 29.0262 17.2144 28.8388V26.8871C17.2144 26.6996 17.3661 26.5479 17.5537 26.5479C17.7411 26.5479 17.8929 26.6996 17.8929 26.8871V28.8388C17.8929 29.0262 17.7411 29.178 17.5537 29.178Z" fill="white"/>
<path d="M30.4464 29.1779C30.2589 29.1779 30.1071 29.0262 30.1071 28.8387V26.8864C30.1071 26.6989 30.2589 26.5471 30.4464 26.5471C30.634 26.5471 30.7857 26.6989 30.7857 26.8864V28.8387C30.7857 29.0262 30.634 29.1779 30.4464 29.1779Z" fill="white"/>
<path d="M37.2322 13.9107C37.0446 13.9107 36.8929 13.759 36.8929 13.5714C36.8929 6.46232 31.1091 0.678593 23.9994 0.678593C16.8902 0.678593 11.1072 6.46232 11.1072 13.5714C11.1072 13.759 10.9554 13.9107 10.7679 13.9107C10.5804 13.9107 10.4286 13.759 10.4286 13.5714C10.4286 6.08825 16.5165 0 23.9994 0C31.4829 0 37.5715 6.08825 37.5715 13.5714C37.5715 13.759 37.4197 13.9107 37.2322 13.9107Z" fill="white"/>
<path d="M40.625 27.1434C40.56 27.1434 40.4945 27.1248 40.4368 27.0864C36.2507 24.2952 36.865 13.9874 36.8935 13.5501C36.9061 13.3625 37.0824 13.2276 37.254 13.2333C37.4409 13.2456 37.5827 13.4066 37.5707 13.5938C37.5641 13.6969 36.9518 23.9474 40.8132 26.5218C40.969 26.6259 41.0114 26.8359 40.9073 26.9923C40.8417 27.0904 40.7343 27.1434 40.625 27.1434Z" fill="white"/>
<path d="M33.1601 29.7995C32.9857 29.7995 32.8373 29.6657 32.8227 29.4887C32.8068 29.3019 32.9453 29.1382 33.1321 29.1223C37.6084 28.7447 40.3857 26.5604 40.4129 26.5379C40.5599 26.4212 40.7734 26.4451 40.89 26.5909C41.0066 26.7374 40.9835 26.9507 40.837 27.068C40.7177 27.1635 37.8689 29.4039 33.1891 29.7983C33.1793 29.7995 33.17 29.7995 33.1601 29.7995Z" fill="white"/>
<path d="M7.37497 27.1433C7.26563 27.1433 7.15833 27.0903 7.09267 26.9922C6.98859 26.8358 7.03101 26.6258 7.18674 26.5217C11.0507 23.946 10.4358 13.6968 10.4291 13.5938C10.4172 13.4069 10.559 13.2456 10.7459 13.2333C10.9148 13.2286 11.0938 13.3625 11.1064 13.55C11.1349 13.9874 11.7492 24.2952 7.56311 27.0863C7.50551 27.1247 7.43986 27.1433 7.37497 27.1433Z" fill="white"/>
<path d="M14.8399 29.7995C14.83 29.7995 14.8207 29.7995 14.8108 29.7982C10.1303 29.4039 7.28226 27.1634 7.16292 27.0679C7.01642 26.9506 6.99327 26.7379 7.1099 26.5908C7.22721 26.445 7.44122 26.4225 7.58636 26.5378C7.61418 26.5597 10.4034 28.7459 14.8677 29.1222C15.0546 29.1382 15.1931 29.3018 15.1772 29.4887C15.1627 29.6657 15.0142 29.7995 14.8399 29.7995Z" fill="white"/>
<path d="M10.8096 15.5793C10.6334 15.5793 10.4842 15.4421 10.4717 15.2632C10.4591 15.076 10.6003 14.9143 10.7872 14.9014C27.8813 13.7384 33.8149 4.99119 33.8725 4.90306C33.9753 4.74503 34.186 4.70262 34.3424 4.80568C34.4988 4.9084 34.5424 5.11876 34.4398 5.27552C34.3801 5.36662 28.2597 14.3928 10.8335 15.5787C10.8256 15.5789 10.8176 15.5793 10.8096 15.5793Z" fill="white"/>
<path d="M37.2156 14.2711C37.2063 14.2711 37.1977 14.2708 37.1884 14.2701C32.5299 13.906 28.3697 10.5187 28.1948 10.3746C28.0503 10.2557 28.0298 10.0419 28.1491 9.8971C28.2683 9.75137 28.4831 9.73314 28.6262 9.8507C28.6679 9.8848 32.7996 13.2465 37.2414 13.5935C37.4283 13.6081 37.5675 13.7714 37.5529 13.9583C37.5389 14.1359 37.3905 14.2711 37.2156 14.2711Z" fill="white"/>
<path d="M21.625 18.3217H16.875C16.3137 18.3217 15.8571 17.8652 15.8571 17.3038V15.9466C15.8571 15.3853 16.3137 14.9287 16.875 14.9287H21.625C22.1863 14.9287 22.6429 15.3852 22.6429 15.9466V17.3038C22.6429 17.8652 22.1863 18.3217 21.625 18.3217ZM16.875 15.6074C16.6881 15.6074 16.5357 15.7595 16.5357 15.9467V17.3039C16.5357 17.4911 16.6881 17.6432 16.875 17.6432H21.625C21.8119 17.6432 21.9643 17.4911 21.9643 17.3039V15.9467C21.9643 15.7595 21.8119 15.6074 21.625 15.6074H16.875Z" fill="white"/>
<path d="M31.125 18.3217H26.375C25.8137 18.3217 25.3571 17.8652 25.3571 17.3038V15.9466C25.3571 15.3853 25.8137 14.9287 26.375 14.9287H31.125C31.6862 14.9287 32.1428 15.3852 32.1428 15.9466V17.3038C32.1428 17.8652 31.6862 18.3217 31.125 18.3217ZM26.375 15.6074C26.1881 15.6074 26.0357 15.7595 26.0357 15.9467V17.3039C26.0357 17.4911 26.1881 17.6432 26.375 17.6432H31.125C31.3118 17.6432 31.4642 17.4911 31.4642 17.3039V15.9467C31.4642 15.7595 31.3118 15.6074 31.125 15.6074H26.375Z" fill="white"/>
<path d="M25.6965 16.984H22.3029C22.1154 16.984 21.9636 16.8323 21.9636 16.6447C21.9636 16.4572 22.1154 16.3054 22.3029 16.3054H25.6965C25.8839 16.3054 26.0357 16.4572 26.0357 16.6447C26.0357 16.8323 25.8839 16.984 25.6965 16.984Z" fill="white"/>
<path d="M18.2322 42.072C18.1228 42.072 18.0155 42.019 17.9499 41.9209L16.5934 39.8852C16.535 39.7978 16.5205 39.6891 16.5536 39.5898L17.1719 37.7362L13.225 33.132C13.1097 32.9975 13.1176 32.7967 13.2429 32.6714L16.6358 29.2786C16.7683 29.1461 16.9831 29.1461 17.1156 29.2786C17.2481 29.4111 17.2481 29.6258 17.1156 29.7583L13.9447 32.9292L17.812 37.4407C17.8895 37.5314 17.914 37.6561 17.8763 37.7687L17.2501 39.6468L18.5144 41.5446C18.6185 41.7011 18.5761 41.9117 18.4203 42.0151C18.3627 42.0534 18.2972 42.072 18.2322 42.072Z" fill="white"/>
<path d="M21.625 42.0717C21.4891 42.0717 21.3613 41.9895 21.3088 41.8557L16.5595 29.6414C16.4913 29.4665 16.5781 29.2703 16.7524 29.202C16.9273 29.1337 17.1241 29.2206 17.1917 29.3948L21.941 41.6092C22.0093 41.7841 21.9225 41.9802 21.7482 42.0485C21.7079 42.0644 21.666 42.0717 21.625 42.0717Z" fill="white"/>
<path d="M29.7686 42.0716C29.7036 42.0716 29.638 42.053 29.5804 42.0146C29.4246 41.9112 29.3822 41.7006 29.4863 41.5442L30.7507 39.6463L30.1244 37.7682C30.0867 37.6556 30.1112 37.531 30.1887 37.4402L34.0561 32.9287L30.8852 29.7578C30.7527 29.6254 30.7527 29.4106 30.8852 29.2781C31.0177 29.1456 31.2324 29.1456 31.3649 29.2781L34.7578 32.671C34.8831 32.7962 34.8909 32.997 34.7757 33.1316L30.8289 37.7357L31.4471 39.5893C31.4802 39.6887 31.4657 39.7973 31.4073 39.8847L30.0509 41.9204C29.9853 42.0186 29.8779 42.0716 29.7686 42.0716Z" fill="white"/>
<path d="M26.3757 42.0715C26.3346 42.0715 26.2928 42.0642 26.2524 42.0483C26.0781 41.9801 25.9913 41.7839 26.0596 41.609L30.809 29.3947C30.8773 29.2198 31.0741 29.1329 31.2483 29.2019C31.4226 29.2702 31.5094 29.4663 31.4411 29.6413L26.6918 41.8555C26.6394 41.9893 26.5115 42.0715 26.3757 42.0715Z" fill="white"/>
<path d="M18.9107 33.2507C18.7755 33.2507 18.6482 33.1698 18.5952 33.0367C18.5263 32.8623 18.6112 32.6649 18.7854 32.596L23.9118 30.5603C24.0855 30.4914 24.2829 30.5763 24.3525 30.7505C24.4214 30.9247 24.3365 31.1222 24.1623 31.1911L19.0359 33.2268C18.9948 33.2427 18.9524 33.2507 18.9107 33.2507Z" fill="white"/>
<path d="M29.0893 33.2504C29.047 33.2504 29.0039 33.2424 28.9628 33.2259L23.9105 31.1901C23.7362 31.1198 23.6522 30.9224 23.7223 30.7481C23.7925 30.5745 23.9927 30.4917 24.1637 30.5606L29.2159 32.5963C29.3902 32.6665 29.4743 32.864 29.4041 33.0383C29.3504 33.1702 29.2238 33.2504 29.0893 33.2504Z" fill="white"/>
</svg>
