<svg width="50" height="57" viewBox="0 0 50 57" fill="none" xmlns="http://www.w3.org/2000/svg">
<path d="M34.9591 29.863L35.1403 29.5517C35.2697 29.3294 35.2164 29.0487 35.0143 28.8864L32.1221 26.5668C32.0103 26.4774 31.866 26.4351 31.7232 26.4507C31.5796 26.4658 31.4484 26.5369 31.3589 26.6476L30.5933 27.5956V24.4151C33.8788 22.4116 36.0747 18.8078 36.0733 14.6851C36.0599 14.5337 36.0471 14.3514 36.0351 14.1565C36.0403 14.1161 36.0324 14.0749 36.0276 14.0333C35.9153 12.0466 35.938 8.29842 37.0126 7.22139C37.1137 7.12012 37.1685 6.98348 37.1648 6.84197C37.1425 5.96419 33.3541 1.93908 29.0123 0.52551C25.1462 -0.73322 21.6986 0.279404 19.0321 3.45443C18.2652 3.50647 16.0575 3.82205 14.4591 5.70655C12.7697 7.69873 12.3283 10.752 13.1469 14.783C13.1651 18.7079 15.204 22.1666 18.2817 24.1946V27.5524L17.5511 26.6476C17.4616 26.5369 17.3304 26.4658 17.1868 26.4507C17.0445 26.4366 16.8994 26.4776 16.7879 26.5668L13.8957 28.8864C13.6936 29.0487 13.6403 29.3294 13.7697 29.5517L13.9527 29.8662C7.29298 29.9563 3 33.8077 3 39.7407V41.475C3 41.7649 3.24067 42 3.5375 42H45.4625C45.7593 42 46 41.7649 46 41.475V39.7407C46 33.7811 41.67 29.9195 34.9591 29.863ZM31.8636 27.7182L33.9821 29.4173L28.8391 38.2559L25.5044 35.5925L31.8636 27.7182ZM15.2772 6.38796C16.859 4.51191 19.2515 4.49448 19.2917 4.49448H19.2919C19.4544 4.50243 19.6166 4.42244 19.7195 4.29478C21.7815 1.74373 24.2919 0.687273 27.1846 1.15667C31.5235 1.86012 35.3219 5.68502 36.0064 6.76686C35.191 7.88344 34.9525 9.99299 34.9111 11.7687C33.625 9.84587 31.0982 7.45137 26.7227 8.21606C20.8299 9.24432 20.3102 6.9963 20.3071 6.98528C20.2845 6.83274 20.1942 6.6979 20.0606 6.61612C19.9273 6.53485 19.7638 6.51409 19.6132 6.56049C19.4256 6.61849 15.6333 7.8544 13.8636 12.1614C13.6834 9.66149 14.1524 7.72244 15.2772 6.38796ZM14.224 14.771C15.0242 10.1094 18.2566 8.2748 19.4756 7.74103C19.6321 8.01174 19.8906 8.33655 20.3168 8.63649C21.6487 9.574 23.8675 9.78063 26.9117 9.24971C32.6278 8.25609 34.6756 13.3568 34.9579 14.1514C34.9753 14.432 34.9921 14.6412 35.0004 14.7304C35.0004 20.4155 30.3398 25.0407 24.611 25.0407C18.8963 25.0407 14.2463 20.4373 14.224 14.771ZM19.3567 24.8165C20.9326 25.626 22.7168 26.0908 24.611 26.0908C26.3662 26.0908 28.0298 25.6967 29.5183 24.9941V28.9268L24.4551 35.1966L19.3567 28.8835V24.8165ZM17.0466 27.7182L23.4058 35.5925L20.0711 38.2559L14.9279 29.4173L17.0466 27.7182ZM44.925 40.9499H36.8845V38.624C36.8845 38.334 36.6439 38.099 36.347 38.099C36.0502 38.099 35.8095 38.334 35.8095 38.624V40.9499H13.3647V38.624C13.3647 38.334 13.1241 38.099 12.8272 38.099C12.5304 38.099 12.2897 38.334 12.2897 38.624V40.9499H4.075V39.7407C4.075 33.2281 9.29857 30.9078 14.1872 30.9078H14.5588L19.4512 39.3154C19.5294 39.4497 19.6643 39.5438 19.82 39.572C19.8528 39.5782 19.8856 39.581 19.9184 39.581C20.0415 39.581 20.1619 39.5397 20.2585 39.4625L24.4551 36.111L28.6517 39.4625C28.7483 39.5397 28.8688 39.581 28.9919 39.581C29.0247 39.581 29.0577 39.5782 29.0903 39.572C29.2459 39.5438 29.3808 39.4497 29.4593 39.3154L34.3512 30.9078H34.8128C39.7014 30.9078 44.925 33.2281 44.925 39.7407V40.9499Z" fill="white"/>
<line y1="56.5" x2="50" y2="56.5" stroke="white"/>
</svg>
