<svg width="50" height="54" viewBox="0 0 50 54" fill="none" xmlns="http://www.w3.org/2000/svg">
<path d="M5.3077 39.0002H27.5484C27.7184 39.0002 27.8561 38.8621 27.8561 38.6918V36.3781C27.8561 35.3163 26.994 34.4525 25.9345 34.4525H25.5346V32.4271C25.5346 31.5311 24.8072 30.8022 23.9131 30.8022H8.943C8.0489 30.8022 7.32157 31.5311 7.32157 32.4271V34.4525H6.92162C5.8621 34.4525 5 35.3163 5 36.3781V38.6918C5 38.8621 5.13777 39.0002 5.3077 39.0002ZM7.93697 32.4271C7.93697 31.8713 8.3883 31.419 8.943 31.419H23.9131C24.4678 31.419 24.9192 31.8713 24.9192 32.4271V34.4525H7.93697V32.4271ZM5.6154 36.3781C5.6154 35.6564 6.20135 35.0692 6.92162 35.0692H7.62927H25.2269H25.9345C26.6548 35.0692 27.2407 35.6564 27.2407 36.3781V38.3835H5.6154V36.3781Z" fill="white"/>
<path d="M42.6358 30.1259C42.7683 30.1259 42.9017 30.1146 43.0348 30.092C43.6564 29.9866 44.1998 29.6448 44.5649 29.1297C45.3184 28.0666 45.0684 26.5872 44.0075 25.8319L28.9787 15.1337L32.0708 10.7712L32.3671 10.9821C32.7398 11.2474 33.1694 11.3748 33.5952 11.3748C34.2609 11.3748 34.9173 11.0629 35.3314 10.4789C35.6601 10.0149 35.789 9.4504 35.6942 8.8894C35.5994 8.32824 35.2922 7.83786 34.8293 7.50827L24.8332 0.392609C23.8774 -0.287338 22.5477 -0.0616426 21.8689 0.895795C21.1903 1.85353 21.4155 3.18603 22.3711 3.86643L22.6671 4.07718L13.7493 16.6586L13.453 16.4477C12.4976 15.7676 11.1677 15.9933 10.4887 16.9509C10.16 17.4149 10.0311 17.9794 10.1259 18.5404C10.2207 19.1016 10.5279 19.5919 10.9908 19.9215L20.9869 27.0372C21.3596 27.3025 21.7892 27.43 22.2149 27.4299C22.8807 27.4299 23.5371 27.118 23.9512 26.534C24.6298 25.5763 24.4046 24.2438 23.4491 23.5634L23.153 23.3526L26.2452 18.99L41.2741 29.6883C41.6778 29.9758 42.1503 30.1259 42.6358 30.1259ZM22.3708 1.25293C22.6044 0.923348 22.952 0.704578 23.3499 0.637126C23.7482 0.569071 24.1481 0.661216 24.4769 0.895494L34.4729 8.01116C34.8018 8.24528 35.0201 8.59369 35.0874 8.99238C35.1548 9.39108 35.0632 9.79218 34.8296 10.1218C34.3471 10.8019 33.4027 10.9628 32.7234 10.4792L32.1767 10.09C32.1766 10.0899 32.1765 10.0898 32.1764 10.0897L23.2745 3.7529C23.2744 3.75286 23.2743 3.75286 23.2743 3.75279L22.7274 3.36354C22.0485 2.88023 21.8885 1.93333 22.3708 1.25293ZM23.4494 26.1769C22.9672 26.8571 22.0225 27.0178 21.3432 26.5343L11.3472 19.4186C11.0183 19.1845 10.8 18.8361 10.7327 18.4374C10.6653 18.0387 10.7569 17.6376 10.9905 17.308C11.2847 16.8931 11.7509 16.6715 12.224 16.6715C12.5265 16.6715 12.8318 16.7621 13.0967 16.9506L13.6434 17.3398C13.6435 17.3399 13.6436 17.34 13.6437 17.3401L22.5456 23.6769C22.5457 23.6769 22.5458 23.6769 22.5459 23.677L23.0927 24.0663C23.7716 24.5496 23.9316 25.4965 23.4494 26.1769ZM25.9216 18.3814C25.9216 18.3815 25.9216 18.3815 25.9216 18.3815L22.6511 22.9954L14.251 17.0158L23.169 4.43439L31.5691 10.414L28.2988 15.0277C28.2988 15.0278 28.2987 15.0278 28.2986 15.0279L25.9216 18.3814ZM28.6223 15.6365L43.6511 26.3348C44.4354 26.8931 44.6202 27.9867 44.063 28.7726C43.7931 29.1534 43.3915 29.406 42.9321 29.484C42.4726 29.562 42.0102 29.456 41.6305 29.1854L26.6017 18.4871L28.6223 15.6365Z" fill="white"/>
<line y1="53.5002" x2="50" y2="53.5002" stroke="white"/>
</svg>
