<svg width="50" height="61" viewBox="0 0 50 61" fill="none" xmlns="http://www.w3.org/2000/svg">
<path d="M46 10.0781H42.8281C42.7344 9.82031 42.625 9.54688 42.5 9.28125L44.7422 7.04688C44.8125 6.97656 44.8594 6.875 44.8594 6.77344C44.8594 6.67187 44.8203 6.57031 44.7422 6.5L40.5234 2.28125C40.3672 2.125 40.125 2.125 39.9688 2.28125L37.7344 4.52344C37.4531 4.39063 37.1953 4.28906 36.9375 4.19531V1.03125C36.9375 0.8125 36.7656 0.640625 36.5469 0.640625H30.5859C30.3672 0.640625 30.1953 0.8125 30.1953 1.03125V4.19531C29.9297 4.28906 29.6641 4.39844 29.3984 4.52344L27.1562 2.28125C27 2.125 26.7578 2.125 26.6016 2.28125L22.3828 6.5C22.2266 6.65625 22.2266 6.89844 22.3828 7.05469L24.625 9.29688C24.5078 9.53906 24.3984 9.80469 24.2969 10.0938H21.1328C20.9141 10.0938 20.7422 10.2656 20.7422 10.4844V16.4453C20.7422 16.6641 20.9141 16.8359 21.1328 16.8359H24.3047C24.4141 17.125 24.5234 17.3906 24.6328 17.625L22.3906 19.8672C22.2344 20.0234 22.2344 20.2656 22.3906 20.4219L26.6094 24.6406C26.7656 24.7969 27.0078 24.7969 27.1641 24.6406L29.4062 22.3984C29.6641 22.5234 29.9375 22.6328 30.2031 22.7266V25.8906C30.2031 26.1094 30.375 26.2812 30.5938 26.2812H36.5547C36.7734 26.2812 36.9453 26.1094 36.9453 25.8906V22.7266C37.2188 22.6328 37.4844 22.5234 37.7422 22.3984L39.9844 24.6406C40.0547 24.7109 40.1562 24.7578 40.2578 24.7578C40.3594 24.7578 40.4609 24.7187 40.5313 24.6406L44.7344 20.4219C44.8828 20.2656 44.8828 20.0234 44.7344 19.8672L42.4922 17.625C42.6172 17.3438 42.7266 17.0859 42.8203 16.8281H45.9844C46.2031 16.8281 46.375 16.6563 46.375 16.4375V10.4766C46.3906 10.2578 46.2188 10.0781 46 10.0781ZM45.6094 16.0391H42.5547C42.3828 16.0391 42.2344 16.1484 42.1797 16.3125C42.0547 16.6953 41.8984 17.0859 41.6797 17.5312C41.6094 17.6797 41.6406 17.8594 41.7578 17.9766L43.9219 20.1406L40.2656 23.8047L38.1094 21.6484C37.9922 21.5312 37.8125 21.5 37.6563 21.5781C37.2656 21.7734 36.8516 21.9453 36.4375 22.0781C36.2734 22.1328 36.1641 22.2812 36.1641 22.4531V25.5078H30.9844V22.4531C30.9844 22.2812 30.875 22.1328 30.7109 22.0781C30.2969 21.9453 29.8906 21.7734 29.5 21.5781C29.3516 21.5 29.1719 21.5312 29.0469 21.6484L26.8828 23.8125L23.2188 20.1484L25.3828 17.9844C25.5 17.8672 25.5313 17.6797 25.4531 17.5312C25.2813 17.1875 25.1172 16.8047 24.9375 16.3203C24.8828 16.1641 24.7344 16.0625 24.5703 16.0625H21.5156V10.8828H24.5703C24.7344 10.8828 24.8906 10.7734 24.9375 10.6172C25.0938 10.1484 25.2578 9.75 25.4375 9.40625C25.5156 9.25781 25.4844 9.07031 25.3672 8.95312L23.2109 6.78906L26.875 3.125L29.0391 5.28125C29.1562 5.39844 29.3359 5.42969 29.4922 5.35156C29.8906 5.15625 30.2969 4.98438 30.7031 4.85156C30.8672 4.79688 30.9766 4.64844 30.9766 4.47656V1.42188H36.1562V4.47656C36.1562 4.64844 36.2656 4.79688 36.4297 4.85156C36.8125 4.97656 37.2031 5.13281 37.6484 5.35156C37.7969 5.42188 37.9766 5.39063 38.0938 5.27344L40.2578 3.11719L43.9219 6.78125L41.7656 8.92969C41.6484 9.04688 41.6172 9.22656 41.6875 9.375C41.8906 9.78906 42.0547 10.2031 42.1875 10.6016C42.2422 10.7578 42.3906 10.8672 42.5547 10.8672H45.6094V16.0391Z" fill="white"/>
<path d="M33.5703 5.92188C29.4219 5.92188 26.0391 9.29688 26.0391 13.4531C26.0391 17.6094 29.4141 20.9844 33.5703 20.9844C37.7266 20.9844 41.1016 17.6094 41.1016 13.4531C41.1016 9.29688 37.7187 5.92188 33.5703 5.92188ZM33.5703 20.2031C29.8516 20.2031 26.8203 17.1719 26.8203 13.4531C26.8203 9.73438 29.8516 6.70313 33.5703 6.70313C37.2891 6.70313 40.3203 9.73438 40.3203 13.4531C40.3203 17.1719 37.2891 20.2031 33.5703 20.2031Z" fill="white"/>
<path d="M20.3594 31.5L18.875 30.0156C18.9375 29.8828 18.9922 29.75 19.0391 29.6094H21.1328C21.3516 29.6094 21.5234 29.4375 21.5234 29.2187V25.1094C21.5234 24.8906 21.3516 24.7188 21.1328 24.7188H19.0313C18.9766 24.5781 18.9219 24.4375 18.8672 24.3125L20.3516 22.8281C20.5078 22.6719 20.5078 22.4297 20.3516 22.2734L17.4453 19.3672C17.2891 19.2109 17.0469 19.2109 16.8906 19.3672L15.4062 20.8516C15.2734 20.7891 15.1406 20.7344 15 20.6875V18.5859C15 18.3672 14.8281 18.1953 14.6094 18.1953H10.5C10.2812 18.1953 10.1094 18.3672 10.1094 18.5859V20.6875C9.96875 20.7422 9.82812 20.7969 9.70312 20.8516L8.21875 19.3672C8.0625 19.2109 7.82031 19.2109 7.66406 19.3672L4.75781 22.2734C4.60156 22.4297 4.60156 22.6719 4.75781 22.8281L6.24219 24.3125C6.1875 24.4375 6.13281 24.5703 6.07813 24.7188H4C3.78125 24.7188 3.60938 24.8906 3.60938 25.1094V29.2187C3.60938 29.4375 3.78125 29.6094 4 29.6094H6.09375C6.14844 29.75 6.20313 29.8906 6.25781 30.0156L4.77344 31.5C4.61719 31.6562 4.61719 31.8984 4.77344 32.0547L7.67969 34.9609C7.83594 35.1172 8.07812 35.1172 8.23438 34.9609L9.71875 33.4766C9.85156 33.5391 9.98438 33.5937 10.1172 33.6406V35.7422C10.1172 35.9609 10.2891 36.1328 10.5078 36.1328H14.6172C14.8359 36.1328 15.0078 35.9609 15.0078 35.7422V33.6406C15.1484 33.5859 15.2891 33.5312 15.4141 33.4766L16.8984 34.9609C17.0547 35.1172 17.2969 35.1172 17.4531 34.9609L20.3594 32.0547C20.5156 31.8984 20.5156 31.6484 20.3594 31.5ZM17.1797 34.125L15.7734 32.7187C15.6563 32.6016 15.4688 32.5703 15.3203 32.6484C15.0938 32.7656 14.8203 32.875 14.5 32.9844C14.3438 33.0391 14.2344 33.1875 14.2344 33.3516V35.3359H10.9062V33.3516C10.9062 33.1875 10.7969 33.0312 10.6406 32.9844C10.3672 32.8906 10.0938 32.7812 9.8125 32.6484C9.66406 32.5781 9.48438 32.6016 9.36719 32.7266L7.96094 34.1328L5.60938 31.7812L7.01562 30.375C7.13281 30.2578 7.16406 30.0703 7.08594 29.9219C6.96875 29.6875 6.85938 29.4219 6.75 29.1016C6.69531 28.9453 6.54688 28.8359 6.38281 28.8359H4.39062V25.5H6.375C6.53906 25.5 6.69531 25.3906 6.74219 25.2344C6.85156 24.9141 6.96094 24.6484 7.07813 24.4141C7.15625 24.2656 7.125 24.0781 7.00781 23.9609L5.60156 22.5547L7.95313 20.2031L9.35937 21.6094C9.47656 21.7266 9.66406 21.7578 9.8125 21.6797C10.0391 21.5625 10.3125 21.4531 10.6328 21.3437C10.7891 21.2891 10.8984 21.1406 10.8984 20.9766V18.9922H14.2266V20.9766C14.2266 21.1484 14.3359 21.2969 14.5 21.3516C14.7734 21.4453 15.0547 21.5547 15.3203 21.6875C15.4688 21.7656 15.6484 21.7344 15.7734 21.6172L17.1797 20.2109L19.5313 22.5547L18.125 23.9609C18.0078 24.0781 17.9766 24.2656 18.0547 24.4141C18.1719 24.6406 18.2813 24.9141 18.3906 25.2344C18.4453 25.3906 18.5938 25.5 18.7578 25.5H20.7422V28.8281H18.7578C18.5859 28.8281 18.4375 28.9375 18.3828 29.1016C18.2812 29.4062 18.1719 29.6719 18.0469 29.9141C17.9688 30.0625 18 30.25 18.1172 30.3672L19.5234 31.7734L17.1797 34.125Z" fill="white"/>
<path d="M12.5703 24.0156C10.8281 24.0156 9.41406 25.4297 9.41406 27.1719C9.41406 28.9141 10.8281 30.3281 12.5703 30.3281C14.3125 30.3281 15.7266 28.9141 15.7266 27.1719C15.7266 25.4297 14.3047 24.0156 12.5703 24.0156ZM12.5703 29.5469C11.2578 29.5469 10.1953 28.4844 10.1953 27.1719C10.1953 25.8594 11.2578 24.7969 12.5703 24.7969C13.8828 24.7969 14.9453 25.8594 14.9453 27.1719C14.9453 28.4844 13.875 29.5469 12.5703 29.5469Z" fill="white"/>
<path d="M37.4766 33.9531H35.375C35.3281 33.8203 35.2734 33.6875 35.2109 33.5547L36.6953 32.0703C36.7656 32 36.8125 31.8984 36.8125 31.7969C36.8125 31.6953 36.7734 31.5938 36.6953 31.5234L33.7891 28.6172C33.6328 28.4609 33.3906 28.4609 33.2344 28.6172L31.75 30.1016C31.6172 30.0391 31.4844 29.9844 31.3438 29.9375V27.8359C31.3438 27.6172 31.1719 27.4453 30.9531 27.4453H26.8438C26.625 27.4453 26.4531 27.6172 26.4531 27.8359V29.9375C26.3203 29.9922 26.1797 30.0469 26.0469 30.1016L24.5625 28.6172C24.4063 28.4609 24.1641 28.4609 24.0078 28.6172L21.1016 31.5234C20.9453 31.6797 20.9453 31.9219 21.1016 32.0781L22.5859 33.5625C22.5312 33.6875 22.4766 33.8203 22.4219 33.9688H20.3203C20.1016 33.9688 19.9297 34.1406 19.9297 34.3594V38.4687C19.9297 38.6875 20.1016 38.8594 20.3203 38.8594H22.4219C22.4766 39 22.5312 39.1406 22.5859 39.2656L21.1016 40.75C21.0313 40.8203 20.9844 40.9219 20.9844 41.0234C20.9844 41.125 21.0234 41.2266 21.1016 41.2969L24.0078 44.2031C24.0781 44.2734 24.1797 44.3203 24.2813 44.3203C24.3828 44.3203 24.4844 44.2812 24.5547 44.2031L26.0391 42.7188C26.1797 42.7812 26.3125 42.8359 26.4375 42.8828V44.9844C26.4375 45.2031 26.6094 45.375 26.8281 45.375H30.9375C31.1562 45.375 31.3281 45.2031 31.3281 44.9844V42.8828C31.4609 42.8359 31.6016 42.7812 31.7344 42.7188L33.2188 44.2031C33.2891 44.2734 33.3906 44.3203 33.4922 44.3203C33.5938 44.3203 33.6953 44.2812 33.7656 44.2031L36.6719 41.2969C36.7422 41.2266 36.7891 41.125 36.7891 41.0234C36.7891 40.9219 36.75 40.8203 36.6719 40.75L35.1875 39.2656C35.25 39.125 35.3047 38.9922 35.3516 38.8672H37.4531C37.6719 38.8672 37.8438 38.6953 37.8438 38.4766V34.3672C37.8672 34.125 37.6875 33.9531 37.4766 33.9531ZM37.0859 38.0625H35.1016C34.9297 38.0625 34.7813 38.1719 34.7266 38.3359C34.6406 38.5938 34.5313 38.8594 34.3906 39.1641C34.3203 39.3125 34.3516 39.4922 34.4688 39.6094L35.875 41.0156L33.5234 43.3672L32.1172 41.9609C32 41.8437 31.8203 41.8125 31.6641 41.8906C31.3984 42.0234 31.1172 42.1406 30.8438 42.2266C30.6797 42.2812 30.5703 42.4297 30.5703 42.6016V44.5859H27.2422V42.6016C27.2422 42.4297 27.1328 42.2812 26.9688 42.2266C26.7109 42.1406 26.4453 42.0312 26.1406 41.8906C25.9922 41.8203 25.8125 41.8516 25.6953 41.9687L24.2891 43.375L21.9375 41.0234L23.3437 39.6172C23.4609 39.5 23.4922 39.3125 23.4141 39.1641C23.2969 38.9297 23.1875 38.6641 23.0781 38.3437C23.0234 38.1875 22.875 38.0781 22.7109 38.0781H20.7266V34.75H22.7109C22.8828 34.75 23.0313 34.6406 23.0781 34.4844C23.1875 34.1641 23.2969 33.8984 23.4141 33.6641C23.4922 33.5156 23.4609 33.3281 23.3437 33.2109L21.9375 31.8047L24.2891 29.4531L25.6953 30.8594C25.8125 30.9766 25.9922 31.0078 26.1484 30.9297C26.4141 30.7969 26.6875 30.6875 26.9688 30.5938C27.1328 30.5391 27.2344 30.3906 27.2344 30.2188V28.2344H30.5625V30.2188C30.5625 30.3906 30.6719 30.5391 30.8281 30.5938C31.1094 30.6875 31.3828 30.7969 31.6484 30.9297C31.7969 31 31.9844 30.9766 32.1016 30.8594L33.5078 29.4531L35.8594 31.8047L34.4531 33.2109C34.3359 33.3281 34.3047 33.5078 34.375 33.6562C34.5078 33.9375 34.625 34.2109 34.7109 34.4844C34.7656 34.6406 34.9141 34.75 35.0781 34.75H37.0625V38.0625H37.0859Z" fill="white"/>
<path d="M28.9141 33.2422C27.1719 33.2422 25.7578 34.6563 25.7578 36.3984C25.7578 38.1406 27.1719 39.5547 28.9141 39.5547C30.6562 39.5547 32.0703 38.1406 32.0703 36.3984C32.0703 34.6563 30.6484 33.2422 28.9141 33.2422ZM28.9141 38.7734C27.6016 38.7734 26.5391 37.7109 26.5391 36.3984C26.5391 35.0859 27.6016 34.0234 28.9141 34.0234C30.2266 34.0234 31.2891 35.0859 31.2891 36.3984C31.2891 37.7109 30.2187 38.7734 28.9141 38.7734Z" fill="white"/>
<path d="M36.1953 13.0703H33.9609V8.47656C33.9609 8.25781 33.7891 8.08594 33.5703 8.08594C33.3516 8.08594 33.1797 8.25781 33.1797 8.47656V13.4609C33.1797 13.6797 33.3516 13.8516 33.5703 13.8516H36.1953C36.4141 13.8516 36.5859 13.6797 36.5859 13.4609C36.5859 13.2422 36.4141 13.0703 36.1953 13.0703Z" fill="white"/>
<line y1="59.875" x2="50" y2="59.875" stroke="white"/>
</svg>
