<svg width="50" height="56" viewBox="0 0 50 56" fill="none" xmlns="http://www.w3.org/2000/svg">
<line y1="54.5181" x2="50" y2="54.5181" stroke="white"/>
<path d="M32.4316 32.1292C30.625 30.9502 29.5905 27.6425 29.3961 26.3143C29.3326 25.8782 28.9511 25.4075 28.4468 25.4075H19.5535C19.0491 25.4075 18.6677 25.8782 18.6041 26.3143C18.4098 27.6422 17.3753 30.9499 15.5687 32.1292C15.2708 32.3233 15.1069 32.6434 15.1069 33.0303V34.6183C15.1069 35.1437 15.5344 35.5712 16.0597 35.5712H31.9405C32.4659 35.5712 32.8934 35.1437 32.8934 34.6183V33.0303C32.8934 32.6434 32.7295 32.3233 32.4316 32.1292ZM32.2582 34.6183C32.2582 34.7934 32.1156 34.936 31.9405 34.936H16.0597C15.8847 34.936 15.7421 34.7934 15.7421 34.6183V33.0303C15.7421 32.8603 15.8005 32.7362 15.9155 32.6609C17.9213 31.352 19.0164 27.8817 19.2324 26.4064C19.2588 26.2263 19.4211 26.0427 19.5535 26.0427H28.4468C28.5792 26.0427 28.7415 26.2263 28.7679 26.4064C28.9839 27.882 30.0787 31.352 32.0847 32.6609C32.1997 32.7362 32.2582 32.8603 32.2582 33.0303V34.6183Z" fill="white"/>
<path d="M44 36.8286C44.0098 13.1652 36.9181 5.49318 36.6164 5.1781C36.616 5.17778 36.6157 5.17778 36.6154 5.17747C36.5897 5.15079 36.5592 5.12792 36.5239 5.1114L34.152 3.97719C34.1564 3.92097 34.1637 3.86317 34.1637 3.80981C34.1637 1.51852 30.7983 0.649843 28.7925 0.336038C27.4293 0.1226 25.8171 0.00952849 23.9984 0C22.1829 0.00952849 20.571 0.1226 19.2078 0.336038C17.2017 0.649843 13.8363 1.51852 13.8363 3.80981C13.8363 3.86317 13.8436 3.92097 13.8477 3.97688L11.4757 5.11108C11.4408 5.12792 11.4103 5.15047 11.3849 5.17715C11.3846 5.17747 11.384 5.17778 11.3836 5.1781C11.0819 5.49318 3.99016 13.1652 4.00001 36.8286C4.00033 37.2447 4.26236 37.5969 4.62667 37.7325L4.63429 39.0417C4.60062 39.2834 4.66351 39.5121 4.81247 39.6894C4.98875 39.8983 5.27111 40.0181 5.58746 40.0181H8.43679C8.93005 40.0181 9.3131 39.5506 9.38329 39.1275L9.66121 37.7382C9.98962 37.608 10.2301 37.2624 10.3292 36.9334C10.5588 36.1673 10.8701 34.7031 11.3023 32.3381C11.3446 33.8868 11.4459 35.2735 11.6174 36.2613C11.7063 36.772 12.0868 37.2948 12.6074 37.4368L12.8856 39.1046C12.9409 39.5439 13.3198 40.0181 13.8363 40.0181H34.1637C34.6802 40.0181 35.0591 39.5439 35.1121 39.1176L35.3919 37.4387C35.9246 37.298 36.2914 36.7682 36.382 36.2626C36.5608 35.2621 36.6608 33.8824 36.6996 32.3499C37.1312 34.7094 37.4415 36.1698 37.6708 36.9334C37.7696 37.2628 38.0104 37.6083 38.3385 37.7382L38.6145 39.1176C38.6866 39.5506 39.0699 40.0181 39.5629 40.0181H42.4214C42.7381 40.0181 43.0205 39.8983 43.1964 39.6894C43.3457 39.5121 43.4083 39.2828 43.3743 39.0408V37.7322C43.7383 37.5956 43.9997 37.2437 44 36.8286ZM33.5285 3.80981C33.5285 4.22684 33.2925 5.17334 32.3994 5.76887C31.0244 6.68551 28.6394 7.76509 24.9182 7.92008C26.2332 6.77889 28.8646 4.12425 29.0504 1.02272C31.9423 1.53028 33.5285 2.51425 33.5285 3.80981ZM24.0006 7.85465C23.4042 7.37887 21.5143 5.76919 20.4055 3.68244C21.4838 3.5662 22.6854 3.50077 23.9981 3.49378C25.3137 3.50077 26.5152 3.5662 27.5935 3.68213C27.1689 4.48474 26.6419 5.19811 26.1563 5.76728C25.2679 6.80906 24.3786 7.55514 24.0006 7.85465ZM28.4168 0.923629C28.3796 1.67289 28.1782 2.39864 27.8857 3.07484C26.7302 2.94049 25.429 2.86617 23.9981 2.85855C22.5698 2.86617 21.2679 2.94049 20.1121 3.07516C19.8164 2.39197 19.6194 1.66812 19.5826 0.923629C20.8556 0.741634 22.3382 0.644126 23.9981 0.635233C25.6611 0.644126 27.1441 0.741634 28.4168 0.923629ZM18.9496 1.02272C19.0036 1.91682 19.2666 2.77311 19.6394 3.56937C19.6407 3.5716 19.6413 3.57446 19.6426 3.57668C20.5586 5.52907 22.1534 7.10857 23.0853 7.9204C19.3618 7.76636 16.9762 6.68614 15.6006 5.76919C14.7075 5.17334 14.4715 4.22684 14.4715 3.80981C14.4715 2.51425 16.0577 1.52996 18.9496 1.02272ZM8.43679 39.3829H5.58746C5.46073 39.3829 5.35274 39.3444 5.29843 39.2803C5.27683 39.2545 5.24951 39.2097 5.26508 39.1192C5.26825 39.1008 5.26984 39.0821 5.26984 39.0633L5.26254 37.7948H9.00215L8.75854 39.0128C8.72868 39.1926 8.56321 39.3829 8.43679 39.3829ZM9.7206 36.7504C9.65263 36.9772 9.48398 37.1595 9.38964 37.1595H4.95381C4.77817 37.1595 4.63556 37.0109 4.63524 36.8283C4.62667 16.631 9.96453 8.08715 11.4583 6.09315C12.8015 11.5501 12.9657 16.6336 11.9382 21.2104C11.6082 22.7096 11.3732 25.6704 11.302 28.6808C10.8208 31.4891 10.1357 35.3672 9.7206 36.7504ZM34.1637 39.3829H13.8363C13.6972 39.3829 13.5387 39.2059 13.5142 39.0128L13.2582 37.4772H34.7418L34.4839 39.0258C34.4613 39.2059 34.3028 39.3829 34.1637 39.3829ZM35.7569 36.1508C35.6972 36.4846 35.4256 36.8419 35.1166 36.8419H12.8834C12.5725 36.8419 12.3012 36.4852 12.2434 36.1524C11.9503 34.4674 11.8667 31.6022 11.9309 28.7713C11.9312 28.7691 11.9315 28.7672 11.9318 28.7649C11.9328 28.7586 11.9306 28.7529 11.9312 28.7465C11.9998 25.7679 12.2317 22.8309 12.5579 21.3486C13.6301 16.5723 13.4377 11.2655 11.9855 5.57195L13.9792 4.61878C14.1764 5.22193 14.5849 5.85589 15.2481 6.29802C16.3886 7.05839 18.1898 7.92389 20.8026 8.33394C20.7594 8.72588 20.6536 8.96854 20.5335 9.23914C20.3719 9.60218 20.1886 10.0144 20.1886 10.7961C20.1886 11.5784 20.3719 11.9907 20.5335 12.3546C20.6895 12.7053 20.8238 13.008 20.8238 13.6553C20.8238 14.3026 20.6895 14.6053 20.5335 14.9559C20.3719 15.3199 20.1886 15.7322 20.1886 16.5145C20.1886 16.6898 20.3309 16.8321 20.5062 16.8321C20.6815 16.8321 20.8238 16.6898 20.8238 16.5145C20.8238 15.8672 20.9582 15.5645 21.1141 15.2138C21.2758 14.8498 21.4591 14.4376 21.4591 13.6553C21.4591 12.873 21.2758 12.4607 21.1141 12.0967C20.9582 11.7461 20.8238 11.4434 20.8238 10.7961C20.8238 10.1491 20.9582 9.84674 21.1141 9.49641C21.2383 9.21691 21.3746 8.90406 21.4311 8.42033C22.2191 8.51657 23.0713 8.57406 24 8.57406C24.8055 8.57406 25.555 8.53181 26.2544 8.45813C26.3132 8.92089 26.4479 9.22517 26.5682 9.49641C26.7242 9.84674 26.8585 10.1491 26.8585 10.7961C26.8585 11.4434 26.7242 11.7461 26.5682 12.0967C26.4066 12.4607 26.2233 12.873 26.2233 13.6553C26.2233 14.4376 26.4066 14.8498 26.5682 15.2138C26.7242 15.5645 26.8585 15.8672 26.8585 16.5145C26.8585 16.6898 27.0008 16.8321 27.1762 16.8321C27.3515 16.8321 27.4938 16.6898 27.4938 16.5145C27.4938 15.7322 27.3105 15.3199 27.1488 14.9559C26.9929 14.6053 26.8585 14.3026 26.8585 13.6553C26.8585 13.008 26.9929 12.7053 27.1488 12.3546C27.3105 11.9907 27.4938 11.5784 27.4938 10.7961C27.4938 10.0144 27.3105 9.60218 27.1488 9.23851C27.0326 8.97711 26.9306 8.74684 26.8846 8.38031C29.6679 7.9925 31.5659 7.08793 32.7519 6.29738C33.4148 5.85526 33.8236 5.2213 34.0208 4.61814L36.0123 5.57036C34.6084 10.8873 34.4156 16.1918 35.4405 21.341C36.0034 24.1357 36.3788 32.6719 35.7569 36.1508ZM36.6878 28.6211C36.6043 25.6231 36.3607 22.6934 36.0634 21.2165C35.0804 16.2772 35.2423 11.1903 36.5382 6.08585C38.0263 8.06111 43.373 16.5732 43.3648 36.8279C43.3648 37.0106 43.2218 37.1592 43.0462 37.1592H38.6104C38.516 37.1592 38.3474 36.9769 38.2794 36.7501C37.8636 35.3656 37.1744 31.4628 36.6878 28.6211ZM42.7108 39.2803C42.6568 39.3444 42.5485 39.3829 42.4218 39.3829H39.5632C39.4368 39.3829 39.2713 39.1926 39.2392 39.003L38.9978 37.7948H42.7394V39.0652C42.7394 39.0833 42.741 39.1014 42.7441 39.1192C42.7594 39.2097 42.7327 39.2542 42.7108 39.2803Z" fill="white"/>
</svg>
