<svg width="50" height="55" viewBox="0 0 50 55" fill="none" xmlns="http://www.w3.org/2000/svg">
<line y1="54.5" x2="50" y2="54.5" stroke="white"/>
<path d="M10.5932 6.10169H5.50847C5.22771 6.10169 5 5.87398 5 5.59322V0.508475C5 0.227712 5.22771 0 5.50847 0H10.5932C10.874 0 11.1017 0.227712 11.1017 0.508475V5.59322C11.1017 5.87398 10.874 6.10169 10.5932 6.10169ZM6.01695 5.08475H10.0847V1.01695H6.01695V5.08475Z" fill="white"/>
<path d="M44.4915 6.10169H39.4068C39.126 6.10169 38.8983 5.87398 38.8983 5.59322V0.508475C38.8983 0.227712 39.126 0 39.4068 0H44.4915C44.7723 0 45 0.227712 45 0.508475V5.59322C45 5.87398 44.7723 6.10169 44.4915 6.10169ZM39.9152 5.08475H43.983V1.01695H39.9152V5.08475Z" fill="white"/>
<path d="M8.24141 17.9657C8.21624 17.9657 8.19082 17.9638 8.16514 17.9599C7.88743 17.9182 7.69616 17.6592 7.73794 17.3815C8.29489 13.679 9.99548 10.3158 12.6559 7.65536C15.3163 4.99494 18.6795 3.29435 22.382 2.7374C22.6597 2.6957 22.9187 2.88689 22.9605 3.1646C23.0023 3.44231 22.811 3.7013 22.5333 3.74308C15.4757 4.80477 9.80522 10.4753 8.74353 17.5328C8.70565 17.7849 8.48878 17.9657 8.24141 17.9657Z" fill="white"/>
<path d="M41.7587 17.9657C41.5113 17.9657 41.2944 17.7849 41.2564 17.5328C40.1948 10.4753 34.5243 4.80479 27.4667 3.74309C27.1891 3.70131 26.9978 3.44233 27.0395 3.16462C27.0814 2.88699 27.3399 2.69564 27.618 2.73742C31.3204 3.29436 34.6837 4.99496 37.3441 7.65538C40.0046 10.3158 41.7052 13.679 42.2621 17.3815C42.3038 17.6592 42.1126 17.9182 41.8349 17.96C41.8093 17.9639 41.7838 17.9657 41.7587 17.9657Z" fill="white"/>
<path d="M10.5932 23.0497H5.50847C5.22771 23.0497 5 22.822 5 22.5412V17.4565C5 17.1757 5.22771 16.948 5.50847 16.948H10.5932C10.874 16.948 11.1017 17.1757 11.1017 17.4565V22.5412C11.1017 22.822 10.874 23.0497 10.5932 23.0497ZM6.01695 22.0327H10.0847V17.9649H6.01695V22.0327Z" fill="white"/>
<path d="M44.4915 23.0497H39.4068C39.126 23.0497 38.8983 22.822 38.8983 22.5412V17.4565C38.8983 17.1757 39.126 16.948 39.4068 16.948H44.4915C44.7723 16.948 45 17.1757 45 17.4565V22.5412C45 22.822 44.7723 23.0497 44.4915 23.0497ZM39.9152 22.0327H43.983V17.9649H39.9152V22.0327Z" fill="white"/>
<path d="M27.5423 6.10169H22.4576C22.1768 6.10169 21.9491 5.87398 21.9491 5.59322V0.508475C21.9491 0.227712 22.1768 0 22.4576 0H27.5423C27.8231 0 28.0508 0.227712 28.0508 0.508475V5.59322C28.0508 5.87398 27.8231 6.10169 27.5423 6.10169ZM22.9661 5.08475H27.0339V1.01695H22.9661V5.08475Z" fill="white"/>
<path d="M22.4576 3.56016H10.5932C10.3124 3.56016 10.0847 3.33245 10.0847 3.05169C10.0847 2.77092 10.3124 2.54321 10.5932 2.54321H22.4576C22.7384 2.54321 22.9661 2.77092 22.9661 3.05169C22.9661 3.33245 22.7384 3.56016 22.4576 3.56016Z" fill="white"/>
<path d="M39.4068 3.56016H27.5424C27.2617 3.56016 27.034 3.33245 27.034 3.05169C27.034 2.77092 27.2617 2.54321 27.5424 2.54321H39.4068C39.6876 2.54321 39.9153 2.77092 39.9153 3.05169C39.9153 3.33245 39.6876 3.56016 39.4068 3.56016Z" fill="white"/>
<path d="M25 20.5086C24.7192 20.5086 24.4915 20.2808 24.4915 20.0001V8.13567C24.4915 7.85491 24.7192 7.6272 25 7.6272C25.2808 7.6272 25.5085 7.85491 25.5085 8.13567V20.0001C25.5085 20.2808 25.2808 20.5086 25 20.5086Z" fill="white"/>
<path d="M25 25.5929C23.3177 25.5929 21.9491 24.2243 21.9491 22.5421C21.9491 20.8598 23.3177 19.4912 25 19.4912C26.6822 19.4912 28.0508 20.8598 28.0508 22.5421C28.0508 24.2243 26.6822 25.5929 25 25.5929ZM25 20.5082C23.8784 20.5082 22.9661 21.4206 22.9661 22.5421C22.9661 23.6635 23.8784 24.576 25 24.576C26.1214 24.576 27.0339 23.6635 27.0339 22.5421C27.0339 21.4206 26.1214 20.5082 25 20.5082Z" fill="white"/>
<path d="M30.226 35.7628H19.774C19.6245 35.7628 19.4826 35.697 19.386 35.583C19.2894 35.4689 19.2479 35.3181 19.2725 35.1708L20.2229 29.4686L16.1348 24.5629C16.0132 24.4169 15.9831 24.2152 16.0569 24.0401L22.8365 7.93838C22.916 7.74982 23.1006 7.6272 23.3052 7.6272H26.695C26.8996 7.6272 27.0843 7.74982 27.1637 7.93838L33.9433 24.0401C34.0171 24.2152 33.987 24.4169 33.8653 24.5629L29.7773 29.4686L30.7277 35.1708C30.7522 35.3181 30.7107 35.469 30.6141 35.583C30.5175 35.6969 30.3755 35.7628 30.226 35.7628ZM20.3743 34.7458H29.6258L28.7358 29.4057C28.7115 29.2597 28.7519 29.1103 28.8467 28.9966L32.886 24.1496L26.3574 8.64415H23.6427L17.1142 24.1496L21.1534 28.9966C21.2482 29.1103 21.2887 29.2597 21.2643 29.4057L20.3743 34.7458Z" fill="white"/>
<path d="M30.9322 39.9998H19.0677C18.9183 39.9998 18.7764 39.9341 18.6798 39.82C18.5832 39.7059 18.5416 39.5552 18.5662 39.4078L19.2724 35.1705C19.3133 34.9253 19.5254 34.7456 19.7739 34.7456H30.226C30.4745 34.7456 30.6867 34.9253 30.7275 35.1705L31.4337 39.4078C31.4583 39.5552 31.4167 39.706 31.3201 39.82C31.2235 39.934 31.0816 39.9998 30.9322 39.9998ZM19.668 38.9829H30.3319L29.7952 35.7626H20.2047L19.668 38.9829Z" fill="white"/>
</svg>
