<svg width="50" height="56" viewBox="0 0 50 56" fill="none" xmlns="http://www.w3.org/2000/svg">
<path d="M25 0C18.5522 0 13.4956 2.13449 10.1067 6.46726C6.71784 10.8 5 17.2623 5 25.869C5.00293 26.2538 5.57101 26.4811 5.83841 26.2046L7.42378 24.6183C7.65018 32.8315 14.8997 41 24.0244 41C28.2664 41 31.931 39.7411 34.7104 37.3393C37.0346 35.3308 38.6518 32.8034 39.5579 29.4077L39.6494 29.8653C39.7305 30.2285 40.2977 30.348 40.5183 30.0484C42.9497 26.6424 45 24.035 45 18.5476C45 14.6342 43.1198 12.0577 40.9756 11.3634C39.5034 7.97166 37.6697 5.13178 35.122 3.14211C32.5342 1.1212 29.2324 0 25 0ZM25 0.97619C29.0603 0.97619 32.1 2.03618 34.5122 3.91999C36.9244 5.80384 38.7241 8.52707 40.1677 11.8973C40.2226 12.036 40.3444 12.1464 40.4878 12.1872C42.1421 12.601 44.0244 14.8055 44.0244 18.5476C44.0244 23.298 42.4819 25.6345 40.3811 28.5688L39.1311 22.3456C39.0693 22.0397 38.6658 21.8632 38.3994 22.0253C37.2695 22.7261 36.3611 23.2743 35.1677 23.8557C34.7965 22.1671 34.7561 20.7593 34.7561 18.0595C34.7659 17.7083 34.3065 17.4457 34.0091 17.6324C30.3424 19.9255 27.5424 20.8879 22.6982 21.8118L23.5213 17.6629C23.5885 17.3117 23.159 16.9775 22.8354 17.1291L12.2104 22.2083L11.8293 19.9204C11.774 19.5607 11.2394 19.3953 10.9909 19.6611L6.03659 24.6183C6.20532 16.8103 7.84038 10.9342 10.8689 7.06216C14.0654 2.97529 18.7649 0.97619 25 0.97619ZM22.378 18.4256L21.6006 22.3456C21.536 22.6568 21.852 22.9815 22.1646 22.9253C27.2086 22.0076 30.2021 21.0216 33.7957 18.8832C33.8016 21.1612 33.8496 22.6804 34.2683 24.4048C34.3336 24.6652 34.4628 24.8348 34.6493 24.9234C34.9839 25.0114 35.2978 24.8472 35.564 24.7402C36.545 24.2832 37.4464 23.7489 38.3231 23.2149L39.0853 27.0586C38.3363 31.2111 36.5943 34.4104 34.0701 36.5918C31.4836 38.8269 28.075 40.0237 24.0243 40.0237C15.1327 40.0237 8.06324 31.566 8.41459 23.6267L11.006 21.0337L11.3414 23.0166C11.3939 23.3157 11.772 23.5048 12.0426 23.3674L22.378 18.4256ZM16.9055 27.2722C16.1996 27.3429 15.5474 27.6085 15.0305 27.8671C14.7697 27.9569 14.6297 28.2963 14.7513 28.544C14.8729 28.7917 15.2269 28.8882 15.4573 28.7365C15.916 28.507 16.4833 28.2845 16.997 28.2332C17.5106 28.1818 17.9351 28.2718 18.3079 28.645C18.4875 28.8287 18.818 28.8323 19.0015 28.6528C19.1851 28.4731 19.1887 28.1425 19.0091 27.9588C18.3243 27.395 17.6673 27.2558 16.9055 27.2722ZM29.0396 27.9587C28.86 28.1423 28.8637 28.473 29.0472 28.6527C29.2308 28.8324 29.5613 28.8288 29.7409 28.6449C30.1137 28.2719 30.5382 28.1817 31.0518 28.2331C31.5655 28.2844 32.1327 28.5069 32.5915 28.7364C32.8219 28.8881 33.1759 28.7916 33.2975 28.5439C33.4191 28.2962 33.2791 27.9568 33.0183 27.867C32.5014 27.6084 31.8492 27.3428 31.1433 27.2721C30.3693 27.2214 29.4848 27.5284 29.0396 27.9587ZM21.2558 32.8089C21.0735 32.996 21.0354 33.3418 21.2348 33.526C21.8663 34.1579 22.8339 34.4107 23.7805 34.4107C24.7271 34.4107 25.6947 34.1579 26.3262 33.526C26.5058 33.3424 26.5022 33.0117 26.3186 32.832C26.135 32.6523 25.8046 32.656 25.625 32.8398C25.2809 33.1841 24.5412 33.4347 23.7805 33.4347C23.0198 33.4347 22.2801 33.1842 21.936 32.8398C21.6006 32.6069 21.4341 32.6706 21.2558 32.8091L21.2558 32.8089Z" fill="white"/>
<line y1="55.5" x2="50" y2="55.5" stroke="white"/>
</svg>
