<svg width="50" height="55" viewBox="0 0 50 55" fill="none" xmlns="http://www.w3.org/2000/svg">
<line y1="54.5" x2="50" y2="54.5" stroke="white"/>
<path d="M42.4011 10.1531C42.617 8.56713 42.247 7.1998 41.3386 6.29144C40.6013 5.56117 39.5896 5.17894 38.4078 5.17408C34.7304 1.83796 29.9769 0 24.9967 0C19.3025 0 13.908 2.42348 10.1209 6.6545C9.21032 6.10962 8.79356 5.98499 8.47942 6.29978C8.14045 6.63896 8.32719 7.13325 8.93153 8.10928C6.36052 11.5664 5 15.67 5 20.0033C5 31.0294 13.9706 40 24.9967 40C36.0266 40 45 31.0294 45 20.0033C45 16.5425 44.0991 13.142 42.4011 10.1531ZM38.3775 6.1452C39.3116 6.1452 40.0958 6.43388 40.6502 6.9829C41.3629 7.69531 41.6354 8.82741 41.4177 10.1703C41.1438 11.8226 40.1386 13.6178 38.66 15.0967C36.9469 16.8155 34.8328 17.8689 32.9873 17.9154C32.711 17.9309 32.43 17.914 32.1284 17.8613C31.9669 17.833 31.8012 17.888 31.6883 18.0085L27.6886 22.283C27.6885 22.2832 27.6884 22.2835 27.6882 22.2837L24.5465 25.6462C24.5464 25.6463 24.5464 25.6463 24.5463 25.6464C24.5463 25.6465 24.5461 25.6466 24.546 25.6467L17.5248 33.1643C17.1184 33.6016 16.543 33.8524 15.9456 33.8524C15.3673 33.8524 14.8237 33.6271 14.4145 33.2181C13.9963 32.7999 13.7719 32.2439 13.7819 31.6521C13.7924 31.0604 14.0363 30.5119 14.4698 30.1074L22.1003 22.9795C22.1004 22.9794 22.1005 22.9792 22.1006 22.9791C22.1006 22.9791 22.1007 22.9791 22.1008 22.979L24.0547 21.1501L29.6175 15.9516C29.7385 15.8384 29.7942 15.6714 29.7647 15.5083C29.675 15.0135 29.6834 14.4551 29.787 13.8673C29.8215 13.672 29.8665 13.4735 29.9219 13.2732C29.9219 13.273 29.9219 13.2728 29.9219 13.2726C29.9221 13.272 29.9222 13.2714 29.9224 13.2708C30.3249 11.7871 31.2557 10.2606 32.5434 8.97247C32.7596 8.75622 32.9821 8.55049 33.2094 8.35598C34.8006 6.99436 36.6296 6.18152 38.236 6.14734C38.2836 6.14591 38.3308 6.1452 38.3775 6.1452ZM25.5727 25.9812L28.0707 23.3082L35.3482 30.1136C35.7812 30.52 36.0252 31.0709 36.0347 31.6649C36.0437 32.2356 35.8346 32.7727 35.4445 33.1836C35.4283 33.1962 35.4125 33.21 35.3978 33.2248C34.9886 33.6338 34.4484 33.8579 33.8734 33.8579C33.8605 33.8579 33.8477 33.8577 33.8343 33.8574C33.245 33.8472 32.6982 33.603 32.2937 33.1695L25.5727 25.9812ZM25.7932 27.6482C25.2121 27.7082 24.6187 27.7022 24.0329 27.6289L24.9047 26.696L25.7932 27.6482ZM28.7371 22.5951L32.2261 18.8617C32.3552 18.8777 32.4824 18.8879 32.6081 18.8932C32.6615 19.2535 32.6886 19.6256 32.6886 20.0033C32.6886 21.7323 32.1079 23.3994 31.0442 24.7497L28.7371 22.5951ZM18.8734 24.6568C17.8581 23.3261 17.3042 21.6925 17.3042 20.0033C17.3042 19.6332 17.3314 19.2595 17.3852 18.8881C17.4533 18.8829 17.52 18.8765 17.5862 18.8686L21.0761 22.5982L18.8734 24.6568ZM21.0789 14.723C21.0776 14.6098 21.0751 14.4962 21.067 14.3804C21.062 14.3091 21.0539 14.2367 21.0463 14.1645C21.0349 14.0554 21.0213 13.9456 21.004 13.8345C20.9924 13.76 20.9795 13.6853 20.9652 13.61C20.9561 13.5618 20.9505 13.5149 20.9404 13.4663C22.1642 12.7096 23.5595 12.3111 24.9967 12.3111C26.3715 12.3111 27.7106 12.6763 28.8915 13.3703C28.8793 13.4239 28.8726 13.4758 28.8618 13.5291C28.8467 13.6034 28.8328 13.6773 28.8203 13.7508C28.7992 13.8748 28.7827 13.9972 28.7691 14.1188C28.7613 14.1883 28.7526 14.258 28.7472 14.3266C28.7371 14.4556 28.7334 14.5822 28.7318 14.7081C28.7311 14.7657 28.7276 14.8242 28.7287 14.8812C28.732 15.0618 28.7425 15.2399 28.7638 15.4137L24.9095 19.0141L21.048 15.4066C21.0677 15.2425 21.0778 15.0744 21.0814 14.9037C21.0827 14.8443 21.0795 14.7832 21.0789 14.723ZM24.9967 0.97561C29.4303 0.97561 33.6766 2.50429 37.0698 5.30154C36.9745 5.32066 36.8779 5.34981 36.7821 5.37297C36.6933 5.39444 36.6051 5.41412 36.516 5.43901C36.3227 5.49293 36.1289 5.55691 35.9346 5.62661C35.8762 5.6476 35.818 5.66394 35.7595 5.68633C35.5081 5.78247 35.2568 5.89186 35.0064 6.01306C34.9392 6.04558 34.8729 6.08372 34.8059 6.11799C34.621 6.21252 34.437 6.3113 34.2542 6.41887C34.1655 6.47101 34.0782 6.52674 33.9901 6.58185C33.8276 6.68362 33.6667 6.78967 33.5068 6.90132C33.4183 6.96322 33.3303 7.02538 33.2427 7.09023C33.0776 7.21242 32.9155 7.34113 32.7545 7.47356C32.6798 7.53504 32.6043 7.59376 32.5306 7.65735C32.2998 7.85648 32.0729 8.06331 31.8536 8.28268C30.6198 9.51666 29.6835 10.9618 29.1715 12.4074C27.8939 11.7046 26.4631 11.3355 24.9967 11.3355C23.4723 11.3355 21.9903 11.7331 20.6725 12.4904C20.1723 11.018 19.2279 9.54471 17.9654 8.28268C16.4891 6.80664 14.7313 5.77077 13.0159 5.36585C12.9654 5.35403 12.9145 5.35079 12.8645 5.35487C12.8636 5.35496 12.8625 5.35457 12.8616 5.35466C16.2452 2.54311 20.5254 0.97561 24.9967 0.97561ZM12.4304 5.72361C12.4288 5.73019 12.4313 5.73704 12.43 5.74368C12.4189 5.79807 12.4184 5.85277 12.426 5.90749C12.4284 5.92449 12.431 5.94024 12.4351 5.95694C12.4504 6.01866 12.4733 6.07871 12.5129 6.13186L15.0338 9.51744L14.7023 9.84685C14.6268 9.79049 14.5374 9.72388 14.4416 9.65275C14.417 9.6345 14.3953 9.61837 14.3695 9.59925C14.274 9.52845 14.1694 9.45113 14.0589 9.36976C14.0281 9.34713 13.9985 9.32531 13.9667 9.30194C13.8514 9.2172 13.7304 9.12857 13.6033 9.03588C13.5722 9.01314 13.5411 8.99051 13.5093 8.9674C13.3729 8.86817 13.2326 8.76647 13.0871 8.66163C13.0682 8.64806 13.049 8.63436 13.0301 8.6207C12.8843 8.51586 12.7354 8.40936 12.5841 8.30191C12.5675 8.29015 12.5515 8.27866 12.5349 8.26687C12.3779 8.15552 12.2191 8.04396 12.0601 7.93293C12.034 7.91468 12.0081 7.89661 11.982 7.87842C11.8238 7.76835 11.6664 7.65994 11.5102 7.5535C11.4869 7.53763 11.464 7.522 11.4407 7.50622C11.2815 7.39806 11.1246 7.29281 10.9716 7.19191C10.9653 7.18774 10.9585 7.18306 10.9523 7.17893C11.4205 6.66492 11.9145 6.17902 12.4304 5.72361ZM10.2222 8.02234C10.2386 8.00192 10.2554 7.98057 10.2717 7.96065C10.283 7.94672 10.2938 7.9352 10.3051 7.92153C10.5278 8.067 10.7617 8.22373 11.0009 8.38721C11.0029 8.38861 11.005 8.39004 11.007 8.39141C11.1251 8.47213 11.2444 8.55442 11.3641 8.63752C11.3869 8.65339 11.4097 8.66946 11.4326 8.68536C11.5312 8.75405 11.6299 8.82306 11.7284 8.89238C11.7608 8.91521 11.7929 8.93799 11.8252 8.96082C11.9154 9.02448 12.0054 9.08816 12.0944 9.15158C12.1277 9.17534 12.1606 9.19889 12.1937 9.22253C12.2795 9.28378 12.3647 9.34478 12.4486 9.40507C12.485 9.43124 12.5208 9.45708 12.5567 9.48302C12.6352 9.53959 12.7128 9.59568 12.7887 9.65073C12.8269 9.67833 12.8644 9.7056 12.9017 9.73276C12.9719 9.78379 13.0409 9.83404 13.1081 9.88314C13.1472 9.91169 13.1859 9.93995 13.2238 9.96776C13.291 10.0169 13.3566 10.0651 13.4199 10.1116C13.4495 10.1334 13.4792 10.1552 13.5079 10.1763C13.5712 10.2229 13.6316 10.2675 13.6899 10.3106C13.7182 10.3316 13.7471 10.3529 13.7742 10.3729C13.8297 10.4141 13.8817 10.4527 13.9315 10.4897C13.955 10.5072 13.98 10.5257 14.0022 10.5422C14.0502 10.578 14.0937 10.6104 14.1348 10.6411C14.1515 10.6536 14.1702 10.6675 14.1857 10.6791C14.2353 10.7162 14.2797 10.7494 14.3162 10.7768C14.318 10.7781 14.3205 10.78 14.3222 10.7813C14.3542 10.8054 14.3765 10.8221 14.397 10.8376C14.4279 10.8608 14.4501 10.8776 14.4522 10.8791C14.6456 11.0254 14.9176 11.008 15.09 10.8363L16.0213 9.91163C16.1938 9.74062 16.2143 9.46885 16.069 9.27425L14.2421 6.82046C15.3044 7.30802 16.3472 8.04426 17.2756 8.97247C18.5966 10.2932 19.5336 11.8524 19.9147 13.3656C20.1162 14.1461 20.161 14.8654 20.0481 15.503C20.0191 15.6657 20.0748 15.832 20.1953 15.9446L24.1954 19.682L23.4548 20.3752L21.789 21.932L18.124 18.0154C18.0823 17.9708 18.0318 17.9387 17.9784 17.913C17.9675 17.9077 17.9574 17.9022 17.9462 17.8977C17.8937 17.8771 17.8385 17.8654 17.7814 17.8637C17.7767 17.8635 17.7725 17.8609 17.7677 17.8609C17.7391 17.8609 17.7101 17.8635 17.6815 17.8685C17.4595 17.9085 17.227 17.9278 16.9708 17.9278C15.1005 17.9278 12.9254 16.8693 11.1528 15.0969C10.222 14.1616 9.48409 13.1171 8.99628 12.0584L11.4534 13.8893C11.6487 14.0346 11.9203 14.0146 12.0913 13.8419L13.0159 12.9106C13.1869 12.7382 13.205 12.4662 13.0583 12.2723C13.0546 12.2674 12.9812 12.1703 12.8575 12.005C12.8554 12.0023 12.8529 11.9989 12.8508 11.9962C12.8135 11.9463 12.7713 11.8898 12.7256 11.8284C12.7129 11.8115 12.6986 11.7921 12.6853 11.7744C12.6476 11.7237 12.608 11.6705 12.5658 11.6136C12.5437 11.5837 12.5197 11.5512 12.4964 11.5198C12.4589 11.4691 12.4206 11.4174 12.3803 11.3628C12.3488 11.3201 12.3159 11.2754 12.283 11.2306C12.2514 11.1877 12.2195 11.1443 12.1867 11.0997C12.1441 11.0416 12.1001 10.9815 12.0557 10.9207C12.0247 10.8783 11.9935 10.8356 11.9617 10.7921C11.918 10.7322 11.8735 10.6708 11.8285 10.6089C11.7947 10.5623 11.7606 10.5152 11.7262 10.4677C11.6789 10.4024 11.6312 10.3362 11.583 10.2693C11.5506 10.2242 11.5179 10.1787 11.4851 10.133C11.4344 10.0624 11.3835 9.99128 11.3324 9.91949C11.3015 9.8762 11.2705 9.83261 11.2396 9.78903C11.1868 9.71471 11.134 9.64019 11.0812 9.56531C11.0488 9.51943 11.0166 9.47349 10.9843 9.42752C10.9346 9.3566 10.8848 9.28568 10.8355 9.21479C10.801 9.16522 10.767 9.11591 10.7328 9.06652C10.6842 8.99625 10.6356 8.92602 10.5878 8.85638C10.5554 8.80904 10.5239 8.76248 10.492 8.71558C10.4452 8.6469 10.3984 8.57809 10.353 8.51056C10.3188 8.45977 10.2862 8.41044 10.253 8.36048C10.2115 8.29828 10.1697 8.23567 10.1298 8.17499C10.1258 8.16883 10.1221 8.16308 10.1181 8.15695C10.1524 8.11306 10.1888 8.06394 10.2222 8.02234ZM9.49552 8.98414C9.61012 9.15539 9.72954 9.33079 9.85125 9.50764C9.88121 9.55117 9.91196 9.59482 9.94218 9.63849C10.0387 9.77792 10.1353 9.91708 10.2334 10.0565C10.2897 10.1366 10.3453 10.2147 10.4016 10.2942C10.4741 10.3964 10.5457 10.4975 10.6175 10.5979C10.6808 10.6865 10.7421 10.7716 10.8043 10.858C10.8665 10.9443 10.9272 11.0285 10.9877 11.112C11.0529 11.2019 11.1155 11.2882 11.1781 11.374C11.2327 11.4488 11.2842 11.5193 11.3363 11.5904C11.3968 11.6729 11.4555 11.7531 11.512 11.8298C11.5626 11.8986 11.6077 11.9594 11.6547 12.0229C11.704 12.0895 11.7541 12.1575 11.7988 12.2176C11.8837 12.332 11.9607 12.4352 12.026 12.5226L11.6968 12.8542L8.52277 10.489C8.82193 9.97523 9.14634 9.47313 9.49552 8.98414ZM24.9967 39.0244C14.5084 39.0244 5.97561 30.4916 5.97561 20.0033C5.97561 17.1141 6.60966 14.3317 7.83108 11.7933C7.85484 11.8576 7.88372 11.9218 7.90917 11.9861C7.93776 12.0582 7.96607 12.13 7.99671 12.202C8.05661 12.3429 8.12167 12.4832 8.18937 12.6234C8.2164 12.6794 8.24112 12.7355 8.26937 12.7914C8.36753 12.9853 8.47231 13.1783 8.58485 13.37C8.60834 13.41 8.63475 13.4493 8.65886 13.4892C8.75122 13.642 8.84703 13.794 8.9482 13.9447C8.99215 14.0101 9.03841 14.0747 9.08397 14.1397C9.17221 14.2655 9.26284 14.3904 9.35705 14.5142C9.40826 14.5816 9.45994 14.6486 9.51288 14.7153C9.61304 14.8415 9.71686 14.9659 9.823 15.0895C9.87245 15.1471 9.92042 15.2051 9.97112 15.2621C10.1293 15.4397 10.2919 15.615 10.4621 15.786C12.2464 17.5697 14.4291 18.6852 16.4127 18.8662C16.3629 19.2453 16.3286 19.6254 16.3286 20.0033C16.3286 21.9391 16.9816 23.8061 18.1637 25.32L13.8038 29.3945C13.1755 29.9807 12.8216 30.7765 12.8068 31.6351C12.7915 32.4938 13.1179 33.301 13.7248 33.9079C14.3178 34.5012 15.1067 34.828 15.9456 34.828C16.8135 34.828 17.6496 34.4636 18.2384 33.8293L23.2356 28.482C23.8156 28.6007 24.4063 28.6645 24.9967 28.6645C25.5374 28.6645 26.0723 28.6038 26.5965 28.5052L31.5806 33.8355C32.1665 34.4638 32.9611 34.818 33.8176 34.8328C33.8362 34.8333 33.8553 34.8335 33.8739 34.8335C33.8947 34.8335 33.9151 34.831 33.9358 34.8306C34.6209 34.8259 35.275 34.5873 35.8104 34.1615C35.8892 34.0991 35.9655 34.0325 36.039 33.962C36.0585 33.9477 36.0771 33.932 36.0942 33.9146C36.6987 33.3103 37.0236 32.506 37.0103 31.6494C36.9965 30.7889 36.6435 29.9907 36.0156 29.4017L31.7513 25.4138C32.9835 23.8805 33.6643 21.9804 33.6643 20.0033C33.6643 19.608 33.6281 19.2214 33.5758 18.8408C35.51 18.6206 37.6286 17.5135 39.3502 15.786C39.5344 15.6019 39.7097 15.4117 39.8801 15.2187C39.9312 15.1609 39.9797 15.1021 40.0295 15.0435C40.1491 14.9029 40.2651 14.7608 40.3771 14.6165C40.4274 14.5518 40.4773 14.4872 40.526 14.4218C40.644 14.2633 40.7566 14.103 40.865 13.9411C40.8957 13.8953 40.9285 13.8503 40.9584 13.8042C41.0931 13.5968 41.2196 13.3874 41.3379 13.1762C41.3653 13.1273 41.3893 13.078 41.4157 13.0289C41.5043 12.8648 41.5882 12.7002 41.6663 12.5348C41.6994 12.4648 41.7307 12.3949 41.7619 12.3248C41.8298 12.1718 41.8925 12.0188 41.9511 11.8655C41.9761 11.8001 42.0024 11.7349 42.0257 11.6695C42.0363 11.6396 42.0496 11.6098 42.0598 11.5799C43.3479 14.1842 44.0244 17.0717 44.0244 20.0033C44.0244 30.4916 35.4888 39.0244 24.9967 39.0244Z" fill="white"/>
</svg>
