<svg width="35" height="37" viewBox="0 0 35 37" fill="none" xmlns="http://www.w3.org/2000/svg">
<path d="M19.0753 27.8814H7.22558C7.101 27.8814 7 27.7781 7 27.6504V0.231297C7 0.103586 7.101 0.000244141 7.22558 0.000244141H22.5785C22.7031 0.000244141 22.8041 0.103586 22.8041 0.231297C22.8041 0.359008 22.7031 0.46235 22.5785 0.46235H7.45116V27.4193H19.0753C19.1999 27.4193 19.3009 27.5226 19.3009 27.6504C19.3009 27.7781 19.1999 27.8814 19.0753 27.8814Z" fill="white"/>
<path d="M26.7743 27.8813H22.5944C22.4698 27.8813 22.3688 27.778 22.3688 27.6503C22.3688 27.5226 22.4698 27.4192 22.5944 27.4192H26.5487V4.3209C26.5487 4.19319 26.6497 4.08984 26.7743 4.08984C26.8989 4.08984 26.9999 4.19319 26.9999 4.3209V27.6503C26.9999 27.778 26.8989 27.8813 26.7743 27.8813Z" fill="white"/>
<path d="M26.7743 4.55189H22.5785C22.4539 4.55189 22.3529 4.44854 22.3529 4.32083V0.231146C22.3529 0.138634 22.4067 0.0551482 22.4896 0.0188205C22.5721 -0.0177328 22.6685 -0.00013307 22.734 0.0637224L26.9298 4.15341C26.9967 4.21862 27.0181 4.3188 26.9838 4.40657C26.9496 4.49435 26.8666 4.55189 26.7743 4.55189ZM22.8041 4.08978H26.21L22.8041 0.769969V4.08978Z" fill="white"/>
<path d="M19.6317 3.6977H9.255C9.13042 3.6977 9.02942 3.59436 9.02942 3.46665C9.02942 3.33894 9.13042 3.2356 9.255 3.2356H19.6317C19.7563 3.2356 19.8573 3.33894 19.8573 3.46665C19.8573 3.59436 19.7563 3.6977 19.6317 3.6977Z" fill="white"/>
<path d="M23.5417 7.31758H9.255C9.13042 7.31758 9.02942 7.21423 9.02942 7.08652C9.02942 6.95881 9.13042 6.85547 9.255 6.85547H23.5417C23.6663 6.85547 23.7673 6.95881 23.7673 7.08652C23.7673 7.21423 23.6663 7.31758 23.5417 7.31758Z" fill="white"/>
<path d="M23.5417 10.9374H9.255C9.13042 10.9374 9.02942 10.8341 9.02942 10.7064C9.02942 10.5787 9.13042 10.4753 9.255 10.4753H23.5417C23.6663 10.4753 23.7673 10.5787 23.7673 10.7064C23.7673 10.8341 23.6663 10.9374 23.5417 10.9374Z" fill="white"/>
<path d="M23.5417 14.5571H9.255C9.13042 14.5571 9.02942 14.4537 9.02942 14.326C9.02942 14.1983 9.13042 14.095 9.255 14.095H23.5417C23.6663 14.095 23.7673 14.1983 23.7673 14.326C23.7673 14.4537 23.6663 14.5571 23.5417 14.5571Z" fill="white"/>
<path d="M19.7163 25.909C19.6361 25.909 19.5557 25.8977 19.4753 25.8711C19.1721 25.7702 18.9872 25.4895 18.8239 25.242C18.7206 25.0854 18.623 24.9374 18.5144 24.8564C18.4034 24.7736 18.2341 24.7235 18.0549 24.6702C17.7765 24.5877 17.4612 24.494 17.2761 24.2339C17.093 23.9757 17.1029 23.6413 17.1117 23.3462C17.1174 23.1535 17.1228 22.9714 17.0794 22.8347C17.0392 22.7079 16.9336 22.5695 16.8218 22.4229C16.641 22.1857 16.436 21.917 16.436 21.5849C16.436 21.2527 16.641 20.984 16.8218 20.7468C16.9336 20.6002 17.0392 20.4619 17.0794 20.3351C17.1227 20.1983 17.1173 20.0165 17.1116 19.8238C17.1029 19.5286 17.0928 19.1942 17.2761 18.9363C17.4612 18.6757 17.7765 18.5823 18.0546 18.4997C18.234 18.4465 18.4034 18.3962 18.5143 18.3133C18.6229 18.2326 18.7204 18.0845 18.8237 17.928C18.9869 17.6804 19.1721 17.3997 19.4753 17.2989C19.7664 17.2016 20.0581 17.309 20.3402 17.4128C20.5201 17.4789 20.6899 17.5414 20.8349 17.5414C20.9799 17.5414 21.1498 17.4789 21.3298 17.4128C21.6116 17.309 21.903 17.2016 22.1945 17.2989C22.4976 17.3997 22.6828 17.6804 22.846 17.928C22.9494 18.0845 23.0468 18.2326 23.1553 18.3133C23.2664 18.3962 23.4356 18.4462 23.6148 18.4995C23.8931 18.5821 24.2086 18.6757 24.3936 18.9363C24.5769 19.194 24.567 19.5286 24.5582 19.8238C24.5524 20.0165 24.547 20.1983 24.5903 20.3351C24.6305 20.4616 24.7362 20.6002 24.848 20.7468C25.0287 20.984 25.2337 21.2527 25.2337 21.5849C25.2337 21.917 25.0287 22.1857 24.848 22.4229C24.7362 22.5695 24.6305 22.7081 24.5903 22.8347C24.547 22.9714 24.5524 23.1533 24.5582 23.346C24.567 23.6411 24.577 23.9757 24.3937 24.2336C24.2087 24.494 23.8932 24.5877 23.6149 24.6702C23.4357 24.7235 23.2664 24.7736 23.1554 24.8564C23.0468 24.9374 22.9494 25.0852 22.846 25.2418C22.6828 25.4893 22.4978 25.77 22.1945 25.8709C21.9033 25.9677 21.6115 25.8607 21.3296 25.7569C21.1498 25.6908 20.9799 25.6283 20.8349 25.6283C20.6898 25.6283 20.52 25.6908 20.3401 25.7569C20.136 25.832 19.9268 25.909 19.7163 25.909ZM19.7165 17.7235C19.68 17.7235 19.6458 17.728 19.6147 17.7384C19.459 17.7901 19.332 17.9828 19.1975 18.1865C19.077 18.3693 18.9525 18.5584 18.7799 18.687C18.6049 18.8174 18.3891 18.8815 18.1802 18.9435C17.9513 19.0115 17.7351 19.0755 17.6409 19.208C17.5485 19.3382 17.5554 19.5672 17.5625 19.8098C17.5692 20.0334 17.5761 20.2647 17.5085 20.4777C17.4438 20.6821 17.3083 20.8597 17.1773 21.0314C17.0281 21.227 16.8872 21.4118 16.8872 21.5849C16.8872 21.7579 17.0281 21.9427 17.1773 22.1384C17.3083 22.3101 17.4438 22.4876 17.5085 22.6921C17.5762 22.9051 17.5692 23.1366 17.5626 23.3602C17.5554 23.6027 17.5485 23.8318 17.6409 23.962C17.735 24.0942 17.9513 24.1585 18.1803 24.2264C18.3891 24.2882 18.6049 24.3523 18.7799 24.4827C18.9526 24.6113 19.0771 24.8004 19.1978 24.9834C19.3321 25.1872 19.4591 25.3799 19.6147 25.4315C19.7591 25.4801 19.9674 25.4033 20.1875 25.3221C20.3959 25.2454 20.6113 25.1662 20.8349 25.1662C21.0585 25.1662 21.2738 25.2454 21.4821 25.3219C21.7024 25.4031 21.9106 25.4798 22.0552 25.4313C22.2108 25.3796 22.3377 25.1869 22.4722 24.9832C22.5927 24.8004 22.7174 24.6113 22.89 24.4827C23.0649 24.3523 23.2807 24.2882 23.4893 24.2264C23.7184 24.1585 23.9347 24.0942 24.0289 23.9617C24.1213 23.8315 24.1145 23.6025 24.1072 23.3602C24.1005 23.1364 24.0937 22.9051 24.1612 22.6921C24.226 22.4876 24.3614 22.3101 24.4924 22.1384C24.6416 21.9427 24.7825 21.7579 24.7825 21.5849C24.7825 21.4118 24.6416 21.227 24.4924 21.0314C24.3614 20.8597 24.226 20.6821 24.1612 20.4777C24.0937 20.2647 24.1005 20.0334 24.1072 19.8098C24.1145 19.5672 24.1212 19.3382 24.0289 19.2082C23.9346 19.0755 23.7183 19.0112 23.4892 18.9433C23.2806 18.8815 23.0648 18.8174 22.8899 18.687C22.7173 18.5584 22.5927 18.3693 22.4722 18.1865C22.3377 17.9828 22.2107 17.7901 22.0552 17.7384C21.9101 17.6897 21.7023 17.7668 21.4822 17.8476C21.2738 17.9243 21.0585 18.0035 20.8349 18.0035C20.6114 18.0035 20.396 17.9243 20.1878 17.8479C20.0149 17.7842 19.8496 17.7235 19.7165 17.7235Z" fill="white"/>
<path d="M20.8348 24.2132C19.4199 24.2132 18.2688 23.0343 18.2688 21.585C18.2688 20.1357 19.4199 18.9568 20.8348 18.9568C22.2496 18.9568 23.4008 20.1357 23.4008 21.585C23.4008 23.0343 22.2496 24.2132 20.8348 24.2132ZM20.8348 19.4189C19.6687 19.4189 18.72 20.3907 18.72 21.585C18.72 22.7793 19.6687 23.7511 20.8348 23.7511C22.0009 23.7511 22.9496 22.7793 22.9496 21.585C22.9496 20.3907 22.0009 19.4189 20.8348 19.4189Z" fill="white"/>
<path d="M22.5944 29.9999C22.5456 29.9999 22.497 29.9837 22.4568 29.9521L20.8348 28.6741L19.2129 29.9521C19.1445 30.0053 19.0525 30.0146 18.9756 29.9762C18.8985 29.9372 18.8497 29.8569 18.8497 29.7689V25.2103C18.8497 25.0826 18.9507 24.9792 19.0753 24.9792C19.1999 24.9792 19.3009 25.0826 19.3009 25.2103V29.2995L20.6972 28.1993C20.7783 28.1357 20.8913 28.1357 20.9724 28.1993L22.3688 29.2995V25.2103C22.3688 25.0826 22.4698 24.9792 22.5944 24.9792C22.719 24.9792 22.82 25.0826 22.82 25.2103V29.7689C22.82 29.8569 22.7712 29.9372 22.6941 29.9762C22.6625 29.992 22.6283 29.9999 22.5944 29.9999Z" fill="white"/>
<path d="M20.4307 22.5142C20.373 22.5142 20.3153 22.4916 20.2712 22.4465L19.7166 21.8785C19.6285 21.7883 19.6285 21.6421 19.7166 21.5518C19.8047 21.4616 19.9475 21.4616 20.0356 21.5518L20.4307 21.9564L21.634 20.7239C21.7222 20.6337 21.8649 20.6337 21.953 20.7239C22.0411 20.8142 22.0411 20.9604 21.953 21.0507L20.5902 22.4465C20.5461 22.4916 20.4884 22.5142 20.4307 22.5142Z" fill="white"/>
<line y1="36" x2="35" y2="36" stroke="#E05B23" stroke-width="2"/>
</svg>
