<svg width="35" height="38" viewBox="0 0 35 38" fill="none" xmlns="http://www.w3.org/2000/svg">
<path d="M18.5754 29H14.4243C14.3078 29 14.2108 28.9101 14.2019 28.7938L13.9109 24.9653C12.8584 24.706 11.8574 24.2913 10.9307 23.7309L8.01763 26.2322C7.92918 26.3079 7.79695 26.303 7.7146 26.2207L4.77931 23.2854C4.69675 23.2029 4.69174 23.0708 4.76777 22.9824L7.2691 20.0693C6.70858 19.1425 6.29401 18.1416 6.03456 17.0892L2.20608 16.798C2.08975 16.7892 2 16.6922 2 16.5756V12.4244C2 12.3078 2.08975 12.2108 2.20608 12.202L6.03456 11.9108C6.29401 10.8584 6.70858 9.85754 7.2691 8.9307L4.76777 6.01763C4.69174 5.92918 4.69675 5.79706 4.77931 5.7146L7.7146 2.77931C7.79695 2.69675 7.92918 2.69185 8.01763 2.76777L10.9307 5.2691C11.8574 4.70869 12.8584 4.29401 13.9109 4.03466L14.2019 0.206194C14.2108 0.0898625 14.3078 0 14.4243 0H18.5754C18.692 0 18.7889 0.0898625 18.7979 0.206194L19.0891 4.03466C20.1411 4.29401 21.1421 4.70869 22.0693 5.2691L24.9824 2.76777C25.0706 2.69185 25.2028 2.69675 25.2854 2.77931L28.2207 5.7146C28.3033 5.79706 28.3083 5.92918 28.2322 6.01763L25.7309 8.9307C26.2914 9.85787 26.7062 10.859 26.9654 11.9108L30.7939 12.202C30.9102 12.2108 31 12.3078 31 12.4244V16.5756C31 16.6922 30.9102 16.7892 30.7939 16.798L26.9654 17.0892C26.7062 18.141 26.2914 19.1421 25.7309 20.0693L28.2322 22.9824C28.3083 23.0708 28.3033 23.2029 28.2207 23.2854L25.2854 26.2207C25.2028 26.303 25.0706 26.3079 24.9824 26.2322L22.0693 23.7309C21.1421 24.2913 20.1411 24.706 19.0891 24.9653L18.7979 28.7938C18.7889 28.9101 18.692 29 18.5754 29ZM14.6311 28.5538H18.3687L18.6567 24.7693C18.6641 24.6719 18.7338 24.5907 18.829 24.5687C19.9446 24.3117 21.0023 23.8735 21.9728 23.2666C22.0556 23.2148 22.1623 23.2228 22.2364 23.2864L25.1161 25.7591L27.7591 23.1161L25.2863 20.2364C25.2227 20.1623 25.2146 20.0556 25.2664 19.9728C25.8736 19.0022 26.3117 17.9444 26.5687 16.829C26.5907 16.7339 26.672 16.6641 26.7692 16.6567L30.5538 16.3688V12.6312L26.7692 12.3433C26.672 12.3359 26.5907 12.2661 26.5687 12.171C26.3117 11.0556 25.8736 9.99783 25.2664 9.02721C25.2146 8.94443 25.2227 8.83768 25.2863 8.76361L27.7591 5.88387L25.1161 3.24093L22.2364 5.71362C22.1623 5.77713 22.0556 5.78519 21.9728 5.73345C21.0023 5.12652 19.9446 4.68832 18.829 4.43126C18.7338 4.40926 18.6641 4.32811 18.6567 4.23073L18.3687 0.446154H14.6311L14.3433 4.23073C14.3359 4.32811 14.2662 4.40926 14.171 4.43126C13.0549 4.68843 11.9973 5.12652 11.0272 5.73345C10.9446 5.78519 10.8375 5.77713 10.7636 5.71362L7.88387 3.24093L5.24093 5.88387L7.71373 8.76361C7.77734 8.83768 7.7854 8.94454 7.73356 9.02721C7.12641 9.99729 6.68832 11.0551 6.43126 12.171C6.40926 12.2661 6.328 12.3359 6.23084 12.3433L2.44615 12.6312V16.3688L6.23084 16.6567C6.328 16.6641 6.40926 16.7339 6.43126 16.829C6.68832 17.9449 7.12641 19.0027 7.73356 19.9728C7.7854 20.0555 7.77734 20.1623 7.71373 20.2364L5.24093 23.1161L7.88387 25.7591L10.7636 23.2864C10.8375 23.2228 10.9446 23.2148 11.0272 23.2666C11.9973 23.8735 13.0549 24.3116 14.171 24.5687C14.2662 24.5907 14.3359 24.6719 14.3433 24.7693L14.6311 28.5538ZM30.7769 16.5756H30.7791H30.7769Z" fill="white"/>
<path d="M16.5004 23.2665C11.6667 23.2665 7.73413 19.334 7.73413 14.5002C7.73413 9.66662 11.6667 5.73413 16.5004 5.73413C21.334 5.73413 25.2664 9.66662 25.2664 14.5002C25.2664 19.334 21.334 23.2665 16.5004 23.2665ZM16.5004 6.18028C11.9127 6.18028 8.18028 9.91258 8.18028 14.5002C8.18028 19.0879 11.9127 22.8203 16.5004 22.8203C21.088 22.8203 24.8202 19.0879 24.8202 14.5002C24.8202 9.91258 21.088 6.18028 16.5004 6.18028Z" fill="white"/>
<path d="M16.5001 9.16505C16.3768 9.16505 16.277 9.06517 16.277 8.94198V7.67791C16.277 7.55472 16.3768 7.45483 16.5001 7.45483C16.6234 7.45483 16.7231 7.55472 16.7231 7.67791V8.94198C16.7231 9.06517 16.6234 9.16505 16.5001 9.16505Z" fill="white"/>
<path d="M16.5001 21.5464C16.3768 21.5464 16.277 21.4465 16.277 21.3233V20.0593C16.277 19.9361 16.3768 19.8362 16.5001 19.8362C16.6234 19.8362 16.7231 19.9361 16.7231 20.0593V21.3233C16.7231 21.4465 16.6234 21.5464 16.5001 21.5464Z" fill="white"/>
<path d="M20.43 10.7924C20.3729 10.7924 20.3158 10.7706 20.2723 10.727C20.1851 10.6399 20.1851 10.4986 20.2723 10.4116L21.1663 9.51775C21.2535 9.43061 21.3946 9.43061 21.4818 9.51775C21.5689 9.60489 21.5689 9.74616 21.4818 9.83319L20.5877 10.727C20.5441 10.7706 20.4871 10.7924 20.43 10.7924Z" fill="white"/>
<path d="M11.6755 19.5482C11.6184 19.5482 11.5613 19.5265 11.5177 19.4829C11.4306 19.3957 11.4306 19.2546 11.5177 19.1674L12.4116 18.2736C12.4987 18.1865 12.6399 18.1865 12.727 18.2736C12.8142 18.3607 12.8142 18.5019 12.727 18.5891L11.8332 19.4829C11.7896 19.5265 11.7325 19.5482 11.6755 19.5482Z" fill="white"/>
<path d="M21.324 19.5482C21.267 19.5482 21.2099 19.5265 21.1663 19.4829L20.2723 18.5891C20.1851 18.502 20.1851 18.3607 20.2723 18.2736C20.3594 18.1865 20.5006 18.1865 20.5877 18.2736L21.4818 19.1674C21.5689 19.2545 21.5689 19.3957 21.4818 19.4829C21.4382 19.5265 21.3811 19.5482 21.324 19.5482Z" fill="white"/>
<path d="M12.5693 10.7924C12.5122 10.7924 12.4551 10.7706 12.4116 10.727L11.5177 9.83319C11.4306 9.74605 11.4306 9.60489 11.5177 9.51775C11.6049 9.43061 11.7461 9.43061 11.8332 9.51775L12.727 10.4116C12.8142 10.4987 12.8142 10.6399 12.727 10.727C12.6835 10.7706 12.6264 10.7924 12.5693 10.7924Z" fill="white"/>
<path d="M23.3222 14.722H22.0583C21.935 14.722 21.8352 14.6221 21.8352 14.499C21.8352 14.3758 21.935 14.2759 22.0583 14.2759H23.3222C23.4455 14.2759 23.5453 14.3758 23.5453 14.499C23.5453 14.6221 23.4455 14.722 23.3222 14.722Z" fill="white"/>
<path d="M10.9419 14.722H9.67791C9.55461 14.722 9.45483 14.6221 9.45483 14.499C9.45483 14.3758 9.55461 14.2759 9.67791 14.2759H10.9419C11.0652 14.2759 11.1649 14.3758 11.1649 14.499C11.1649 14.6221 11.0652 14.722 10.9419 14.722Z" fill="white"/>
<path d="M16.4996 15.2332C15.9616 15.2332 15.5237 14.7954 15.5237 14.2572C15.5237 13.719 15.9616 13.2812 16.4996 13.2812C17.0377 13.2812 17.4756 13.719 17.4756 14.2572C17.4756 14.7954 17.0377 15.2332 16.4996 15.2332ZM16.4996 13.7274C16.2075 13.7274 15.9698 13.9651 15.9698 14.2572C15.9698 14.5493 16.2075 14.787 16.4996 14.787C16.7918 14.787 17.0295 14.5493 17.0295 14.2572C17.0295 13.9651 16.7918 13.7274 16.4996 13.7274Z" fill="white"/>
<path d="M16.5001 13.727C16.3768 13.727 16.277 13.6271 16.277 13.5039V10.2414C16.277 10.1182 16.3768 10.0183 16.5001 10.0183C16.6234 10.0183 16.7231 10.1182 16.7231 10.2414V13.5039C16.7231 13.6271 16.6234 13.727 16.5001 13.727Z" fill="white"/>
<path d="M13.8133 16.2798C13.7438 16.2798 13.6754 16.2474 13.6318 16.1868C13.5599 16.0867 13.583 15.9472 13.683 15.8755L15.7033 14.4261C15.8033 14.3543 15.9427 14.3772 16.0146 14.4773C16.0865 14.5774 16.0634 14.7168 15.9634 14.7886L13.9431 16.238C13.9037 16.2662 13.8584 16.2798 13.8133 16.2798Z" fill="white"/>
<line y1="37" x2="35" y2="37" stroke="#E05B23" stroke-width="2"/>
</svg>
