<svg width="35" height="39" viewBox="0 0 35 39" fill="none" xmlns="http://www.w3.org/2000/svg">
<path d="M23.5405 15.7533H12.4589C12.3315 15.7533 12.2281 15.6516 12.2281 15.526C12.2281 15.4005 12.3315 15.2988 12.4589 15.2988H23.5405C23.6679 15.2988 23.7712 15.4005 23.7712 15.526C23.7712 15.6516 23.6679 15.7533 23.5405 15.7533Z" fill="white"/>
<path d="M30.058 27.0002H5.94256C5.25803 27.0002 4.70105 26.4519 4.70105 25.7778V15.526C4.70105 15.4005 4.80438 15.2988 4.93182 15.2988H9.80558C9.93303 15.2988 10.0364 15.4005 10.0364 15.526C10.0364 15.6516 9.93303 15.7533 9.80558 15.7533H5.16259V25.7778C5.16259 26.2012 5.51246 26.5458 5.94256 26.5458H30.058C30.4868 26.5458 30.8357 26.2012 30.8357 25.7778V15.7533H26.1948C26.0674 15.7533 25.9641 15.6516 25.9641 15.526C25.9641 15.4005 26.0674 15.2988 26.1948 15.2988H31.0665C31.1939 15.2988 31.2972 15.4005 31.2972 15.526V25.7778C31.2972 26.4519 30.7413 27.0002 30.058 27.0002Z" fill="white"/>
<path d="M23.5405 15.7533H12.4589C12.3315 15.7533 12.2281 15.6516 12.2281 15.526C12.2281 15.4005 12.3315 15.2988 12.4589 15.2988H23.5405C23.6679 15.2988 23.7712 15.4005 23.7712 15.526C23.7712 15.6516 23.6679 15.7533 23.5405 15.7533Z" fill="white"/>
<path d="M31.4168 15.7556H26.1946C26.0671 15.7556 25.9638 15.6539 25.9638 15.5284C25.9638 15.4028 26.0671 15.3012 26.1946 15.3012H31.4168C32.0353 15.3012 32.5385 14.8057 32.5385 14.1968V5.38574C32.5385 5.08997 32.2941 4.84944 31.9938 4.84944H4.00612C3.70583 4.84944 3.46154 5.08997 3.46154 5.38574V14.1968C3.46154 14.8057 3.96466 15.3012 4.58305 15.3012H9.80533C9.93277 15.3012 10.0361 15.4028 10.0361 15.5284C10.0361 15.6539 9.93277 15.7556 9.80533 15.7556H4.58305C3.71011 15.7556 3 15.0564 3 14.1968V5.38574C3 4.83946 3.4514 4.39502 4.00612 4.39502H31.9938C32.5486 4.39502 33 4.83946 33 5.38574V14.1968C33 15.0564 32.2898 15.7556 31.4168 15.7556Z" fill="white"/>
<path d="M24.8688 18.4216C24.0099 18.4216 23.3112 17.7335 23.3112 16.8879V14.3318C23.3112 13.4862 24.0099 12.7981 24.8688 12.7981C25.7278 12.7981 26.4265 13.4862 26.4265 14.3318V16.8879C26.4265 17.7335 25.7278 18.4216 24.8688 18.4216ZM24.8688 13.2525C24.2644 13.2525 23.7727 13.7367 23.7727 14.3318V16.8879C23.7727 17.483 24.2644 17.9671 24.8688 17.9671C25.4733 17.9671 25.965 17.483 25.965 16.8879V14.3318C25.965 13.7367 25.4733 13.2525 24.8688 13.2525Z" fill="white"/>
<path d="M11.133 18.4216C10.274 18.4216 9.57532 17.7335 9.57532 16.8879V14.3318C9.57532 13.4862 10.274 12.7981 11.133 12.7981C11.992 12.7981 12.6907 13.4862 12.6907 14.3318V16.8879C12.6907 17.7335 11.992 18.4216 11.133 18.4216ZM11.133 13.2525C10.5286 13.2525 10.0369 13.7367 10.0369 14.3318V16.8879C10.0369 17.483 10.5286 17.9671 11.133 17.9671C11.7374 17.9671 12.2292 17.483 12.2292 16.8879V14.3318C12.2292 13.7367 11.7374 13.2525 11.133 13.2525Z" fill="white"/>
<path d="M23.4043 4.8471H12.5966C12.4692 4.8471 12.3658 4.74547 12.3658 4.61989V0.962097C12.3658 0.431568 12.8043 0 13.3432 0H22.6578C23.1967 0 23.6351 0.431568 23.6351 0.962097V4.61989C23.6351 4.74547 23.5318 4.8471 23.4043 4.8471ZM12.8274 4.39268H23.1736V0.962097C23.1736 0.682077 22.9422 0.454422 22.6578 0.454422H13.3432C13.0588 0.454422 12.8274 0.682077 12.8274 0.962097V4.39268Z" fill="white"/>
<path d="M21.4104 4.84583C21.2829 4.84583 21.1796 4.74421 21.1796 4.61862V2.44592C21.1796 2.29703 21.0567 2.1761 20.9055 2.1761H15.0936C14.9425 2.1761 14.8196 2.29703 14.8196 2.44592V4.61862C14.8196 4.74421 14.7162 4.84583 14.5888 4.84583C14.4614 4.84583 14.358 4.74421 14.358 4.61862V2.44592C14.358 2.04652 14.688 1.72168 15.0936 1.72168H20.9055C21.3112 1.72168 21.6411 2.04652 21.6411 2.44592V4.61862C21.6411 4.74421 21.5378 4.84583 21.4104 4.84583Z" fill="white"/>
<line y1="38" x2="35" y2="38" stroke="#E05B23" stroke-width="2"/>
</svg>
