<svg width="35" height="37" viewBox="0 0 35 37" fill="none" xmlns="http://www.w3.org/2000/svg">
<path d="M29.8077 25H5.19231C5.08601 25 5 24.914 5 24.8077V0.192308C5 0.0860126 5.08601 0 5.19231 0H29.8077C29.914 0 30 0.0860126 30 0.192308V24.8077C30 24.914 29.914 25 29.8077 25ZM5.38462 24.6154H29.6154V0.384615H5.38462V24.6154Z" fill="white"/>
<path d="M29.8077 4.95297H5.19231C5.08601 4.95297 5 4.86696 5 4.76067C5 4.65437 5.08601 4.56836 5.19231 4.56836H29.8077C29.914 4.56836 30 4.65437 30 4.76067C30 4.86696 29.914 4.95297 29.8077 4.95297Z" fill="white"/>
<path d="M27.0678 3.46135C26.4979 3.46135 26.0342 2.99767 26.0342 2.4277C26.0342 1.85772 26.4979 1.39404 27.0678 1.39404C27.6378 1.39404 28.1015 1.85772 28.1015 2.4277C28.1015 2.99767 27.6378 3.46135 27.0678 3.46135ZM27.0678 1.77866C26.7099 1.77866 26.4188 2.06975 26.4188 2.4277C26.4188 2.78565 26.7099 3.07674 27.0678 3.07674C27.4258 3.07674 27.7169 2.78565 27.7169 2.4277C27.7169 2.06975 27.4258 1.77866 27.0678 1.77866Z" fill="white"/>
<path d="M24.1291 3.46135C23.5591 3.46135 23.0955 2.99767 23.0955 2.4277C23.0955 1.85772 23.5591 1.39404 24.1291 1.39404C24.6991 1.39404 25.1628 1.85772 25.1628 2.4277C25.1628 2.99767 24.6991 3.46135 24.1291 3.46135ZM24.1291 1.77866C23.7712 1.77866 23.4801 2.06975 23.4801 2.4277C23.4801 2.78565 23.7712 3.07674 24.1291 3.07674C24.4871 3.07674 24.7782 2.78565 24.7782 2.4277C24.7782 2.06975 24.4871 1.77866 24.1291 1.77866Z" fill="white"/>
<path d="M21.1901 3.46477C20.6202 3.46477 20.1565 3.00109 20.1565 2.43112C20.1565 1.86114 20.6202 1.39746 21.1901 1.39746C21.7601 1.39746 22.2238 1.86114 22.2238 2.43112C22.2238 3.00109 21.7601 3.46477 21.1901 3.46477ZM21.1901 1.78208C20.8322 1.78208 20.5411 2.07317 20.5411 2.43112C20.5411 2.78906 20.8322 3.08015 21.1901 3.08015C21.5481 3.08015 21.8392 2.78906 21.8392 2.43112C21.8392 2.07317 21.5481 1.78208 21.1901 1.78208Z" fill="white"/>
<path d="M17.9806 2.62046H7.09123C6.98494 2.62046 6.89893 2.53444 6.89893 2.42815C6.89893 2.32185 6.98494 2.23584 7.09123 2.23584H17.9806C18.0869 2.23584 18.173 2.32185 18.173 2.42815C18.173 2.53444 18.0869 2.62046 17.9806 2.62046Z" fill="white"/>
<path d="M25.1992 7.44956H7.89153C7.78523 7.44956 7.69922 7.36354 7.69922 7.25725C7.69922 7.15095 7.78523 7.06494 7.89153 7.06494H25.1992C25.3055 7.06494 25.3915 7.15095 25.3915 7.25725C25.3915 7.36354 25.3055 7.44956 25.1992 7.44956Z" fill="white"/>
<path d="M25.1992 11.6668H7.89153C7.78523 11.6668 7.69922 11.5808 7.69922 11.4745C7.69922 11.3682 7.78523 11.2822 7.89153 11.2822H25.1992C25.3055 11.2822 25.3915 11.3682 25.3915 11.4745C25.3915 11.5808 25.3055 11.6668 25.1992 11.6668Z" fill="white"/>
<path d="M17.1846 15.8797H7.89153C7.78523 15.8797 7.69922 15.7937 7.69922 15.6874C7.69922 15.5811 7.78523 15.4951 7.89153 15.4951H17.1846C17.2909 15.4951 17.377 15.5811 17.377 15.6874C17.377 15.7937 17.2909 15.8797 17.1846 15.8797Z" fill="white"/>
<path d="M17.1846 20.096H7.89153C7.78523 20.096 7.69922 20.01 7.69922 19.9037C7.69922 19.7974 7.78523 19.7114 7.89153 19.7114H17.1846C17.2909 19.7114 17.377 19.7974 17.377 19.9037C17.377 20.01 17.2909 20.096 17.1846 20.096Z" fill="white"/>
<path d="M23.3637 21.6597C21.1944 21.6597 19.4294 19.8947 19.4294 17.7254C19.4294 15.556 21.1944 13.791 23.3637 13.791C25.5331 13.791 27.2981 15.556 27.2981 17.7254C27.2981 19.8947 25.5331 21.6597 23.3637 21.6597ZM23.3637 14.1756C21.4064 14.1756 19.8141 15.768 19.8141 17.7254C19.8141 19.6827 21.4064 21.275 23.3637 21.275C25.3211 21.275 26.9135 19.6827 26.9135 17.7254C26.9135 15.768 25.3211 14.1756 23.3637 14.1756Z" fill="white"/>
<path d="M22.5467 19.2975C22.4996 19.2975 22.4523 19.2802 22.4153 19.2456C21.2246 18.1309 21.2246 18.0723 21.2246 17.9754C21.2246 17.8691 21.3106 17.7831 21.4169 17.7831C21.4954 17.7831 21.5628 17.83 21.5927 17.8972C21.6708 17.9996 22.1086 18.4278 22.5426 18.8374L25.1752 16.2048C25.2503 16.1297 25.372 16.1297 25.4471 16.2048C25.5222 16.2799 25.5222 16.4016 25.4471 16.4767L22.6827 19.2411C22.6451 19.2787 22.5959 19.2975 22.5467 19.2975ZM21.6092 17.9754H21.6111H21.6092Z" fill="white"/>
<line y1="36" x2="35" y2="36" stroke="#E05B23" stroke-width="2"/>
</svg>
