<svg width="35" height="50" viewBox="0 0 35 50" fill="none" xmlns="http://www.w3.org/2000/svg">
<path d="M29.5165 41.0409C29.4366 41.0409 29.3599 41.0183 29.2938 40.9763L20.6711 35.5273C20.5788 35.4697 20.5124 35.3755 20.4886 35.2707C20.4658 35.165 20.4855 35.0519 20.5446 34.9605L24.814 28.337C24.8927 28.2158 24.9806 28.0908 25.0824 27.9531L25.1363 27.8883C25.2141 27.7961 25.2949 27.7007 25.3842 27.606C25.4773 27.5013 25.5801 27.3978 25.7056 27.2806L25.7221 27.2654C25.7792 27.2131 25.8382 27.1597 25.9046 27.1042C25.9793 27.0426 26.0735 27.0088 26.17 27.0088C26.2933 27.0088 26.4096 27.0621 26.4881 27.1565C26.6353 27.3299 26.6115 27.5886 26.4363 27.7343C26.3856 27.7764 26.3296 27.8267 26.2725 27.8803C26.2715 27.8803 26.2715 27.8803 26.2715 27.8813C26.1668 27.9777 26.0788 28.068 26.0011 28.1532L25.9939 28.1614C25.9214 28.2384 25.8497 28.3236 25.7669 28.4222L25.7441 28.4489C25.6571 28.5661 25.5782 28.6789 25.5099 28.7837L21.4665 35.056L29.3904 40.0636L33.4358 33.7933C33.9168 33.0491 34.1707 32.1877 34.1707 31.3029C34.1707 29.6953 33.3603 28.222 32.0034 27.364C31.9103 27.3044 31.8458 27.2131 31.822 27.1062C31.7983 26.9983 31.8179 26.8887 31.878 26.7961C31.9536 26.6781 32.0842 26.6072 32.2273 26.6072C32.3061 26.6072 32.3838 26.6287 32.4501 26.6718C33.244 27.1749 33.8991 27.876 34.3428 28.6993C34.7728 29.4971 35.001 30.3973 34.9999 31.3027C34.9999 32.3445 34.7004 33.3587 34.1335 34.2355L29.8662 40.8506C29.7892 40.9702 29.6586 41.0409 29.5165 41.0409Z" fill="#0B3077"/>
<path d="M20.9251 49.9999H20.9221C19.8709 49.9999 18.8459 49.7042 17.9609 49.1458C17.1638 48.6407 16.5087 47.9385 16.065 47.1153C15.6348 46.3176 15.4078 45.4174 15.4078 44.5121C15.4078 44.1167 15.4514 43.7257 15.5364 43.3479C15.6068 43.04 15.6825 42.7903 15.7758 42.5626C15.7965 42.499 15.8193 42.4477 15.8359 42.4108C15.8442 42.3933 15.8504 42.3781 15.8556 42.3657L15.8649 42.3422C15.9085 42.2458 15.952 42.1463 16.0059 42.0384C16.0163 42.0179 16.0297 41.9974 16.0443 41.9777C16.1147 41.8442 16.1925 41.71 16.2733 41.5805L16.2764 41.5753L20.5448 34.9611C20.6215 34.842 20.7521 34.771 20.8941 34.771C20.973 34.771 21.0507 34.7938 21.1168 34.8359L24.2564 36.8191C24.4491 36.9412 24.5051 37.1958 24.383 37.3867C24.3063 37.5047 24.1757 37.5766 24.0326 37.5766C23.9537 37.5766 23.8771 37.5541 23.8098 37.512L21.0205 35.7483L16.9761 42.0166C16.9014 42.1367 16.833 42.2557 16.7719 42.3718C16.7667 42.3822 16.7522 42.4097 16.7304 42.4417C16.6931 42.5176 16.6558 42.6018 16.6195 42.6839C16.6102 42.7066 16.6019 42.7259 16.5936 42.7433C16.577 42.7824 16.5646 42.8111 16.5625 42.8203L16.549 42.8594C16.4713 43.0472 16.406 43.2597 16.3459 43.5278C16.2733 43.846 16.237 44.1776 16.237 44.5123C16.237 46.1188 17.0486 47.592 18.4065 48.4533C19.1591 48.9275 20.0285 49.179 20.9231 49.179C22.5492 49.178 24.0355 48.3752 24.8989 47.0303L29.1675 40.4101C29.244 40.291 29.3748 40.22 29.5167 40.22C29.5956 40.22 29.6733 40.2428 29.7394 40.2848C29.8327 40.3433 29.8971 40.4346 29.9219 40.5426C29.9457 40.6493 29.926 40.759 29.8659 40.8515L25.5986 47.4719C25.0917 48.2603 24.3838 48.9101 23.5515 49.3505C22.7473 49.7751 21.8382 49.9999 20.9251 49.9999Z" fill="#0B3077"/>
<path d="M5.66141 36.6534C5.43338 36.6534 5.24681 36.4697 5.24681 36.2428C5.24681 36.0158 5.43338 35.8322 5.66141 35.8322H19.9808L20.5373 34.9616C20.5496 34.9432 20.5632 34.9248 20.5786 34.9083L24.8138 28.337C24.8903 28.22 24.9786 28.0938 25.0823 27.9533L25.0893 27.9438C25.1712 27.8402 25.2697 27.7192 25.3868 27.602C25.4698 27.5098 25.5817 27.3897 25.7091 27.2766L25.7226 27.2644C25.8004 27.1936 25.8886 27.1125 25.9922 27.0355C26.0211 27.0088 26.047 26.9904 26.0647 26.9791L26.073 26.9728C26.1362 26.9215 26.209 26.8631 26.2958 26.8054C26.2958 26.8054 26.2958 26.8054 26.2968 26.8044C26.3849 26.7438 26.4731 26.6883 26.5581 26.6401C26.6648 26.5661 26.7685 26.5065 26.8732 26.4574C26.9581 26.4122 27.0494 26.3691 27.1583 26.322C27.2266 26.2839 27.2909 26.2572 27.3385 26.2378V18.0705C27.3385 17.8437 27.5241 17.6599 27.7531 17.6599C27.9812 17.6599 28.1677 17.8437 28.1677 18.0705V26.5181C28.1677 26.6856 28.062 26.8396 27.9045 26.9001C27.8775 26.9105 27.8609 26.9166 27.8568 26.9187C27.8267 26.9362 27.7956 26.9485 27.7596 26.9577C27.7513 26.9598 27.746 26.9618 27.743 26.9629L27.7305 26.968C27.6487 27 27.5865 27.0246 27.5502 27.046L27.5089 27.0666C27.4082 27.1109 27.3254 27.1499 27.2509 27.1887L27.2291 27.1999C27.1659 27.2285 27.0923 27.2716 27.0218 27.3219L26.9886 27.3425C26.915 27.3846 26.8362 27.4338 26.7617 27.4852L26.7564 27.4894C26.7025 27.5243 26.6424 27.5714 26.5763 27.6258L26.5491 27.6463C26.5254 27.6615 26.5346 27.6556 26.5346 27.6556L26.5046 27.6812C26.4341 27.7326 26.3543 27.8044 26.2713 27.8804L26.2641 27.8866C26.1876 27.9543 26.1016 28.0416 26.0009 28.1535L25.9855 28.1709C25.914 28.2418 25.8435 28.3239 25.7481 28.443C25.659 28.5651 25.578 28.6792 25.5097 28.7838C25.5097 28.7838 25.5097 28.7838 25.5097 28.7848L21.2435 35.4032C21.232 35.4206 21.2186 35.4381 21.204 35.4545L20.5583 36.4625C20.4828 36.5816 20.3523 36.6534 20.2091 36.6534H5.66141ZM0.414603 34.6638C0.186572 34.6638 0 34.48 0 34.2532V18.0705C0 17.9627 0.0445705 17.856 0.121272 17.78C0.19901 17.7041 0.30577 17.6599 0.414603 17.6599H21.0784C21.3074 17.6599 21.493 17.8437 21.493 18.0705C21.493 18.2964 21.3074 18.4812 21.0784 18.4812H0.829207V34.2532C0.829207 34.48 0.643672 34.6638 0.414603 34.6638Z" fill="#0B3077"/>
<path d="M27.7536 18.4816H0.414603C0.30577 18.4816 0.19901 18.4374 0.121272 18.3615C0.0445705 18.2845 0 18.1787 0 18.071V14.2768C0 14.1885 0.0290223 14.1023 0.0818843 14.0324L0.470575 13.5109C0.548313 13.4062 0.673731 13.3436 0.804331 13.3436C0.893471 13.3436 0.978464 13.3713 1.05102 13.4247C1.23448 13.5592 1.27387 13.8169 1.13809 13.9986L0.829207 14.4112V17.6603H27.339V14.4112L23.6376 9.45406H5.66141C5.43234 9.45406 5.24577 9.27031 5.24577 9.04344C5.24577 8.81647 5.43234 8.63281 5.66141 8.63281H23.847C23.9776 8.63281 24.1019 8.69533 24.1807 8.79901L28.0863 14.0324C28.1392 14.1023 28.1682 14.1895 28.1682 14.2768V18.071C28.1682 18.1808 28.1246 18.2835 28.0469 18.3615C27.9681 18.4385 27.8645 18.4816 27.7536 18.4816Z" fill="#0B3077"/>
<path d="M25.691 28.2921C25.5902 28.2921 25.4919 28.2561 25.4163 28.1895C25.3344 28.1176 25.2836 28.015 25.2774 27.9072C25.2764 27.899 25.2764 27.8908 25.2764 27.8815C25.2764 27.781 25.3135 27.6844 25.3811 27.6096C25.464 27.5162 25.5759 27.3949 25.7044 27.2822C25.7044 27.281 25.7055 27.281 25.7055 27.2801L25.716 27.2718C25.7915 27.2053 25.889 27.1692 25.9905 27.1692C26.1066 27.1692 26.2174 27.2175 26.2963 27.3027C26.4476 27.4671 26.4383 27.7256 26.2745 27.8785C26.1656 27.9802 26.0785 28.0674 26.0008 28.1547C25.9283 28.2346 25.8247 28.2852 25.7157 28.2922C25.7075 28.2921 25.6992 28.2921 25.691 28.2921Z" fill="#0B3077"/>
<path d="M24.1901 9.45374H3.99161C2.88876 9.45159 1.99011 8.56361 1.98804 7.47545V2.589C1.98804 2.36213 2.17357 2.17837 2.40264 2.17837C2.63067 2.17837 2.81724 2.36213 2.81724 2.589V7.47545C2.81724 7.78034 2.93955 8.06983 3.1624 8.29054C3.38629 8.51115 3.68066 8.63239 3.99161 8.63239H24.1901C24.5 8.63239 24.7943 8.51115 25.0182 8.29054C25.241 8.06983 25.3634 7.78024 25.3634 7.47545V1.98332C25.3634 1.67638 25.241 1.38484 25.0182 1.1631C24.7943 0.94249 24.5 0.821252 24.1901 0.821252H8.14179C7.91272 0.821252 7.72719 0.63647 7.72719 0.410626C7.72719 0.183755 7.91272 0 8.14179 0H24.1901C25.2919 0.00215579 26.1905 0.892085 26.1926 1.98332V7.47545C26.1905 8.56361 25.2919 9.45169 24.1901 9.45374Z" fill="#0B3077"/>
<path d="M25.4163 28.6072C25.3219 28.6072 25.2297 28.5745 25.1561 28.5157C24.9819 28.3762 24.9518 28.1196 25.0897 27.944C25.1787 27.831 25.2774 27.7109 25.3976 27.5918C25.4753 27.5138 25.58 27.4707 25.6909 27.4707C25.7987 27.4707 25.9011 27.5116 25.9789 27.5857C26.1408 27.7407 26.1479 27.9992 25.9936 28.1614C25.9221 28.2384 25.8493 28.3236 25.7666 28.4222L25.7345 28.4591C25.6556 28.5539 25.5396 28.6072 25.4163 28.6072Z" fill="#0B3077"/>
<path d="M20.2089 36.6535L20.2078 36.6483V36.6535C20.129 36.6535 20.0523 36.6309 19.9859 36.5888C19.9373 36.5579 19.8969 36.519 19.8646 36.4727L19.8678 36.4687L19.8636 36.4716L19.8606 36.4665L19.8596 36.4655C19.7723 36.3308 19.7723 36.1575 19.8583 36.0228L20.5373 34.9613C20.6129 34.8443 20.7468 34.7705 20.8878 34.7705H20.894C21.0453 34.7705 21.1853 34.8527 21.2579 34.984C21.3304 35.1153 21.3251 35.2756 21.2433 35.4029L20.5592 36.4622C20.5416 36.489 20.5218 36.5135 20.4991 36.5361C20.4978 36.5361 20.4978 36.5361 20.4978 36.5361C20.4948 36.5392 20.4916 36.5425 20.4898 36.5443C20.4898 36.5443 20.4885 36.5453 20.4876 36.5453L20.4845 36.5484L20.4834 36.5495L20.4741 36.5578L20.473 36.5588C20.4719 36.5599 20.4708 36.5599 20.4699 36.5609C20.4687 36.5621 20.4687 36.5631 20.4677 36.5631L20.4565 36.5713C20.4553 36.5723 20.4543 36.5735 20.4543 36.5735L20.4521 36.5756C20.4511 36.5756 20.4511 36.5756 20.4501 36.5766L20.4471 36.5788C20.3769 36.6279 20.2939 36.6535 20.2089 36.6535Z" fill="#0B3077"/>
<path d="M15.9405 43.8487H6.78291C5.87182 43.8476 4.98664 43.6691 4.15122 43.318C3.34378 42.9791 2.61926 42.4937 1.99424 41.8767C1.37027 41.2586 0.879996 40.541 0.536912 39.7435C0.181389 38.916 0.00103651 38.0394 0 37.1381V36.2429C0 36.135 0.0445705 36.0294 0.121272 35.9524C0.19901 35.8764 0.30577 35.8323 0.414603 35.8323H7.55926C7.78729 35.8323 7.97283 36.0159 7.97283 36.2429C7.97283 36.4686 7.78729 36.6535 7.55926 36.6535H0.829207V37.1381C0.829207 38.7014 1.45111 40.1775 2.58091 41.2957C3.7107 42.4115 5.20224 43.0275 6.78291 43.0275H15.6171C15.6648 42.8601 15.7155 42.7082 15.7746 42.5644C15.7974 42.4915 15.8275 42.4167 15.8638 42.3446L15.8689 42.3334C15.9104 42.239 15.9539 42.1426 16.0058 42.0377C16.0161 42.0184 16.0286 41.9986 16.042 41.9802C16.1115 41.8436 16.1851 41.7214 16.2742 41.5798L16.2773 41.5748L19.4511 36.6535H16.1633C16.1592 36.6546 16.153 36.6535 16.1478 36.6535H14.8138C14.5858 36.6535 14.3992 36.4686 14.3992 36.2429C14.3992 36.0159 14.5858 35.8323 14.8138 35.8323H20.2088C20.3602 35.8323 20.4991 35.9133 20.5726 36.0456C20.6453 36.1771 20.64 36.3373 20.5582 36.4634L16.9759 42.0173C16.9075 42.127 16.835 42.2452 16.7738 42.3673C16.7583 42.3982 16.7417 42.4249 16.7303 42.4402C16.694 42.515 16.6588 42.5942 16.6194 42.6823L16.6111 42.7018C16.5904 42.7419 16.5738 42.7818 16.5624 42.8208L16.5489 42.8588C16.4701 43.0478 16.4059 43.2601 16.3447 43.5282C16.3022 43.7163 16.1353 43.8487 15.9405 43.8487Z" fill="#0B3077"/>
<path d="M16.4018 42.5955C16.3365 42.5955 16.2712 42.5801 16.2131 42.5503C16.011 42.4488 15.9302 42.2023 16.0307 42.0011C16.1116 41.8419 16.1986 41.7001 16.2743 41.58C16.35 41.4589 16.4816 41.386 16.6267 41.386C16.7034 41.386 16.7791 41.4065 16.8444 41.4477C16.9667 41.5225 17.0403 41.653 17.0413 41.7958C17.0413 41.8715 17.0196 41.9476 16.9791 42.0122C16.9055 42.1294 16.8361 42.2485 16.7739 42.3664L16.7729 42.3685C16.7729 42.3685 16.7729 42.3685 16.7729 42.3695C16.7718 42.3717 16.7708 42.3736 16.7687 42.3757C16.6972 42.5113 16.5562 42.5955 16.4018 42.5955Z" fill="#0B3077"/>
<path d="M16.24 42.9289C16.183 42.9289 16.125 42.9166 16.0732 42.894C15.9737 42.8508 15.8928 42.7678 15.8534 42.667C15.8348 42.6198 15.8254 42.5707 15.8254 42.5193C15.8254 42.4629 15.8368 42.4055 15.8607 42.353L15.869 42.3345C15.9104 42.2401 15.954 42.1426 16.0058 42.0389C16.0763 41.8983 16.2193 41.8108 16.3769 41.8108C16.4422 41.8108 16.5044 41.8254 16.5624 41.8539C16.7034 41.9239 16.7915 42.0656 16.7915 42.2226C16.7915 42.2862 16.777 42.3479 16.7479 42.4052C16.7065 42.4863 16.6681 42.5746 16.6267 42.667L16.6194 42.6835C16.5759 42.782 16.4919 42.861 16.3903 42.9C16.3427 42.9187 16.2919 42.9289 16.24 42.9289Z" fill="#0B3077"/>
<path d="M15.9405 43.849H6.78291C5.87182 43.8479 4.98664 43.6694 4.15122 43.3183C3.34378 42.9794 2.61926 42.494 1.99424 41.877C1.37027 41.2589 0.879996 40.5413 0.536912 39.7438C0.181389 38.9163 0.00103651 38.0397 0 37.1384V20.7914C0 20.5645 0.186572 20.3807 0.414604 20.3807C0.643672 20.3807 0.829207 20.5645 0.829207 20.7914V37.1384C0.829207 38.7017 1.45111 40.1778 2.58091 41.296C3.7107 42.4118 5.20224 43.0278 6.78291 43.0278H15.9405C16.1695 43.0278 16.3551 43.2115 16.3551 43.4384C16.3551 43.6643 16.1695 43.849 15.9405 43.849ZM0.817805 14.1474C0.728666 14.1474 0.642636 14.1196 0.571117 14.0663C0.465393 13.9893 0.404238 13.8692 0.403202 13.7388C0.402165 13.6495 0.430152 13.5643 0.48405 13.4926L3.98849 8.79901C4.06622 8.69533 4.19061 8.63281 4.32121 8.63281C4.41035 8.63281 4.49534 8.66053 4.56789 8.71278C4.65703 8.77858 4.71508 8.87395 4.73166 8.98277C4.74721 9.09066 4.72026 9.19937 4.65496 9.28776L1.15053 13.9812C1.07279 14.0848 0.948405 14.1474 0.817805 14.1474Z" fill="#0B3077"/>
<path d="M16.1654 43.1137C16.1249 43.1137 16.0845 43.1086 16.0462 43.0962C15.9404 43.0655 15.8523 42.9946 15.8005 42.898C15.7477 42.8016 15.7362 42.6906 15.7684 42.5848C15.7933 42.5008 15.8275 42.4165 15.8689 42.3345C15.9394 42.1939 16.0824 42.1077 16.24 42.1077C16.3053 42.1077 16.3675 42.122 16.4255 42.1508C16.6297 42.2524 16.7126 42.4997 16.61 42.702C16.5903 42.7411 16.5748 42.7811 16.5623 42.821C16.5105 42.9936 16.3468 43.1137 16.1654 43.1137Z" fill="#0B3077"/>
<path d="M26.2579 27.7616C26.1479 27.7616 26.0442 27.7195 25.9656 27.6425C25.8868 27.5645 25.8433 27.4619 25.8433 27.352C25.8433 27.2423 25.8858 27.1396 25.9645 27.0615C26.01 27.0153 26.0537 26.9867 26.0734 26.9732C26.0755 26.9722 26.0787 26.9703 26.0798 26.9692H26.0808C26.1503 26.9219 26.23 26.8975 26.314 26.8975C26.4508 26.8975 26.5794 26.964 26.6561 27.0759C26.7857 27.2627 26.7369 27.5185 26.5483 27.6469L26.54 27.652C26.4641 27.7226 26.3635 27.7616 26.2579 27.7616Z" fill="#0B3077"/>
<path d="M26.5263 27.5582C26.3895 27.5582 26.262 27.4916 26.1853 27.3807C26.1221 27.2904 26.0982 27.1816 26.118 27.0738C26.1376 26.966 26.1987 26.8716 26.2899 26.8101C26.3801 26.7484 26.4693 26.6921 26.5574 26.6408C26.6674 26.5659 26.7729 26.5043 26.8819 26.454C26.883 26.454 26.883 26.454 26.8841 26.454C26.938 26.4294 26.996 26.417 27.055 26.417C27.2168 26.417 27.3648 26.5104 27.4324 26.6552C27.5277 26.8605 27.4365 27.1049 27.2292 27.2004C27.166 27.229 27.0924 27.2721 27.0219 27.3224L26.9877 27.343C26.9152 27.385 26.8374 27.4343 26.7617 27.4856C26.692 27.5326 26.6101 27.5582 26.5263 27.5582Z" fill="#0B3077"/>
<path d="M27.3431 27.1014C27.1948 27.1014 27.058 27.0233 26.9834 26.8972C26.8683 26.7011 26.9368 26.4496 27.1347 26.3354C27.2332 26.2791 27.3244 26.2433 27.398 26.2153C27.4084 26.2113 27.4176 26.2071 27.4281 26.2031C27.4281 26.2031 27.4281 26.2031 27.4291 26.2031C27.4768 26.1845 27.5276 26.1753 27.5794 26.1753C27.7503 26.1753 27.9016 26.2769 27.965 26.436C28.048 26.6465 27.9432 26.8857 27.7297 26.9678C27.6488 26.9987 27.5866 27.0244 27.5504 27.0458C27.487 27.082 27.4156 27.1014 27.3431 27.1014Z" fill="#0B3077"/>
<path d="M27.6541 26.9722C27.5079 26.9722 27.3712 26.8941 27.2966 26.7699C27.2064 26.6181 27.2229 26.4271 27.339 26.2934V14.4109L23.5143 9.28854C23.5143 9.28854 23.5143 9.28752 23.513 9.28752C23.4477 9.19923 23.4208 9.09144 23.4365 8.98252C23.453 8.87371 23.5111 8.77834 23.6002 8.71254C23.6726 8.66018 23.7578 8.63257 23.847 8.63257C23.9776 8.63257 24.103 8.69509 24.1807 8.79877L28.0863 14.0322C28.1393 14.102 28.1682 14.1882 28.1682 14.2755V26.5183C28.1682 26.6856 28.0615 26.8396 27.9039 26.9012C27.8801 26.9093 27.8655 26.9156 27.8593 26.9175C27.7971 26.9537 27.7256 26.9722 27.6541 26.9722Z" fill="#0B3077"/>
<path d="M22.8633 9.45374H3.99161C2.88876 9.45159 1.99011 8.56361 1.98804 7.47545V1.98332C1.99011 0.892085 2.88876 0.00205313 3.99161 0H24.1901C25.2919 0.00215579 26.1905 0.892085 26.1926 1.98332V4.06828C26.1926 4.29525 26.0071 4.47891 25.778 4.47891C25.55 4.47891 25.3634 4.29525 25.3634 4.06828V1.98343C25.3634 1.67648 25.241 1.38494 25.0182 1.1632C24.7943 0.942592 24.5 0.821355 24.1901 0.821355H3.99161C3.68066 0.821355 3.38629 0.942592 3.1624 1.16433C2.93955 1.38494 2.81724 1.67648 2.81724 1.98343V7.47555C2.81724 7.78044 2.93955 8.06993 3.1624 8.29064C3.38629 8.51125 3.68066 8.63249 3.99161 8.63249H22.8633C23.0914 8.63249 23.2779 8.81614 23.2779 9.04312C23.2779 9.26999 23.0914 9.45374 22.8633 9.45374Z" fill="#0B3077"/>
<path d="M27.7536 18.4812H0.414603C0.186572 18.4812 0 18.2964 0 18.0705C0 17.8437 0.186572 17.6599 0.414603 17.6599H27.7536C27.9816 17.6599 28.1682 17.8437 28.1682 18.0705C28.1682 18.2964 27.9816 18.4812 27.7536 18.4812Z" fill="#0B3077"/>
<path d="M20.2026 36.6535H0.414603C0.186572 36.6535 0 36.4686 0 36.2429C0 36.0159 0.186572 35.8323 0.414603 35.8323H20.2026C20.4306 35.8323 20.6172 36.0159 20.6172 36.2429C20.6172 36.4686 20.4306 36.6535 20.2026 36.6535Z" fill="#0B3077"/>
<path d="M20.923 49.9999H20.9219C19.8707 49.9999 18.8457 49.7043 17.9596 49.1458C17.1633 48.6407 16.5085 47.9386 16.0647 47.1154C15.6346 46.3176 15.4076 45.4174 15.4076 44.5121C15.4076 44.1158 15.4511 43.7247 15.5361 43.348C15.6066 43.0389 15.6823 42.7895 15.7756 42.5626C15.7963 42.5001 15.818 42.4497 15.8346 42.4128C15.8429 42.3943 15.8502 42.3779 15.8554 42.3645L15.8668 42.3389C15.9093 42.2433 15.9528 42.1438 16.0057 42.038C16.016 42.0186 16.0285 41.9978 16.0419 41.9796C16.1124 41.8441 16.185 41.7217 16.2741 41.5801L16.2762 41.5749L19.8584 36.0232L20.5374 34.9618C20.5497 34.9433 20.5633 34.9249 20.5779 34.9084L24.8141 28.3362C24.8929 28.2171 24.98 28.0919 25.0826 27.9534L25.0897 27.9439C25.1705 27.8413 25.2689 27.7202 25.3871 27.6021C25.4713 27.5089 25.584 27.3865 25.7146 27.2716L25.7211 27.2664C25.7998 27.1947 25.8877 27.1124 25.9925 27.0344C26.0226 27.0087 26.0485 26.9901 26.0661 26.9779C26.1303 26.9266 26.202 26.8681 26.2899 26.8094C26.3812 26.747 26.4744 26.6883 26.5667 26.635C26.6715 26.5692 26.7677 26.5138 26.86 26.4647C26.9524 26.4155 27.0486 26.3701 27.1647 26.3188C27.2518 26.2768 27.3368 26.2388 27.4166 26.2069C27.4632 26.1865 27.5026 26.176 27.5267 26.1688C28.1579 25.9328 28.8192 25.8137 29.4919 25.8137C30.5449 25.8137 31.567 26.1105 32.4501 26.6718C33.2439 27.1748 33.899 27.876 34.3427 28.6993C34.7728 29.498 35.0009 30.3972 34.9999 31.3027C35.0009 32.3445 34.7014 33.3587 34.1335 34.2355L29.8661 40.8505L27.8582 43.9666C27.7816 44.0845 27.6509 44.1555 27.5078 44.1555C27.429 44.1555 27.3523 44.1339 27.2852 44.0919C27.1919 44.0324 27.1275 43.9409 27.1038 43.8342C27.0799 43.7263 27.0996 43.6165 27.1586 43.524L33.4358 33.7932C33.9167 33.0479 34.1707 32.1866 34.1707 31.3028C34.1707 29.6941 33.3602 28.2218 32.0023 27.3628C31.253 26.8863 30.3854 26.6349 29.4919 26.6338C28.9124 26.6338 28.3445 26.7387 27.8023 26.944L27.7599 26.9573C27.7516 26.9594 27.7463 26.9614 27.7423 26.9624L27.7309 26.9676C27.6676 26.9922 27.5982 27.0231 27.5267 27.058L27.509 27.0662C27.4041 27.1123 27.3245 27.1503 27.2509 27.1893C27.1753 27.2295 27.0903 27.2786 27.0053 27.3321L26.9876 27.3426C26.915 27.3847 26.8373 27.4339 26.7615 27.4853L26.7562 27.4884C26.7023 27.5244 26.6422 27.5715 26.5761 27.6259L26.548 27.6464C26.5367 27.6547 26.5335 27.6557 26.5335 27.6557L26.5045 27.6814C26.434 27.7327 26.3542 27.8045 26.2723 27.8805L26.2652 27.8867C26.1885 27.9534 26.1025 28.0406 26.0007 28.1536L25.9842 28.171C25.9128 28.244 25.8382 28.3292 25.7447 28.4472C25.6535 28.5714 25.5768 28.6812 25.5094 28.7839C25.5094 28.7839 25.5094 28.7839 25.5094 28.7849L21.2442 35.4021C21.2431 35.4021 21.2431 35.4022 21.2431 35.4033C21.2317 35.4219 21.2183 35.4393 21.2036 35.4556L20.558 36.4637L16.9758 42.0175C16.9074 42.1273 16.8349 42.2454 16.7727 42.3675C16.7582 42.3984 16.7416 42.4241 16.7302 42.4404C16.6949 42.5144 16.6597 42.5914 16.6234 42.6735C16.6131 42.6992 16.6027 42.7238 16.5934 42.7434C16.5768 42.7824 16.5643 42.8111 16.5623 42.8204L16.5488 42.8594C16.4711 43.0484 16.4057 43.2597 16.3456 43.5278C16.2731 43.8461 16.2368 44.1776 16.2368 44.5123C16.2378 46.1188 17.0484 47.592 18.4062 48.4533C19.1587 48.9276 20.0281 49.1791 20.9228 49.1791C21.1488 49.1791 21.3767 49.1626 21.5995 49.1308C22.01 49.0723 22.4111 48.9614 22.7904 48.8012C22.8423 48.7796 22.8963 48.7684 22.9522 48.7684C23.119 48.7684 23.2685 48.866 23.3346 49.0179C23.3564 49.0692 23.3668 49.1227 23.3678 49.1782C23.3678 49.3434 23.2683 49.4924 23.1149 49.5568C22.6692 49.7447 22.1986 49.8753 21.7178 49.944C21.7124 49.945 21.7083 49.945 21.703 49.946C21.4453 49.9813 21.1831 49.9999 20.923 49.9999Z" fill="#0B3077"/>
<path d="M29.5166 41.0413C29.4367 41.0413 29.36 41.0187 29.2938 40.9767L20.7114 35.5544C20.5664 35.4867 20.4731 35.3409 20.4731 35.1816C20.4731 34.956 20.6586 34.771 20.8877 34.771H20.894C20.9728 34.771 21.0506 34.7938 21.1167 34.8358L29.7393 40.2848C29.9321 40.406 29.9891 40.6605 29.8658 40.8516C29.7893 40.9705 29.6587 41.0413 29.5166 41.0413Z" fill="#0B3077"/>
<path d="M31.8592 33.9138C31.7804 33.9138 31.7027 33.8912 31.6364 33.8491C31.4438 33.728 31.3867 33.4734 31.5099 33.2824C31.8468 32.7588 32.024 32.1544 32.025 31.5332C32.024 30.4103 31.4591 29.3814 30.5138 28.7829C30.5138 28.7829 30.5138 28.7819 30.5128 28.7819C30.4205 28.7236 30.3563 28.6321 30.3324 28.5253C30.3087 28.4175 30.3284 28.3077 30.3884 28.2153C30.4651 28.0972 30.5957 28.0264 30.7377 28.0264C30.8176 28.0264 30.8943 28.049 30.9616 28.091C31.5514 28.4656 32.0375 28.9871 32.3661 29.5989C32.6853 30.1922 32.8543 30.8606 32.8532 31.5329C32.8543 32.31 32.6314 33.0677 32.2095 33.7238C32.1328 33.8429 32.0012 33.9138 31.8592 33.9138Z" fill="#0B3077"/>
<path d="M5.95989 6.25096C5.73082 6.25096 5.54529 6.0672 5.54529 5.84033V3.31077C5.54529 3.0839 5.73082 2.90015 5.95989 2.90015C6.18792 2.90015 6.3745 3.0839 6.3745 3.31077V5.84033C6.3745 6.0672 6.18792 6.25096 5.95989 6.25096Z" fill="#0B3077"/>
<path d="M10.3152 6.25096C10.0862 6.25096 9.90063 6.0672 9.90063 5.84033V3.31077C9.90063 3.0839 10.0862 2.90015 10.3152 2.90015C10.5433 2.90015 10.7298 3.0839 10.7298 3.31077V5.84033C10.7298 6.0672 10.5433 6.25096 10.3152 6.25096Z" fill="#0B3077"/>
<path d="M14.6822 6.25096C14.4541 6.25096 14.2676 6.0672 14.2676 5.84033V3.31077C14.2676 3.0839 14.4541 2.90015 14.6822 2.90015C14.9112 2.90015 15.0968 3.0839 15.0968 3.31077V5.84033C15.0968 6.0672 14.9112 6.25096 14.6822 6.25096Z" fill="#0B3077"/>
<path d="M19.05 6.25096C18.8209 6.25096 18.6354 6.0672 18.6354 5.84033V3.31077C18.6354 3.0839 18.8209 2.90015 19.05 2.90015C19.2779 2.90015 19.4646 3.0839 19.4646 3.31077V5.84033C19.4646 6.0672 19.2779 6.25096 19.05 6.25096Z" fill="#0B3077"/>
<path d="M23.4116 6.25096C23.1825 6.25096 22.996 6.0672 22.996 5.84033V3.31077C22.996 3.0839 23.1825 2.90015 23.4116 2.90015C23.6396 2.90015 23.8252 3.0839 23.8252 3.31077V5.84033C23.8252 6.0672 23.6396 6.25096 23.4116 6.25096Z" fill="#0B3077"/>
</svg>
