<svg width="40" height="39" viewBox="0 0 40 39" fill="none" xmlns="http://www.w3.org/2000/svg">
<path d="M0.307699 38.9999H22.5484C22.7184 38.9999 22.8561 38.8619 22.8561 38.6916V36.3778C22.8561 35.3161 21.994 34.4523 20.9345 34.4523H20.5346V32.4269C20.5346 31.5309 19.8072 30.802 18.9131 30.802H3.943C3.0489 30.802 2.32157 31.5309 2.32157 32.4269V34.4523H1.92162C0.862099 34.4523 0 35.3161 0 36.3778V38.6916C0 38.8619 0.137774 38.9999 0.307699 38.9999ZM2.93697 32.4269C2.93697 31.871 3.3883 31.4187 3.943 31.4187H18.9131C19.4678 31.4187 19.9192 31.871 19.9192 32.4269V34.4523H2.93697V32.4269ZM0.615399 36.3778C0.615399 35.6562 1.20135 35.069 1.92162 35.069H2.62927H20.2269H20.9345C21.6548 35.069 22.2407 35.6562 22.2407 36.3778V38.3832H0.615399V36.3778Z" fill="#0B3077"/>
<path d="M37.6357 30.1259C37.7682 30.1259 37.9017 30.1146 38.0348 30.092C38.6563 29.9866 39.1998 29.6448 39.5649 29.1297C40.3183 28.0666 40.0683 26.5872 39.0074 25.8319L23.9786 15.1337L27.0708 10.7712L27.367 10.9821C27.7398 11.2474 28.1693 11.3748 28.5951 11.3748C29.2608 11.3748 29.9172 11.0629 30.3313 10.4789C30.6601 10.0149 30.789 9.4504 30.6942 8.8894C30.5994 8.32824 30.2921 7.83786 29.8292 7.50827L19.8332 0.392609C18.8773 -0.287338 17.5477 -0.0616426 16.8689 0.895795C16.1902 1.85353 16.4154 3.18603 17.371 3.86643L17.6671 4.07718L8.74919 16.6586L8.45297 16.4477C7.49757 15.7676 6.16761 15.9933 5.48866 16.9509C5.15993 17.4149 5.03102 17.9794 5.12582 18.5404C5.22063 19.1016 5.52787 19.5919 5.99078 19.9215L15.9868 27.0372C16.3595 27.3025 16.7891 27.43 17.2149 27.4299C17.8806 27.4299 18.537 27.118 18.9511 26.534C19.6298 25.5763 19.4045 24.2438 18.449 23.5634L18.1529 23.3526L21.2452 18.99L36.2741 29.6883C36.6778 29.9758 37.1503 30.1259 37.6357 30.1259ZM17.3707 1.25293C17.6043 0.923348 17.952 0.704578 18.3498 0.637126C18.7481 0.569071 19.1481 0.661216 19.4768 0.895494L29.4728 8.01116C29.8017 8.24528 30.02 8.59369 30.0873 8.99238C30.1548 9.39108 30.0631 9.79218 29.8295 10.1218C29.3471 10.8019 28.4026 10.9628 27.7234 10.4792L27.1766 10.09C27.1765 10.0899 27.1765 10.0898 27.1764 10.0897L18.2744 3.7529C18.2744 3.75286 18.2743 3.75286 18.2742 3.75279L17.7274 3.36354C17.0484 2.88023 16.8884 1.93333 17.3707 1.25293ZM18.4493 26.1769C17.9672 26.8571 17.0224 27.0178 16.3432 26.5343L6.34715 19.4186C6.01827 19.1845 5.79997 18.8361 5.73266 18.4374C5.6652 18.0387 5.75685 17.6376 5.99047 17.308C6.28465 16.8931 6.75086 16.6715 7.22398 16.6715C7.52642 16.6715 7.83171 16.7621 8.09659 16.9506L8.64335 17.3398C8.64346 17.3399 8.64352 17.34 8.64363 17.3401L17.5456 23.6769C17.5456 23.6769 17.5457 23.6769 17.5458 23.677L18.0926 24.0663C18.7716 24.5496 18.9316 25.4965 18.4493 26.1769ZM20.9216 18.3814C20.9215 18.3815 20.9215 18.3815 20.9215 18.3815L17.6511 22.9954L9.25095 17.0158L18.1689 4.43439L26.569 10.414L23.2988 15.0277C23.2987 15.0278 23.2986 15.0278 23.2986 15.0279L20.9216 18.3814ZM23.6222 15.6365L38.6511 26.3348C39.4353 26.8931 39.6201 27.9867 39.0629 28.7726C38.793 29.1534 38.3914 29.406 37.932 29.484C37.4726 29.562 37.0101 29.456 36.6304 29.1854L21.6016 18.4871L23.6222 15.6365Z" fill="#0B3077"/>
</svg>
