<svg width="35" height="35" viewBox="0 0 35 35" fill="none" xmlns="http://www.w3.org/2000/svg">
<path d="M26.0837 29.719H30.284C30.5258 29.719 30.7215 29.5231 30.7215 29.2815V25.6946C30.7215 24.2954 29.5833 23.157 28.1841 23.157C26.7848 23.157 25.6462 24.2954 25.6462 25.6946V29.2815C25.6462 29.5231 25.8419 29.719 26.0837 29.719ZM26.5212 28.844V26.8755H29.8465V28.844H26.5212ZM28.1841 24.032C29.1009 24.032 29.8465 24.7777 29.8465 25.6946V26.0005H26.5212V25.6946C26.5212 24.7777 27.2672 24.032 28.1841 24.032Z" fill="#0B3077"/>
<path d="M6.81596 23.157C5.41674 23.157 4.27856 24.2954 4.27856 25.6946V29.2815C4.27856 29.5231 4.47424 29.719 4.71606 29.719H8.91629C9.15811 29.719 9.35379 29.5231 9.35379 29.2815V25.6946C9.35379 24.2954 8.21518 23.157 6.81596 23.157ZM6.81596 24.032C7.73283 24.032 8.47879 24.7777 8.47879 25.6946V26.0005H5.15356V25.6946C5.15356 24.7777 5.8991 24.032 6.81596 24.032ZM5.15356 28.844V26.8755H8.47879V28.844H5.15356Z" fill="#0B3077"/>
<path d="M6.81596 12.4854C5.41674 12.4854 4.27856 13.6237 4.27856 15.023V18.6099C4.27856 18.8515 4.47424 19.0474 4.71606 19.0474H8.91629C9.15811 19.0474 9.35379 18.8515 9.35379 18.6099V15.023C9.35379 13.6237 8.21518 12.4854 6.81596 12.4854ZM6.81596 13.3603C7.73283 13.3603 8.47879 14.1061 8.47879 15.023V15.3289H5.15356V15.023C5.15356 14.1061 5.8991 13.3603 6.81596 13.3603ZM5.15356 18.1724V16.2039H8.47879V18.1724H5.15356Z" fill="#0B3077"/>
<path d="M14.9626 15.023V18.6099C14.9626 18.8515 15.1583 19.0474 15.4001 19.0474H19.6004C19.8422 19.0474 20.0379 18.8515 20.0379 18.6099V15.023C20.0379 13.6237 18.8997 12.4854 17.5005 12.4854C16.1012 12.4854 14.9626 13.6237 14.9626 15.023ZM15.8376 18.1724V16.2039H19.1629V18.1724H15.8376ZM17.5005 13.3603C18.4173 13.3603 19.1629 14.1061 19.1629 15.023V15.3289H15.8376V15.023C15.8376 14.1061 16.5836 13.3603 17.5005 13.3603Z" fill="#0B3077"/>
<path d="M26.0837 19.0474H30.284C30.5258 19.0474 30.7215 18.8515 30.7215 18.6099V15.023C30.7215 13.6237 29.5833 12.4854 28.1841 12.4854C26.7848 12.4854 25.6462 13.6237 25.6462 15.023V18.6099C25.6462 18.8515 25.8419 19.0474 26.0837 19.0474ZM26.5212 18.1724V16.2039H29.8465V18.1724H26.5212ZM28.1841 13.3603C29.1009 13.3603 29.8465 14.1061 29.8465 15.023V15.3289H26.5212V15.023C26.5212 14.1061 27.2672 13.3603 28.1841 13.3603Z" fill="#0B3077"/>
<path d="M0.437614 9.84368H1.13018V34.5623C1.13018 34.8039 1.32585 34.9998 1.56767 34.9998H33.4323C33.6741 34.9998 33.8698 34.8039 33.8698 34.5623V9.84368H34.5624C34.6897 9.84368 34.8106 9.78814 34.8939 9.69159C34.9772 9.59503 35.014 9.46707 34.9952 9.34125L33.6481 0.372556C33.6156 0.158294 33.4319 0 33.2153 0H1.78471C1.5681 0 1.38438 0.158294 1.35191 0.372556L0.00481639 9.34125C-0.0139823 9.46707 0.0227606 9.59503 0.106073 9.69159C0.189385 9.78814 0.310295 9.84368 0.437614 9.84368ZM2.00517 9.84368H11.6758V34.1248H2.00517V9.84368ZM22.4492 34.1248H20.7727V25.117C20.7727 23.3125 19.3047 21.8445 17.5 21.8445C15.6953 21.8445 14.2273 23.3125 14.2273 25.117V34.1248H12.5508V7.77989L17.5 3.73688L22.4492 7.77989V34.1248ZM19.8977 34.1248H15.1023V25.117C15.1023 23.7951 16.1781 22.7195 17.5 22.7195C18.8219 22.7195 19.8977 23.7951 19.8977 25.117V34.1248ZM32.9948 34.1248H23.3242V9.84368H32.9948V34.1248ZM2.16154 0.874994H32.8385L34.0544 8.96869H23.3242V7.57246C23.3242 7.44108 23.2652 7.31675 23.1635 7.23366L17.7769 2.83305C17.6154 2.70146 17.3846 2.70146 17.2231 2.83305L11.8365 7.23366C11.7348 7.31675 11.6758 7.44108 11.6758 7.57246V8.96869H0.945606L2.16154 0.874994Z" fill="#0B3077"/>
</svg>
