<svg width="40" height="40" viewBox="0 0 40 40" fill="none" xmlns="http://www.w3.org/2000/svg">
<path d="M29.7294 28.4396L29.8979 28.143C30.0183 27.9314 29.9688 27.664 29.7808 27.5095L27.0903 25.3005C26.9863 25.2153 26.8521 25.175 26.7192 25.1899C26.5857 25.2043 26.4636 25.2719 26.3804 25.3774L25.6682 26.2802V23.2513C28.7244 21.3433 30.7672 17.9113 30.7659 13.9851C30.7534 13.8409 30.7415 13.6673 30.7303 13.4817C30.7351 13.4432 30.7278 13.404 30.7233 13.3644C30.6189 11.4724 30.64 7.90287 31.6396 6.87717C31.7336 6.78073 31.7847 6.65061 31.7812 6.51584C31.7605 5.6799 28.2363 1.84665 24.1975 0.500461C20.6011 -0.69827 17.394 0.266086 14.9136 3.28977C14.2002 3.33933 12.1465 3.63986 10.6597 5.43454C9.08813 7.33176 8.67749 10.2395 9.43896 14.0783C9.45587 17.8162 11.3525 21.11 14.2156 23.0413V26.239L13.5359 25.3774C13.4526 25.2719 13.3306 25.2043 13.197 25.1899C13.0647 25.1765 12.9297 25.2155 12.8259 25.3005L10.1355 27.5095C9.94751 27.664 9.89795 27.9314 10.0183 28.143L10.1886 28.4426C3.99347 28.5284 0 32.1962 0 37.8464V39.498C0 39.7741 0.223877 39.998 0.5 39.998H39.5C39.7761 39.998 40 39.7741 40 39.498V37.8464C40 32.1709 35.9721 28.4933 29.7294 28.4396ZM26.8499 26.3969L28.8206 28.0151L24.0364 36.4323L20.9343 33.896L26.8499 26.3969ZM11.4207 6.08347C12.8921 4.29685 15.1177 4.28025 15.155 4.28025H15.1553C15.3064 4.28781 15.4573 4.21164 15.553 4.09006C17.4712 1.66062 19.8064 0.654513 22.4973 1.10153C26.5334 1.77146 30.0669 5.41403 30.7036 6.44431C29.9451 7.50766 29.7233 9.51667 29.6848 11.2077C28.4884 9.37656 26.1378 7.09619 22.0676 7.82444C16.5859 8.80368 16.1025 6.66281 16.0996 6.65232C16.0786 6.50705 15.9946 6.37863 15.8704 6.30075C15.7463 6.22336 15.5942 6.20359 15.4541 6.24778C15.2797 6.30301 11.7519 7.48001 10.1057 11.5818C9.93802 9.20096 10.3743 7.35434 11.4207 6.08347ZM10.4409 14.067C11.1853 9.62754 14.1922 7.88037 15.3262 7.37204C15.4717 7.62986 15.7122 7.93918 16.1086 8.22483C17.3477 9.11765 19.4116 9.31443 22.2434 8.80881C27.5608 7.86255 29.4657 12.7201 29.7282 13.4769C29.7444 13.7441 29.7601 13.9433 29.7678 14.0283C29.7678 19.4424 25.4324 23.8471 20.1033 23.8471C14.7873 23.8471 10.4617 19.4631 10.4409 14.067ZM15.2156 23.6335C16.6815 24.4045 18.3412 24.8471 20.1033 24.8471C21.736 24.8471 23.2835 24.4719 24.6682 23.8027V27.548L19.9583 33.519L15.2156 27.5067V23.6335ZM13.0667 26.3969L18.9822 33.896L15.8801 36.4323L11.0957 28.0151L13.0667 26.3969ZM39 38.998H31.5205V36.7829C31.5205 36.5068 31.2966 36.2829 31.0205 36.2829C30.7444 36.2829 30.5205 36.5068 30.5205 36.7829V38.998H9.6416V36.7829C9.6416 36.5068 9.41772 36.2829 9.1416 36.2829C8.86548 36.2829 8.6416 36.5068 8.6416 36.7829V38.998H1V37.8464C1 31.6443 5.85913 29.4345 10.4067 29.4345H10.7524L15.3035 37.4414C15.3762 37.5693 15.5017 37.6589 15.6465 37.6858C15.677 37.6916 15.7075 37.6943 15.738 37.6943C15.8525 37.6943 15.9646 37.655 16.0544 37.5815L19.9583 34.3897L23.8621 37.5815C23.9519 37.655 24.064 37.6943 24.1785 37.6943C24.209 37.6943 24.2397 37.6916 24.27 37.6858C24.4148 37.6589 24.5403 37.5693 24.6133 37.4414L29.1639 29.4345H29.5933C34.1409 29.4345 39 31.6443 39 37.8464V38.998Z" fill="#0B3077"/>
</svg>
