<svg width="40" height="40" viewBox="0 0 40 40" fill="none" xmlns="http://www.w3.org/2000/svg">
<path d="M23.4632 32.0648C23.2183 32.0648 23.0197 32.2661 23.0197 32.5141C23.0197 33.9061 21.6637 35.0385 19.9966 35.0385C18.329 35.0385 16.9726 33.9061 16.9726 32.5141C16.9726 32.2661 16.7739 32.0648 16.529 32.0648C16.2846 32.0648 16.0859 32.2661 16.0859 32.5141C16.0859 34.4017 17.8401 35.9376 19.9966 35.9376C22.1526 35.9376 23.9063 34.4017 23.9063 32.5141C23.9063 32.2661 23.7077 32.0648 23.4632 32.0648ZM29.9139 24.8724C29.9139 24.6239 29.7156 24.423 29.4708 24.423C29.2405 24.423 29.0512 24.6008 29.0299 24.8288C28.9228 24.9506 28.3628 25.2052 27.4263 25.2052C26.4899 25.2052 25.9299 24.9506 25.8232 24.8288C25.8014 24.6012 25.6121 24.423 25.3819 24.423C25.1374 24.423 24.9388 24.6239 24.9388 24.8724C24.9388 25.7186 26.2281 26.1039 27.4263 26.1039C28.6245 26.1039 29.9139 25.7186 29.9139 24.8724ZM12.8015 26.1035C13.9997 26.1035 15.289 25.7181 15.289 24.8719C15.289 24.6235 15.0904 24.4226 14.8459 24.4226C14.6157 24.4226 14.4264 24.6004 14.4046 24.8284C14.2979 24.9501 13.7375 25.2048 12.8015 25.2048C11.8655 25.2048 11.305 24.9501 11.1979 24.8284C11.1766 24.6008 10.9873 24.4226 10.757 24.4226C10.5122 24.4226 10.3139 24.6235 10.3139 24.8719C10.3139 25.7186 11.6033 26.1035 12.8015 26.1035ZM37.4947 19.0066C36.5623 13.7417 33.3285 9.26974 28.8765 6.67953C28.8285 2.43466 25.601 0 19.9966 0C14.545 0 11.2548 2.49199 11.1242 6.67509C6.67973 9.25819 3.44818 13.7155 2.50552 18.9653C2.44374 18.9928 2.39085 19.0306 2.34819 19.0808C0.0721946 19.7457 -0.060694 21.5804 0.0148613 23.8857C0.116194 26.975 1.34019 28.747 3.3744 28.747C3.4104 28.747 3.4424 28.7346 3.47618 28.7261C6.09173 35.3225 12.5086 39.9999 19.9966 39.9999C27.485 39.9999 33.9018 35.3221 36.517 28.7248C36.5521 28.7341 36.5854 28.7466 36.6232 28.7466C38.6574 28.7466 39.8818 26.9746 39.9827 23.8852C40.0672 21.3053 39.9312 19.5613 37.4947 19.0066ZM19.9966 0.899108C22.8646 0.899108 27.5961 1.60488 27.9685 6.18531C25.569 4.97065 22.8619 4.28176 19.9966 4.28176C17.1375 4.28176 14.4357 4.96709 12.0397 6.17776C12.5353 1.43466 17.7077 0.899108 19.9966 0.899108ZM19.9966 5.18043C28.7125 5.18043 35.9072 11.844 36.7947 20.3635C26.0272 20.2124 15.7415 11.5688 15.6379 11.4808C15.5441 11.4013 15.4233 11.3648 15.3006 11.3786C15.1793 11.3933 15.069 11.4582 14.9961 11.5582C11.7046 16.0795 5.6824 18.0959 3.45174 18.7115C5.03618 10.9982 11.8522 5.18043 19.9966 5.18043ZM0.90108 23.8559C0.82597 21.5595 1.0473 20.5039 2.34774 20.0244C2.26552 20.719 2.21841 21.4244 2.21841 22.1408C2.21841 24.1301 2.54863 26.0417 3.14907 27.8301C1.31086 27.6483 0.947747 25.2888 0.90108 23.8559ZM19.9966 39.1007C11.6517 39.1007 4.70507 32.9923 3.34863 24.9955H7.68417C7.84283 26.891 10.0788 28.347 12.913 28.347C15.7468 28.347 17.9819 26.891 18.141 24.9955H22.2081C22.4641 26.8212 24.6632 28.2039 27.4263 28.2039C30.1885 28.2039 32.3885 26.8212 32.6441 24.9955H36.6441C35.2876 32.9923 28.3414 39.1007 19.9966 39.1007ZM8.55572 24.7817C8.55572 23.3364 10.5513 22.1155 12.9135 22.1155C15.2753 22.1155 17.2704 23.3364 17.2704 24.7817C17.2704 26.227 15.2753 27.4483 12.9135 27.4483C10.5513 27.4479 8.55572 26.227 8.55572 24.7817ZM23.069 24.6386C23.069 23.1932 25.0645 21.9719 27.4263 21.9719C29.7881 21.9719 31.7836 23.1932 31.7836 24.6386C31.7836 26.0839 29.7881 27.3052 27.4263 27.3052C25.0645 27.3052 23.069 26.0839 23.069 24.6386ZM32.6059 24.0968C32.2316 22.3639 30.0943 21.0728 27.4263 21.0728C24.7583 21.0728 22.6206 22.3639 22.2468 24.0968H18.061C17.6032 22.4364 15.5077 21.2164 12.913 21.2164C10.177 21.2164 7.99528 22.5728 7.70461 24.3715V24.0968H3.22063C3.14685 23.4541 3.10463 22.8026 3.10463 22.1408C3.10463 21.3084 3.16774 20.4901 3.28329 19.6893C5.16462 19.219 11.6575 17.3013 15.4295 12.4631C17.3788 14.0142 26.9028 21.163 36.8654 21.2644C36.8801 21.5546 36.8876 21.8466 36.8876 22.1404C36.8876 22.8026 36.8454 23.4541 36.7716 24.0964H32.6059V24.0968ZM39.0969 23.8559C39.0498 25.2906 38.6863 27.6528 36.8441 27.8306C37.1507 26.9159 37.3881 25.9692 37.5445 24.9955H37.5472V24.9817C37.6952 24.0559 37.7747 23.1079 37.7747 22.1408C37.7747 21.4066 37.7254 20.6839 37.6392 19.9728C39.0583 20.4253 39.1747 21.4844 39.0969 23.8559Z" fill="#0B3077"/>
</svg>
