<svg height='40px' width='39px'  fill="#0B3077" xmlns="http://www.w3.org/2000/svg" xmlns:xlink="http://www.w3.org/1999/xlink" version="1.1" x="0px" y="0px" viewBox="0 0 130 130" style="enable-background:new 0 0 130 130;" xml:space="preserve"><g><path d="M32,18h42c0.5527344,0,1-0.4477539,1-1s-0.4472656-1-1-1H32c-0.5527344,0-1,0.4477539-1,1S31.4472656,18,32,18z"></path><path d="M12,37h62c0.5527344,0,1-0.4477539,1-1s-0.4472656-1-1-1H12c-0.5527344,0-1,0.4477539-1,1S11.4472656,37,12,37z"></path><path d="M127,53H85V3c0-1.1030273-0.8974609-2-2-2H21.5859375l-0.2922363,0.2922974   c-0.0006104,0.0005493-0.0009766,0.0009766-0.0015869,0.0015259L1.2937012,21.2922974   c-0.0006104,0.0005493-0.0009766,0.0009766-0.0015869,0.0015259L1,21.5859375V107c0,1.1030273,0.8974609,2,2,2h70v18   c0,1.1030273,0.8974609,2,2,2h52c1.1025391,0,2-0.8969727,2-2V55C129,53.8969727,128.1025391,53,127,53z M21,4.4140625V21   H4.4140625L21,4.4140625z M3,107V23h20V3h60v50h-8c-0.7368164,0-1.3747559,0.4050903-1.7218018,1H12c-0.5527344,0-1,0.4477539-1,1   s0.4472656,1,1,1h61v17H12c-0.5527344,0-1,0.4477539-1,1s0.4472656,1,1,1h61v17H12c-0.5527344,0-1,0.4477539-1,1s0.4472656,1,1,1   h61v13H3z M75,127V55h52l0.0009766,72H75z"></path><path d="M122.5,59h-43c-0.8271484,0-1.5,0.6728516-1.5,1.5v20c0,0.8271484,0.6728516,1.5,1.5,1.5h43   c0.8271484,0,1.5-0.6728516,1.5-1.5v-20C124,59.6728516,123.3271484,59,122.5,59z M122,80H80V61h42V80z"></path><path d="M86.5,85h-7c-0.8271484,0-1.5,0.6728516-1.5,1.5v7c0,0.8271484,0.6728516,1.5,1.5,1.5h7c0.8271484,0,1.5-0.6728516,1.5-1.5   v-7C88,85.6728516,87.3271484,85,86.5,85z M86,93h-6v-6h6V93z"></path><path d="M86.5,99h-7c-0.8271484,0-1.5,0.6728516-1.5,1.5v7c0,0.8271484,0.6728516,1.5,1.5,1.5h7c0.8271484,0,1.5-0.6728516,1.5-1.5   v-7C88,99.6728516,87.3271484,99,86.5,99z M86,107h-6v-6h6V107z"></path><path d="M86.5,113h-7c-0.8271484,0-1.5,0.6728516-1.5,1.5v7c0,0.8271484,0.6728516,1.5,1.5,1.5h7   c0.8271484,0,1.5-0.6728516,1.5-1.5v-7C88,113.6728516,87.3271484,113,86.5,113z M86,121h-6v-6h6V121z"></path><path d="M104.5,85h-7c-0.8271484,0-1.5,0.6728516-1.5,1.5v7c0,0.8271484,0.6728516,1.5,1.5,1.5h7   c0.8271484,0,1.5-0.6728516,1.5-1.5v-7C106,85.6728516,105.3271484,85,104.5,85z M104,93h-6v-6h6V93z"></path><path d="M104.5,99h-7c-0.8271484,0-1.5,0.6728516-1.5,1.5v7c0,0.8271484,0.6728516,1.5,1.5,1.5h7   c0.8271484,0,1.5-0.6728516,1.5-1.5v-7C106,99.6728516,105.3271484,99,104.5,99z M104,107h-6v-6h6V107z"></path><path d="M104.5,113h-7c-0.8271484,0-1.5,0.6728516-1.5,1.5v7c0,0.8271484,0.6728516,1.5,1.5,1.5h7   c0.8271484,0,1.5-0.6728516,1.5-1.5v-7C106,113.6728516,105.3271484,113,104.5,113z M104,121h-6v-6h6V121z"></path><path d="M122.5,85h-7c-0.8271484,0-1.5,0.6728516-1.5,1.5v7c0,0.8271484,0.6728516,1.5,1.5,1.5h7   c0.8271484,0,1.5-0.6728516,1.5-1.5v-7C124,85.6728516,123.3271484,85,122.5,85z M122,93h-6v-6h6V93z"></path><path d="M122.5,99h-7c-0.8271484,0-1.5,0.6728516-1.5,1.5v7c0,0.8271484,0.6728516,1.5,1.5,1.5h7   c0.8271484,0,1.5-0.6728516,1.5-1.5v-7C124,99.6728516,123.3271484,99,122.5,99z M122,107h-6v-6h6V107z"></path><path d="M122.5,113h-7c-0.8271484,0-1.5,0.6728516-1.5,1.5v7c0,0.8271484,0.6728516,1.5,1.5,1.5h7   c0.8271484,0,1.5-0.6728516,1.5-1.5v-7C124,113.6728516,123.3271484,113,122.5,113z M122,121h-6v-6h6V121z"></path></g></svg>