<svg width="36" height="48" viewBox="0 0 36 48" fill="none" xmlns="http://www.w3.org/2000/svg">
<path d="M11.25 38.9998H6C5.79292 38.9998 5.625 39.1675 5.625 39.3748V43.4609C5.625 43.6118 5.71563 43.7484 5.85498 43.8067L8.62886 44.9705C8.67517 44.9899 8.7246 44.9998 8.77387 44.9998C8.82843 44.9998 8.883 44.9881 8.93336 44.9642L11.4095 43.8004C11.541 43.7385 11.625 43.6063 11.625 43.4609V39.3748C11.625 39.1675 11.4571 38.9998 11.25 38.9998ZM10.875 43.2229L8.76525 44.2146L6.375 43.2115V39.7498H10.875V43.2229Z" fill="#0B3077"/>
<path d="M30 38.9998H24.75C24.5427 38.9998 24.375 39.1675 24.375 39.3748V43.4609C24.375 43.6118 24.4654 43.7484 24.605 43.8067L27.3787 44.9705C27.4252 44.9899 27.4742 44.9998 27.5237 44.9998C27.5782 44.9998 27.6328 44.9881 27.6834 44.9642L30.1597 43.8004C30.2911 43.7385 30.375 43.6063 30.375 43.4609V39.3748C30.375 39.1675 30.2073 38.9998 30 38.9998ZM29.625 43.2229L27.5149 44.2146L25.125 43.2115V39.7498H29.625V43.2229Z" fill="#0B3077"/>
<path d="M35.9927 42.4878C35.9927 35.0548 31.3132 29.647 24.5834 27.7474C25.4425 27.3417 26.3137 26.8451 27.1937 26.2361C27.8752 25.7648 28.5648 24.6885 28.719 23.8747C29.2372 21.145 29.9619 15.1567 27.6046 10.6992C27.6951 10.5278 27.75 10.3293 27.75 10.1144V3.50685C27.75 2.87989 27.3244 2.22986 26.7993 2.0559L19.0525 0.132937C18.7863 0.044325 18.4354 0 18.0859 0C17.7469 0 17.4089 0.0417375 17.15 0.12525L9.2025 2.06325C8.67626 2.23387 8.25 2.87989 8.25 3.50685V10.1144C8.25 10.3253 8.30347 10.5201 8.39062 10.6893C6.8976 13.4824 6.17212 17.7015 7.30353 24.0857C7.44798 24.9012 8.11267 25.9823 8.81028 26.4291C9.41088 26.8136 10.22 27.2761 11.194 27.7149C4.4967 29.5833 0 35.0101 0 42.4878C0 42.4878 0 43.181 0 46.4868C0 47.3229 0.684259 48 1.5291 48H34.4733C35.3181 48 36.0007 47.3229 36 46.4868C35.9956 43.2202 35.9927 42.4878 35.9927 42.4878ZM23.3046 34.2356C22.5648 34.1444 22.0514 33.9364 21.8587 33.6496C21.7288 33.4563 21.7156 33.1641 21.8196 32.781L22.9241 28.7131L27.4255 34.9336C27.509 35.049 27.5709 35.146 27.6171 35.2266C27.501 35.2071 27.3519 35.1735 27.1637 35.116C25.686 34.6651 24.3874 34.3693 23.3046 34.2356ZM21.096 32.5843C20.7755 33.7643 21.282 34.4484 22.2953 34.7827C20.9649 36.0227 18.8361 38.5741 17.9797 42.709C17.0856 38.3247 14.7896 35.7121 13.4952 34.5425C14.1365 34.1583 14.4111 33.5306 14.154 32.5843L13.0252 28.4264C13.7272 28.6556 14.4858 28.8508 15.2878 28.9951C16.0644 29.3906 16.9541 29.625 17.9793 29.625C18.0304 29.625 18.0817 29.6242 18.1333 29.6232C18.1333 29.6232 18.1381 29.6232 18.147 29.6232C18.2593 29.6232 19.0455 29.6019 20.0856 29.1046C20.7623 29.0109 21.4548 28.8669 22.1602 28.6644L21.096 32.5843ZM11.9456 34.2356C10.8622 34.3693 9.56358 34.6655 8.08631 35.116C7.89806 35.1735 7.74938 35.2071 7.63312 35.2266C7.67925 35.146 7.74116 35.049 7.82445 34.9339L12.3259 28.7131L13.4303 32.781C13.5342 33.1641 13.5212 33.4563 13.3912 33.6496C13.1988 33.9364 12.6853 34.1444 11.9456 34.2356ZM18.1534 28.8735C18.1467 28.8732 18.1401 28.8732 18.1333 28.8732C18.1278 28.8732 18.1221 28.8732 18.1166 28.8735C18.0705 28.8742 18.0249 28.875 17.9793 28.875C12.503 28.875 11.2059 21.2018 10.9389 18.85C10.9332 18.7958 11.0145 18.6625 11.104 18.627C15.2272 17.0028 17.1444 14.272 18.0102 12.4006C19.7219 15.6881 23.3159 17.766 24.8602 18.5394C24.9584 18.5885 25.0367 18.7482 25.0265 18.813C23.4609 28.7589 18.3633 28.8732 18.1534 28.8735ZM9 3.50685C9 3.19005 9.22338 2.86084 9.41602 2.78321L17.3276 0.853987L17.3542 0.847425L17.3802 0.838987C17.5528 0.783337 17.8167 0.75 18.0859 0.75C18.3649 0.75 18.6379 0.785512 18.8159 0.8445L18.8434 0.853987L18.8719 0.860962L26.5814 2.77478C26.7744 2.85461 27 3.19665 27 3.50685V10.1144C27 10.3019 26.904 10.4531 26.8066 10.4908C25.8977 10.2821 20.5561 9.07984 18.1597 9.07984C18.1141 9.07984 18.0697 9.08021 18.0265 9.08092C15.7046 9.12596 10.1007 10.2997 9.19683 10.4923C9.09813 10.4564 9 10.3041 9 10.1144V3.50685ZM8.04198 23.955C7.08033 18.5288 7.40021 14.2584 8.97401 11.2035C9.05895 11.2306 9.14685 11.25 9.23951 11.25C9.23951 11.25 15.6094 9.8778 18.041 9.83092C18.0796 9.83021 18.119 9.82984 18.1595 9.82984C20.6711 9.82984 26.7605 11.25 26.7605 11.25C26.8524 11.25 26.9396 11.2309 27.0238 11.2042C29.1885 15.4717 28.456 21.2398 27.9822 23.7352C27.8632 24.364 27.2838 25.2619 26.7671 25.6194C25.136 26.748 23.4437 27.5457 21.7071 28.0115C23.2943 26.595 24.9796 23.9344 25.7673 18.9294C25.8318 18.5204 25.5663 18.0542 25.1961 17.8689C23.6287 17.0837 19.7835 14.8638 18.3592 11.3727C18.2241 11.0409 18.1027 10.875 17.9841 10.875C17.8643 10.875 17.7475 11.0442 17.6221 11.3829C16.9856 13.1038 15.267 16.181 10.8292 17.9293C10.4438 18.0813 10.147 18.5229 10.1937 18.9346C10.3975 20.729 11.1585 25.3176 13.7335 27.8606C11.7478 27.2758 10.173 26.4108 9.2148 25.7974C8.71507 25.4776 8.15625 24.5991 8.04198 23.955ZM35.0259 47.0244C34.879 47.1698 34.6827 47.25 34.4733 47.25H1.5291C1.09953 47.25 0.75 46.9076 0.75 46.4868V42.4878C0.75 38.1672 2.29155 34.4696 5.20788 31.7941C6.95617 30.19 9.16076 29.0383 11.6389 28.3832L7.21691 34.4941C6.52128 35.4558 6.62347 36 7.38738 36C7.62873 36 7.93578 35.9458 8.30493 35.8334C9.46125 35.4807 10.8186 35.1303 12.0373 34.9801C12.2752 34.9508 12.4959 34.9087 12.7015 34.8563C14.068 36.0253 17.6014 39.7053 17.6014 46.5C17.6014 46.7073 17.7693 46.875 17.9764 46.875C18.1835 46.875 18.3514 46.7073 18.3514 46.5C18.3514 46.4898 18.3508 46.4802 18.3508 46.47C18.3508 46.4692 18.3514 46.4685 18.3514 46.4678C18.3514 39.846 21.7881 36.2065 23.2156 34.9805C24.4336 35.131 25.7893 35.4811 26.9451 35.8334C27.3142 35.9458 27.6211 36 27.8624 36C28.6263 36 28.7285 35.4558 28.0335 34.4941L23.5221 28.2601C26.2423 28.8882 28.678 30.0871 30.6064 31.8018C33.6394 34.4985 35.2427 38.194 35.2427 42.4907C35.2427 42.4922 35.2456 43.2261 35.25 46.4875C35.25 46.69 35.1705 46.8808 35.0259 47.0244Z" fill="#0B3077"/>
<path d="M16.125 5.62476H17.6254V7.12476C17.6254 7.33202 17.7933 7.49976 18.0004 7.49976C18.2074 7.49976 18.3754 7.33202 18.3754 7.12476V5.62476H19.875C20.0823 5.62476 20.25 5.45702 20.25 5.24976C20.25 5.04249 20.0823 4.87476 19.875 4.87476H18.3754V3.37476C18.3754 3.16749 18.2074 2.99976 18.0004 2.99976C17.7933 2.99976 17.6254 3.16749 17.6254 3.37476V4.87476H16.125C15.9179 4.87476 15.75 5.04249 15.75 5.24976C15.75 5.45702 15.9179 5.62476 16.125 5.62476Z" fill="#0B3077"/>
</svg>
