<svg width="40" height="33" viewBox="0 0 40 33" fill="none" xmlns="http://www.w3.org/2000/svg">
<path d="M40 3.86754C40 1.44671 35.3469 0 30.8485 0C26.3501 0 21.6973 1.44671 21.6973 3.86754V8.83596C21.6973 8.86262 21.7009 8.88847 21.702 8.91488C21.7015 8.92361 21.6976 8.93102 21.6976 8.93988V13.8998C20.6706 13.714 19.5636 13.6187 18.4757 13.6187C17.5462 13.6187 16.6029 13.6884 15.7073 13.8245V9.9692C15.7073 9.96903 15.7072 9.96894 15.7072 9.96877C15.7072 9.96843 15.7073 9.96805 15.7073 9.96767C15.7073 7.93986 11.6608 6.8458 7.85364 6.8458C4.04649 6.8458 0 7.93986 0 9.96767C0 9.96805 7.50613e-05 9.96843 7.50613e-05 9.96877C7.50613e-05 9.96894 0 9.96903 0 9.9692V13.8838C0 13.9047 0.00300295 13.925 0.00390384 13.9458C0.00345341 13.9534 0 13.9598 0 13.9676V17.8821C0 17.9031 0.00300295 17.9234 0.00390384 17.9442C0.00345341 17.9518 0 17.9582 0 17.966V21.8805C0 21.9015 0.00300295 21.9217 0.00390384 21.9425C0.00345341 21.9502 0 21.9566 0 21.9643V25.8791C0 25.9 0.00300295 25.9202 0.0038663 25.941C0.00345338 25.9486 0 25.955 0 25.9627V29.8774C0 31.9056 4.04649 33 7.85364 33C9.88131 33 11.7823 32.7109 13.2286 32.1881C14.7026 32.7223 16.617 33 18.4757 33C20.6356 33 22.8717 32.6255 24.403 31.9085C26.0987 32.6016 28.4342 33 30.8488 33C35.3472 33 40 31.5528 40 29.1308V24.1623C40 24.153 39.9959 24.1451 39.9953 24.1359C39.9964 24.1098 40 24.0841 40 24.0577V19.0893C40 19.08 39.9959 19.0721 39.9953 19.0629C39.9964 19.0367 40 19.0111 40 18.9847V14.0165C40 14.0071 39.9959 13.9992 39.9953 13.99C39.9964 13.9638 40 13.9381 40 13.9117V8.93988C40 8.93055 39.9959 8.92271 39.9953 8.91356C39.9964 8.88758 40 8.86219 40 8.83596V3.86754ZM18.4757 14.3165C22.7381 14.3165 25.7094 15.6943 25.7139 16.9321C25.7139 16.9331 25.7134 16.9338 25.7134 16.9348V16.9411C25.7037 18.178 22.7344 19.5536 18.4757 19.5536C14.21 19.5536 11.2371 18.1735 11.2371 16.9349C11.2371 15.6964 14.21 14.3165 18.4757 14.3165ZM23.8579 22.8299C23.8492 22.8327 23.8405 22.8359 23.8321 22.8395C23.3051 23.0621 22.6714 23.2526 21.9492 23.4058C20.8946 23.6267 19.6931 23.7434 18.4748 23.7434C14.2091 23.7434 11.2362 22.363 11.2362 21.1241V18.2833C12.5083 19.5693 15.561 20.2514 18.4757 20.2514C21.389 20.2514 24.4402 19.57 25.7134 18.2851V21.1241C25.7134 21.7107 25.0203 22.3475 23.8579 22.8299ZM25.7134 22.463V25.4029C25.7134 26.1712 24.5489 26.9908 22.7474 27.4907C22.481 27.5639 22.2123 27.629 21.9492 27.6846C20.8943 27.9055 19.6928 28.0224 18.4748 28.0224C14.2091 28.0224 11.2362 26.6419 11.2362 25.4029V22.4737C12.5088 23.7594 15.5608 24.4412 18.4748 24.4412C19.73 24.4412 20.9703 24.3204 22.0615 24.0918C22.8093 23.9334 23.4696 23.7351 24.0252 23.5024C24.0324 23.5001 24.0399 23.4974 24.0471 23.4944C24.7725 23.1958 25.3302 22.8484 25.7134 22.463ZM7.85364 7.5436C12.1193 7.5436 15.0923 8.82114 15.0923 9.96767C15.0923 11.1142 12.1193 12.3917 7.85364 12.3917C3.58793 12.3917 0.615006 11.1142 0.615006 9.96767C0.615006 8.82114 3.58793 7.5436 7.85364 7.5436ZM0.615006 11.2379C1.88766 12.4479 4.93964 13.0895 7.85364 13.0895C10.7676 13.0895 13.8196 12.4479 15.0923 11.2379V13.9304C13.109 14.3109 11.4528 15.0357 10.8589 16.0752C9.90488 16.2299 8.89416 16.3087 7.85364 16.3087C3.58793 16.3087 0.615006 15.0306 0.615006 13.8838V11.2379ZM0.615006 15.1543C1.88766 16.3646 4.93964 17.0065 7.85364 17.0065C8.81 17.0065 9.74024 16.9383 10.6294 16.8107C10.6265 16.8494 10.6227 16.8878 10.6225 16.9271C10.6225 16.9298 10.6212 16.932 10.6212 16.9348V20.1072C9.73694 20.2377 8.80888 20.3071 7.85364 20.3071C3.58793 20.3071 0.615006 19.029 0.615006 17.8821V15.1543ZM0.615006 19.1527C1.88766 20.363 4.93964 21.0049 7.85364 21.0049C8.80708 21.0049 9.73446 20.937 10.6212 20.8103V21.1241C10.6212 21.1469 10.6242 21.1689 10.6251 21.1914C10.6247 21.1992 10.6212 21.2058 10.6212 21.2137V24.1056C9.73694 24.2361 8.80888 24.3054 7.85364 24.3054C3.58793 24.3054 0.615006 23.0274 0.615006 21.8805V19.1527ZM0.615006 23.1511C1.88766 24.3614 4.93964 25.0032 7.85364 25.0032C8.80708 25.0032 9.73446 24.9354 10.6212 24.8086V25.4029C10.6212 25.4272 10.6244 25.4507 10.6254 25.4748C10.6251 25.4814 10.6221 25.4869 10.6221 25.4935V28.1012C9.74385 28.2334 8.81578 28.3038 7.85364 28.3038C3.58793 28.3038 0.615006 27.0259 0.615006 25.8791V23.1511ZM7.85364 32.3022C3.58793 32.3022 0.615006 31.0243 0.615006 29.8774V27.1495C1.88766 28.3598 4.93964 29.0016 7.85364 29.0016C8.81327 29.0016 9.74092 28.9329 10.6221 28.8045V29.6837C10.6221 30.5377 11.2595 31.2351 12.2644 31.7667C10.9994 32.1126 9.47223 32.3022 7.85364 32.3022ZM18.4757 32.3022C14.21 32.3022 11.2371 30.9223 11.2371 29.6837V26.7535C12.5103 28.0387 15.5615 28.7202 18.4748 28.7202C19.7294 28.7202 20.9697 28.5994 22.0612 28.3708C22.3354 28.3128 22.615 28.245 22.8927 28.1687C24.1799 27.8115 25.1402 27.3139 25.7143 26.7301V29.6837C25.7143 30.9223 22.7414 32.3022 18.4757 32.3022ZM39.385 29.1308C39.385 30.6308 35.8793 32.3022 30.8488 32.3022C28.7671 32.3022 26.7519 32.0013 25.1846 31.4683C25.8969 30.9827 26.3293 30.3863 26.3293 29.6837V27.4371C27.6952 27.757 29.2469 27.927 30.8488 27.927C34.3655 27.927 37.9764 27.0425 39.385 25.4992V29.1308ZM39.385 24.0577C39.385 25.5578 35.8793 27.2292 30.8488 27.2292C29.2389 27.2292 27.6842 27.0535 26.3293 26.7237V25.4935C26.3293 25.4833 26.325 25.4747 26.3242 25.4648C26.325 25.4441 26.3284 25.4237 26.3284 25.4029V22.3603C27.6943 22.6803 29.2463 22.8506 30.8488 22.8506C34.3655 22.8506 37.9764 21.9667 39.385 20.4249V24.0577ZM39.385 18.9847C39.385 20.4832 35.8793 22.1528 30.8488 22.1528C29.2383 22.1528 27.6832 21.977 26.3284 21.6469V21.2137C26.3284 21.2064 26.3252 21.2004 26.3248 21.1932C26.3257 21.1701 26.3284 21.1473 26.3284 21.1241V17.2873C27.6943 17.6073 29.2463 17.7775 30.8488 17.7775C34.3655 17.7775 37.9764 16.8937 39.385 15.3518V18.9847ZM39.385 13.9117C39.385 15.4102 35.8793 17.0797 30.8488 17.0797C29.2218 17.0797 27.6512 16.9005 26.2868 16.5638C26.0101 15.3478 24.3819 14.4889 22.3126 14.0238V10.2771C23.7214 11.8194 27.332 12.7035 30.8485 12.7035C34.3652 12.7035 37.9763 11.8192 39.385 10.2767V13.9117ZM39.385 8.83596C39.385 10.3351 35.879 12.0057 30.8485 12.0057C25.8179 12.0057 22.3123 10.3351 22.3123 8.83596V5.30833C23.7209 6.85091 27.3318 7.73508 30.8485 7.73508C34.3652 7.73508 37.9763 6.85082 39.385 5.30829V8.83596ZM30.8485 7.03728C25.8179 7.03728 22.3123 5.36672 22.3123 3.86754C22.3123 2.36836 25.8179 0.6978 30.8485 0.6978C35.879 0.6978 39.385 2.36836 39.385 3.86754C39.385 5.36672 35.879 7.03728 30.8485 7.03728Z" fill="#0B3077"/>
</svg>
