<svg width="40" height="41" viewBox="0 0 40 41" fill="none" xmlns="http://www.w3.org/2000/svg">
<path d="M20 0C13.5522 0 8.49557 2.13449 5.10671 6.46726C1.71784 10.8 0 17.2623 0 25.869C0.00292683 26.2538 0.57101 26.4811 0.838415 26.2046L2.42378 24.6183C2.65018 32.8315 9.89972 41 19.0244 41C23.2664 41 26.931 39.7411 29.7104 37.3393C32.0346 35.3308 33.6518 32.8034 34.5579 29.4077L34.6494 29.8653C34.7305 30.2285 35.2977 30.348 35.5183 30.0484C37.9497 26.6424 40 24.035 40 18.5476C40 14.6342 38.1198 12.0577 35.9756 11.3634C34.5034 7.97166 32.6697 5.13178 30.122 3.14211C27.5342 1.1212 24.2324 0 20 0ZM20 0.97619C24.0603 0.97619 27.1 2.03618 29.5122 3.91999C31.9244 5.80384 33.7241 8.52707 35.1677 11.8973C35.2226 12.036 35.3444 12.1464 35.4878 12.1872C37.1421 12.601 39.0244 14.8055 39.0244 18.5476C39.0244 23.298 37.4819 25.6345 35.3811 28.5688L34.1311 22.3456C34.0693 22.0397 33.6658 21.8632 33.3994 22.0253C32.2695 22.7261 31.3611 23.2743 30.1677 23.8557C29.7965 22.1671 29.7561 20.7593 29.7561 18.0595C29.7659 17.7083 29.3065 17.4457 29.0091 17.6324C25.3424 19.9255 22.5424 20.8879 17.6982 21.8118L18.5213 17.6629C18.5885 17.3117 18.159 16.9775 17.8354 17.1291L7.21037 22.2083L6.82927 19.9204C6.77398 19.5607 6.23938 19.3953 5.99085 19.6611L1.03659 24.6183C1.20532 16.8103 2.84038 10.9342 5.8689 7.06216C9.0654 2.97529 13.7649 0.97619 20 0.97619ZM17.378 18.4256L16.6006 22.3456C16.536 22.6568 16.852 22.9815 17.1646 22.9253C22.2086 22.0076 25.2021 21.0216 28.7957 18.8832C28.8016 21.1612 28.8496 22.6804 29.2683 24.4048C29.3336 24.6652 29.4628 24.8348 29.6493 24.9234C29.9839 25.0114 30.2978 24.8472 30.564 24.7402C31.545 24.2832 32.4464 23.7489 33.3231 23.2149L34.0853 27.0586C33.3363 31.2111 31.5943 34.4104 29.0701 36.5918C26.4836 38.8269 23.075 40.0237 19.0243 40.0237C10.1327 40.0237 3.06324 31.566 3.41459 23.6267L6.00605 21.0337L6.34142 23.0166C6.39394 23.3157 6.77197 23.5048 7.04263 23.3674L17.378 18.4256ZM11.9055 27.2722C11.1996 27.3429 10.5474 27.6085 10.0305 27.8671C9.76967 27.9569 9.62969 28.2963 9.7513 28.544C9.87291 28.7917 10.2269 28.8882 10.4573 28.7365C10.916 28.507 11.4833 28.2845 11.997 28.2332C12.5106 28.1818 12.9351 28.2718 13.3079 28.645C13.4875 28.8287 13.818 28.8323 14.0015 28.6528C14.1851 28.4731 14.1887 28.1425 14.0091 27.9588C13.3243 27.395 12.6673 27.2558 11.9055 27.2722ZM24.0396 27.9587C23.86 28.1423 23.8637 28.473 24.0472 28.6527C24.2308 28.8324 24.5613 28.8288 24.7409 28.6449C25.1137 28.2719 25.5382 28.1817 26.0518 28.2331C26.5655 28.2844 27.1327 28.5069 27.5915 28.7364C27.8219 28.8881 28.1759 28.7916 28.2975 28.5439C28.4191 28.2962 28.2791 27.9568 28.0183 27.867C27.5014 27.6084 26.8492 27.3428 26.1433 27.2721C25.3693 27.2214 24.4848 27.5284 24.0396 27.9587ZM16.2558 32.8089C16.0735 32.996 16.0354 33.3418 16.2348 33.526C16.8663 34.1579 17.8339 34.4107 18.7805 34.4107C19.7271 34.4107 20.6947 34.1579 21.3262 33.526C21.5058 33.3424 21.5022 33.0117 21.3186 32.832C21.135 32.6523 20.8046 32.656 20.625 32.8398C20.2809 33.1841 19.5412 33.4347 18.7805 33.4347C18.0198 33.4347 17.2801 33.1842 16.936 32.8398C16.6006 32.6069 16.4341 32.6706 16.2558 32.8091L16.2558 32.8089Z" fill="#0B3077"/>
</svg>
