<svg width="38" height="38" viewBox="0 0 38 38" fill="none" xmlns="http://www.w3.org/2000/svg">
<path d="M38 1.33437C38 0.598603 37.4014 0 36.6656 0H1.33437C0.598603 0 0 0.598603 0 1.33437V36.6656C0 37.4014 0.598603 38 1.33437 38H36.6656C37.4014 38 38 37.4014 38 36.6656V1.33437ZM37.4154 36.6656C37.4154 37.079 37.079 37.4154 36.6656 37.4154H1.33437C0.921026 37.4154 0.584615 37.079 0.584615 36.6656V8.88912H37.4154V36.6656ZM37.4154 8.30451H0.584615V1.33437C0.584615 0.921026 0.921026 0.584615 1.33437 0.584615H36.6656C37.079 0.584615 37.4154 0.921026 37.4154 1.33437V8.30451Z" fill="#0B3077"/>
<path d="M33.1633 2.73071C32.1449 2.73071 31.3164 3.55911 31.3164 4.57748C31.3164 5.59584 32.1449 6.42424 33.1633 6.42424C34.1817 6.42424 35.0101 5.59584 35.0101 4.57748C35.0101 3.55911 34.1817 2.73071 33.1633 2.73071ZM33.1633 5.83962C32.4672 5.83962 31.901 5.27342 31.901 4.57748C31.901 3.88153 32.4672 3.31533 33.1633 3.31533C33.8593 3.31533 34.4255 3.88153 34.4255 4.57748C34.4255 5.27342 33.8593 5.83962 33.1633 5.83962Z" fill="#0B3077"/>
<path d="M28.1529 2.73071C27.1345 2.73071 26.3062 3.55911 26.3062 4.57748C26.3062 5.59584 27.1345 6.42424 28.1529 6.42424C29.1713 6.42424 29.9998 5.59584 29.9998 4.57748C29.9998 3.55911 29.1713 2.73071 28.1529 2.73071ZM28.1529 5.83962C27.457 5.83962 26.8908 5.27342 26.8908 4.57748C26.8908 3.88153 27.457 3.31533 28.1529 3.31533C28.849 3.31533 29.4152 3.88153 29.4152 4.57748C29.4152 5.27342 28.849 5.83962 28.1529 5.83962Z" fill="#0B3077"/>
<path d="M23.1427 2.73071C22.1243 2.73071 21.2959 3.55911 21.2959 4.57748C21.2959 5.59584 22.1243 6.42424 23.1427 6.42424C24.161 6.42424 24.9894 5.59584 24.9894 4.57748C24.9894 3.55911 24.161 2.73071 23.1427 2.73071ZM23.1427 5.83962C22.4467 5.83962 21.8805 5.27342 21.8805 4.57748C21.8805 3.88153 22.4467 3.31533 23.1427 3.31533C23.8386 3.31533 24.4048 3.88153 24.4048 4.57748C24.4048 5.27342 23.8386 5.83962 23.1427 5.83962Z" fill="#0B3077"/>
<path d="M18.3729 4.28516H3.28254C3.12112 4.28516 2.99023 4.41604 2.99023 4.57746C2.99023 4.73889 3.12112 4.86977 3.28254 4.86977H18.3729C18.5344 4.86977 18.6652 4.73889 18.6652 4.57746C18.6652 4.41604 18.5344 4.28516 18.3729 4.28516Z" fill="#0B3077"/>
<path d="M5.79035 33.187H20.8452V33.7635C20.8452 34.4543 21.4073 35.0163 22.0981 35.0163C22.7889 35.0163 23.3509 34.4543 23.3509 33.7635V33.187H26.607C26.7684 33.187 26.8993 33.0561 26.8993 32.8947C26.8993 32.7332 26.7684 32.6024 26.607 32.6024H23.3509V32.3249C23.3509 31.6341 22.7889 31.072 22.0981 31.072C21.4073 31.072 20.8452 31.6341 20.8452 32.3249V32.6024H5.79035C5.62893 32.6024 5.49805 32.7332 5.49805 32.8947C5.49805 33.0561 5.62893 33.187 5.79035 33.187ZM21.4298 32.3249C21.4298 31.9564 21.7295 31.6566 22.0981 31.6566C22.4666 31.6566 22.7663 31.9564 22.7663 32.3249V33.7635C22.7663 34.132 22.4666 34.4317 22.0981 34.4317C21.7295 34.4317 21.4298 34.132 21.4298 33.7635V32.3249Z" fill="#0B3077"/>
<path d="M5.79035 27.3466H9.04742V27.7749C9.04742 28.4657 9.60948 29.0278 10.3003 29.0278C10.9911 29.0278 11.5532 28.4657 11.5532 27.7749V27.3466H26.607C26.7684 27.3466 26.8993 27.2157 26.8993 27.0543C26.8993 26.8929 26.7684 26.762 26.607 26.762H11.5532V26.3364C11.5532 25.6456 10.9911 25.0835 10.3003 25.0835C9.60948 25.0835 9.04742 25.6456 9.04742 26.3364V26.762H5.79035C5.62893 26.762 5.49805 26.8929 5.49805 27.0543C5.49805 27.2157 5.62893 27.3466 5.79035 27.3466ZM9.63203 26.3364C9.63203 25.9678 9.93176 25.6681 10.3003 25.6681C10.6688 25.6681 10.9685 25.9678 10.9685 26.3364V27.0536C10.9685 27.0539 10.9684 27.054 10.9684 27.0543C10.9684 27.0546 10.9685 27.0547 10.9685 27.055V27.7749C10.9685 28.1434 10.6688 28.4432 10.3003 28.4432C9.93176 28.4432 9.63203 28.1434 9.63203 27.7749V26.3364Z" fill="#0B3077"/>
<path d="M5.79035 21.5089H20.8452V21.7864C20.8452 22.4772 21.4073 23.0393 22.0981 23.0393C22.7889 23.0393 23.3509 22.4772 23.3509 21.7864V21.5089H26.607C26.7684 21.5089 26.8993 21.3781 26.8993 21.2166C26.8993 21.0552 26.7684 20.9243 26.607 20.9243H23.3509V20.3478C23.3509 19.657 22.7889 19.095 22.0981 19.095C21.4073 19.095 20.8452 19.657 20.8452 20.3478V20.9243H5.79035C5.62893 20.9243 5.49805 21.0552 5.49805 21.2166C5.49805 21.3781 5.62893 21.5089 5.79035 21.5089ZM21.4298 20.3478C21.4298 19.9793 21.7295 19.6796 22.0981 19.6796C22.4666 19.6796 22.7663 19.9793 22.7663 20.3478V21.7864C22.7663 22.1549 22.4666 22.4547 22.0981 22.4547C21.7295 22.4547 21.4298 22.1549 21.4298 21.7864V20.3478Z" fill="#0B3077"/>
<path d="M29.4186 19.7933C31.7635 19.7933 33.6712 17.8856 33.6712 15.5407C33.6712 13.1958 31.7635 11.2881 29.4186 11.2881C27.0737 11.2881 25.166 13.1958 25.166 15.5407C25.166 17.8856 27.0737 19.7933 29.4186 19.7933ZM29.4186 11.8727C31.4411 11.8727 33.0866 13.5182 33.0866 15.5407C33.0866 17.5631 31.4411 19.2087 29.4186 19.2087C27.3961 19.2087 25.7506 17.5631 25.7506 15.5407C25.7506 13.5182 27.3961 11.8727 29.4186 11.8727Z" fill="#0B3077"/>
<path d="M28.4811 17.0715C28.5382 17.1286 28.613 17.1571 28.6878 17.1571C28.7626 17.1571 28.8374 17.1286 28.8945 17.0715L31.5427 14.4233C31.6568 14.3091 31.6568 14.1241 31.5427 14.01C31.4285 13.8958 31.2435 13.8958 31.1293 14.01L28.6878 16.4515L27.7078 15.4715C27.5937 15.3573 27.4087 15.3573 27.2945 15.4715C27.1803 15.5857 27.1803 15.7707 27.2945 15.8848L28.4811 17.0715Z" fill="#0B3077"/>
</svg>
