<svg width="42" height="42" viewBox="0 0 42 42" fill="none" xmlns="http://www.w3.org/2000/svg">
<path d="M21.9184 16.3362C22.6795 14.7936 23.0735 13.1 23.0704 11.3845C23.0687 10.3514 22.9235 9.32345 22.6389 8.32925C22.0132 6.10309 20.7143 4.11785 18.9155 2.63803C17.1167 1.15822 14.9034 0.254101 12.5703 0.0461501C10.2373 -0.161801 7.89543 0.336289 5.85672 1.47405C3.818 2.61181 2.17927 4.33522 1.15887 6.41465C0.853346 7.02907 0.605979 7.66999 0.41992 8.32925C-0.139973 10.3179 -0.139973 12.4193 0.41992 14.408C1.04025 16.6405 2.33704 18.6329 4.13682 20.1189C5.93661 21.6048 8.15358 22.5134 10.4912 22.723C12.8288 22.9327 15.1756 22.4334 17.2177 21.2921C19.2598 20.1507 20.8998 18.4216 21.9184 16.3362ZM20.6653 17.1373C20.5506 17.3138 20.4359 17.4903 20.3119 17.6578C20.188 17.8253 20.1559 17.857 20.0779 17.9565C19.9998 18.0561 19.8438 18.2507 19.7199 18.4092C19.5959 18.5676 19.5363 18.6083 19.4399 18.7034C19.3435 18.7984 19.1966 18.9659 19.0681 19.0881L18.7514 19.3687C18.6183 19.4819 18.4898 19.595 18.3521 19.7037C18.2144 19.8123 18.1226 19.8802 18.0079 19.9662C17.8931 20.0522 17.7325 20.1653 17.5902 20.2604L17.2139 20.4958L16.7549 20.7492L16.3556 20.9529L16.0802 21.0842C15.5317 18.8016 15.7608 16.4045 16.7319 14.2631L21.1151 16.3588C21.0188 16.5353 20.927 16.7164 20.8214 16.8929C20.7755 16.9653 20.7158 17.0468 20.6562 17.1373H20.6653ZM2.40729 5.6135C2.52203 5.43698 2.63677 5.26046 2.7607 5.09299C2.83413 4.99341 2.91675 4.89836 2.99478 4.79878C3.0728 4.69921 3.22885 4.50005 3.35278 4.34616L3.62816 4.05648C3.75668 3.92522 3.8806 3.79396 4.00911 3.66722C4.13762 3.54049 4.21565 3.48165 4.32122 3.39112C4.42678 3.3006 4.58283 3.16029 4.72052 3.04713L5.06476 2.79366C5.20245 2.68956 5.34473 2.58998 5.48701 2.49493C5.6293 2.39988 5.73486 2.33651 5.85879 2.26409L6.31776 2.00157L6.71248 1.80242L6.99246 1.67116C7.53644 3.9624 7.29764 6.36669 6.31317 8.51029L1.93913 6.41465C2.03552 6.23813 2.12731 6.05255 2.23287 5.88055C2.28795 5.79003 2.35221 5.70856 2.40729 5.6135ZM22.0652 8.89503C22.0652 8.9946 22.1157 9.09418 22.1341 9.19376C22.1524 9.29333 22.1937 9.47891 22.2213 9.62375C22.2488 9.76859 22.2672 9.96322 22.2901 10.1307C22.3131 10.2982 22.3223 10.4158 22.336 10.5562C22.3498 10.6965 22.336 10.9001 22.359 11.0721C22.3819 11.2441 22.359 11.3573 22.359 11.4976C22.359 11.6379 22.359 11.8416 22.359 12.0181C22.359 12.1946 22.359 12.2942 22.3314 12.43C22.3039 12.5658 22.2855 12.7831 22.258 12.9596C22.2305 13.1361 22.2213 13.2266 22.1983 13.3579C22.1754 13.4892 22.1157 13.7245 22.0698 13.9056C22.0239 14.0866 22.0147 14.15 21.9826 14.2722C21.9229 14.4713 21.8541 14.6705 21.7853 14.8651C21.7485 14.9647 21.721 15.0688 21.6843 15.1639C21.6108 15.354 21.5236 15.5395 21.441 15.7251L17.0532 13.6295C18.1535 11.554 19.9143 9.89227 22.0652 8.89955V8.89503ZM16.4106 13.3353L11.9815 11.2215L16.5713 1.91105C17.8395 2.56766 18.9631 3.46581 19.877 4.55351C20.7908 5.6412 21.4769 6.89685 21.8954 8.24777C19.5405 9.2893 17.6089 11.081 16.4106 13.3353ZM11.3619 10.9228L6.93738 8.80903C7.99445 6.48894 8.23045 3.8859 7.60748 1.41769C8.94165 0.901057 10.367 0.652544 11.8 0.686744C13.2329 0.720944 14.6444 1.03717 15.9517 1.61684L11.3619 10.9228ZM0.99823 13.8558L0.929383 13.5525C0.901845 13.4122 0.869716 13.2719 0.846768 13.1271C0.823819 12.9822 0.79628 12.7876 0.777921 12.6201C0.759562 12.4526 0.741203 12.335 0.732024 12.1946C0.722844 12.0543 0.732024 11.8461 0.704485 11.6741C0.676947 11.5021 0.704485 11.3935 0.704485 11.2532C0.704485 11.1129 0.704485 10.9047 0.727434 10.7281C0.750383 10.5516 0.727434 10.4566 0.754972 10.3208C0.782511 10.185 0.80087 9.96322 0.828409 9.78669C0.855947 9.61017 0.860537 9.52417 0.888075 9.39291C0.915614 9.26165 0.970691 9.02629 1.01659 8.84071C1.06249 8.65513 1.07167 8.60082 1.10379 8.47861C1.15887 8.27946 1.23231 8.0803 1.30115 7.88115C1.33787 7.78157 1.36541 7.68199 1.40213 7.58694C1.47556 7.39684 1.56277 7.21127 1.64539 7.02569L6.0332 9.12134C4.92732 11.2017 3.15801 12.8654 0.99823 13.8558ZM6.64363 9.42007L11.0728 11.5338L6.48299 20.8443C5.21583 20.1862 4.09309 19.2876 3.17937 18.2001C2.26566 17.1126 1.57899 15.8577 1.15887 14.5076C3.51537 13.4684 5.44772 11.676 6.64363 9.42007ZM11.6924 11.8326L16.1215 13.9463C15.0659 16.2669 14.8316 18.8699 15.456 21.3376C14.1218 21.8507 12.6975 22.0972 11.2659 22.0631C9.8343 22.0289 8.42383 21.7146 7.11638 21.1385L11.6924 11.8326Z" fill="#0B3077"/>
<path d="M41.9572 14.974C41.9368 14.5937 41.8364 14.2217 41.6623 13.8818C41.4882 13.5418 41.2442 13.2413 40.9458 12.9995C40.6475 12.7576 40.3013 12.5797 39.9294 12.477C39.5575 12.3744 39.168 12.3492 38.7856 12.4031C37.2022 12.631 35.6331 12.9468 34.0857 13.3491C28.4801 14.8307 24.181 17.4016 21.1885 21.0618C18.196 24.722 16.5299 29.4384 16.1903 35.2108C16.1858 35.2469 16.1858 35.2834 16.1903 35.3195C16.1214 36.6094 16.1122 37.9447 16.1903 39.3931C16.2187 40.0943 16.5214 40.7575 17.0348 41.2435C17.5482 41.7296 18.2324 42.0008 18.9441 42.0002C19.0777 42.0002 19.2111 41.9911 19.3434 41.973C20.803 41.7603 22.2258 41.4797 23.5752 41.1447C23.6041 41.1491 23.6335 41.1491 23.6624 41.1447C29.2864 39.7144 33.6191 37.225 36.6606 33.6764C39.7021 30.1279 41.4447 25.5307 41.8883 19.885C42.0088 18.2508 42.0317 16.611 41.9572 14.974ZM17.6314 40.8505C17.4064 40.6682 17.2224 40.4417 17.0912 40.1852C16.96 39.9288 16.8845 39.6482 16.8695 39.3614C16.8236 38.266 16.8145 37.2386 16.842 36.2473C17.5415 37.1469 18.3422 37.9654 19.2287 38.687C20.2227 39.4948 21.3179 40.1733 22.4874 40.7057C21.4409 40.941 20.3578 41.1583 19.2746 41.2986C18.9849 41.3429 18.6889 41.3258 18.4064 41.2486C18.1239 41.1713 17.8613 41.0356 17.636 40.8505H17.6314ZM40.5114 13.5166C40.7357 13.6982 40.919 13.9242 41.0494 14.1798C41.1798 14.4355 41.2545 14.7153 41.2687 15.0012C41.3238 16.3274 41.3192 17.6174 41.2687 18.853C39.754 16.6409 37.654 14.8799 35.1965 13.761C36.376 13.4849 37.6107 13.2496 38.8683 13.0594C38.9676 13.0528 39.0673 13.0528 39.1666 13.0594C39.6555 13.0508 40.1318 13.2127 40.5114 13.5166ZM23.6303 40.4658C20.8788 39.4086 18.5202 37.5485 16.8695 35.1339C17.558 24.031 23.3641 16.9294 34.1362 14.0462C37.084 15.2003 39.5647 17.2792 41.1953 19.962C40.2773 30.7842 34.3932 37.6776 23.6303 40.4658Z" fill="#0B3077"/>
<path d="M23.6073 33.7302C23.6688 33.7815 23.7471 33.8088 23.8276 33.8072C23.8784 33.8077 23.9287 33.797 23.9748 33.7759C24.0209 33.7547 24.0616 33.7237 24.0938 33.6849L25.3652 32.1687L27.6601 34.0335C27.7199 34.0924 27.8004 34.1264 27.885 34.1285C27.9357 34.1285 27.9858 34.1175 28.0317 34.0964C28.0777 34.0753 28.1185 34.0445 28.1512 34.0063C28.2077 33.9359 28.2344 33.8467 28.2259 33.7573C28.2173 33.668 28.1741 33.5853 28.1053 33.5265L25.8104 31.6617L27.2837 29.9055L29.5786 31.7703C29.6412 31.8196 29.7188 31.8467 29.7989 31.8473C29.8701 31.8477 29.9396 31.8264 29.998 31.7862C30.0563 31.7461 30.1006 31.6891 30.1248 31.6231C30.1489 31.5571 30.1517 31.4853 30.1328 31.4177C30.1139 31.35 30.0742 31.2898 30.0192 31.2453L27.7243 29.3805L29.1976 27.6243L31.4925 29.4891C31.5552 29.5384 31.6327 29.5655 31.7128 29.5661C31.7636 29.5666 31.8139 29.556 31.86 29.5348C31.9061 29.5137 31.9468 29.4826 31.979 29.4439C32.0366 29.3739 32.0641 29.2844 32.0555 29.1947C32.0469 29.105 32.003 29.0222 31.9331 28.9641L29.6383 27.0993L31.0978 25.3205L33.3927 27.1898C33.4553 27.239 33.5329 27.2661 33.613 27.2667C33.6638 27.2673 33.7141 27.2566 33.7602 27.2355C33.8063 27.2143 33.8469 27.1832 33.8792 27.1445C33.9368 27.0746 33.9643 26.9851 33.9557 26.8954C33.9471 26.8057 33.9032 26.7229 33.8333 26.6648L31.5384 24.7999L33.0117 23.0392L35.3066 24.9041C35.3679 24.9562 35.446 24.9851 35.5269 24.9855C35.5781 24.9852 35.6285 24.9737 35.6745 24.9518C35.7206 24.9298 35.7611 24.8981 35.7931 24.8588C35.8505 24.7896 35.8778 24.7008 35.8692 24.6119C35.8606 24.5229 35.8168 24.4408 35.7472 24.3835L33.4523 22.5187L34.7099 21.0024C34.7708 20.9328 34.8011 20.8422 34.7942 20.7505C34.7874 20.6588 34.7438 20.5736 34.6732 20.5136C34.6026 20.4536 34.5107 20.4237 34.4178 20.4305C34.3248 20.4373 34.2384 20.4802 34.1775 20.5498L32.9337 22.0842L30.6388 20.2194C30.5688 20.1594 30.4775 20.1292 30.385 20.1356C30.2925 20.142 30.2063 20.1843 30.1454 20.2533C30.0846 20.3224 30.054 20.4124 30.0605 20.5037C30.0669 20.5949 30.1099 20.6799 30.1799 20.7399L32.4747 22.6093L31.006 24.3654L28.7111 22.5006C28.6766 22.4721 28.6367 22.4505 28.5937 22.4373C28.5507 22.4241 28.5054 22.4195 28.4606 22.4237C28.4157 22.4279 28.3721 22.4409 28.3324 22.4619C28.2927 22.4829 28.2576 22.5114 28.2292 22.5459C28.2001 22.5803 28.1782 22.62 28.1648 22.6628C28.1513 22.7056 28.1466 22.7506 28.1508 22.7952C28.1551 22.8398 28.1683 22.8831 28.1896 22.9227C28.2109 22.9622 28.24 22.9972 28.2751 23.0257L30.57 24.8905L29.0967 26.6467L26.8018 24.7818C26.7668 24.7521 26.7263 24.7295 26.6824 24.7152C26.6386 24.701 26.5924 24.6953 26.5463 24.6987C26.4534 24.7055 26.367 24.7484 26.3061 24.8181C26.2452 24.8877 26.2149 24.9783 26.2218 25.07C26.2287 25.1616 26.2722 25.2469 26.3428 25.3069L28.6377 27.1717L27.1644 28.9324L24.8695 27.0631C24.8345 27.0333 24.794 27.0107 24.7502 26.9964C24.7063 26.9822 24.6601 26.9766 24.614 26.9799C24.5211 26.9867 24.4347 27.0297 24.3738 27.0993C24.3129 27.1689 24.2826 27.2595 24.2895 27.3512C24.2964 27.4429 24.3399 27.5281 24.4105 27.5881L26.7054 29.4529L25.2688 31.2136L22.9739 29.3443C22.9024 29.288 22.8113 29.2617 22.7203 29.271C22.6293 29.2803 22.5457 29.3245 22.4874 29.3941C22.4369 29.4617 22.4136 29.5455 22.4221 29.6291C22.4306 29.7127 22.4702 29.7902 22.5333 29.8467L24.8282 31.7115L23.5568 33.2323C23.5251 33.2674 23.501 33.3086 23.4863 33.3534C23.4715 33.3981 23.4663 33.4454 23.4711 33.4922C23.4758 33.539 23.4904 33.5844 23.5138 33.6253C23.5373 33.6663 23.5691 33.702 23.6073 33.7302Z" fill="#0B3077"/>
</svg>
